<mxfile host="app.diagrams.net" agent="Mozilla/5.0 (X11; Ubuntu; Linux x86_64; rv:132.0) Gecko/20100101 Firefox/132.0" version="24.8.4">
  <diagram name="Page-1" id="esNXsEwKbn3HHw6m2cSx">
    <mxGraphModel dx="1687" dy="872" grid="1" gridSize="10" guides="1" tooltips="1" connect="1" arrows="1" fold="1" page="1" pageScale="1" pageWidth="1600" pageHeight="900" background="none" math="0" shadow="0">
      <root>
        <mxCell id="0" />
        <mxCell id="1" parent="0" />
        <mxCell id="Gkqs3kCMFWAFSAifoGdw-1" value="View" style="swimlane;whiteSpace=wrap;html=1;" vertex="1" parent="1">
          <mxGeometry x="60" y="40" width="400" height="640" as="geometry" />
        </mxCell>
        <mxCell id="Gkqs3kCMFWAFSAifoGdw-14" value="&lt;font style=&quot;font-size: 24px;&quot;&gt;PyQT5&lt;/font&gt;" style="rounded=1;whiteSpace=wrap;html=1;fillColor=#bac8d3;strokeColor=#23445d;" vertex="1" parent="Gkqs3kCMFWAFSAifoGdw-1">
          <mxGeometry x="50" y="350" width="290" height="200" as="geometry" />
        </mxCell>
        <mxCell id="Gkqs3kCMFWAFSAifoGdw-15" value="&lt;font style=&quot;font-size: 24px;&quot;&gt;Voice-Output&lt;br&gt;&lt;/font&gt;" style="rounded=1;whiteSpace=wrap;html=1;fillColor=#bac8d3;strokeColor=#23445d;" vertex="1" parent="Gkqs3kCMFWAFSAifoGdw-1">
          <mxGeometry x="50" y="80" width="290" height="200" as="geometry" />
        </mxCell>
        <mxCell id="Gkqs3kCMFWAFSAifoGdw-6" value="Presenter" style="swimlane;whiteSpace=wrap;html=1;" vertex="1" parent="1">
          <mxGeometry x="580" y="40" width="400" height="640" as="geometry" />
        </mxCell>
        <mxCell id="Gkqs3kCMFWAFSAifoGdw-16" value="&lt;font style=&quot;font-size: 24px;&quot;&gt;Config&lt;/font&gt;" style="rounded=1;whiteSpace=wrap;html=1;fillColor=#b0e3e6;strokeColor=#0e8088;" vertex="1" parent="Gkqs3kCMFWAFSAifoGdw-6">
          <mxGeometry x="55" y="350" width="290" height="200" as="geometry" />
        </mxCell>
        <mxCell id="Gkqs3kCMFWAFSAifoGdw-17" value="&lt;font style=&quot;font-size: 24px;&quot;&gt;Voice-Generation&lt;br&gt;&lt;/font&gt;" style="rounded=1;whiteSpace=wrap;html=1;fillColor=#b0e3e6;strokeColor=#0e8088;" vertex="1" parent="Gkqs3kCMFWAFSAifoGdw-6">
          <mxGeometry x="55" y="80" width="290" height="200" as="geometry" />
        </mxCell>
        <mxCell id="Gkqs3kCMFWAFSAifoGdw-7" value="Model" style="swimlane;whiteSpace=wrap;html=1;" vertex="1" parent="1">
          <mxGeometry x="1070" y="40" width="500" height="850" as="geometry" />
        </mxCell>
        <mxCell id="Gkqs3kCMFWAFSAifoGdw-32" style="edgeStyle=orthogonalEdgeStyle;rounded=0;orthogonalLoop=1;jettySize=auto;html=1;exitX=0.5;exitY=1;exitDx=0;exitDy=0;entryX=0.5;entryY=0;entryDx=0;entryDy=0;" edge="1" parent="Gkqs3kCMFWAFSAifoGdw-7" source="Gkqs3kCMFWAFSAifoGdw-24" target="Gkqs3kCMFWAFSAifoGdw-25">
          <mxGeometry relative="1" as="geometry" />
        </mxCell>
        <mxCell id="Gkqs3kCMFWAFSAifoGdw-24" value="&lt;font style=&quot;font-size: 24px;&quot;&gt;State-Machine&lt;/font&gt;" style="rounded=1;whiteSpace=wrap;html=1;fillColor=#fad7ac;strokeColor=#b46504;" vertex="1" parent="Gkqs3kCMFWAFSAifoGdw-7">
          <mxGeometry x="140" y="70" width="220" height="110" as="geometry" />
        </mxCell>
        <mxCell id="Gkqs3kCMFWAFSAifoGdw-26" value="" style="group" vertex="1" connectable="0" parent="Gkqs3kCMFWAFSAifoGdw-7">
          <mxGeometry x="58.87" y="225" width="382.25" height="370" as="geometry" />
        </mxCell>
        <mxCell id="Gkqs3kCMFWAFSAifoGdw-12" value="" style="shape=image;verticalLabelPosition=bottom;labelBackgroundColor=default;verticalAlign=top;aspect=fixed;imageAspect=0;image=data:image/png,iVBORw0KGgoAAAANSUhEUgAAAi0AAAH+CAYAAABQqz5uAAAABHNCSVQICAgIfAhkiAAAABl0RVh0U29mdHdhcmUAZ25vbWUtc2NyZWVuc2hvdO8Dvz4AAAApdEVYdENyZWF0aW9uIFRpbWUARGkgMDMgRGV6IDIwMjQgMTU6Mzk6MTYgQ0VUl29MOQAAIABJREFUeJzsnXd8FVXax38zc+/cm94ASUJvApGlCAoCShNQAQsgFkRZccG+lrW31WVZd61rAVGKXdCFFxAV0QQVEWlKESmhJSH0SNptU573j5szOXcyNwQFTTnfD5fcMn3OnPM7z/Oc50hERBAIBAKBQCCo5ch/9AEIBAKBQCAQ1AQhWgQCgUAgENQJhGgRCAQCgUBQJxCiRSAQCAQCQZ1AiBaBQCAQCAR1AiFaBAKBQCAQ1AmEaBEIBAKBQFAnEKJFIBAIBAJBnUCIFoFAIBAIBHUC1x99AAKBoH7BkmyfTLJtSZIi/goEAoETkkjjLxAIePgqIdp7WZZhmiYAWH8VRYEs/3bjrWmaMAwDpmlCURQoigLDMKAoivU7248kSSAiIXYEggaCEC0CgSCCaEKFiQXDMCyR4HJFGmvLy8tx6NAh7NixAxs3bsS+ffsQDAYRCoUQCAQQCASgqipiY2OhqipiYmLQokULdO/eHWeeeSZSU1MRHx8fsc1AIGCJFFmWIcsydF2H2+22lhGiRSBoGAjRIhA0cJilglUF/HsAMAzDsqzoug6v12v9tn//fnz77bfYtm0bNm3ahB07dsDlcqFp06Zo2rQpMjIykJSUBLfbjZiYGKiqimAwCL/fj2AwiLKyMuTl5aGwsBBHjhyBqqpo3rw5evTogU6dOuGCCy5Ao0aNrP2FQqEIocS7laIdP/+dEDcCQd1GiBaBoAFTnWCRJAmGYQAIW1mYZcPv92PFihWYO3cudu7cibi4OLRv3x7nn38+unXrhiZNmiA9Pf2kBIJhGDh06BAKCwuxadMm5OTkYPfu3QgGg2jfvj2mTJmCPn36QFVVAICmaZBlGYqiRBwvOyf7ZyFaBIL6gRAtAkEDh2/M7SKGd8McOXIEL730EpYuXQqPx4NLLrkEI0aMQNeuXatsk1lleAFhj3chIuulqqqjoFi/fj0WLVqETz/9FC6XC5dddhluuukmpKamWsenKEoVscW2zz4LwSIQ1A+EaBEIGjD2+BXWuLPAV1mWUVRUhJdeegnvvPMOOnXqhNtvvx0DBw603DTMGsPWZS+GkyXH/pffPxFFxLAAYbdQdnY2nnnmGRQWFmLChAm47bbbEB8fD13XIUmSFXPDu4yYa0uWZSFcBIJ6gBAtAkEDhhcMfOPv8XgAAG+//TZefPFFdOjQATfffDP69+8PICxUmFg5UUBsNEtONDHDL8dGEvH7WLFiBf773/9i//79ePDBB3HZZZcBCLuM2Agj/njso40EAkHdRYgWgaABw7uB2HtVVbFz507cddddKCkpwRNPPIFBgwYBCFs8mOXCbtlg2ANha2ppcQqgZRiGYbmqmDBZsmQJpk6ditatW+OZZ55BZmYmgsGgNUzaNE0QUYSQEaJFIKjbiIy4AkEDwckNwyNJElRVxfvvv49Ro0bh7LPPRnZ2NgYNGoRQKFRl5A6zXrA8LbylxO4msr+3/3VajxcYvBDRdR1+vx8jR45ETk4OMjMzcdFFF+HTTz+Fx+MBEVmBunZxxJ+36K8JBHUPYWkRCBoQTnEdLH7FNE3ceeed+OqrrzBz5kz07t0bmqYBqBQofLyJXaTwv53K42Xw4ogP4AWA5cuX4/bbb8eYMWPwj3/8w3IrsdFFLKbFfuwizkUgqFsI0SIQNBDsQbe6rgMIx6T4fD6MGDECXq8X8+bNQ2JiIkKhkDUyh72qy39yugSAfft8kjsigmEY8Hg8OHz4MMaOHYukpCTMnz8fXq8XwWAQqqpC1/UqlhcxdYBAUPcQ7iGBoAHC0uSrqoqDBw+id+/eaNeuHT799FPExsYiGAzC5XJFiBb76KA/QrDwf1lsjaIoCAaDaNKkCb744gvExsZi4MCBOHbsGDweDzRNcxwSLRAI6h5CtAgEDQzmWvF6vdi5cycGDRqEK664Aq+//rrVwDO3ilMcCP9yCqg9lVS3ff4YVFVFKBQCEeGDDz5A3759MXDgQBQUFEBV1ahxNwKBoG4h3EMCQT2kuseaTUS4b98+DBkyBLfeeiv++te/Wu4gABF5WoDa1cDz56brOlwuV8QoKFmW4XK5MG3aNMyaNQsrV65E06ZNrSHdgHNgsEAgqP24TryIQCCoizjlPmGfjx49iksuuQQTJ060BAvv8uGHCdfWYFXmImKxLUysmKYJv9+PBx98EKFQCMOGDUNOTg5SUlKsOB5mSaqN5yUQCKIjLC0CQT0kmisFCFtRzj//fPTt2xfPPvusldvEHqgK1N4U+LzLyDTNCMHFAnU1TYPH48HNN9+M3NxcLFu2zBI4kiRZFppTPeJJIBCcPoRoEQjqIeyxZrEcLHutqqq4+uqrIcsy3n33XSuGBYBlXYk28WBtwSn41z40mv3GXEIjR45E+/bt8fLLL8Pv90NV1Vrp+hIIBNUjuhgCQT2GZa5lI4WmT5+OnTt3YtasWZarhI3CYfBWmdMVYPtbcEoYZ/8dqMwtoygK5s+fjy+//BLvvPMOYmJiRII5gaCOIiwtgnqHU3p49r3T5z+SE6WxPxWiQdM0qKqKDRs2YNSoUVi6dCm6du1qZbhl7hWWYK4uukucgnMNw7Dyurjdbnz33Xe48sor8fnnn6Njx47VnquwvggEtRMhWgT1nurES03jNX5rXEe09e0uDvsyJ7NfJ3cJs0QYhoG+ffviL3/5C2666SZrpBCfsK0ux3jw1RhzhfHZb3Vdh8fjwbRp0/D5559j+fLl1jJ18XwFgoaKEC2Cekc0dwGL7+AbM34dp5mI+fWry0cSTZDY17cvW1NLi128OB0DcwXxMDHy9NNPIzs7G5988ok18SDbDi9eamPQbU1wujf8d/yM1H369MHEiRPxl7/8BZqmWfMpiRwuAkHtR4gWQb2jugaMvQcqBQE/+sTJ0sEwDMPqmbP17FlinfZvH9XidEx2QXKiY7ELMAa/X7ad3bt3Y9iwYViwYAG6du1qnYd9v3WdaJYqIDw7NRAORF69ejVuvPFG5OTkoFGjRpZ1ySnFv0AgqF0I0SKod9hdI06igf3GlrVPqAdEzkIczepyqlxGToGhTrE3/DHbLTB2AcVcIjfccAPS0tLw7LPPIhAIwO12W/ErTlafuthgV2cFY7BJFFVVxZ///GekpqbimWeeQTAYtCxPwtIiENRuhGgRnDZOV9GK1jjZG3O7APgt8Qu8RYaNxjFNE7quQ9d1GIYBXddhmiY0TYOmadY6LLusx+OBoihQVdX6y4be2nv5pypja25uLi6//HIsW7YMTZs2tY6lITTOTpYp5g7Lzc3FpZdeipycHDRu3Djit7oajCwQNASEaBGcdk5F750VU+aSYVYR1uDXZP3S0lKUl5ejrKwMZWVl8Pl8KCkpQXFxMUpKSqz37Df2Kikpsd77/X6Ul5cjEAhY27W/GOxYAVQRI/xLURTL+uFyueB2u+F2uxETEwOXywWv14vExETEx8dbfxMSEhAXF4eEhAQkJSUhJibGEkFxcXGQZRlJSUmYOnUqUlJS8Pzzz0PX9YhMt+y46it2CxVL8c+Gf0+aNAlpaWl4+umnq8S2CNEiENROhGgRnDaqs4bYv2MNON8jtosd1qjYMQwDfr8ffr8fR48exZ49e7Br1y4UFhYiLy8PRUVFKC8vt0QL++vz+awAzfqCJEnwer2W4PF4PPj666/RokULK5aFWZ3qqivoZHAKcmaWlJ9++glXXnklli9fjqZNmwJAvYz1EQjqE2LuIcFphw8a5YWJJElWgCRrJDweT9TtlJeXY9euXSgoKMD+/fuxb98+FBYWYv/+/di7dy8OHTqEsrKy0ypEZFmGx+OxRAETAIqiWKnwXS5XxG+sdx8MBmEYBjRNg2EYlktJ13Vomma5mX7L8RORJeAAYPz48WjVqpWVBZYt4yQK6xvRRoQxwXbWWWehZcuWWLRoEW655RZommaNpBIIBLUTIVoEpxU+VoMfbcN6u16vN2L5srIyHD9+HMXFxcjNzcW2bduQm5uL7du348iRIzh69CiOHz9uZXOt6TF4PB7ExcVZLhT2OTk5GY0aNUJaWhoSExORlJRkuV9iYmIQExODxMRExMXFwe12W4KETwPPxArvruIFiyzLljjhRx3xcTDsxUQLi5cxTROBQMByW5WUlKCsrAylpaVVXux3XdcRDAaxZ88e9O7dG0RkWakaioUFqH44OROG11xzDWbPno1bbrnFEiwN5foIBHUR4R4SWPyWouA0xJhZVFgMgR1d17F9+3asW7cOP//8M/Ly8pCfn4+dO3fi0KFDJ7XvtLQ0NGnSBBkZGWjcuDHS09ORlpaGpk2bIi0tDQkJCUhJSUFSUhJSUlKQnJxcrxum7777DhMnTsTatWuRkJBgZYdlgbgNSbzw2F1E+/fvx6hRo/Duu++iY8eOYsizQFDLEZYWgcWJMrZGgwU5AoiwNvDBjOXl5di3bx/27duHDRs2YM2aNdi6dSuKiopQVFR0wmNr0qQJGjdujMaNG6NFixbo3LkzWrZsiRYtWiA9PR2xsbHweDzwer1VrDdOMKuGfSgzf05Oo0jsn+0uCDbCyD50mk/6Fm0IdTSiHaP9O3Yf3G43Fi5ciOHDhyMhIcEKwLUHCjdE0cJg1q9mzZqhXbt2+Oijj/DII4/AMIyosVNORMvJ01Cvq0BwuhGiRWBhzxXCN6h2sznv6mEuE4au6zhy5Ag2bdqEtWvXYuPGjcjLy8P27dtRXFwcdf9erxdxcXHIyMhA27Zt0blzZ7Rr1w6ZmZlo3rw5MjMzkZiYeMLz4N0t0YYPs1E77H00N0K0jLTRlovW4LFjiCZOoh1Ddcfm9B0btrtixQo88MADEUJFkiSoqhoRU9TQYDEtfMD3wIED8eWXX/6qAGWnoePV3T+BQPDbEKJFUAW7WGEVL4u18Hg8EY2zz+fDDz/8gB9//BGbN2/GmjVrsHfvXpSUlEQNKk1ISEDHjh3RqVMnNG/eHJ06dUJWVhYyMjKQnJzs6E4CYFlHojUW7C8bPszOw74sj1PApv03J0uM03InEiXRthPtGKo7Nv47JtBcLhcOHjwIIkJWVlaE1YcPRK3uetRn7PlwAGDgwIF49dVXUVRUhNTU1CpTIVRHtPvuVC4FAsFvR4gWgYXdkmLvkTMhYRgG9u/fjw0bNuDjjz/GunXrsH37dit3iZ2EhASkpqaiU6dO6N27N84++2y0bt0aLVq0QEJCguM6/Cgae3BrTS0WNXXB1MTSYv9c3fdOVNe4RXMxnOjY7Osz19DKlSsRHx+Pdu3aRWS95a+LtS1JgkQEkiSACBIAAgAJkCrekEThL9i+2ToR7yWg4tQlhDfCthPergQCQZLC30sU/gwp/Ev4n1Sx34rjZAuj4rgqjjG8TMVxUcUuKv6TED4XdsjVwcRby5Yt4Xa7kZubi169ep2S0UPC0iIQnB6EaKlnnKjHX5P1meuHpTYHAL/fj6+++grfffcdVq1ahZUrV6K0tNRxG4mJiejevTuysrLQpUsXdOvWDR07dkRycnKVZVnmWNaA8H9ZJe9ksq+uAYj2W03XsS8X7fOJlqvJOk7f2d09Tu+j/U5E2Lx5MzIzM6EoCjRNg9vtdhZUFYKDFyHW1pjosN5w+2Yih4kNth2yVoWlfsKbDwsWVAgsVH4GJ34it40KgSJVLMe2JYEIIIkgUVjkEFuWbZVqJlyYoIuJicGf/vQnfP/995Zoqenzw541JvBZ7BCLh7K75wQCwW9DiJZ6RnWNYzSYVYUfogsAu3btwoYNG7BkyRKsXr0a+fn5jtaURo0aoUWLFujXrx9GjBiBDh06oFGjRoiLi4tYTtM069iYULHPMMwfe0Ma2ObkJjqZdXnhl5eXZ42EsW+fh1kvLOFyov2A0wAV60CiChEhcSIjcuGwZaVCUkiS9RNViB6Js6igQgwR/71EqNAn1m7BLC3WahVlxhIusNaJBrNOybKM5s2bY8uWLdb3J7oHvLh3uVxWfJR9Uk2RWVcgOLUI0VLP4Bs/ezwEENkzlCTJmkCOVa5HjhzBkiVLsHz5cnzxxRc4evRolX3IsoyWLVti4MCB6N27N3r16oVu3bpFLMPyjPAVtz1IlR0fb0nhxUtDqvB5wcIaQ/661MT1xK7XwYMHMWLEiBMGlhITEgAMIhiaHy4EEUAcQCYU04RpSDDdEgzFhQTJhAFAk1R4oEMzJciyCy7TBJEBw+WCTBXxIKYMwzRgumS4TAMgGSRJMFAOWXYDhhsmESS3DEMPQpEkGFBBMOGCDkgEv+ECFBmqoUEBwZA9IAQBE5ChgkwTEiTIkokQATABVVJgymFZVBMXEbsu6enp2LRpk3U92fPBPzf8M8MENwAEg0HMnz8fLVq0QP/+/a0OwK8VoQKBIDpCtNQz+EaOr3jZiIlQKGQlRwPC5uwDBw5g7dq1+Oijj7Bs2TIcPny4ynYzMjKQlZWF3r174+KLL0ZWVlZEPAofIMtebGK+aMGkvybwtL7CGkcmWPi5cJyEp/0vu8fl5eU4duwY2rZte+KdWgEsgKYZUF1ubFv/JYaPuQ+GZCJeDgJwo8zQMfKaKbj76qG46qrr8OGKFWiVlgw9qEN2A5phwC0ZkGQZQZLgohAoFABJXvh1IM6twGUQdApBVwxIuglZMyG53SBdg2LqCOkSSKk4HkODKemQvAnQCQgGA3CZOuCRYcgmFFlGsLwMLlkNW3iUEAgmFDkeuilBkU0AEk6kWdgzIUkSmjVrhuLiYkuU8LNgswB0l8sVkeF49erV+Pjjj/Hmm29CVVXk5ORY2+ZHrokJGAWCU4cQLfUMe2wGs7gwUREbGwsAKCkpwapVq/DBBx9g9erV2L59e5VtZWZm4sILL8SoUaOQlZWFDh06RPzOUtKzypwNt+XFUnVBpvbjjPa+Jub6+oaqqtb1BGBNd8A+s0aUNYhM7JSWlsLn8yElJQVA1dFFPJJ1GwhuWYEsE4K+YgSDhH+9/AL+1CoVekhGKQFNMtKRniLj9dn/RUpSPBTFhdjYiurDXTFKS9MAlwuK5ILsSgIAeFChQ/QAVK8XKipy6FTM1uAPafCoXrhUfiLHioBvMwA3VCixlcPcAzpAZghx8QlVli/3h+D2qFAqAl1IripaeAEPVFrzMjMzEQqF4Pf74fV6rZT+uq5HjGTbtWsXPvroIyxduhTfffedlZ/os88+Q4sWLazn4WSCtAUCQc0RoqWOcDIBtmwZlgWVD6hdsWIFFi9ejAULFiAvL6/K9po0aYIhQ4Zg+PDhGD58OBo3bmz9xjecTEh4PJ6IBiCaO+NEQbQns2xt5lQEQgOwkpytW7cOSUlJaN++PYDKuCB+jhz+WodCISiKYomeat1DqBAuEguI1SFJISSlNMbAQUPRKjVyRuiiwk04euQXtJE9WJH9BSR3LPIPHELB7u0YdH4fnHPeBVAB+Mp9ePftt1BUVIRkNQYXT7gJGakx+PLT+aCUDjiUl4v83K04t99ADDy/P37auBoLP/0KXkmBrAcgJyQgJjUDf7l6BMr9RZjz5gco+aUU5/Y5D0MGXwAyfPjss0/gTmiMg7u2I79wH8678CL0PbsHoJmAKxxrIzsEtfCChcW0KIqCmJgYyLKM4uJi6/qx63zgwAEsW7YMS5cuxSeffAKfz2dtCwAmT56MYcOGRWQd5l1z9oDc34oQQYKGjBAtdYSaBtiyHjdQOUT56NGj+OSTT/DWW29h5cqVCAaDEeukp6ejV69eGDduHPr27YuWLVtav4VCIavHz3qQrOI3DMMSRKw3X5NjbEhU5x7j4eN42HBv5sYbOnQoJkyYgMmTJyMjIwMArABSPg5IkiQEg0HIsgy32x3hmnBqMCU28gdhd4pEJkxTg9+nIfvLr9G1dQI0wwS5vTi7S0cc2L4Jt096EJ9vG4Z3X30e7yxbhSvGXQt38QG89PTTmLUsB0O6tcDQ8wciqCTg4gvPw/svv4y5S9bi2+x38dFbMzH749249LJBSHAfx3MvvIp33l+ElpkeHD+cD8WdiAQqw6OPPIoB19yNSZedhSsuuRG5RcCQXh0wY/pLeGDaf3HrhEvw6jP/wPK1hRg35iKgdDeee2k2Fi79DH27toNhmpDksJklWklk14xZrrxerxXfpaoqjh07hrVr1+K9995DTk4OCgoKrHXZpJl+vx9t27bFE088YU12ySyNbPTdyQ55rokYEYJF0KAhQZ3ANE3rr67rZJomGYZBpmmSaZqkaRqFQqGIdbZu3UoPPvggdejQgY1mtV7x8fF0xRVX0MyZMykvLy9iPU3TKBgMRmyf7c8wDOs4+N/tvzVE+Hvk9J39fbSXrutkGAZpmkZERLfeeisBoObNm9PDDz9MBw4csLbP7pOu60REtGXLFurWrRsVFxeTaZoUCoUi9h15wOz4TNJDJpFRTptWvk5JiR2pUatzqVW7FtSiZRv6U/eBdKD0MO1ZPY/O79aTCsuCdO91Y6nfJVdbmxoxsDfd+Mi/yF96lGY8/2/r+9z1q6l524FUcHQ3PXDzpdRt8ERr5+OuuZYm3HhfxCE9/6+p1O2CUXRMI5r//N3UukUr67cVOcuoRYd+VHI8lyaMGUrDrrzV+q1/n4H04N//SyZRxTkTGVHuEyun/HU7fPgwnXvuufTSSy/RQw89RB07dox4XlwuFymKQpIkkSzLJEkSeTweWrJkSZS9EOm6TpqmWc+mpmnWveWfH/bs8OWDf7bY824vQwJBQ0RYWuoYxMUoAGFLCHPTsM85OTl44403kJ2dHTGvj9frRf/+/XHFFVdg+PDhaNWqlfUbS+TGAmid0tHbrQVObhyK4h5qCPDnTQ7uAPZdtGtFnLWF/+7WW2/Fu+++i/z8fEydOhVz5szBTTfdhBtvvBHNmzcHEM5KzOZcYrlv7KNYqkCVlggyCXAr0HQTyY3SMHvB+zinXQp0nWBAQWqcF7mBADRDg24YgGYgPbMNdNOERL8go1UGjhZr8ManYfSVo/Gv55/D1u+/xrbVa2AonRHjjUUw4EObNufAME2AQmiS3hQHCnwVFgoZ7816BU/85xVkf78GqYqJTT/th+yNxc13PQiz/AgMmMjb8SMO7NgNUpPR9IymYasGJDRpcgaMYFllAjyWB8Z+yrZrbs9++9577+G7774DAMTFxSEYDFoj4fjrSBVxYvfffz9mzJiBDh06oH379mjbti3S0tLQuHFjnHHGGdZz6XQcpmlGxISx7+3HCkQG9jreS4GggSBESx3CXtHqum41VIcOHcK8efMwb948rFq1KmK9lJQUjB07FjfccAP69Oljfc9cP3ylye8rGtXlUWmoggVARIMGVL1OTLTwDZR9aC2/HFWMIurUqRNGjx6NWbNmwePxoLCwEH//+98xe/ZsTJo0CVOmTEGTJk2s9b1erxV/VN3IFeIy2EoyQCTDJBcUBUhNjkd8XDzIAHQZMCVAUbxwudyQIEGVNAQNA6YkwS25EPBrSGiViLyfN2DogGEYfevduOTSKzHsgsF47JXPEQzqgDsGgYAfMmRAkWHqIcgUdqnkfPIW7nnkP1i8ZCl6tM0EAKQlJyImLgZ9enWH7i+BrLrQrUsvpDU9A6RL0CQVshQeJeR2eyvzxPyKMlhaWgpJkvDBBx/g22+/xZ133okjR47A5XJV2Q57ZnRdx9atW7F161YsXbrU+t3tdqNZs2bIyMjAGWecgebNm6N169Zo37492rdvj/T0dHi93ipzdjG3ID8Cz57ROJqrTyBoKAjR8gdj72VXt5wsy1YvWlVVKIqCzZs3Y86cOXj//fdx8ODBiHWysrJw5ZVX4oYbbkCLFi0AhIWOaZpQFAWyLFsjUH6NyIi2zu8pWGp6/X6vY+EtLCzuh+X04IeB1xQWM/Too49i4cKFKCkpsSxh+fn5ePzxx/HGG29gypQpuOmmm5CRkYFQKIRAIHDCYbYV8bdh5Aorm+RBIFCKoN8HoiToGsFQAJdbRigElPs0GIaEoL8MZkwQsiRBQgw0zQDpJvbu2Y5jPg2Xj74GTeIJ0558Ant274KvNIDykAnTCEGSER7aYxI8ioa9O9dhxMjrMeXBp9C6xRnYtm0HvF4X+l8yCC8s+gopTZuhf88zMWv2LCxcuA0Trx+BoO8gjJBRmcyu5DhMf6AiAV14uoCa3C92L3w+H0zThNfrxdVXX42ePXvivvvuw//93/8BgCVSwtctLCaSkpLg8/ms4GiGpmnYs2cP9uzZE/G9y+WC2+1GfHw8unTpgq5du+Kss85Cq1at0KpVK7Rp08aKseHhZyTnLZynosw35E6GoG4iRMsfTE0rDWaOZo3Yrl278NJLL+Htt9+u4gI655xzMGXKFAwdOhRpaWkAIked8D39uu7OOZ0jjewWkmj75nvGJyIUCllBmyz/B/vMBCV7r2maNQzX4/Hg3HPPxaeffgpVVa1RQgCQn5+Phx9+GHPmzMFll10GIkJcXFyVPC5Vz48lriWYAGQCFDUOzdu1hFuVAEiQYYIkApECJTYRzZo1gdsFxGe2Q2ZMSsWoIxPNmqUj5FXQ/6IxuGLsZ5h49RVIjpfR9/wBOO+8njh24DAyW7aD5ksBmQBkICk5CRlJTfDlko+QmtkSG3/YjKuuug5uKYTEOBc+XPx/+PfUEP52501IjI9DuWbglX+9ibiEVCQ0bQPvGcnWNADN0s9A86ap4ZBiCRVzHTnj5Bby+/2QZRlxcXEIhUJo3749Fi5ciNmzZ+PRRx9FYWEhVFW1hItpmujevTueffZZ5OfnIz8/Hzt27MDWrVuxb98+FBcXo7y83BppBIQ7DLquw+/3Izs7G9nZ2QDCAfNNmjSxLDJnn302unfvjrZt2yI1NRXx8fERApQPtgcip7yoeo+rf77r+vMvaHhIVBu6qA0Y3uXDVxq8oODFyr59+/Dyyy/jjTfewPHjx63lExIScPnll+O6667DkCFDrO803ADiAAAgAElEQVSDwWDE3DP23Cd1vdLiXTF2F4t9eKvTuvz3fGPALCRO7gEnysrKcOjQIRw5cgRFRUUoKSlBUVERSktLcfz4cRQVFeHYsWMoLi6Gz+eD3+9HIBBAMBhEIBCAz+dDMBi0Yiic4M9RURQrDolPIQ+EG7G77roLd911F9LT0631q7gA2XUCwYQE09DgkjWE5DgYZMJrhnPhG7IJIhdc5IPkkhCkGHhMA4YsQycTqumD5HIhSDFQiSDJEsg0ARAkWQEBMPUgZJeMANzwaABcfsiSBzAkQCqDKSegPKRBlSQoFAIkE6YcC1WRARB8uolYV/g8SfNDd8dAAxBrGjAkCQrJAJkIKTLcVCHFJMDJ1sSXEzbJ5Keffopp06bh66+/tuJX2LDl3bt34/7778dHH30EAJZoTE5OxsaNGy0rJs+BAwewe/du7Nu3D7t370ZhYSH27NmDvLw85OfnR523i8fr9Vqzn3fo0AE9evRAr169IlyB7HyYiGXHzHCKmeKpy8++oGEiRMsfjD0Ogm+EdV234k0OHjyIGTNmYPr06REZa1NSUjBhwgRMmjQJZ511FoCwVcVp4sHqjqGuVlp8cjU7THhQxdBWFkPC1uMtEdHcNrqu4/jx4zh27BiOHTuGvLw87Nu3D4cPH0ZhYSEKCwtx7NgxlJeXw+/3w+fzIRQKVRlWfqpgApTlF2HDbFnjw4RL27Zt8c477+Dcc891DJxmhHO1VEwwCOYuilIeKqwaXCLdSFdFxQ983A67B/ahv2w/lZ+d9kkwjHAGXEhhIURARFyHVPEfVR5QxVxE5BiKy8cVMWuXqqp444038H//939YsmRJRBwQEzVEhLfffhsPP/wwCgoKLOHy7LPP4o477rCGqFdnddM0DaWlpSgpKcH+/fuxZcsWrFu3Dhs3bsShQ4dw6NChasuN2+1GkyZN0KpVKwwaNAh9+/a1ZktnsW1Apfjmr729s2JPrsffS4GgNiNEyx+M3QXBKhdW2Rw7dgxvvPEGZs6cid27d1vrxcTEYMKECbjlllvwpz/9CUC4UjRNMyKxWE3iVepyb4udX7Tz5BtyAI5Bx2y5w4cP4+eff8auXbuQm5uLAwcOID8/H4cOHUJBQQGKi4t/9XGyuBYmMOLi4hAXFwdVVeH1ehEbGwuPxwOv1wuPxwOXywWPxwO32w1ZlpGYmIhvvvkGP/74o5ULhKWUZ24mADj//PMRCATw5z//GZMnT652lmcmWFhwCwGRioT/IDFFYl8mkqo9eoeFLYF04qrHyUJgbZG5gWwCqPI4ncszu3bMHed2u/GPf/wDBQUFmDFjhiUEAUQIXRZH9Oijj+LNN98EAJx33nlYuXJllYBntp59VJ5TzAoAy72Um5uLn376CZs3b8aWLVvwyy+/RJRfO2lpaejWrRuysrLQs2dP9OnTB61bt47YDxNn/DmxuoFfri4+/4KGhxAtp5GaBInae31A2Pzs9/sxe/ZsPPvssxEBfaqqYvTo0bjnnntw9tlnAwACgUCVeWrqUg/KycXjZNY+0bXke5iSJFnJvXgMw0BBQQHy8vKwf/9+bN26FT///DO2bt2KgwcPwufzOc5k7YTL5UJycjISExORlJSE5ORkJCUlISUlBampqUhNTUWjRo3QuHFj631qaircbneEgGHvWbyRU0+9vLwc5557Ln766acIywVrUHv06IGbb74ZN9xwA5588kkUFBRg1qxZlqUg2igi3tICIk4QVMz+jIrZlCkcJcLsG9b7iuWIM3mEN1WxjISKYUrMEiNVzvAsVU4lYC0nVRxPxbYtE4p1fBVrW9uqmAGaKo7IsrRU6quI87W5EJnrddKkSejQoQPuu+8+y4rFlxkgcrTee++9h0cffRS7d+/GmjVr0LNnT0fhYh8mzVvE+E4Fn7UaqLTK7N27F2vXrsUPP/yAbdu24eeff3acG4yRkJCAli1bok+fPhgwYAC6dOmCLl26RCzD4qVYOayOaM9fXe7oCOo2QrScJmoaK8IuP/Oju1wu5OTk4OGHH7byRQBh0/Dll1+Ov/71r9awZX4kEG+SZ+4hu5Cp7fDXyun6VReDwubi4X8PhUIoKSnBjh078NVXX2HDhg0oLCxEQUEB8vPzT9jTj4mJQUxMDOLi4tCuXTu0bdsWLVu2ROvWrZGSkoLExERLtKSkpERMIPlbrgEvZHVdh8fjwX/+8x/cd9998Hg81vcA0LVrV9xzzz0YPXq0Na/Ua6+9hg8//BDLly+3XIx8+WjI2N2JkiQhFAqhf//+mDp1KoYMGWIJCV5UsLLGXqqqorCwEHfddReaN2+Of//731UsF0D04e8MVsaZkGGuTKc8SQCwfft2bN++HWvWrEF2djZ27NiB4uJiqzzYSU1NRdeuXdG3b1+MGDECWVlZiI+Pt37n8884uUijPX91PRZOUHcRouU0wgfSOo1yYRUnUTjvw6FDh/Dkk09ixowZETEaw4cPx7333ovBgwcDiKxoWENUXVBtba9U7L1fIPox85U7P5Ed46effsKmTZuwceNGrF27Fhs3bsSxY8dOeAwZGRlo164dWrdubb1atmyJ9u3bo3HjxlV6wk7w7gAGP/8MO/5oQdB2VyFb/5dffkHPnj2Rl5dnlYs+ffpg8uTJuPrqqy13ILMQ7Ny5E1dffTUWLlyIFi1aRCSZa+jwZY3FoeTl5WHQoEFYsWIFmjVrZllBePh8OkzEMDG4ceNGdOrUCR6PJ6pVwr5vpxFM9uXs5YEf+cc4fPgwvvvuO6xcuRJbt27Fxo0bsX//fsdzlyQJ7dq1w9ChQ3HeeeehX79+VYKIWbJKdm5Ogfv8+QnhIvi9EaLlNMEuKz+iwz77Md/wvvXWW/j73/+O3bt3W8t069YNjz/+OEaOHGnNOAtUjhapLxUFH4/iVJGzGXeZK4VRXFyMwsJCrF+/Hl988YU13LQ683lycjJSU1PRpk0bnHXWWejRowc6duyIpk2bonHjxhEBjTz8PbM3PnxAL/+XrXcyFjf+r6Zp8Hq9eP7553H33XcDCLuB7rvvPowcOdKyrLDrw5BlGT179sQTTzyBSy65xLK21Jfy8luwixZFUfDBBx/g3XffxeLFi63famKV4rPUOu3HLkKcysXJHjuz+NifBcbevXuxd+9erFy5Ejk5Odi2bRsKCwsdt5eZmYnOnTtj1KhRGDBgANq0aWOVKVbX8KPo+PO2Xx9RtgS/F0K0nCZ4MzTf02W9cRYQumXLFjz66KNWEisg7Ja455578MADD1h5I/hYh5oG2DJqe4XCF0F+dA8b2cFXkAUFBVi2bBk2bNiAb7/9Fps3b446RBgIz1rdo0cPdO3aFR07dkTnzp2RlZWFuLg4x+PQdd1qFKLFl0TDMWj0BHE4dnjrm6IoOHToELp164ZWrVrhtttuw7hx4yyrD2tY+BgXZtWZOHEiWrdujccff9wSNcI9VPlcMlGoqiomTpyIxMREvPjii1ZafaDm985JgNjXPdHnXwuzPDLLj13IFBQU4Ouvv8Y333xjuZOcUBQFvXr1Qv/+/XHxxRfjggsusM6Jz9TLLDBA5HQTAsHvhRAtp4DqAm55n7gsywiFQvB6vSgpKcHLL7+Mp59+GiUlJdbyF110EaZNm4auXbtaicdYJVqbo/2ruwY1qaD5XiTvigkEAtiyZQtWrVqFxYsX48cff4zq7omNjUVWVhbatWuHPn36oHfv3mjRooUV/MrvS9O0CMtIddaS3+M687E57K+iKFi2bBn279+Pa665BrGxsVY8Cz+81i76FEXB4sWL8eSTT2Lt2rWOx98QzPpOZZL/johQXl6OQYMGYdq0aVXiWWozvJuKwQteoHLEGqO4uBhbt27FkiVL8PXXX2PLli2OI+JUVbWyaV944YVWwD/bB3t27LNY14SGUO4EpxchWk4RTkGi/AgP3h302Wef4aGHHsIPP/xgLZ+ZmYmpU6fiuuuus9L1s+HLfEwMH8NS24hWGTl9z7tB+OR5QLhyXb16NT7++GOsX78ea9eudQw0lGUZqampuOCCCzBkyBB07doVPXr0qDJJHRMpfIPFu9iixZwwfk/RwsqJJEXm6TEMw7IC2MuCfX1ZllFUVIQBAwZg5syZ6N27d5VA3IbScNjPk7+2iqLg448/xmOPPYb169fXizgwuwualR1mJeH54YcfsGbNGixZsgSrVq3CL7/8UmU/Ho8H/fv3xyWXXILRo0dbE3QCqJKEr6bH7RTvIxDUFCFaTgH2Xg8fn8GsKx6PBz6fDw899BBefPFFa11FUTBp0iQ8+eSTaNKkSUReB1bp1IUA22iWFqdGgwk5Xqj4fD6sWLECS5cuxYIFC3Do0CHHHhxLZ3/22Wfj4osvxjnnnIPExETrd+ZWsosToOr14it29pnn9zR/2xsee4Iz1mt2CvRkx8rEMRtxNGnSJHi9Xrz88stWZmSnclVfqa5MsrJx/fXXo1mzZpg6dap1nU/GJfhHwp8fX174cu0kbpxiYg4fPozs7GwsX74c2dnZ2Lt3b5X9xcXFYciQIRg7diz69u2LVq1aWb/xcVXVXTt7PVbfy6Dg1CNEyymAN+3zvTjWE1FVFT/99BNuvvlmfPPNN1Y2zZ49e+Lpp5/GoEGDAKBKT7ouYQ8ktWfjZHMf8UF9fr8fW7Zswbvvvovs7Gxs3rzZcduNGjVC9+7dMWrUKPTv3x8dO3aMsKYwN5pTGvPfek6/9734tQGa/HvmIvrmm29w55134ssvv0RSUpJ1T/iRRHWxrNUUJ7cQHxh/9OhRDBw4EB9++CE6duwY4X6t7dclWkemJrB6io3Cs4+MKygowPfff4+33noL3377raM7tkWLFhg4cCBuvPFG9O7d29oGb9HkLYJ8x66hlD/B6UGIllOAPR6BNdKqqkKSJLz99tu4++67cfToUauiueWWW/Dcc8/B4/FY84acTGNb2x52p2BaVjEahhExKmfLli1YsmQJlixZEpGLhqdVq1YYMmQI+vbti8GDB0eYpZlIcWqAT2Vx/j3976fquFkvGwhb8YYNG4aRI0fitttuQyAQsEarNZRGg89+yxpPFuD95JNP4ueff8b7779fJQC3LlBdHNmv2Raf+ZexZ88eLF68GB9//DFycnIcs/MOGDAAV155JcaNG4fU1FQAsOJe7BYV/to2BGuf4NQjRMtJcqKKgo0+UVUVpaWl+Nvf/obXXnvNmicmOTkZzz33HCZOnAhN06DruiVuamtDEu2co5ne+aRvrAe2d+9efPnll3j77bexcePGiMkeGa1atUL//v1x7bXXokePHmjcuLH1GxshwXqGfGVnH4JZ267f6cbJBcBGqH3yySd44IEHsH79+ojcG9HcjfWtEXGKFTJNEyUlJbjgggswe/Zs9OzZM8IKVd+uQXXYA5PZ9WGf2fMbCoWQm5uLefPmYfHixdi4cWOVZ7958+YYPXo0rr32WvTs2RNAZQeDWUDtMWR2qqtnGso9EVSPEC2nAD64zzAMeDwefP/997jjjjuwZs0ayx3Uu3dvzJw5E126dEEgELAi8O29kNr0cFZnhrYLB/aX95evXbsWc+fOxYcffogjR45U2X5MTAwuuugiXHHFFbjwwgsjZrANhUJVYl/4Y2FFV+SMiAz8Zp8Z/fr1w/XXX4+bb745wqIA/PbcIbUZu5jjY6n++c9/YsWKFfj8888jYlkY9ek62HEKhrWLO+YqY6LD4/FY10TTNHz55Zf47LPPsHDhQuTl5UVs3+12Y/jw4RgzZgyuuOIKKwNvMBiMyLfklOfmRPWMQCBEy0kSzerAerYAMH36dDzwwAMoKSmBy+WCruu4/fbb8fTTTyMmJiYidoX3sTNq2wPqdM58oB87B3b+gUAAn3/+OaZPn46cnBxr5loWLOrxeNCnTx9rRELr1q2t7drzpADVz0lkFy8NsYLj7wsTz+yvx+PBsmXLMHnyZKxfvx7JycnWteVz/dTH4Fz+uvCJGfPz89GvXz/MmzcPvXv3dpyfqb5cAyeqEy3s92jfs2vEOiXHjx/HwoULMXfuXHz99ddV9tW2bVtcd911GD16tDULPYulYZYt3p3MLD313QIo+PUI0XKS8HlXgMqEZF6vF36/H3fffTdmzJgR4Q564YUXcP3114OIrInKGLX9QeSLB8sgyruA+HiVgwcP4v3338e8efPw/fffA4is+DIzM3H99ddj1KhROPfccyP2YR8h82uui6jYKrG7ia666iqkpaXhlVdegc/ng8fjiRhxVFvz//wW7A0uG1p/5ZVXIjk5GTNnzrTcQk6uMkEkdhHIixfTNJGTk4NZs2bh448/RmlpacS6SUlJuPjii3HzzTejf//+1jbsuaf4QF27G0ncEwEgRMtJw49CYI23qqo4ePAgrr32WmRnZ8PtdkPTNHTv3h2zZs1C9+7dray2LAiwuga2Nj2crBLhA/DYubMRPPv378esWbPw2muvOaYM79+/P6655hqMHTsWaWlp1naZCDpV59uQe2TRHmP2fWFhIXr16oX33nsPAwcOtKwxPPXNysBfk2AwCK/Xi4ULF+LOO+/Exo0braHy/FBhJuRqe3K538KJLC01hXXc+NnpgfCkjnPnzsVHH32E3NzciHVkWcall16KO+64AwMGDLC2wydMZEK6IbnsBCcBCaJimiaZphnx3jAM66+maUREtGXLFsrKyiIA5Ha7CQBNmTKFiouLiYgoGAxSKBSyXrquR2z7jzo3/ryczpV/bxgGBYNBCgQC1jby8vLo/vvvp8zMTAIQ8UpJSaGrrrqKVqxYQX6/39oWuwaapjnuV3Bq4K9pKBQiIqLXX3+dzjzzTCoqKrLuAbsPrFzX9XviVK51XSdd16mwsJAyMjJowYIFRESkaVrE82w/d0FV7NeV/eXLE+PgwYM0Z84cOu+880iW5Yj6UVVVGjFiBC1fvtxaJxQKUTAYtOrWUCgUtZ6q6+VU8OsRlpYaQFzvnV0uNqT5iy++wIQJE3DgwAGrx/Kf//wH9957r7UcCzpj60YLhKwNOJ0rVbi1mGVl7969mD59OubOnVtlcsJWrVph/PjxuOqqq5CVlRWxPrOq8BYWcjDL278TnDz8Y81y5KiqivHjx8Pn82HBggUIBoMR0wEw7MNU68L9sJdbe1CyoigYMGAAunTpgpdeeikiIJm4kTP1La7nVMOXK3bdgMp4Mie3sWmaWLZsGebOnYv58+dX2eawYcNw2223YcSIEdby7FUTV7rTvRfUY34fbVQ3sSt5wzBI13WrZzB79myr5wCAEhIS6J133iEispZjf9m6hmFE9Or+yHNjf516LewYg8Ggtc62bdvonnvuoZSUFAJAkiRZ556VlUWvvvoqHTt2zFqe9b74Hhm/bafj4L8T/Hp4Cxnrueq6Tj6fjzp37kxPP/00EZHVs+XLd12+F/byxKxMDz74IJ1zzjnWtWDXxcnCUtfO+ffGqZ7g6zbDMCIsy7z15dtvv6UxY8aQ1+slAKQoilWXDBgwgBYtWkSGYRBRpeWFiBwtgWz/7FjEfWsYCNFSDfaHkj2EREQvvPACybJsiZa2bdtSTk4OEVGEqbQ2CBQn2PHwFQ1vlg0EAqTrOhER7d+/n/76179aYoV/nXnmmTRjxgwqKSmxth0KhSIqkxMdg+DUw66//d4Shd2ZjRo1okWLFhERUSAQsNyWTNw4CczajL0x03XdckvOmzePMjIyaM+ePRFCpjY+l7WdkxV2bDne1UMUFi/jx4+P6PSx14ABA2jJkiXWsqwu4kUmE9h8OT2Z4xLUXYRoqQa+AmSVORHRU089RQDI4/EQAOrVqxf9/PPPRETk9/stgePUk3OybPxR58b+8tYQvmdUVlZGzz//PKWnp1epWLp3707Tp0+n8vJyIgo3jn6/P2qMwIl80aKne2rhK3FWDlm5JCL64osvKD09ndasWUNEROXl5VbDwMpBbRXcTthFGhMsK1asoDPOOIO++eYbIgo3gHx5F/ERJ8/JxJnY7wtvqSYiWrVqFV199dWkqioBsGJfZFmmsWPH0tq1a61lfT5fRLkU8UgNEyFaOOwPI3vg+ACzRx55hABY5s0LL7yQfvnlFyIKV4hM5PC9gN/zYYomAqqraJh1hTfF/u9//6MePXpUESudO3emOXPm0PHjx63t2XvqovL444nWmLCAaiKiuXPnUrt27SzBzRoE3p1JVNU0z7b/e50Hfz7VnRt7sfPbsGEDNW3alP73v/8RUbhDwQRLXRJkdRG7JZcXz+we8eLlu+++o/Hjx1v1KnM9x8fH0z333EP5+fnWsszizbs92b7YvoUIrb8I0VKBUwHnG3UiojvuuMOKfAdAI0eOpNLSUiKKjHy3ixb2MP3R2M+NiKzeN/u8atUqGjVqlCVSXC4XAaD27dvTrFmzqKyszNoGq3hYZRQMBmvV+TZ0+Erc3lD7fD4iCrs5W7duTevXryeiqpZCtv4fiVO5tX+2C5bVq1dTenq6FWPm9/spFAqRz+er1W7b+oLd2sKLGN66ax+RuHr1apowYYJV7zDxkpGRQc8884xV/7COFi+uxb1sGAjRwuFkaWGC5fbbb49wCV177bVWBcmbm/khe3+EK+hkLC18LyUvL49uu+02iomJiRBmqamp9PDDD9PRo0et9ZlVhX3mg4yFmbZ2wJdh+3vWaPNDoVu3bk3Lly8nosoYFz4wN9qQ6N/jPPjz4d/zn1kngYho6dKl1KRJE/rwww+JiCwxzZ5JYWn5/XASL7zVxR64y9iwYQNdeumlVSy9WVlZNG/ePGu7fAqJ6lzSgvqDEC0VsMLNKjT+Ibr//vsjBMv48eOrjIhh27Bv8/fG7kNmx8FXFJqmWT5/onBvu1mzZhE+ZXaemzZtspazB9OJCqFuYXcTMdceEdGiRYsoIyOD5s6dS0SVo9/4HjFfpn4va5rTMbNnlA+OZ+Vw5syZ1KxZM/r888+JqNLC4lRWRdk9fUQTmNUtx+omfsTiggULHN3Uw4YNs+KUiCpzYTHx6jRCUVA/EKKlAv7h4uM77DEs11xzTUTlSRR9OF5t65my82LHvXXrVrrwwgsj3EAAqGfPnrRs2TJrm4FAwOqtnsxL8MdxonvDKndN0yzhsmbNGjrzzDPpjjvusAQ7awycrGm/93nwYoW92LGXl5fT9ddfTz169KANGzYQEUU0YkTRn1PB6cNJvNiFKFFk7AsvmInC93batGmUkZERUVe5XC6644476ODBg0RU6TLiRba4x/WPBitaolVevNn8iSeeiMjiOHbsWMt0zrt/DJM9HPx2uffE7YN9T+wzt0z4wKrfRsQyFLENYg8ndy58hc8qeMMw6JVXXqFGjRpFuIIyMzPp1VdfteId2HmKCqB+wJdxu+uHlY2ioiIaMWIE9evXj7Zu3Wotz8q93epxIsHqJJ759yfzsg/fZo3aunXrqEePHjR27Fir7LLYHBZ3xTeQgtqDkyglIktssrqHiGjXrl104403WrldWL3cvn17yxVIVDlE+kTl0/5eUDdokKLFqYDyQz2JiF5++eUIVX/ZZZdZQ3rDjTn3UBhseyb7Z9uh7YPTAiaFxQf/I3+cNX6mKrfAzpN3YW3atImGDRseDnKTK5PDjb/uOiooKLCW1xyS4vHbFNQ9+MafCRBeAPBm+WnTplGHDh3oqaeesgSN3++PmJIhmjiJ9tnpe6djdDpm1qjxlsLi4mJ65JFHqFWrVjR9+nQiqrQMMbdWXRu63RBxEi7sM7uPfLDu559/ToMHD66S4HLixIm0b98+IqITBuhGK5uC2k+DFC1Ezj09JlgWLlxILpfLimEZOXIk+Xy+iHwtpmmQYYStHTqztBhEpqmRaYbI1DgLDJlkGDqZmkGkU3hdM0imGSIyTNJNkzQyySAiMohMIyyEwutpZJpB0skg3TTJMInIMMg0dDLM8LaoYj+RVhqdDKMyJ0IgEKDnnnuOkhKTIsRY2zZt6b333rOuC2sUnILmRMVft+ErZ97Vwu4x73YhItqxYweNHDmSevToQYsXL47Ylj3XiX0f/GenRqEmPWC+IeOHx2qaRu+//z517dqVxowZQ3v37iUi57lr+HMUZbf2wd/zaPlXeGHNyoGmaTRr1ixq2bJlRCxeRkYGzZkzx9ouP7qR7Ye3ONqPQ1D7aZCixcnczJT8999/TykpKdZD0KtXLyouLrYqT9NkoiNEpkGkGSYFTI1MUyczaJKuFZOpF5ERNEkzddINg0K6SZqhkRkMEJUbZOgaBaicdNNPpmZS0DCp1DQpaBhkBnUyAiaZQZP8OlFQ95OuF5HP0MhnmhQik0wtRIYWpJBpkqGHyDS0sEAydDJMk4hM0o0gGXr4Ad+2bTsNHjw07AryVGag/POfJ9GBwgNERGToIdL1kGXdMblANkH9JZqpnB/JMX/+fOrduzdddNFFNH/+/IhyYU/X7hT7wmcztad7t3/mM/Lac3lomkZz586lAQMGUP/+/a2Mvuw4oo1eEz3p2kt1LhonQcsLUiKi/Px8mjhxYhWry+WXX047d+4kIopwcfN5iJySDApqPw1ywkSyTfoVDAYRExOD3NxcDB8+HHv27IFpmmjfvj2ys7PRrFkz6LoORVFAIMAkSBLBkBUYJEGFAYIMXdfgkjXANGG64sPTqxNgkgTdIMS4S0CmHyQ3QkhywWVKcMGALmsIkRuKSXATQAYgKzJCEkAIwi3r0CkGkqRAkSQopgGSCKbkgkwGJAkwJRkyEUxIAAESEcpCZZj71pu4d8oDCMFnnXPr9u3wwrR/YtTosSAAhq5DlmUAcJy80P5ZTEhWNyHbRIJA1XvMY3KT1um6jg8++ABz5szBkSNHMGbMGIwaNQrdunWLWEfXdRiGES77FWVKURRre/zkjFQxsR5fphRFiZhQFADWrl2L//3vf1i2bBkaNWqEW2+9FaNGjYIsyzAMwzoPSckP7/YAACAASURBVJKsyRHZvvhzFOW29lJd2bR/TxUTsMqyDFmWoSgK5s2bhwceeAB79+6FoigwDAONGjXCo48+iltvvRWKoqC8vBxerzdiu4Zh1OoJbAVVqfeixV7o7bO/mqYJl8uFo0ePYvjw4diwYQNcLhfS0tKwfPlydOnSpVKwEAESIEGCRARDAggSZBBAMiQpABgE01SgywZMcsElSQgZgNvlgkqlAAIwlBTo5IIbJiRJB0EOiw0TkCl8zLquwaUq0MkESQpgEFSXG5AAgML7lQhEEsLPmQSAACIQASSZ8JX7sGjBYhgw4PbEAqEQAB0XDBuMzCbNEPAFoLgUuNwumKZpNTKswQmfrwTxGDcs7FWCpmlwu91Whb506VK888472LBhA9q1a4c+ffpg6NCh6Ny5M+Lj43/z/svKyrB582Z89tlnWLduHfbs2YN+/fph3LhxGDx4MICwOCIiSxABVcWJaIDqD3yZNE0TACzRoes6YmJisH//fjzyyCOYO3duxLpDhw7F888/j86dO8Pv90NV1SrlxKmsCLFbO6n3ogWoOnU5Q9M0AOHCOW7cOCxcuBCKosDj8WDRokUYMmQIgsEgVFWN2J4ECaZkQjZkmBJBkwiqKUOSfdB1Ey531Yo7YITgMXVAUqHLCiCFrSyABsALU9dhApBlCYpsApIbZJRCUhLgB6BqBhRZAUkGNFkCmRI8kgYDLgASZITtohKZkGQFQd0Ht6RCVlxVjgXQ4NcBNymQZQmSXLGuJIFME5AkyJIEkwiyVCGGKs68YslffzMEtR57r5b9ZWKWidtffvkFCxcuxBdffIGDBw9C13W0adMGZ555Jpo2bYomTZqgadOmiImJgaqqiIuLg9vthqZp8Pv9CAQC8Pl8OHDgAA4fPozCwkJs374de/fuhdvtRrNmzTBy5EhcfPHFlhgKhUKQJMk6BlmWrcaFCW9mcWHLCOo+dtHC7rlhGJZ48Xq9AIAPP/wQDzzwAHbv3m2Vt/T0dLz44osYO3YsDMOIsPqx8uRkCRSCpfZR70VLNEsLK/ButxtPPfUUHnvsMaiqilAohLlz5+L6669HMBiM6GGGNwCACIAJkAITBEMy4CYXyNAguxXs2rkdU5/8N3QZ8PlKMXj4CEz+8w2gUDlI8UCXXVBlCWQEYEoEl+kFmQRTMqG4ZHz4wZsIkgvXXDkG/37hJVw27jqcmXkGNJ8OT5yMkCQjZBDiZB0kuaHpgOKS4SKCaWgwpbAYMfQAdNOEJKl485VXkNHpTFw4aDAUIwSXNw6mIYEkE7IiwzSZRYUgy1L4HFlPRIiWBoVdtLBniIkB1lC43W5rOb/fjz179iA3NxebN2/G7t27ceDAARw7dsyyiCiKYm2DvSRJQlpaGtLT03HmmWeic+fOaNOmDVq3bm01QkCl28ntdkeIE7s7gUc0OPWHaGWSuQOZmxAAXC4XDh48iMceewyvv/46gMqycOedd+Kf//wnYmJiEAgEoKpqVJe4sLTUThqEaAEQ4WdnvTJVVfHRRx9h3LhxUBQFmqbhoYcewtSpU6FpmuUSquyxhZ1BpmRCJh265AIBcJsGTEkGSIav+DDGXDEKk+98HAMH9Mbho7m4cOh4TH3yNYy/diAgAUEApr8MMTEeaCAoARmyN2x3MYJlkKUQ4ErG0X1bcP5FV+GDJZ+gR9tMQHbDNDUEDB1edwxMIwiXBED2wGeacOkaVDcAyQNfSEOsCgAS/EEZLjdBMky43GGbTFmAEOeWISkKgoYJWQq7vFglIFc8pySFrTiChgMv9O29TnsnwDRNEFGVOBSGYRgIBAIoKyuDz+eDpmlQVRWxsbGIj4+H1+uNahHRdT3CqsKIFusgesj1F6cyyX/Pf+bjVBYsWIC//e1v2L17tyVu+vXrh1dffRVdunRBKBSyrId8uABQWZ5EWapdNBjRYlfnLpcLmzZtwoABA1BaWgpd1zFixAgsWrQImqbB5XJFKPmIbQKQEALBDYIEBRpMAiSoKD6Wi359L8CTU2fjirHDAADF5UGU/lKEYGA3br3vH0hMbAevcRyJcQn413PPoPjAFky+axpITUSfrHRIoWJ4WvVCI+0o7n38GUyYdCdG9sjEM+8uRbOWGSg+XICzzj4X9917L7Z8+wUe+/d0aO5EnN+tLW659Sbc98g/UF5yHL8UFeHevz2GwYP64KF7bkanHsMw4pIBeOi+v6DM78HBA8dw1fhxmDjhOpQHNUgSoCoKXK7w+cogkCRDgomwdUVYWhoK0SyUJwrctTcizCJyon2xOAXeqsNe0Roqp+/txyqoPzgJZ6fyKEkSdF2HpmmIiYnBoUOHcP/99+PNN9+0xElSUhL++9//YsKECTBN0woDYNviy60oR7WM6AOL6ibRcj2wYW8szXNxcTH17NnTGiLXoUMHOnjwYMSsx3wGUOtF4RwqBgWJdJ0MnShEQTINjXS/SUQh+vc/7ye3HEfX3TCBrr32evrp511ERLRj22Jyx2fSBwu/IiKisZeNoL9PfY2K9q+h1CaZNH/5GiIi+ttfRtON9z5Chv8ondWxB+UfL6OVH75GyeltaN32vRQKlNDZPXvRvGXf0o/Z/6PEuCTadOAYERHdc9PVdN3kKURE9NMPa6h3zz60/1gxTRh5Ec1+9z2aMfs16tu9ExERHTlaRPPmf0h2NJ0bOkpERDoRsZwGIqtofcc+BLW6HConyrFiTy3Azw3jNMnmybzs+7Mfq6D+UJPy5zRsn59jbfr06daEsOw1efJkOn78OBFVTvtgn1/LaduCP456ZfknmwLng6r4kTGKouC+++7DunXr4HK5EBMTg7fffhtnnHEG9Irhv4ZhWKqcLCVPkEgCpPBfkireQwagQFZCAIC/PfgvFBzYgR7duiMvbxv69+uHTz9bDJAH55w3DIMH94dpFmHcVcORk/MDio+WoG1Wd3Q7pxeIgoiNVeFSY6EFTbgkF0gLIRgowTnDR6JLh5ZweWQMH3QBln/5PaSAD716dkfzpqkoLynCj+t/REJsDF6bPQfrN6zDkcO7sWHzdjQ6IxO+8jIMOv98mIoHF468HMs//wxjRo/GwaLjeG32XMyY+QYWfbwUsiSFh3Zb/1eG4tZrs5wAQFWzOP8c2a0g9ueMX49s8TDsOz740Wk/NX3Z17Efq6D+UNMyAqCKtUTXdfj9fkyZMgXZ2dno3LkzAMDj8eC11/6fvfOOl6I63/j3nJnZ3Xvh0rmABDtBwNhBJSoKaoLGhhVRUUDFgoolKpYYu4IVVLBjw0RFoyImFlDBgiiIJVGIscBPmtJu2Z1y3t8fszPMXS5GI8gF5/mw7N7ZKWd2zpx5z/s+7/OOpU+fPrz33ntxan8yDV8S3rvU89IwsFEZLfXF4SO3c/SeyWR4/PHHGTt2bNxJR48eTffu3XFdF9u2Yx5LfYOrFMMjCo0ohWjBFiEIBGyLKf+YxNWXXUpl5Sacc/Y5vP7625x62hBuuuEOKjJlBF41gQoNolwmgx/4Yft8n1ovADQWgISflIC2NaI04rsEgMLG0QrBAe0T+IbACGICwOdXHTbDdhwsu5xLLh3Bzl22JO8vp6amlo5bbcMbb7zCwH5H8vcXJrJzt91Y8t0KMo6DZWm0ZaO0AgnDQUrC3KSIppsmQKf4PiTvweREIfouyU+RNYSZUqRYW4j4KdlsFtd12W233Zg8eTJHH310HBJ666236NWrFw8//DDZbDbmtkRIGi+RIZ5i/WGjMVqSnSkyVpLLIpGsL7/8kmHDhmHbNp7n0a9fPwYOHIjrujF3JcpySGYohO+qSOdQGKVDjRQBEYPWoVbL5lt14uHHHub+ex9ARKipruazf3/G74/Yi6YZ+HTm+0yZPhvP5Ljn3gfZ/+DdadSoBTVVK9AqQCkHt9ogfgEr5+AVlrOyqpayRs2ZPeV1Ppm3mGXfLeFvL77Kfr/bCy8jrKiuRoDGTVuz85678X/zv2HQ8cexx66789eHn0HZNoWVBaio5Z1Z0/nb46/Q79hjue6KC1k4fx6eneGk4/tz8qCBHNTnd8XzMYQqdaWeltRoSbFmlA7u9Xlhkt7P+kQNU6T4KUj2r2TWWpT+XFlZyeOPP871118f99eVK1dywgkncNVVV5HNZlFK4bpuTOxNZrulRsv6Rf2U/w0QpcSsyFuSzL8HGDJkCAsWLEApRceOHRk9enScQplkjkM9WQhKQg+EWiXgpsP8IbQO8FyXzbfqxAuT/sEll1/KlNcnQwG69/gtw844kS/ff552v2rHww/czzP3LeHXXfbmvNP78+3ns9im46aU4SPi0HazzojdHJUto3fvHoy4/HJ+t/NWVLRuw23X30TN//2T4wadSN99tmPW5H/TeccdKVMKCVyG/3kEl1x+Pcf2PxZ3RTUXDb+Ats2b0rpNe9q1akPrVq25afz1PPH3CeRXLOWGkSPosllbvisUyCqNDWQcHZ4fRUVfVZwpo4qydukDJkX9+DHGR9IDs9q9liLF/4D6vO1JiIQK6EopLrzwQrbddltOPfVU5s+fTzab5fLLL2fevHncdttt5HK5WHl3TaTwFD8/NprsodIYZISkFPlNN93E+eefj23baK2ZOHEi++67b5wttCZBqmRnNQgawRiNaB9lBCUOaBcTuBjPxinLAQa34GPjoLMKcPlsxt854pQxTHzlKdpWZHFshW8CbFMLdmMKgeB4ASpnkwdsfymOnQEa8ejdo7jr+feZ+uwDFDwXx8lgCi62lcGzw/PMBoJxLDSQDzyyKgz15IOAnGVR67tk7QwaqPHylCkHZVtUGcEGLECLKaY7C2gNJvIuReGxNHcoxffj+x4aSaQPgRRrG2t6DkSIPPDRezabZc6cOTHfJfLG9O7dmwceeIAOHTqQz+dxHCcuDxGrhZP24fWBjSY8BGseIB3HYfbs2Vx22WXYto3v+1x88cWx4m2yVkmyA5aSryJ/QyidLyjRKGWBNoBGxMZyLALPxXULWLbGaJ+C6xMEFirbjr1234WMpfC1T41XQHyF8Sx8vxYHA5ZFdWAIjCHQCj9fjQQ+HTbryK47dcFIGKKpDgpoDDX5gCDIo4yHQRMEHoVCHq1tPDH4bg2OBJiCwRILzwQU3Bps28E3UOv6aCM4SqFMAAQoDKIk9qqIEqTobdkoLNwU6xT1hYO+j0ibIsXawvcRtEsTNCzLolAo0LFjR1588UXOPfdcPM8jm83yyiuv0KdPHz744ANyudwaybnJ9xQ/DzZaT0tpbL1Pnz68/PLLAPTo0YPJkyfHvJZkfv5/64gixcwhbcCEGiZGByhjYQxoy0eMwQQZ0B7KUmgsjBegMxkUkDcgysMOPJAytO+icxAWM7IpWApDgNYeGT9AuRaqvAwALxCUMmE9IVcoOBkyuhYTWBgyWKYKZZfhKQskIENYgFE8sHM2rjGIRVj0EY0Yg22pkMQrBk1YrNEoFRNwYz3c1NOSIkWKDRClfMektyTKFLVtm9tvv52zzz47FqJr3bo148aNo0+fPrHgaGmoKPW0/LzYKD0tkesv6mR33303L7/8MplMhlwux6233komk4lVcYE6ccvkvlaDqktJjR/iCpTSBMagtMbSGksrxDgEvguWS8EP8N3FWBSwxMFSZWjLQ+cMRgRfBGN8HN8j8GrwAwujy1EZh8Az+J6LNgXEGCwclOVgFCAZtDgoLWgLlAi66DnyfVCiwRKCKFNJFFppRIHWEorHiaAthWBC/4qECr+CFJm4kUTuOrhwKVKkSLGOUJq2HPEWI85jlDHqui5nnXUW48ePp7y8HKUUixcv5uCDD66TbRqtm5TD2Ejm/hsENiqjpRSO4/DFF19w+eWXY1kWruty7rnn0q1bt5hgFaE+jZfVkdRp0YgKUEpA7LBOj/LBWASeYKgFUWgNSltAFkeDciwsfLQIrggYF18UYIe6L3hYFKjINqHMyiACBRXySiwlYYaRLlY4lACjDK6n0WgC38XHRrwAS0nR82MR+AZlawSDsoruUcBRgqXC3CClFSYQtB2q/CoVadCEVaTD8yy+p0iRIsUGgvo8I9HypKZLFC465phjeOaZZ2jZsmW83pAhQ7joooviWkVRVlEaIvr5sUGGh+ojW0XZQslUZ601/fv35/HHH0drTefOnZkxYwaO48Qic6X4b+4+KXpSxIBor5jy7IASjHhgLCwFgV+FH2hQNbgmS9ZuQsZSuLoa5Yfp0b4SHGwCK4uNwQ88FC6mZiX3PTqJgw8+iE3atcIzBUQsbDHYWiOWInADlGhWOFBuFLbvI7kMgRIc18coG2wL47poy8YEAcqxEK2wFWgjBG5AgCmargrHdhBRaCuZH1RaLHKVZylFihQpNgR8H0G3VJOlUChQVlbG7Nmz6d//WD766OP4+2OPPZYxY8bQqFGjekq8RL735F91l62+5qq1SCxTxQxV6vwdTiB/6dggjRb4/k7oui7ZbJaJEyfyhz/8ITZSJk2aRO/evWMLOSqI+MOt5LAjRdWQjZiieqwGBb5f3K+CFSu+47Fx4zjsyD48+bepDDrxVLKOoO0CkKuz1+ogIOfnsbKNoiW0bNadZ595lB57b4/CAzLx+kFhaXHdaFlIBPYFxORxrHD/vi/Ydt1zqzYeOanBssoBp853fhCek22FRRWVKEQIs4liS2VV9ecUKVKk2BCRfG4kPSYQGg6+55HL5ViwYAFnnHEG8+bPI5fNsXLlSoYMGcLgwYPxPQ8ns2pcDvexShRCKLIJVJIJ+F9YgZJYKx1m68UGqdNSHwEq2QktyyKfz3PJJZeglMLzPE4//XT23XffuKpnqRjdDzNcipL9yiASoMRClMKoAC0WSlsofASfps1akmnUlCuvGoUfKGbv/DG7du/CG1OfZdpb88moxsyZO5Pf9+3Lgfv1wrIdHn70Qd586x3atW1Jk4o25OxyFIq/PHYPr077CBGLs8/9I1233oQXn72fF2dVk1+0kEN7b87Mfy/miGNPZ6s2FTwzfhwr3cYcemgv7h83BlPWhLmz/kmrdltx0SVnYmmYPettxtwxnsrmTWnUppLNO23L4QfuizEqOsswFKSKYSUILX0dadWs9cuaIkWKFD8blFJ1NLoEwdIaBdiWjed6tG3bhqeeeqpkS8EPAqxMGL5Xqqi6LrpYVjbMvDRBUAy166JYp0KULiZBEAt3htsYjBgCE3IjbUtjio+0aM4opGEo2IA5LUnSbZSOFgkH2bbNPffcwwcffABA+/btueyyy2LxOMuyVis//sOwSsZfsFHKIOJjxAI8fISCCR/stw8/laenzOSKK/7Mvrt35byhZ1OV9/n8Xx9y8aVXs9tePTlkv99yzqB+1AYFHr73MW68/X5OGTqUlk2FhUvm06JJBU8/8hDX3fYIwy++hN/v2Z6Bg05h6Ypapr4ymQcfm8wZpw6iyxabMPbuMXy1rAptZZj5jyd5/sV3KLCC4ZcN58uVZZx11lAmjn+URx54hKXffUvfvoPY+4DDOeLQ33L95cOZ+O5X4c3qBYDBECBi8BWhkRIZKqJSMm6KFCk2aISTsIi/CJaysLTCaA8AGxtLK/JSRXWwAr/WT2xt8JVP3qiid3sFQhV+oEL13MBH3JVYthNmqCoNxiWQAgW/aJgEghjBFYUvAkEVWrs4toNthZmofmAIihIXoYGTGiywARstESJjJUpls22br7/+mmuvvTYO/1x88cW0bds21mL539PVQi9EyOuIMm1CP4Qqkj20Uqj8Uvbabw/OPPUE7h3/OK9MmcqS7xaypAYa2Tb7/OEP9Oj+a/bdbx86Vlby9aKFPP7UNM45+Xx27NSFU4aeTedOrcjXfMxTf3uMXXv9HnE9dtjld3yzYCXPTXyaFpWtOfKYo/jNbzrSslULWrZshRRZ8M2bVpBr3oTAh9223YkjjzmETp060XPXnlR/s4BJ/3iazX7TjaMO6822PXpy7NFHYpxG4e9hQt4O0bkJoUaLIoyxqtTLkiJFig0bImqVsrcolFYoDJaEkhK+JYi2yJgcObGxHM3zTz5Enz4HMfPjL3FwsMQHZQikHEw5toSTWF8ptC3cfsOfOfq4E3jj1cn4YuP6Gi0GTIDnh1XkLAyeV0CsDJ998hFHHtOPcy+8gqraPBlb4ZkAU8zgVOlsEdgIjJaoRlDSaLnhhhtYsGABQRCwww47cNJJJ9VRuy0NC/1wWo+sCk+GOv7h8SOSFMV060yGmW/N4oZrRjL/i3kMOeUYWlQ2xzcKCQJylqbKCCtWVmHV5vly/nzykqVF46a4bg0r3SrabpKjauVCan3Dd/O/4fabbmL07fdy9FGHscsOO7Dk26VYdh5jhHzeQ0RwdMhoFyeLRw34DhlPob1aRISqFXn8775l5dLFtPzVZogJ8LwqmjRvAV5tMbM5CpupYuZQMUIrEsZYN0wKVIoUKVLESGZBhuZKUMwKtRCEWuURmADtOqgCiL2YB/76V17+x6vcf+8DWNrCMgUy2sexs9TiAILjaDKWzcL/+5rHHh3P2cP+yF4998KxHVQmi2UZnIyPlDkUjOBoKM9mUKqMvz76OJblcNnwYYhlIW51HBpK7ZVV2CiMlsjTYts206dP57777otT2K6++mrKy8tXS0/731Q5VTK4iFJh6rEqsrqVhCnGqlDggXsfp9+pg7jj1hGsrKrhq6/n07iRHeqjGBdLKSztEPhQUdGYTltnePn1Z8lkyjErPWbNnE+rtjuy1ZZbsmXXrbn5jtHcPOpOli9bQKOyRuQyWbRXQGuFU96Y2upqMk7ojnz7/Q+xLActJqwOrTMoFLbtUfANO3bfi1dffgYfC8dpzlvvvEu5CnkrqnheEv4wq0490mkhDQ+lSJFiI0DRexwKhlLkJ1oYNBkEC03gCSqXY9rrE/niG4+XJz3BjGmT+GTRcmynjFmvvcKxJ55OlRYweS4dOJBHn36OkXfcy9cLl/LEX57lL489Qr/jTqD/0QMZ//BDXHPx6Tzw1CQytuKV555gyODBvDj5VZ566hnmzPmMCX9/k1zWAQnQKpLJUumEsYgNkogLq0hUkdESCQWNGDGCfD4PQN++fTnggANwXbdOIcSfdmCiZJ2ws6OLRROL6WhBgOSacfLZp3HTTTfz8ZQXIf8tGdvim6/mEdjlGOOSQSiIRV5brPxuKVdddSb9B53E0PPPZ8Xcbwi8TajK5zjrrDM44YzBnPLllyxb8CVtO/yaDptuwYqqGjK5UOioSeWmHHtsfy48bRh7b7cpi5bXsLXOYHBxLQ/xQyn+QC/nm4JN950PYMiRL3HYYUew7aYtWLx8Jft3qCx6nnSR+aVCxV9VPGEVZhTFhluKFClSbKiQaMIqiGi0UgRiU0DjYMhIOCH1swHa0kx9+jX23PtAeu5/AK1GXMMz/5jBNv17s2zxF3z82Rd4KJT2mD19Gu33P4phZx7PtL9P4+KrL2LS3Vfz9zfe4/1ZM9isqeaQP4xi+833wVIKd+lCpr89g1vvuZ+D9uvJ0qYdOfqI3xH4PmgbrSQiJRRVylNssEZLEpGXZdq0aUyYMAGtNZlMhssuuyxeJ2KI11cQ8ccdDKJqz6JCofuQ56KwAMu2UYHL8WdfwC4HHc+ypd+yXcct+VPBENg5Oh5xCrsfcBKIoqJ5a/76yktkm7ekeXmOp8b/jX/+63NaN2vOzY1aUVauKK9w+NuEF5nz0X8oy2TpvG1XkFou+vPVBE7rMJSjcwy/+FIOPORznKDA8D+dR22NQ65pOQ/87Vkqm7VAGcMVt9+BJuCbL/7JgQf1Z9CQtmivillzhrFJ6yYopQiKJ6lFivd1yHpHFVOdiwZbihQpUmyoEBUlVCjQLogFyiIUsFDgg6GAna0lv2I5T/3lJXoO2JrHHnsMss0Zd/ttDD+uF5lGAdqxsBDwa8k1zmHlclgYtG3jKk1Ou+y852/p0LwMxVJyjcvJZrKhVphxadSoHF8pGjsWi1QWS2u0H2C0jaWkbuZmig3XaIn4KEEQxH9ff/31sVDQkUceyQ477IDv+3X0WH5ynYgog4YiGVdCEq4UyVxhWpuD+B6dt9wC2AKARgbQASsFWpVZFKpqyGYcKttvhhcEmAAalTdjl512ShysGtfUkMs0Zaficj8w2FrRquWmGGyUmFCRV4SdumxT3C4gV2YRCHRo3SGk1BqhbatWAHy5fDHD/3gx2+20LW7Ncrpu24WD9tkFPwgAHaZtK4UWhS4aLaFnsmi4pAWIUqRIsQFDReREI6B8RGm0CLkwhxlXCUryaAl4bsJTlLfZkm22bMfCZUvp1bsX/77zbj6b/yWOU0a5Dmu2qUwjjGUh4qHEwUTPBg3KK4CEuafGGMpsjRghU1aGsjIYEcSrBcvGAFkFojOIcVG66OlOx11gAzJa6iuIGHlPMpkMr732Gi+99BJKKcrLy7ngggtWK5q41nLcY50SFWcRhW2D8MFuo7QmMD5e4GOrDFZgCHSeRk7j0FFRUQ5ArRGsYkjG+IIQYLRLKMxvYykHCYql1LUfko5xVh0LhdJZlEBgAorCAaAMlkAQgGeFCnHa9/ADl8222pZXX57EF/O/Aq3ZYtPNMQaM8UMvSqjsX5RJCt+10hhlimUM1s7PmCJFihTrAzE9pOg1RytUUDRiNPgW2EZQyuLeu8fzh2MHcvLJg+PtX3ruUa4Z9SRXHrMTy+d9jIVi/rxFTP3gMw5yNJ6ryOc9LK1wXRc/X4ulFJAjsBrzzdz/oC3NpFff4puFCyhXCs83BG6BjABiMNjYkbGiiZ3ev3Q0eEd/qVR/hMiAiapxXnfddRQKBUSEE044gd/85jf4vh9nF61VUZ5iHR5BQjejhI/30I4QBE2gLCwVJkMbY/CMj29sjh84iJ5796R3z734w76/5//m/geNUAgC0KAtcHQtWimMyqKMg41GWRqtXTQeBqtIEwstdxEbJWDhoS0wWKGGCCq5xgAAIABJREFUjDIoDTY+RgSDCWsUeUForGy+JVtsujluEIDxw0rPFHm2ijiVuzhfII2opkiRYqNAUbohnITZxYmohIRXJTimFks14pPZX0B5a44+4Rg8N8/KFSvxvALDLhzOh++8S5vNfsNRRx/OkGP7c8uI0fx2v0NonMtQlm3OpptujiBUtG7NFh02CTXF/AKX/ulGPpn+LgMGDKAqsNmpezcsMTRt1562rZqGzuwoI1bMqqK16fALbCAy/qVekuhv3/exbZsXX3yRAw44AKUUFRUVTJ8+nY4dO8ZVniOvzNoobhVROowJ46JKFFokNIJVmCIciMIog4NLYByCwCOTyTFs2IXceuuN8b5uvv4mzr7gHFb6PhlHk5Go0nSAGI1RCk2AkgAhC/ghrURZiAGLAKM1IgpbAgQPUQ6GsCijoDBKYxsfT2nEeDgSZiwpJwCx8C0LbQTb+BgFgbHR2kdbGiPhZ2U0QlHV0egNwNRNkSJFiv+C2JusQIKiUWBhJI8yBYxkqJYMVsaiDMBbhgqy+NpBMjaWCbCMAduhemU1OaWxGpdRg1Dmhc+DKjugjBosGuP7AaJdLJ1FFRS1hTzlTUKPexBUY2lDjapADGQDD2VZhCxDjdZWsWxMOvg2+PBQMiyUDPdEmUO+7zNmzJj4+wEDBvDrX/8a3/dxnFW1ddYKn4VVOfNh5eOoCtGqekSu54WZSoEhUBa+H5DN5rjvvnu49dYbyWazFAoFLr74YoZdeC5BENDItkMCWNw2K1RpRIHSCQ9HuFxHKddotKiiSK0Vrqd0+El0KMcvClF2uMwKibRW1gpvVVE4qiispGyUEhxLo5SNEbCKN/GqTO+0YFeKFCk2fETK5ir+rONvlLJBayxlU44mCARRBstuhGiNrS08E/JYxArH+EYVjSAQfGOwjUEsjTGQ8RXaLicIQoNDyGD8sOhueZNygiIH09I5RAwZDAqN5djFEJZNJCuXerpDNHhPS2l4KAgCLMuKiyK+88479OzZE9d1qaio4K233qJLly5xplCyNtHaMlxiK6XIHzESGlAmMLFXx/dD2edMJsNLL73EIYccgu97eJ7PoYceyuOPP45laUTAtqxwh8WCWyoqTJE8VvRHpJei6ralvtVUPZ/DdROhnsgQjNPp1lxNNPVQpkiRYmNAbLREit/x58TQKkkROhXTBVcJVanEoyDxnDIGz/epqa2hvKwcExi0pclms/HzK6IuWJYVKpAXPSiqOCOW4sFKp8UpNjBHf7Iyc2SQ3HvvvbiuC8BBBx1E165dV1O/XZsGS8T3kKIYkRRJqwhxm6KMJsdx+PTTTxkwYAC1tbV4nk/Xrl256667yMTFtkJjRaKdRLsTKR6jyJmRon2hpKhaS7hcFW8/ibg1UgzPFssbKFn1maK3Slb9LqKKrJW4HEIxthsdk1WfVRRbTZEiRYoNGKpopEAY4lfFgXzVOChxVmgsQJcYC1eJ0q2KAEBxmdYsWrSIfXvtS7t27dh8i83Zcccd+eSTT7Asi0KhAIClrTDbVUfCGRFHMZq/rjpetO8UG5inJfo7Smv+/PPP6d69O8uXLyeXy/Haa6/RrVu32JqFn8Zf+bFtDIIgzmiKUq1///vf8+qrr2LbNk2bNuXVV19lu+22wyuGkaJtk+1MK3mmSJEixYaD5HPKGINlWUyePJmDDjqI6upqADp37sw//vEP2rdvX+cZtSakz4H60eA9LUkPiTEmrups2zb33Xcfy5cvB2CfffZhxx13xPf9ny4g9z8i6WnJ5XJcd911vPrqq+RyOXzfZ9SoUWy33Xa4rovWOq5OnSJFihQpNg6ICLW1teyzzz7cf//9WJZFNpvln//8J0OGDIkjA/VFAEpLzKRYHQ3eaEle2KgwYiaTYeHChTz00EPxeqeffjqO49SpMbQ+4Hke2WyWadOmcc0115DNZsnn8wwZMoR+/frhui6O48RlByzLWitZTSlSpEiRYv1DKUU2m8V1XY466ihGjBhBoVAgm80yceJErr76amzbjj3yAL7vx5NyKQk5paiLBm+01AelFE888QQLFiwAoHv37uy///5x2GitEW5/JCKDadGiRZx00km4rkuhUGDnnXfm5ptvjkNGyfOI2rm+2pwiRYoUKX46Ssdv27bJ5/MMGzaM888/PzZcrrnmGp588kls26ZQKMTjf0QvSA2W78cGZbRE3hbXdfnLX/4ChA/+k08+mUwmE6c5Jwsp/lztitriOA4XXHABc+bMwbZtKioqGDt2LGVlZaup+ia3X9N3KVKkSJGi4aM0IhAEAY7j4LouI0aM4Oijj6ZQKOA4DieffDKzZ8+mUaNGeJ6HUirmOKYT1+9Hgzdakg/zyBJ98803mT59OgDt27fnwAMPjDsLrNswS2lpgGQNJNu2efjhh3nooYdwHAff9xk5ciQ777xz7P4rNUpKY5hph03REJHs78nX9323NrdJbpciRUNEqZ5Y5FWPJDDuvPNOtt9+e1zXZdmyZQwcOJClS5fGqu5RpCBC2vfrR4M3WiKrNSnHP378+JjMdPDBB9OuXTt83/9ZLmp9hCljDLZt88knnzB06FAcx8HzPI466ihOOeWU2JKO8vPTzpdiQ0OpYV0a0qzP+K7vBaxxm+/bLg2fpmjIqI+HEk1Soz7bokULHnroIZo1a4bjOLz33nucccYZWJZVb6mZtO/Xjw0m5Tm6aIsXL2abbbZh6dKlaK15//332W677eKQELBOL3Sp58eyrPjYvXv3ZsqUKdi2zaabbsrbb79Ny5Yt6wzSUTpc2glTbEioL6QJxCn+ydDmf7v3SsOgyXuqdLuU95ViQ0B94f3o70g3LJ/PU1ZWxiOPPMLxxx9PJpPBdV2uvvpqLrnkElzXjRMzkgY+1J28/9LR4D0tSQ0UpRSPPPIIS5cuBWC//faLxeSiCx1ZrOvqAkcDa5SunM/nsSyL22+/nSlTppDNZtFac88999C6deu4w0btShosDdxeTJFiNZTOKJMGSzLzIcqE8H0f13XxPA/XdeNX8u9IxiDKpCg9Rum+U6RoaFiTFxKI5S2UCis+H3fccZxxxhm4rott21x11VVMmjSJTCaD53kA8f2QhoZWxwbhaYke8q7r0rt3b6ZNm4ZSirFjx3LyySfXEWpLdp51YbhERkhktCil+Pzzz9l1111ZuXIlvu9z5plnMmrUqDi9uRTpjDHFhob6DJXoc6SNFM0G6+vzP+Y4hUIhNvLrK3Sa3jcpGhq+z9MC1NHkUkpRW1tL7969effddwHYZJNNeOedd2jfvn1cCDgy1NdWsd+NBQ3KaFlTU6IwzMyZM9l9991xXZfWrVsze/Zs2rRps85CLt/nERERfN8nk8lw+OGHM2HCBJRSdOrUialTp9KsWTM8z4s1WSDtcCkaHn6s16+UHFufgbJy5Urmzp3L7NmzmTNnDlVVVeTzeQqFAoVCgVwuR1lZGZlMhkaNGrHNNtuwww47sNVWW1FWVrba8aJq7T/URZ5OClI0FCQ9Jcm6Q5lMho8++ohevXrx3XffEQQBffv25Yknnoi9MvUlaKR9uoFVea7vgiTj2c8991xMwN13331p27ZtrH1SXzx8bbUnuc+oExpjyGQyPPLII0yYMCEWths5ciQtW7aktrYWx3HSTpaiQaO+B3x991Fyxmjbdvx9bW0t06dP59NPP+Wtt95i+vTpLF68mKZNm9K8eXOaNm2K4ziUl5dTVlYWiy0uX748NmImTZrEsmXLWLFiBe3atWOvvfZihx12oGvXruy8885kMpm4DVEa6Q85rxQpGgqS91TEb9l2220ZOXIkAwYMwHEcJkyYwNixYznttNPiUGmU5JEa4avQYD0tpSRXYww77rgjH330EQDPPfccBx54YGy0rAuiUikJOGmwaK1ZuHAhu+66K/PmzUNEGDBgAA8++GAciyytf5R2uhQNDaUkWKibupnkqySNhdmzZ3PXXXfxxhtvsGTJEpo0acJee+3F7rvvzlZbbUWHDh3o0KFDbHB8H2pra/nqq6+YP38+n332GVOnTmX69OmsWLGCyspK9tlnH04//XQ6deoEhOqhkfGUbG/pGJDebykaAkon1NHnqA+fddZZjBo1CsuyaNKkCVOnTqVz587xs62UmP5LR4MzWqILGsXzgiAgk8kwefJkDjjgAAqFAp06dWLatGk0b948Hqxg7V/QyDhJpq5F7upcLsegQYPi2hLt2rXjrbfeorKyMm5PaRpb2uFSNDTUx1VJclYibaRI3fORRx7hwQcf5F//+hc9evRg//3356ijjqKysrLe/UfEwtK+nzzGmjwn8+fPZ8KECTz77LO8//77bL/99px00kkcd9xxKKXwPA8RiY2XaKIT3bPrqwZZihQR1uS1VErFk9uamhr233//WHts3333ZdKkSfFzJ+mxT58hgDQgGGPil+/7YoyRQqEgIiLnn39+WDscZMiQISIiUigUJAiCOtutq/Z4nieu68bteeGFF8SyLHEcRwB57LHHRESktrZWjDESBME6bVuKFGsD9d1zQRDU6euFQkHuuOMO2XrrraVDhw5y1VVXyZw5c1bbj+/74nmeeJ4nvu/H/T95nNJjRtu5rhvfY67rShAEdfb/6aefyuWXXy7t2rWTLl26yIMPPhjvL1q/dDxIkaIhoLS/J1/RPfbhhx9KixYtRGstgIwYMUJEVvXttE+vQoPztJTmtgMsX76cXXfdlc8++wylFK+++io9e/ZcTbZ/XWmyREqFkeW7YsUKevbsySeffIKIcMQRR/DEE0/geV4dL0vEAo+QWskp1jeS91j0d+SZiP5OhoJeeeUVLrroIpYvX87QoUMZNGgQ5eXlwKq0zKjwZxL/LRYv9Xh4oqy8JCLvSbT/FStWMGrUKMaMGcMWW2zBjTfeyG677RanTSul4syLNem9pEixPpG89yJpgEwmw9ixYxkyZAiWZVFeXs6UKVPYaaedYm/nmvBL69MN1n+aHFg//PBDPvvsMwA6duzIbrvtVkesbV1dNElkSSRddXfffTcff/wxSikqKyu5/vrrVxO3W5ftSpHif0HSYCnVk4j6ajQRWLRoEYMHD+aEE07g0EMP5YMPPmDo0KGUlZWRz+fjshS2bccDanSv/JgJROkAnryHklXQfd/H8zwaNWrEJZdcwieffMKee+5J3759Ofvss2PiezKUu6YMjBQpGhKijKLBgwfTq1cvgiBg5cqVDB48mNra2jrPwtJ+/Uvs0w3KaEkaCVLkjkRZQxEOPvhgcrlc/N26RJLtHb3Pnz+fW265JZ6dnn/++Wy11VZ1siqSA25yPylSrE8kDZSo1klStC0IArLZLK+//jp77LEH3377LS+//DKXXHIJZWVlMT8lSuOPDJaIRxK9gB/EJ0kOvEkl0CQXLNq3ZVnx/VUoFKioqOCaa65h0qRJfPDBB3Tv3p1Zs2bFhVOlKEkQnWd0jilSNAQkny1R39dac8stt9C4cWO01sycOZMrrrgiftZE3sRkf/4l9ukGZbRE7P/SEMu0adOA8EL/9re/XW1Gt64uXGl4yLIsrr32WhYvXowxhi5dunDqqafGwkHJGeuaZrIpUqwvRPdJNPhFoZhoueM4XHXVVRx66KGcddZZPP3003Tu3DkeKJODa2RYlGYa/VDvRvK+SGb9lL5K9621JpPJYIzB8zy23357pkyZwjHHHEOvXr244447YuJiclxYl+NEihQ/Bslst+Qzz/d9tttuOy677LLYi3nTTTcxefJkbNuO78PSEOovDQ2O0xIhclO/99577L333lRVVbHVVlsxbdo0Kisrfxa1wKg9UVx91qxZ7LHHHtTW1iIiPPnkkxx++OGr1YwoNVJSwyVFQ0AyFBPxPySRmn/YYYfxwQcf8Nhjj9GjR4+Yo1Xf/VXqsk7uv3SdNXFaSvdR31C0pn1HiGagjuPw0ksvcfzxx3PwwQdz991343kevu+TzWbTEFGKBoPv6/uRUbLnnnvG2US77LILr7/+OtlsNjbiI97WLzFDrkGfsYgwbdo0qqqqANhpp51o06ZNncF0bQ1CpaGpUtebUoorrriCmpoaRITf/e539O3bNzZoSj1EaTw9xfpG0kipz6CIhNpqamrYe++9Wb58Oe+//z49evSgtrY2Ds1E60f7KuXFJPf5YzwtyW3q2/779p1sh+/75PN59ttvP9577z1mzJjBAQccEBssyXNP/hYNaL6W4heE+vp+hEjiY/To0XGYaMaMGYwdO3a14qRJT+SanlsbIxqs0RINln//+9/jZYceemgdi3RtGgL1DZjRwG7bdqwXoZQik8lw7bXXAsSExNIMjBQp1ifWZFwk+7Zt2yxevJgePXpQWVnJlClTaN68OYVCISa1RttE+0y+ry+Unptt2ziOQz6fp3379rz99tu4rsvee+9NdXV1nXuz9LdY3+eSIkUSlmXhui7dunXjnHPOiZ8t1113HV988UW9YnPfZ+xvjGiQRkvktViyZAlvvvkmABUVFfTs2XO1mDqsHS9GMksoCj1FhlF1dTVXXXVVvN6gQYPYaaedYrd0RBBMawylaChIPtST1WKjNGWlwqJtPXv2ZIcdduDJJ5+sk35p23a9is4NpY/XR2TMZDKx9+iFF16gffv27L333hQKhXgCUkpiXN/nkSJFEkqFpPQgCLjkkkvYfvvtMcawaNEi/vznP9cRO43CvKmnpQEgmhVNmzaNFStWANC9e3datWoVx+DXNtG11IWsVJilYFkWDzzwALNmzUJrTZs2bRg+fHi8fikhMZ29pWgISHpFoj6ZrDSrtebggw+mU6dOPPTQQ7FhE/XnUqJ7Q+rjpW1K3oNRXRfLsnjyySdp1qwZxx57bLyN53l1+DzpvZqiISGaOESq66NHj44z5x599FFeeuklbNuOM/kiIu8vqR83SKMlGpAmT54cGzA9evQgm83GhaRKZ0s/9aKVutWCICCXy7Fw4UJGjBgBhB3qvPPO41e/+lUs+FNfO9bV7E0S7/HZioR/R+2IPiOIRN8LCIiAsOo7Cf+LlxOfC6s+s+b1SOxHWLVNdMzksvgzifYQrV/SZhJcjHrWKf6re6zidr+cW/eHo9Tr4jgOxx9/PDU1NTzxxBPxPZbsz8mHen2f16eHor54fvK7iMdijOFvf/sbn3/+OcOGDcNxnNh7lDRcUqRoKIh4ZJFhsscee3D22WfHOkXDhw+npqYmzpCLJiK/pL683oyWUpJg8mVZFoVCgVmzZgFhKma3bt3qDJbrguiaHACjWOL999/PV199hVKKrbfempNOOolCoRAP8Mm2rK121Ns2BBU2kuipLSKIUiDFNqBQAqCKL4Fwabi9AiUKRIWfVWwexIZAuJ/ifpUCKR4XUCpaL5p1F5cVdySo8KjRjiVqddguUQol4UtUuHb4exXXEoVSgkhiJl1sa3iS4dmIkmK7wjbG60jxOOvkCmy4iPqp7/vkcjkuvfRS3njjDSZOnBgXJa0v3FofFyb5/frCmsaAaFnkPgdo3LgxzzzzDI8//ji33nprnHWRXP+X5l5P0TCRfPYAsUL0pZdeyhZbbIFSqg4pN5mQsr4nEj8n1pvRsqaMgchF/cUXXzB79mwAKisr2XXXXcMGr+MUrygH3rIsFi1axB133BG3a+jQobRq1Wq9EJ4UoZEgyYe0Ch/SoY0gFO0RlBJU0UgRVTIzVVI0DBJGSvL3LxosSqS4b4VEL4nWk6LBUjRcRFYZQcVtiYyo4vFQFA0XiQ2W2FMSH4OiAVa3vSLh97HxVWxH+J0UjRhAhb/BL+PW/XGIhOPGjx/PmDFjmDhxIi1btqRQKKzmLdyQEXlYIo9KPp9n880359lnn+Xyyy/nueeei3VeIqzJOEuR4udE5DlJToh936d58+ZceOGF8f15ww03MGfOnJi0C3U9hxt7/12vnpZS8muSBPvhhx+ybNkyALp27UplZWWdOPa6aE9Egorqqdxzzz3Mnz8fEaFjx44MHDhwPbqViw9kMQRK8ASUEYQAX0ACH/FqcUXwfIMrgu+D8gNQecQPH/5GXALxCBAkMIgX4AWCbwoYrwqCAOMJIgG+1FAIBOMHKNcnEKFWgvBYUsAEPiKQB/IiSOBBEHIjjLgEGMSHIIBABBEPpBYx4bGNAg9QroGgBhGPAIWY8CY04hNIgDEByoMg8BDxMWLwA0ECAeNjRMLzSYaiUsSIQkLz589n6NChPPTQQ3Tt2hXf98lkMnVq+2zoA55SKq6bpLWOs4q6d+/OnXfeyWmnncaiRYtiD1NSZfSX5GJP0fAQPX+i8JBSKhaVGzBgALvssgsiwsKFC7nuuutWU5H+pfTh9cppqY/YF72/8sor8XoHHXRQbNwk11kXbREJ6wstWLCABx54IP5+2LBhNG7cOFYq/FkH9yL/QyV4IAbwlQCmSFYxmKAWSykc2yKjNKKEwDUYU7TcgwCDkDcQBAplPJSl8BF8JSjtI4Efeki0whgPo8IQk2iNiQ7nVoFx0ZZNoBWBGIxRYAARXN8Nf8sARAwiARIoxChEPIzxCFTRkPFAfIVgECmAGAJRBCgQHxGv6PIXlFa4ykdpjW0plAsYH18Ev+hfCb0xKZKIBrczzzyTAw44INYwScrvb+hx8VKPYeQ2jxR08/k8xx13HN26deOiiy6KFUhh1YSlVCE4RYqfC6Xk8mQ/jviVl19+eXwvP/zww7z88stx306Gdzd2rFejJenKisJCkUEwdepUILyY3bp1+9naFMX3H3roIf7973+jlGKbbbahf//+qw1uUfvWOVT4X8QXsURhA34x/qMlNAbsXAU1K6qZM3cO//nPp2hL0OUO4mVQuBDUEPgWrlgQ+BRqV1JTWxXu3ygCsdBaUV1TS3WVi21lsEwBjFDA4HsBOU8QWzCi+ecX/+ab7xZThsLxDJ4x+MbDciw8sZA8ePgE1KAlALERcigCXAIC3+CIEOQUxmRRgYBxccXEXBtLDIEfECgh8AQTCPOWLGLJgu9QgCfg+j66yKiJuT8pAPA8L9YZevvtt7nlllvilOefk0S+rlEfRy5Ccoy5+eabeeGFF3jttdfIZrOxOz7yoCb3lSLFz4X6yOVRP4zCQH369KFPnz6IhIKKV155ZexF/SX12fXKaSkdLKOwzH/+8x+++eYbALbaais6dOhQh/PyUwfW+oh30SvShxk9enR8vPPOO48mTZrgum6donDRvtY5ogEZQYlglBAAmSL/w8cgAXwwfRoDBg3h5ptu5po/XcnBhx7BrLlfoLTB95aicxXkHAfb1ti25q4brueKK2+lTGtylsYPyhErw58u+zM3jbwFRQ48BytjkbNtMhlDoAyW04KzzryAq/90JR/OmIUECienyWQdbMtgjGBrG6eRJuNkydpN0FowGDzfxrIdyrVDmWOHXiQdYDsO2qnAsnOU25qspUEMytI4GQcno1GuIaPh9WlTmfbuu5D1OHvohXzz5Tc4SmEi0vD3kLzXRLr8vuXrCz+2/cltos+2bbNs2TLOOeccRo4cScuWLQFWkw2ADTs09H3kXBGJCyluscUWXHDBBQwdOjQWnosMl9J9pUjxc2FNHM9oWaRH9Kc//SkuVPrGG28wYcKEOISUxMZMLl+vnJbSixItnzFjBkuXLgWgc+fOtGnTJp4JrS0XdmnniLIObNvm/vvv5+uvv0ZE6NKlC0ceeWQdLksyO+FngRRzgQSUCXNtDKCFkKcC2LlGDDv9TI46oR933XUX9z70KJttuTVjH3key7Fwsg6f/XM6b7z9NlXfVWNZGr+wkhrxmD5zFu+8MwPXhB2/uroKN1/k+NgrefvNt3l96pss/q4KO2sxa+oLvPTaK/z+2BM4cP/eWCzn7elv8/Y77+NLYzQW1UsX8c2KpXz6yRzemfEe1YUCtgrIZSwWLFzCtGmvMePDD5Gcxltezbtvvs60t6fx1ox3+ffcz1jwn8VYdobq6hW89dbbzH7/Q+zGWVzy9NmnJ33278WH773DS8+/yPsff0SN58X5UrIGV+uaXqXrRv1jfeOHtj9aN7kNrPIaDh8+nE6dOtG/f3/y+XydGd3GjFJPbjQxGjp0KLlcjhtuuAHbtus1/FKkWN+I+mHUh33fZ5dddmHw4MExf+X666+Pje/k+g1tLFubsNfnwZODZ/Lh8dFHH8X8lS5dusQp0JlMZq0eN0LSDbdkyRLuuOOO+LuzzjqLpk2b4rpuTPBL7uPnCQ8pRAxKhUEQLYKlFIECjWCZ8DesaFrBg2PH0GvXbrSpbM2dN48gKBoid48exzMvTma77bvw3lt/5NZ7x9GqWRNGjXuWbLMmzJ85jbIWW/PA2JHYtoXCYEwtg48fTKZJa7bYopLLrrqGux+4j5nvvsnKFT5vPDuZ3Tdvxy03XcWifI5GxiXQLXjgwVuZ/MLDnHfNOPofeyIL58zg64XLGP/M03wx81UuvnQkO++yI9NmzmC/fX/HkGOPY8JzL2KMYeWKbxkz5n6eefpVdqQt/U86ge4778GnH86mR+/+XHzhiQy94GTatejK7rtvQt5bzvQ3p7H/vnuTKy+PvSz1Gbel1ytprJSGE0oHjPWB+h6e9bWrlBMWGeCWZTF37lwmTpzIpEmT6pxv6T42RpTeo9HvEtV2OfLIIxk2bBjNmjWrUxZkY/9dUmwYKL3HIZyIXHTRRTzxxBMsXbqUWbNmMX78eAYPHlxvgdMNPexbL2Q9wRgjxhgJgkCCIBDf98XzPPF9Xw477LDihFnJU089JcYYcV033sYYs1aPbYyRQqEgIiIjR44sCqEgnTt3lpqamnid5HGjzz+1LT+wxeErMBKIL2J8CQKRghiRoCCe64mIK59+9KbsvGM3+e0ev5WmzVrJVVfeKLU1Bfm/ee9L59/sKB/OWSgiIjdedb489Pjz8uiNl8refzhSREQWfTlHNtuyuyxxF8vZQ8+VRSH8AAAgAElEQVSX6/80QuZ8NlMuGnaRiIh8OGuydO+2k1x1z1MiMk922O0gcX2Rx++5VXbZfe+4pT33OUzG3HOnvP7cKOm43cES/qqLpcvWXWX6lwvl3lsulN27dY/X//fcz8PTK2LY6afLmWf9SUREjju8j1x08fDwCy8vW27SQ/715XQ5+8Jz5eJLR4uIyG936i5ffr0gXMX36vSR6BqXXuvSz2taV+Tnur71I9mu6P6IXqV9Mmpv9J3ruiIicuWVV0rfvn1FRMT3/QZzbusLxhjxPE9ERPr06SM33nijiIgUCgXxfX+tjC8pUqwN1Dcu+b4vIuF9DYhlWbLlllvKihUr4u+Tz9T6nl0bOtabp6XUApRi/H3x4sW8++67AJSXl7PrrrvWCR+tDUiRuyLFUE8UL1y2bBljxoyJ08fOPPNMysrK4njhmjw06xwigEaUQQkYQk0TW8L0XmXbuNVL+PU2XZjx/nTmzP2U5599nnvuncB/vlrKWcf+iiYtWrHJryqprV3OBZeGCr/Xnv0XunTvgu951CwXxFtGVWEFomzytT5bd+xK87ZNOPSQQ2mWLdCkeSUqH1BY9i2u8fli/izen/ka2jiccfrpaK0QbVi29Duspi34VZft0cbg1y7ELrf45ouFHNbvDF6cNpftdtqR7jvtzGmDh2I2F5RlGHHj5cz46Euem3QbYhbzz8/mUuVlOe2009FWhrLmBZYXqgl0I2zXJcgvYWXB4pvvvqVD+0o0us61lYQHL7p+9RXalDV4IH626/tfICJxSnIkt1/fuSXX01pTKBR49NFHueOOO+KQ5g8+N4kEgKL1VpGcpSi6E+ruUAxfFkX/KG4TCQHGkoOrHaAoKpRUA1y1frRfVFIm8cf/bt8XTj7xxBMZOXIkp59+OrlcrsFc7xQpYNVzKlmQN3pmnXnmmTz44IN8+eWXfP7559x5551ceOGFcUQi4mltVB6WIhoEpyWZyjx//nzmzZsHhCTcNm3a1CkQtTY4Lcmc9ijObVkWEydOZO7cuYgIm2++OX379o2PnUwLrY9TsE5RfHhEwm0B4APaRGEjmP/v/3DAb/dh3sqVdNy6E8POPY9Rt93Gh++/wgoRqqsCMg6UlTVl7mefM+2d92heXoGqCbBsB50JyBmNsiyUlaFlszImPDyKv/7l74wZO4YH//ocW2xeic4otNMKR5XTuLwJLZu3pWvHnbnsssu46KLzGDL0FHrtvT+F2gCtXVAKS2yUcamtrqZFmw488cSTvP7Kq+yyYxcOPvAQFnnC9H88zoOPPcODf5tA03IbpRvRqm0r9uvTi8suu5Tzzz2P4ecOpWO7XyM4BBlBO2BnGlFRXhH2C8Lr43keruvi+z6+78dFAj3Pi/tRclm0nud5df5ObhsEQaznUVp0r/QFq/Mj6vsuQuk6petGQoczZ86MSXjJfZSGvFzXxbIsxo0bR/Pmzdlzzz3raDjUMbzjd4mLIERChUWlv6LAcvF+VUU15ciaKKoSF1sSCxJSFA+MDJe6KJo/kXBycb+hMKIqGiqhKKEqSjWrooH+Y/LZ10TOtSwLEaFv375UV1czZcqUOpWgU6RoSEhOtiIdsebNm/PHP/4xNk5Gjx7N/Pnz4+rs61qEdX1ivac8RwZB5M2IpPshrDeUJMpF2/xUQyFp/EQdwRgT67KICP369aNt27Z4nhcPcuvPai0qzEqo/mqJYENR3VYT+D5bbLsdXXfagUH9jmfmrA+Y+e47PDxuLAf1H8Bue57A5pU1XPnna/noo48ZdMoQ3nn3AxDDt0sWoRD8Wo+lC74GFfDt8pUsXbSExmWNqfGEFVVVvP7SXxg3bjw1NYtRhXksXL6ChTUt6HvY0Xz54SQ+/uxffLNgKX++8k5sG2oKC1m6eGH4cNJlfLtgISqT5eVJzzB0yBksXrKEJs1aslnHdiz8eBZHDLiQwQNPo7BgDu+8M4MFC/Icf9zxPPrYOGpqa3n/nXe4afQ4bOWwbPFXVK2sQlnNCaoX8sbU18kX3PDZqkJxsWw2SyaTwXEcHMchk8nUqV4cLU+uF60TfRdV8I62SeqawKriZqWv+oyb+Eom+l6pIb4mY1gkzH655JJLuO222+K2lIpJJfcXBAGPPvoo/fr1ixVgS1UzQ6MiRFG/OPxcLLUQyilDJLUsQmg8S9HAkdAkUbFHRFYpMBevRf2elqIpI9Gxiu2uY7QVj1n0uoSKyLLW5I6DIMC2bQYMGBBnCm7MA32KDQ+l93aEqAr08ccfT5cuXQCYN28e999/f50JebTd2pjoNyQ0GCJu9KPOnDkz/r5z587xrHhduLqimZVt20ybNo1XXnkFpRRNmjThxBNPjGe565/MFDnlFQaFVqGAmmjQorC0JiBgxJ3388D943jwwfvRYjjg0N9x+BFHYAWGRx4dx423PMY999zDaWcM5pgjj+LlZ7K0ssoxStG8TTuGXXwejXVTDv7DfjQSn/37/oEzvnMYffsoNm3XknGPjKfKK2CVt+DsUw6nSdZhy5335LZ7buCuB58CrbjzjuvYccffQM18Bh+zLWG9osacee75bParpmzfYT+mTpvFqNGjCXyfv/z1YWq+W84hRx7B4vnzuHfs3fii2K/XofQ/4TSsXI5Rt99OWSbD0xOfoqJRcw75/X44ugIRi4svPZ833p/JkgP2p31lK2pqahg3bhyu6+K6LoVCAd/363heIpJqZKSUGi7Ru23bOI5DeXk5TZo0oaKigqZNm9KqVSsqKiriUMwPQWTIQD2lE0oMmeQgo7XGdV2aNWtGp06dOOecc5g7dy7XXnstFRUVMUE82i5SuX3vvfeYO3cuAwcOjCcGScG1+Dhx7yqGmaIwT1HMT8QUwzjFtQRAY1SAJaHHD8AONMaKPCKCYFCii96UUsMlMlgE0QLGoNAIGsGEYT4tBBKWbNCEuoUk9/ITb8XoN+7bty933303n376KZ06dao3fJgixfpEdM8mvf5BEFBeXs4f//hHTjzxRJRS3H333Zx22mk0a9YsnqAka4ttLFCynkyw5GGjWanjOOy33368/PLLKKV4/vnn6dOnD67rrpY59FMGlujYxhhc1yWXy3Hcccfx2GOPATBw4EDuu+++WISrYWRcrGIUhEjwDVQ4YxUxqJLOGUj4KFCq7vK6/Aaz6vsEeUBMgNL1PZgNkZPONz62rmv7uoFPxgqXGRG0UWCFkv1OANTZ5ZrZCmJclK573Y0YtFqVHr/qeoSz84ULF9CuXbt69/e/QilFLpejvLycbDZLWVkZZWVlVFRU0KRJE1q1akVlZSUtW7aksrKSNm3a0K5dO1q2bEnjxo1p2rQp2Wy2/nOUVaUskueU7GdBEOA4Ds899xz9+vWjpqaGPfbYgzFjxtC1a1c8z4sHtsiDMGLECKZMmcILL/w/e18eJlVxfn3q3u6efdhBGEFBEAURFBdkUVBEjYgibrgFjRpjgkvc45bkh3ENUQmaT1wwKgTECIISN0QRRQEFBQRkVdn3YWa6+y51vj9uV031nR4ERJiBPs/TTNN3r/tW1al3fTvNFFrl+lCkRZlGLIBGzoeU+RG0AsKcCrH3bQ9R2nCEB0qBHD8CN0rYMpXdWBAWbVgCkAKwwqQlSNADwE8RFQH6dnAzFiARlJIQlgVL2oCQoBCBLP2M8ddcuaoUB71798avfvUr3HLLLfA8b+9nvM4ii59A2B9NyW88HkePHj0wd+5cAMDQoUNxyy23IJlM6krQwP4VEbdPNS0KSqNRWlqq/VkaNWqEVq1apbFFUyW+JyClRG5uLhYtWoTJkycDAHJycnDVVVelrXpNZ6h9g0pVfPoEX+mlGDhBWtpREwhW6baVWsGS8DwfQOWq2/e8wKFXCEj6cHyJmB0BfS+YaKwI6CThK+2OsAASUUvCkwK2HYENAU8m4XtWQKsiAhErAun58OEiInIA+Ei4HqQdRYSEm/SDCYiEFbEghQDdZLDaFjYECcuyYdk2fN+F9AEIBr43otKUqOy7SjZs20YksudFmiTi8Tji8fguHVdQUICDDjoIzZs3R0lJCRo3boySkhI0b94chxxyCEpKStCoUSPk5ORklK1kMpl2Dz169EBeXh4cx8Enn3yCPn364KmnnsKAAQO0vw4QDFDvv/++zp6ZSXYrNTyAqvptOsRW/seu1MEIYxttgBaC3MwpXxcqXxerkkiL6sxDgBSEhUCmfOHDopX6XQIyAlswKBEhLNgpz1ymrrMnNC3Kl+3www/HggUL9t8Q0SxqJTL5vpmLGpIoKirCjTfeiN/85jcQQmD48OEYNGiQ1rYobfD+JNP73DxkqryWLFmiM+EedNBBOOSQQ/SAm8n+v7OoTpmkXv6YMWN0MrsePXqgW7dueiI0B/199+JTURbhCA5Vj0htRhCBVVmnCJVVlwFEorYRsZEiY8ICUytrKxIFIGFZypESsG3AFpFKBX/KQTMCG64QsAjYtJCMRZEnJSgCc4IlBGBZwaJdEHbUCvwXLB8REUlNbgIQEhY8IJaTWnkH5wcsQPiwhCJeaksgK6pKtCIrSiuWm5uL66+/Xpt4TDOQMv0o8qucb03Tkeu68H0fFRUV2LJlC7Zv346Kigps374d8XgcFRUVSCaTKC8vR3l5+Q7fWnl5OZYuXYqlS5dW2VZQUIC8vDwUFhaiVatWOProo9GpUye0bNlSa2qKi4vTjqlXrx5OOeUU/Pe//0UsFsPq1atxwQUX4LbbbsODDz6oyXUymcSqVavQsWPHKs6oaVKlzEMiZXzU5qKgordylBUp+aMAICSEJGxhg5IprZcEhSoNIAKzEKDlTDv0aqR8VlIaO0kBDxJRCAA+JH1YsAFJ0JIQkCAD8mQFiZKxu91QjTmmb9I555yDv/71rygvL0d+fn4VP6QskcliX6A6eVOEW2lWL7nkEgwdOhQLFizA0qVLMWrUKPz+979Pm8MyRRrWVnnep6QlrPJavnw5tm3bBgBo2bIl8vLykEwmtQOkwq4SlkwhrkCgiSgrK8Nzzz2nt918881p3tomq923SE0++m/qXyOIo3JP43dAj/Bqv2CCqozgUMp7SwQ+BCLl9JjyoEntH5iL6BMiEoElUtodWoH+35YpbmWhMjrEgrBSIdoQsAnQEhAycPSUqXsT0oO0IpCSsFOmLCEAxbwCJ0xAm6VE5XOGO2JeXh6eeeaZPd768XhcExhFYrZu3YqysjJs3boV69atw8aNG7F+/Xps2rQJmzZtwrp167B161btV2Om2lakZ+PGjVixYgWmTJmitzVp0gTNmzdHs2bN0LZtWxxxxBFo164d2rVrh969e+O///2vNmN4nofHH38c33zzDf75z3+idevW+Oijj1BUVIRjjz1WLwiqQ0BohTYRUfmhaE1JirgwFXZPGRAX2hAgrFRqZiFcCFrBu2OKvFhMvbIM/ZUpnxlJWELAEjLwf1LfU/dkK/+aQI0T+MLsobFWaeWOO+44bNiwAWvXrsVhhx1WRTNVmwf4LPYvmOOdWvDn5+fjlltuwTXXXAMAeOaZZ3D55ZejqKhIy3LYsb82E5caoWlRBGHx4sV629FHH60H3J8TWqxeTlhbogpNjR49Wpukjj/+ePTs2VP7FyjVWm1+wZlBSAZziUUfPgHLsiF8HxRWEIIqXUAAPmNBJAgELBuAHYVPIGFJRChhMwLfJiJ0AN+GsKKASOmBpA1SpipEE5YgpLRgU/kr2PB9DxHLgp8yTQGA58vUNVPhrkg5ippEzEA48iOZTOp3taMJO6xqzbRdaXOUH8vOQoVIl5eXY+XKlVi+fLn+u2bNGqxduxYbNmzAqlWrsH379rRj161bh3Xr1qX9Fo1GUVRUhAYNGmhNkWkme+edd9C7d2+88cYbWLBgAerVq4c6depoclOt/AqmnE5S5CClsRMCkEwRTukjYluADHxVJAhLMnAtkQEhhU0IKQMTokwtLBiYcxC+dsocFRAgC9L3YNuAZwGkj6gM2t6nD1sIUAT0WWgSu/vWIXPAVg7+DRs2xOGHH44vvvgCrVq1ympasqixCGtOlXZ1wIAB+Pvf/46FCxdi/vz5eOONNzBo0CA9Rpj1tWq7PNeI5HIq+mHJkiV6e7t27fSLUYM0kJ5jZWcQZqZA5QuMx+MYPXq03nfgwIEoKCio4oxX25lpVaTyZxAAfUgKSE/A8iQQtSFBuIk48nJz4MogoV0sFsHKhQvx5OOP494n/x8iuTai8EHYSPhE1E5CIB90JVzhIBaNAa6AJxzQyoH0PLjwYDEK6fuwLBu25UPQxfaEREFuDsa89jryC4tx9hm9A3tsRNElFd1Ste3VezHJSXVOr9W2RjXauLDjWzj8MDyxmR9ltorFYqhXrx46deqUdv5kMonNmzdj69at2LhxI1atWoV58+bhu+++w/Lly7Fu3TpUVFRg06ZNIAnXdbF582Zs3rw57TxKRRyNRrFy5UqcccYZKCgowODBg3fOCU+ZgRiYhgLH2VQkkxCQ0kcEAr7rwLYAx5OgHUNMAPQFIH1I6YCwIYLCWLBFiuBYgVlJyBDLECoKKSBEvucDnoQXIWDZsKUM4ohcD7aIggCkRURUyLX2r/l5UNVzc3Jy0LFjR0ybNg0DBw4MmiX0/rPIoibA7NNqzPM8D3Xr1sX111+Pm266CUDgkHv55ZcDqJzvFFFXGsbaOp/VGPOQ67pppKVt27Z6n59ji1MTmvnC1G+LFi3CtGnTAADFxcW46KKL0ibA/cUGGIb2JhCALyWiwgIsARGJory8Arl5MeQX1EN5ohwFuYGIJB0Hpes3Y87HM7DZd9HazoEHwHF8FMYiqICNeDyJ/GghcmK5SHoecqwIYpE8lMbjyI/FYNuxYFUdyQUswKnYilheBJFIISBdvPLySzjlzPNxdjBNpbRBkZQZqjKPiIk9lYcgfHymc+6sJ755nEl4lMZP5Ylp2rRptZFOpaWlWLlyJRYvXoxvv/0WixYtwrJly/Dll18ikUho8q6IuCLaGzZswIYNGzBjxgxs3LgRDRs2rJ7kqxwsFgJiQYGUda8yL4onQVvCtiQsC8iz81AGQPrB9aSTQCQnF4CNpJ8EYQfmHUsCsFOuWEZgNVMaNCDleE3EcnMB5ELQh+sRHmzELB+xvAIAgC/V/oRMmQ6pUrakXGbCgXU7CErT78Uc+EtKSrBw4cIqZGXfO+FnkUUlMo1zaqy6+OKL8dBDD2Ht2rX45ptv8O677+Kss87SwRlK3k25ro1z2j4jLWHtheu62mGxsLAQDRs2TCMcagW7qwOIeQ0zskQIgVGjRsHzgkwTffv2RUlJSVpWTPOF1saXWx0IoR11hYjC9ysgvST+eM/D2LhqCco3r8HVN9+O/mf3xb+eegzj3voIDQ8tQbeDmqJJkxLUKS7EpDcn456//QV/f+QxtGvZCtc/8EfUk7ko/fFHXH377TjnzDPxwO+vxw+RInhlW/DDdwtx833/h369e+J3V/0GzClEhOVY/PVM/PHp0aiXXI95X8/F+i0+Tj+5C446ojUkZVDBGgKyaqaO4P87SSR2B3vqnJm0OEp7Et5PyWtxcTE6dOiADh066O2TJk3CBRdckJa9NawmVnL+2muv4YcffsD48ePRuHHjzKRbAEClyUURAZFSjAgCOTkRSJkEpI9k2XbMWTgPBx/RHk0KcuB5PiwksXzpEmxK5KND25Yp7YwHC06geaMFWFKTCHVJBO61EJD4bv4cyIKGOLSkPvKjuUjCguuUYeGMWWhyRFsU1K+HqC9BO+UvxUo3GRqO5UJUJqyr9FCv/p2YleMbNWqErVu3Vunz+5+WNYvajEwyqNwdmjRpgksvvRRDhw4FADz33HM488wzM/qD1mp55j6CWQyKJFeuXMm8vDwCYIcOHbhlyxaSzFj4aVeKP4WLI6rzbd26lYcddhiRWm++9dZbJIOCc/tbgakwfJJSBu0Zdz2SFXzorut5+sXXkyTXr5zD1p0687s1m/nXW69hp+O60iO5+Is57N+1D19757887KijOf79j0iS1/z6cv79lZdJki8PH8bOJ/bg9qTDq37Vk30uvJokOXzYwzy2xzkkyW6dj+PV1/yRJPn4PVez24AbSJIDLziXDz03liTpJMro+g5dGRSKlJT091L77EmEix6GizWaxQ9NGVVFD+PxOJPJJNesWcM2bdoQCIqkqY8QQsswAObn5zMvL4/33nsv33zzTa5fv55kZUHF9JsjKSUlSd+XlD5Jn/Ql6UufvpT0PYe+V0aynKsXf878/LqcOP0rkmRZWZzkdv5x8FU8ocelJMlyVzLuVNB1NtNxHHqez+DEpK+KPjoOXcdhMhkULryozyn8za330Pc9TnhjLL/+YSPLK9azfU4xX/jPf7nddbl9uypc6qvbpu6i4b/h7yGYxSVV8cTp06ezS5cuTCaT+l2Z49P+PB5kUbshpdTyOmfOHD2PFhYW8ptvvtEFgU15zjge1BLsM51n2F9g+fLleuV58MEHo7CwsIqa3Txud6FyM3zwwQdYuXIlAKB9+/Y46aST9Mprf4eZXD2IDvLw0YfvoW6+jeeefR7vvPcxklu3YOHy5ahbvxhde50KWxI+PKxY/QMuPON8nHFeX5x72smQnovf3/J7FCYdnNu3Lya+9xaklChzfBTm5eHcCwZASolWhx4GSzqQ9FC3fgn6/upMSClx9FHtQVogE6kw2MC/yRLRIBpFhdsyc9m92gLTFGGufFTGZbMop+l4rmoN/fa3v8V3332HSCSinXyVvB577LG45ppr8Nprr2HKlClo06YN7r77bpxzzjlaY1m9XKtIsUDVIoWEZKADoQz+QkZBRpAb8dGwbj6IQDPqMw7X9ZGXW4xYUR2AQMzykRvNQyRaLxVebkFKwpcSViqPTiQaRSQahYgFptrcXBv5devBsoA7brsbWxwH+XmNkJtbiHoNC1EYiaCwMC/w35GBH0ygLww0KzT/SuUvw0pzkQE1joTbpFGjRrAsC1u2bEkrpqr2NceiLLKoSWAqWMB1XXTs2BF9+vQBAJSVleHVV19N0+DuD1rDfV4wUf1dtmyZNtUccsghgb3ciOLZ3XT64fh0NSC98cYbaaahevXqpXlY788QRkRORACQCeTmRtHsoMbIzcuFbeXhnvvvQafDW2BreSmSbsr1QVagXr0o/vXKvzHpP6Mw64vZsGwbj933AD6d/TUG33ILhj3yRxTEckBEEbEjiJdtgRAWkBBwtnwPH4THPCTK4rCEQNLzsG3TBkBWwI7mIS+WCwAgbYggoTugCVbtQ9hB1zR3mpFxSr7NmkXK1PPII4/gzTffBBD0m0aNGqF///546qmnMG3aNHz44YcYMWIELrjgAjRp0gQkUVZWphPvVQuqP6koLRIULnwhIVN5fGDbkFYUQsRgySQiMol6jeoiGo2iuLAeotE6qJvfAKUUcCERsUrx7D+H4fQ+Z+Oss87C+x9+Bsu2YVsWJr/9Os7r1wsDf3UOftXvcsyYtzRwqPVKISIRvPrMc1i1di3u/uMfMHfWHBTXb4hPpk7GRVdfilNPPwuvvvkebDtQhXvJBFR+IZnKsCsoQcpKP5oMPCP8LtRYEo1G4fu+Tuhn7lfbB/ks9m+YcxxJXHfddXrbf/7zH2zevFnnazHTLtRWIr7PM+KqVcx3332nfzvkkEN0A6vIIoVdHURMcqQY6apVqzBx4kQAwWA1cOBAve1AQBCGmoqk8gA7loMup5yIT5eX44m/XQZn6/foef71OLNvf0ivHIny8pQ2wIPv+Bh02RVIrJqHG2++Gx9NHoelX3+Nmwbfg96nnYw/33Q5li/9ATHbRmlFEk3cBIQAXN9DPFEOCImkk4AnPVAIuK4Fp2IzhF0IUmLt2mX6WrCjEBSwU44QmXKr1nRUNzBU97vpYGvbNsaMGYM///nP6NmzJzp37oxevXqhS5cuaNCgQdq5kskkIpEIysvLYVkWcnNztVamWkdlYXxhSneRSsyirE5CVlZpFgKgm8S//vEsPm5RF45TgcZ2Baa+/wnsJt0RERaefvAvePzZCbjz3vuwbf2PGPTr6/DaW/9FQ78U1192KX57719xwhGd8MRjD+G2G+/AjCmvBxoUV+LEk9qjqKgYp51zKZo3a4ikuw0Txr2LP/31XiyZ8yUG/+ZKdJo5C22bNwPg6MR4Vqo2knLyVTlmMgmLObjTcLovKCiAEALxeLxaB+wssqjJUFG2J598Mo477jjMmjULK1aswIQJE3DVVVchmUymlcOprWR8n4c8q+8rVqzQ20pKStJU5OGG3d2Gdl0XOTk5GD9+vE5i16NHD7Rr166KKaqmaVxM8gVkjm4J/x7eR7cbK7UXEVvCS7q48c4n8OO9T+DCCwfC8stx1y034JBG9VCnaVu0qVcHkkROYV20PPIYrK9I4obBN+D9qTfjzf9Nwz9HPIlbHx2CiSMb4/i2B+HEEztgw+o1aNWuLRo3KoYkULdRI7Q7+kjYtNH68Bao37AYghJ1GjVHuyNaQMoo+p57Dp557gVM79YFJ53YAZJBBAoAlSO31mFXQ/PNgaSiogL169fHl19+ibZt26YNOI7jAEBaEUQz+6XZd9QEXd29pPxiYTGlYVCp3RiYYCwVnkxCWBZmzpmPNatiyJPbcJC7GcuWr0L9Fj2A5Ho89dwo3HHv3/Hba68EAKxdsggPP/oYXnzyIcz9dhnqHlQCV/pYs24Z/vLEfyBARKMxQHho3akT6uXXw6mn9kb9ZhGUl1bg/qeexRX9+wADzsDsD9/H9Nlf48hDS+BJCxYAn0CEEj5S7YAgMk6Y0UQZ3km476gFS7gSdhZZ1AaoPu+6LgoLC3HVVVdh1qxZAICRI0fisssuQzQaTavjV1vle59GD5HUWT1V+v6CggK0bNmySuTQ7kKp3NW1XNfFuHHj9PaBAwciGo0ikUggNzdXR2DUtMdWWV8AACAASURBVEErTODC9xcmNeo3E5VkBmAqoZiwfNjRoGLxsKF/RiLhIjcnCgjA98tx880PwAXgu0m06tABL772Mso8F4g0xsS334BX4SGSb+GD3ufCcyzk5gC3IIpEkvjTw0MRFwKeT/To2RM9Tu0BKYkRI56EJwHpVuDUs85Fr74Xw3d9DBx4GS4aeBkcXwKsgGQEEREBUpl592eY79N1Xa0tOf300wFAp+dXEXDKpBQ2/8RiMV2i4KcvisqIHgQmQKkyGUsVYiwhROUw4Vs2/t+IR9C7fdvULx4e/NN9mDx/Pdytq5EUxXjm/z2HMS+/gJjtY8vG9Yi1Og716zfAi489hLc+/wzf/rAa3srZqNvyLLipsGspCZlMQnoeyrZtgfTrAFYeJCTKfR+5pZtQhx7KfYEkiWiKxgb6IBn4tFh2Kotz9Qj3bfVdaVhyc3P1fpneTRZZ1GSoOe6SSy7BkCFDsGbNGnz88ceYOXMmunbtul/I8T7P06Kc39avXw+gkrQASFsx/pxrKOISiUQwZ84czUCbNm2qi8pFo1HtpFsTB6mwmUsROgUzhPOntERBJtIUcRQp04APJOgjJxaYFAgXloiCvgffB2xLBBlS6SPXEqDMgec7iMQA3/MgKBGNROC7DiAlolYOPJ+g7UP4OfDhwYmUIZdFcFwfsAALNqQkXARh7NJz4FsWIGwIYcFWxfpqq5plF2CSUrXqV6YiJZfRaFTvY/plqH0BaHOq8s3YodbQEHEhAg1F4A6SkjXpI6gFZKe0LRFEc3MRL0/C930knCRyY0lItxSCLqJ1miJmWbjyql/jygvOhpRxzJj1Daz8unj6kcfx4lP/xD/f/RBtmx+E6eMexR1PfBI8dzSGCKMQtgNacdSvVwzLLkQkkgPLtmHZFqyIhZgAEIlCIJBFi6l6SJSgZQeaIfXbDmCOCap9tm/fDiGErj0U3rcmjglZZKEQXqDWr18fl112GR5//HEAwIgRI9CtW7caZ0HYHdQIn5bNmzfrtOXFxcVo2rRptaah3YVakU6YMEEXuuvTpw9KSkp0sT3zmjV1gFKkRa2kVUZU3/f1KnHbtm1pg6zv+ygtLUWDBg1QUFCgzoTARGSBFkBYyA3W1hARCVtGoXJs5NgCYAQCHgAPPnIQlRIyEoEPB5YkYOVDCB+0IqC0YQnCFzZsALYdaEpiVg7gC1gRO/BFsAQAH1FVHFHaQTZVQUBGYIkg+Rix/08a5rOF8wmZZiHzdzXhmlEual8ViVetPwuQlpBNuYAQIqhElWKLgr7WtnjSwqrV6yG9JCzbhiNiKLAJp2I9Nm4ug8htglt/92s88cyTyI3ZkOXr8fCj/8Cfn3gaOcV1sDaRxILZn+HT99Zi1POjsWiZg6TrY/O2UjTY6kNEclBYBAx75CE0/9PNWLN1HdxkOSIUAAW2bNmKRDwBVxC5qaQygYN2qiiolSopsANk0kgCQaQFUOnbAmAfF0nNIoudQ9gqob5feumlePbZZ1FaWorJkydj6dKlaNWqlbYm1FYCs881LUIIbNu2TfuY1K9fX6+C9sQKR50rGo0imUxi1KhRetugQYPS/D/CE0FNfqlmCudoNIpoNIrFixdj6NChGDVqlCY2iUQCDRo0wIUXXog777wT+fn5hoCnJiVG4AuBHLhwIVI0wgEo4TP4bjECCh+EAzAG+IAnfMAibBGsfIUASCsVRh2s3G2h/AsELEZTPhM+VPXfIJSZYKoYoiBgw4dAJHCsTOUJC5b6++/ksbue/OFJWBFXU9NSbT/SaqyUAyuDmkNM+WkLWBB2UBBTSsIubIDf/uFaNG/aBEJ6iAgB6dno1PUUFLS1IX0P191yJ3Ibt8Sbb/0POTKBx58cjgsu7A/hJFC6bRMmvTUZzRoW4bG//x3jp3yFRCKBfhdcABQcBfqF+OvDD2Lkq29jxfLvcf0fb0XrQ0sAENIqQJ+LLkTr1iWIpWQGDIosUgRCJrQs7bi9zP6toilM0qLaykw+l0UWNRVm/1Zy7XkejjnmGPTo0QNvvfUW1q9fj9deew133XWXPqbWgnsBZrI2M0Gc4zgkyffee08nx+rXr19aoq1dTSQXvh5ZmTBuwoQJOhnX8ccfz/Ly8rTEPOpvTUgul6m9zERljuPoxFhlZWV89NFH2bhxYwKgZVkEwEgkwksuuYSzZs3S59XPyFRCMRmn9D36rmSSDl2ZpJQupUwlPXMkPRmnlEn6fpIO45QuKR1JVyaZkEn6UlK6HqUvg+++pC9detKlJ70gIZjvp3736UsnuDZ9+tKj75NSOqmEdz4lk/SlenY/SCKWTe61Q6hkUclkkieddBKnTZtGklpGqpVnn0HaPj/YJyl9ulIG79h16HnbWe55THqS9MtJkgmSfiJB6ZPxZLzyVMlyxhNulUts8Vx6siLj5RN0SQbHeE6CZLLKPhV0KD1H3S4rXJ8yUUHpJioT4VGm5DklL5QZE8yF+1IikSBJjh49mj179tRtJqVMSzS5o/5YU8aMLA5MmEnjvFQCRzXOT5w4Uc+thx9+OOPxeLVyW1vkd6+oEjKZXmis/MwicM2aNQOAXa6LwNCK0vT/UNd988039f/POecc5OfnazOLuR/3sUo407OY96ZCwSORCCZOnIjTTjsNd9xxBzZs2AAgaLt+/frhww8/xOjRo9G5c2ckk0l4nqdXmZSVq1RBQlDApw0LPgR9kBYYGAogSVD4kEIEVZ9TTpoWASlseCSEHQ9S7VOAQsIXHiz6ELQCDQ19CE9AphLFqYRxgAUhfAjaqaTugJBWaj+VjV3tm0Um0NAMxGIxtGjRAnPnzq3WFJIGVRdIBJoL1dYEICwBz/dAATgUkLQQj2+C9D1IKwp4HoQVxRbPRUWyDII2onYEFfFyJCq2wUm6cJ0gtD0uXTjJjYjH43BLXThlHiqcOCRdlMcr4CRcuFYOkl6wn+t6SCQ9uK4H4fpIQKI87sBLusiBC0kfUvqBTo+BnFpC1XgCqksuZ/Yr1S5kkNyypKREjxnmGGDuF2533/f1GPKTbZ1FFr8AaGhZAKSZjE899VQcc8wxAIDFixfrfE/hZJbqe23AXiEtJnkwBwTVSKtWrdL7mv4su4LwYGQO5LZtY+PGjfj4448BAPn5+doB13RqDJul9hXCxEkJmEoWpkxBl1xyCc4991x8/vnn2uTTqVMnjBs3DuPHj0f37t2DzKUpkhO21QMIyIKwQBuICgHQDoiMEIGjoyVgiaDwnRACNkVg2QniY2HRTpEfJfQpXxla6WEpEKBgKrGdMOZKpsxOqf1IkLbOs0EE9opAQZZFJqh3qQqjNWvWTOc9+kl5Vm2cMgtZFLBEykxEIBbNC0x2VlCsMDcnL3CItSzAsiAsIMe2EYsVgHYMNn3k2hGInAJEYhFELCAHApbIRTQWQ07MRiQnAjtqIzcaRQRALJYP2xIgfdh2FLFYEeyIDRGxIGAjKuwgoikaRSwCCEhYsSgsOzAhqjpDQd4WVQE6c56WcLspM+v69evRokWLKoO47/vaGTpcl8yyLEQiEd239vViJ4sDE6a8KpOnqmCen5+Pc889V+87fvx4/d0k6Or/tQE1wmlj7dq1+nuTJk0A7F4SufBf84UsWLBAD+SHHXYYjjvuOABBfgYz14WZpXRfwZyEHMcBSTiOE6RAj0QwfPhwdO3aFWPGjNH7NmzYEI888gimT5+OAQOC1PmqqrV6RpV1NYhQsVJhxLYe6G0ICBGFQBDyLKzgY4koBHJg0UZEACKCYMISNmIgIsKCYH5wHit1fhFkUQ3cDWwIy4aICFgiOC7wbUmRReXrIhhst4I7qyST2J/dWX42TDIKAIceeihWrFiRUatZBdo/REAIGxFYsFLvHpYNIIY8y0auJWBbUQgrF5awYduEsAWiwkaesGADELYAIxasWA5idiR4ZbaNPMtCnogCKISwokAMsGOp64kcRO0I7GgEeREbNqKgiEFAIGYL2BEBy44g14ogPyJAOwLYuYAVg7ACubFEoPmDsCBSVaCrIy3hhY1yel64cCGOO+44ndjP9/20PheUJKjMWrxx40ZMmzYNI0eOxA033KDTKOwwA3EWWfwCCC+8FYmORIIyGX379kV+fj4AYOrUqfjxxx91ugRznjTny5qMveKIa6pZ1Xezc5ukRZmHdnXVolZNZvVbtcpUpiGF/v37a9WuCnHe0X3vbahnIamfIScnB/Pnz8ftt9+OyZMn63uLxWK46qqrcO+99+Lggw/WRCcSiVRRb6cjMAmoHLOpPVNes3rxmqr2KwLti9ondUR6Nd2U9kSfG9qR1rhAZS2hVM2byvOac0xlLZzgVKLyZrKoAjUJq0m1S5cuGDt2LLZv365reFUry0oGUlowpJymmWp3quy4SluGFInU8qHMMMpjOkWSghvTIdQQQbZddRtB2v1KDZyKZBJCqLjr1AVSN2X8Zl7fuJFAaxc8VOU970Bm1NiwceNGrF69Gsceeywsy9IRWNFoFFu3bsWqVauwYsUKLF68GHPmzMHXX3+NFStWIB6PI5lMonv37rjvvvtqxYCfxf6HTHJnzoedO3fG0UcfjRkzZmDNmjWYOnUqLr/8cr1vbTMR7RXSEvYXUVD/X716tf6tUaNGVbbvTENWZx4SIsgSOHnyZL1fz5490+5L/b43sCM/g0zPkJubC8/z8MQTT2DIkCHYtGmTFsZu3brhsccew0knnQQgyJKqNCrqfNVHQaVU6qnJKjARBEQhNW+lSIixT2qDIi80dlRf9ewDfbrKCUlNUDQIC6mvRR10mzJBpYhQihNlUQ3C/hfHHnssEokEZs2ahZ49e1aRtfR+JXTwO7V1LyAUhDITqck/9YYCO0yKJFRuU+9VaLOekovUdyUPgY4tkIXUoer6pHlNLXSaTImUr5PmSDD2MwjwzpqHSGLu3LkoKipCbm6uJiXz5s3D/Pnz8eOPP+KHH37Ali1bMp6jV69eGD9+PIqLi6s1xe3oN3Nb1sSUxe5gR/KiZPyKK67AjBkzAAT1iK644oq0Y00LRU2Xv71GWqojLEIIrWnJy8tDYWFhxmN/CuYEbeatiEQimDFjhi4T0K5dO+2YtLdrDYUdbKvbrtR2sVgM8+fPx6233op33nlHH5Obm4s77rgDt99+u3YmVuYtVe1TJRmrvu1EpRbDHN8V49b/hPap3NH4v6mtCX3LqGkxj688j3kW4zJZBctOQMm88l9q3rw5vvrqK01azNVUFUfv1DnS3qfQb8ggjKH/ZyQJpvxk+G68TFEpFNXsFxI6JTchmdpdIVHPP23aNKxcuRJHHXUUNm3alHFfs2Cr0oCeeOKJeOWVV1BcXKzrulTXr4NnElV+CxPOmj5hZFH7IITAaaedhuLiYpSWluKzzz7DihUrcMghh6RZI2qL/O316CETJOG6LkpLSwEEfhlFRUX6mF1txLSBWAjtwDp16lRUVFQAALp06YK6devqVOl780Vl0qSEoxUUAbFtG2PHjsUpp5yCd955R5OQbt264YMPPsADDzyA3NxcJJNJ7YujTF1qgFXXzGL/Rli9q+zY48eP12Q2rIGsLQPUnkb4+V3XxdSpU3H//fdj0KBBAKD9V5Q/mBpLlKOzlBK9evXCu+++i2bNmiEej+vFRiY/AXNSCP9mLlKq08BmkcXuQggBx3HQunVr9OjRAwCwZcsWTJo0KW2ONOWxpmOvOeKqzqg6tqpiu2HDBiQSCQBAnTp1tA0eqJ7sVHf+8MAQiUTgOI42DQHAgAED0lZLe3OgMNtA/d/8uK6LSCSCeDyOm2++GRdffLFe+ZHE/fffjylTpqBLly46zDInJyfNeThcOC87CB4YMEmIEAJ9+vTBunXrsGjRIi0HKhLGlL8DDaot1Pjz+eefY9WqVRg0aBAef/xx3HzzzTqbsNpPHWeaXRs1aoRp06Zh48aNyMvLQywW09td101z6FV/gfTxz/f9NI1LFlnsaZj+bmYU0dtvv63LgyjZrC0yuNdCnlXjmeG2JFFaWqoHifz8fOTk5ACoamvbleuoY23bxooVK7Qtr0mTJujatSuA9BTd++JlhVe9Sq2/aNEinH766XjyySe1Q2D79u3x7rvv4i9/+YvOdhhWV2da3R2oq+kDDWHC4jgOmjdvjg4dOmD06NF6RaX6n9rvQIcQAhMnTkSPHj10xux//OMfuO+++3R7me1kakTGjh2Lc889Fx07dsQll1yCl156CfPnz9eOvLZtp5EYBXOBobQstU09n0XtgJKlWCymta/FxcUAAuvDsmXLtIzWpkXuXjMPZSIuQgiUl5drrUFeXl7GKqs7ew3zu1LlTpw4UZ//7LPPRlFRkV5l/ZLmIZOYmR91f6Z6WoggTG3ixIno2bMnPv30U11G/NJLL8WUKVPQq1cvJBKJtBWfOlemT7hNsth/EJatMJR8DRw4EO+//36ag/aBNEHuqJ0sy0IikcDbb7+NK6+8UreH7/v461//ikceeUQXWTU1l2b/830fq1evxpgxYzBo0CB069YNp512Gu655x5MmzYN5eXliEQiyMnJgW3b8DwvTfOiNKPV3bd57+FnCP9WGyabLPYuwtaNJk2aoG/fvgCAeDyOSZMmpe2fJS0hmBOpOVhu375dr0QKCgp0bDmwa45pYa2FOu5///uf3qdXr146+c4v/XLCE4NJKBRxM8nTU089hf79+2un5Gg0imHDhuHVV19Fo0aNtHNt+JmzOLAQ1qKF+4f52znnnIN4PI4JEybovAymtmB/zykSbifVX3zfh2VZeOmll9CwYUOccsop2sdNJZK744478PTTT8NxHJ1JWpmLrrvuOjz66KM4++yzdV4pIChUOmXKFPztb3/Daaedhg4dOuC6667DmDFjsGzZMp3FWn0cx0kbizL5vIUXItX9vr8T0Cx2DeFxQgWp9OvXT8vKhAkTNJEGdj0L/T4D9xLCtXNUTZQJEybQtm0C4IUXXqhrfqi6QztbD8E8fzIZ1C9ZvHixrsfTtGlTrly5Ul/bPP8vUXOhupol6rqq7lIikeDvf/97AmAsFiMAtmnThtOnTydZWUvC9/202kjqnFkceMgkUyS1jDiOw4qKoNbPqFGjeNJJJ+naWpnq6eyvCLcTSV2XJZFI8Pjjj+drr71Gkromi2ojNT4999xzupZXNBolAF5//fX6Gt999x3Hjh3LK6+8kq1atdJ9OPwpKSlh7969+cQTT3Du3LksKytLu091TdXHzW2Z3lW27lEWO4I5Npj9ft26dTz00EMJgEVFRZw5cyZJ0nGcWiNHey3kmYZ2gYZas6ysTDO9vLw8ANAaiN25jlK3ksT06dOxfv16AMAxxxyDFi1a6MRrQHqY9C8BdX6zWiwN/5XVq1fj8ssvx4cffqhXXr1798aLL76Igw8+GI7jpKXfZ4YVWRYHFpQMmBoTANrsQAah8tFoFF9++SUmTpyI2bNn48MPP8Spp56qnURrcgXzPQnVXmRQ9dzzPOTl5WHMmDGIx+M4//zzdc0mphwWlQbK8zz85je/QZ06dTBo0CAdgfjVV1/paKLWrVujdevWuPDCC5FIJPDxxx9j+vTpmDZtGj799FNdbXvVqlVYtWoV3n//fQgh0LlzZ/Tq1QsnnXSSDkdVkFLCcRxtilLvOOz/osa7sGYmiywyuWJ4nofGjRujZ8+eGDlyJLZv344pU6bguOOOq11ys7fYUVjTojQNI0aM0KuRG264gSS1pkStIHf2/EqL4XkeSXLgwIH63CNHjkzT4vzSFZ3DTFdVrVbPtmTJEnbq1IkAmJubSwD83e9+x2QySSkl4/F4Rm1QVtNyYMOUKyVbSnOgsHDhQl577bUsKirS8t+jRw8mEgk6jqPlalf6V21EuA8mk0m6rsvy8nK2adOGo0ePJhmMN+G+Ftbavvnmm7o9W7ZsyY0bN9L3fSYSCbquq9tVIZFIcNGiRXz++ed57rnnslWrVhk1MJZlsUWLFrzgggv4yiuvcO7cuXpsVFDvN/zualJV+ixqFsJzhJoXpZR87733tPwdffTRtU77uldIi2oIk1Sojjl06FDdgHfeeSfJdFXV7piHpJQsKytj06ZNCYA5OTn89ttvSaabW/bkwF2dGUhNLq7r6gFw5syZbNmypX5uIQQfeeQR3UbmIGieKxOByWL/QXXENNMnLFMkuWjRIt54442sW7du2sSYk5PDaDTK4cOHk6QmOPubTFXXbmqxoNrq7rvv5hlnnKEJn/pkamfP87Sp7YMPPmCDBg0YjUY5a9YskpXmJnW867pMJBJV2nHdunUcN24cb731Vnbo0EGbxMOfgoICnn766bznnns4bdq0NDKqrqfIl2nqVs8cbodwW+xv7zyLzKhuzCDJLVu2sHXr1tolYc6cOVXmGfM8NQ17hbSYjRHWOPzlL3/RHXbIkCEkmcb8dhZqX6Vl+eijj7QN+vjjj2dpaWma7VgdsydeSiZWG/YzUM/7v//9j40aNSIA2rbNRo0acezYsfq5TcKyq349WdReZJpAMr17k7CobUuWLOGdd97JOnXqaLlSfapnz56cOnUqP/nkEx588MFcsmRJ2qqruuvUNlRH8tRvqs9/8803bNasGRcsWJCmqVLaUJJVFgmmJmv69OmsV68en3322TSNqDrG1OQqgmESS5IsLy/nV199xSFDhvCMM87Qi6vwJycnh61ateLgwYM5duxYLlmyJO086hrmAuen5CfcXlkcODC1c9dee62Ws8cee4xSSq0sIGu2fOy1golhT2ambM3l5eV6P5UNV21T33clgkhFBnz88cc6KumEE05AUVFRmj+LeW8/F2Gv/7Cnv+d5yMnJwauvvorf/va3+pkPOeQQvPbaazj22GPTIhRUhNNPp+LPYn9BWIbUb0C6X4ZMheFaloVVq1Zh+PDhGDlyJNasWZPm39KtWzfccccdOOecc/TvF198Ma6++mp89NFHGSP0wtetTcjk56X6n0z5qLiuiyuuuAKDBw/GkUceqUPBzdw15jlMXxFVHqNr164YO3Ys1q5dWyX9gDR88dQx6tye52lfovz8fHTq1AmdOnUCAHz33Xf46quv8M4772DKlClYvXo1HMdBMpnEsmXLMGzYMAwbNgwHH3wwOnTogFNOOQVnnXUWDjvsMBQUFOjrq2za6t5N/74dtVd2jDkwoEL6LctCly5dMGLECADAZ599BqAyd5na15SbGiUfe4MZZVJTqdXHH/7wB834/v3vf5PkbkUPqesoJtm/f39tennxxRf1KiiTVmRPPJ9p+lLmL1PD8sILL9CyLEYiEQLgYYcdxvnz55OsalM322xP3WMWNRtm31CrfiVPrutqEwVJrl+/ng8++CCbNGlSZXV+4okn8pVXXknTPCpzQiKRYJcuXXjvvfeSDMxE4Wi62urnEm4/pX1wHEf3wRtuuIFnnHEGycza3B2NDep7pvbZGY1VeB91b0ozrBCPx/n+++/zrrvu4sknn1xtNJJt2zzmmGN455138vXXX+eGDRuqXDORSGj5Mf3qlFz90hGUWdQsmP176dKlbNiwIQGwRYsW/OGHH0iySgRbTRwP9pojLlnZAEoVRVKrqYQQHDNmDEmmObXtSqOpfVetWsUWLVoQAOvUqcOlS5fq7b9EBzUHfKWuTSaTWqWsCIsagDp16sSVK1eSDJ51b4RgZ1GzYQ4SJvk1TQvr16/n0KFDtWybn06dOvH555/XobRKDpVsKQfvRYsWsX79+nznnXdIBpNkJtJc2xAmA2Gfn9GjR7NFixZcvXp1tT4sOzq3+Ve1lflbpnvJZKYK/1XvWhEY83zxeJwLFizgiBEjePbZZ7N58+YZCQxSzsHnn38+//3vf3PRokVpzrymLJhtsztjbBa1F2HC2rVrVy0/b731Vtq8XJPno32iaVENR5K//vWvtRf9G2+8QTJ9FVTdoJDpvOq4jz76SL+MY445Jm1A+7kajB1pQsKkhSRffPFF2ratNSxdunTh999/TzLQsJirwh0NdFnUbmTqA9W9a8dx0uzL27dv55NPPsl27dpVmawOP/xwjhgxIs25VvlZqElQ/Y3H4yTJN954gw0bNuRXX31Fkvr32qTpq24MUH3QJCwzZsxgnTp1+P7775MkKyoqdJvsTITermz/KYKS6ROOBFOatTCZWLNmDceNG8fbbruNRx11VLUEJj8/n6eeeirvv/9+fvjhh1V8apLJJOPxeMbF0s7I6E89Y9XfUn+Z2i5JmudOax+SlAy+KLlLHUOpt6n99HnVuZnapq5D4zQHOFQbK2IyZMgQLTM33XQTSWon8rCPV03CXtO0mA2gPiR52WWXadLy5ptvkmSVJGo7e35FWh588EH9Mm6++ea0gXtPDMDhTqqeJbw6/ve//82cnBztGNm9e3du3LiRZKVJKNPgmcX+g/D73BERMCPbSHLbtm189tlneeSRR6ZFmiGVgHDYsGHcunWrPl8ymdQE2CTDprZFEZTHHnuMJSUlWuOnZDYsgzVdHjORAhXWTAbh3/Xq1eMLL7xAMiBopmlkXw7I5vhhEkwz4lAR2HAYdGlpKefMmcOHHnqIvXv31kk0w5/c3FweeuihvPbaazl27Fh+9913Ve4j08KpuvsN33v4++41BA1iYfxHERcZ2jf8vWaLaI2B2T+klJw+fbqem9q1a6cXSuEgkJo2BuwTTYua3Eny4osv1jba//3vfySpPf1NNeyOzmeelyR79eqlO+2ECRM0u9wTLyDTpGMOPmrwf/XVV9N8WE444QRu3ryZZKVJSA1QYftyFvsfql+FpmeIJoOQxOHDh+s8PuanpKSEjz/+ONevX6/3j8fj2rygBiRzcWDKmamBuPnmm9mmTRuuW7eOJKtED+yIYO1L7Gj1r8xDJLly5Uo2adKEDz74IMlKwmKuIvfls4W1LeH3ZhKacK6ZML799lu+8sorvPrqq9m88fDeRgAAIABJREFUeXMdORn+NGnShL/61a84ZMgQzp8/v4oWxhyXfkrTov4ffh7zdyklpU9K6dGjR19K0mdKW+LRl36KphiaFqUpqTyzoWnxtJamUtPiU0qPUvokU3OG+qjDstAyr/r5hg0btMauqKhIa1531z1jb2GfhTyrlcWAAQM0aVHqW0U+qmsws0HNfAVkYPdv1qwZAbBx48ZcvHixPuee0rKEB5Ow/fzdd99lXl4ec3JyCIAdO3bkqlWrSDLjiqYmTxBZ/DyY79VcNSvHWNMRc/ny5fzb3/6m02ybn0MPPZQPPvhgGlkxtTLVXdP8LRO5HjhwINu2basd8VQSM5XWvqYSaXPVaGotzRIeTZs25a233koy3bnfPH5fP9vOEABzW/g9KpJhQjnz3nbbbTz55JOZn5+fkcBEo1F27NiRd999NydNmpTRmVdp78KE2NRSZUrPIH3D/ydJen454yyn40syKUnXoS/LmJAuHSkpfZ/Sl6njfNJ3SelTm4okSbqkTJJS0k8RH19KetKhxwR9GSelS1+S9PysJiaETP1fuWcA4NChQ0lWOujXhP6RCfskuZxpHlJRPpFIhB9++CHJdPPQT2la1DkVe5w4caJWeZ1yyilpKwfzXn7Os5ikRU1A27dvJ0nOnj2bjRs31vVKjjrqKP74448kqZ0hd2bVksX+gfBqVa2UTXX/nDlzOHjwYJaUlGTUrNx///1ahkjqLKxkVafQ6rQ54e9m/pBrrrmGBx10EL/55huSlZqbmmBCyYSwdlXlUVGmr5kzZ7J+/fq86667SFYlLDUFP/WOMm2r7nc1FoWfMZlM8quvvuIzzzzDvn37smnTptrEGP60adOGAwYM4HPPPceFCxemaWF8vzL7rxlhYmqGzHE9jbwkSVdWsJxxOpJkkqSTpM8yxqXHpE/SU0TEJ6VLSof0PQYEJsVf6JG+ExAcKUlfyYFHKZOUfoKkG5AfTxEgmTo2C1NeFAF96aWX9PtXtf/Cc3RN6zd7nLTsaCVjMnO1rW/fvpr1T5s2jWT6CrI625q53VxhPfDAA/olqFWWci7aVeZY3eqGZJr9T93vsmXL2KZNGwohKIRg69atdSZe09/AFIbwfdU0AckiwI4mmEzvMPzxPE9Pqgpvv/02L730Uubl5VWZQI488kg+/PDDaWTFXPHuigOleW/mcaavxJ/+9CfWrVuXH3zwAcmgz4T9XHb2Grsrw9W1347aVJEvReImTpzI4uJiPvzwwyR3nKL/59zrnsLOkpVM917dfspElsmUtGHDBr788sscPHgwO3bsqBdX4U9eXh579erF+++/nx988IH2EVIwM/OaJrfwffq+T+lKutJhXLp0paR0JaWXoGSSji+D3/zUQpWS0nco6abISIp8pAiKJjSsJC6UJH2flA6ldCo1M9KnTJmaasr73pcw50zV77///nsWFhZq06EyFdfkEhG/iKYl3KnUX3OwUWTjjDPO0NkfP/vsM5Lcoedypg6q9nddl2eddZZ2WHz77bc1q8x0rl15nrDQq+sqO/mGDRvSfBAOOeQQLliwgCTTVte7m4Mmi32H8LuvbvIIb1Oybqrvt23bxv/85z885ZRTMqZyP/HEE/nCCy9o/yeyMlPyjla0O/sc5n2piU2Rk6effpqNGjXSEz5ZffXXHU22mb7vyj2Gz1vdBG6m2CcD4nXQQQfpfE/xeFxrBw6E/hZuG7OitRp/TFncsmULP//8c/7tb39jjx49qnXmzcvLY5s2bXjNNddwwoQJ2uSuYC4c1fmlb/QRn/R8n0n6dH2mCEaCvvToSlJKn/QVuWRATOhS+pU+KgEP8VOalgSldAPLkVdpVpLSI6VLKX0dUcTUv1lU9i3T8drzvDQf0HfeeUcvaA4Y0lLdQBO2fyqicfrpp2sv988//5xkesjzjkIS1UeRktWrV+tU5nXr1uXatWv1NXfnBWQakE2VuXqx8Xicffr00RqjBg0a6GcxE3iZA0lNFIYsqkd1K7VMhFbJh7nK3bhxI5944gkec8wxGROF9e/fn5MmTUoj1maNGVMdnylJ4q4+h+mfYPpjffnll2zZsiXPPvtsbtq0iSQzrqLD194RydjVe/spEhQmg99//z27d+/ODh066IWCacaoqWauXwLmxGQukMyFojL/hbFgwQK++OKLvPrqq9msWbNqzUgNGjRgv379+NBDD3Hu3LlVfGocx6Gr5NXUuujvHqX06EqfnpSk71P68YC8UFL6SQYaE0+THt8LtCdSupQyTkmH0pf0PZ90Zcq85FNKh77v0lPExbiu2T4HIsJKA+W39vDDD6dF25Lprgw1rc1+EdIS1oIoYhEO862oqNCTfW5uLufOnUuy0oNd5RIgqzqwhp1xpZScNGmSbnxVEE29JPPeduVZzGuE65SoSeX666/Xfjm2bevqsZmcGXd3QM9i3yFMksMRHqamT5FUhQULFvC+++7L6K9Sp04dDho0iF988YXeP6xqD1/fvCfz764+S6bnUlqL0tJSnnfeeSwpKeHIkSP1sUreTSIVbguzb+7uvZmkxEy8pvqcOeEOHz6cTZs25ZVXXqlz1YSLCNbUwXdPY0dkMtM4pN5hWBtIklu3buWUKVN46623snv37hlNmEBQ4LF9+/a86667OHnyZG1e0NcnmfBcer5H30nSd+OMJ8qZ8CQrPJ+uJ+klE/SS5fRdj77v0XXj9NwKel6SyYTDeEWSTtKl63ik9Oh4FUx6SUpf0k369JMpE1QyQd93GE9UsCKeSJPH7JhbNe2I6kdTpkzRiU87d+5c42vf/aKkRWkizEqlylYupWR5eTlPPfVULfzffPMNpZRpKmulyQgTj7CmRUrJu+66S3em+++/n2S6E96urrRMoQ+HKKtnGjZsmCZdAPjoo4+SrEwcVx1hqmmCkEX1CE+kmTQfpupdSsnZs2dz0KBBbNCgQUbn2nvvvZfz5s3T11Dq9bBZdEeanZ/7TOZf9RxmNMq4cePYokULnnbaaZw5c6Y+1nzecARfOMJkVxcJqp3NRYIZ0q0wdepUnnDCCWzbti0nTZqU9gzhiepAQqbFUaZ9wtvNwIKwFiYej/OLL77gM888w3POOYeNGjWqtkp127ZtOWDAAI4YMYIrV65kMrXodN0EpbONZOAbEye53ZMBmXET9B2PvufT8xw6bjl9P0HPS69w7TiB6Sfhxhl3EkwmHfquT9/x6bsOfTdBz690HpYy87MeqKhu4bV161adC6pOnTo69HlPRdzuaewVTUt5eTkfeughfvzxx3o/z/O4fft2TVry8vKqqBo//vhj3nLLLTqDrBkKHSZHJLV/DACOHTtWE6bdXW2FSZF6iYpQTZ48mQUFBTonwo033kiyMmw0U+h2VtNS81CdFiz83TRtmnZhhYqKCo4bN479+vXT+XnMz9FHH82///3vOsEgGVT8zaSF3JmPee+7+6zhvqrkXWk44/E477jjDpaUlPCiiy7i1KlT086nNB+mSTcTWf+pts10L2aUlMK7777Lfv36sVmzZrzvvvu0dii8SNiR8+2BgB21b6bfzd8Ugd6RM+/o0aN5ww038Nhjj81IXoIxPZc9e53K0WPHUUqfvruWyxbP4COPP855K9Yw6Us6XgU9ZzvdCo+u49B1E0wkSplMltHzHL77zvt84P4/c8ZnXwRJA+MV3B6PszyRpON4TMaT9JIJOhXb6HnlrKjYzn/+81/88/89wu1l5WkyZbbLgYhM/UzNnRdccIF+by+99FKa0qGm4RfzaVEDvBpUnnnmGVqWxcsvvzxNHX7yyScTCFJPq9Lr8+bN4+9+9ztGo1FeddVVJNMdAs0BSa32tmzZwvbt22ubq2KLSqvzcxwXTVaqTD7ffPMNGzZsqAnLeeedpycfM3ncgThg1nZUN7iHNW4K8+bN4wMPPJAxc61t2+zevTtffvnlNOdaM6y4oqIibZDYm/ISfjZTY2KGvK5atYqDBw9m69atedJJJ3HkyJF6MaGgiLpare8oqiRMAsOhtCaWL1+uk+21adOGt99+O1evXk2SaeRGEZdsf9t1hCcyRV5NJ1s1rpnYtm0bZ8yYwSFDhvCkk05io0aNjD4Q/O0/4JLU3j/w/+6+kgB49U1D6UmywtnIQO9Ceq5Hz6s8v+M6POH4Lnxt7Dhu2rgp4337XiosmgFZHT/hdZ7U7RTOnDmLZeVxMjv+aqgxK5xsUkrJoUOHVom6rakO7L+4I66ZhbNz587a9+PCCy/k1KlT2bt3bwJBRr433niDN910kw7BKioq4ooVK0gy44BuMsUvvviCRUVFBIKUxKp2x8/JNhsmYGpA3rZtG0888UT9ktu1a8ctW7aQrPRJMKM9auKLz+KntV7m+zedX8kg8uKll15i//79dRJB82NZFi+55BK+/fbbaedUE6w5oZvyFV4Z/tLIRCLCTqymuWDVqlV84IEHeNRRR7FZs2YcOHAgn3/+eS5btuwnr2X2i5/CkiVL+Mwzz/D8889ngwYN2LlzZw4ZMiQtuZ4yI2f7289HmFCaE1t4kWiSmDAWLlzI559/nr/+9a91ksSLLrmCUkpu+X46e5/Ylv98YRSP6345v/1xEyUTnDdvFp/6x0j6nqTvlXP48Cf40bSP+dc/38tmzUr4yKNPcsqUj/iPfzzJwYMHc8y4cXz5ldf48cefUvo+v571CYcNf4zfzJ/L7t278agOHfnfNyYZcp3VbpNVF+HmQmn69Ol67OrevXuNXnD/ouYh9bBKuF9//XUKIbTqPBaLsbi4WK9IVeZGZS+94YYbSKb7pWQiLVJKjho1Sjd63759SVaqjH9O9JC6jhkNohxvY7FYtVFPmc6TRc2EOaApWTHrvpj4/PPPedttt1VbcbdFixa87rrrOHv2bH1MOGQ5fM3q1PR7A+HB3LyueR+KGCg4jsPp06fzyiuv5AknnMAjjjiCxx57LAcPHswXX3yRkydP5uzZs/n9999z8+bNVdrRcRxu2rSJK1eu5KxZs/j2229zxIgRvO6669ixY0ceeeSRPP7443nttddy5syZacfvyFE5Ozn9PGR6/9W1reov1Tnzbtq0mW9MeJ2jxjxHSXLMs/9k7z5nkSQHnN6Tw0a8Qkryv5PHsd3RZ9FzfUrnex7XqQOffOE1fjl9Eg874gR+OvdbDhv2NOsUNuLkd9/lDz+sYO/T+vIfjz9Hknz92cfYov1x3LhtC2//4208+6xLuWTJMrpekPI/Gz0UINP4ot7Z2rVredBBBxEAi4uLdXbkmugbFsEvAJIQQoAkpJSwbRu+76Nv377o1q0bPvnkE8RiMTiOA8dxAAC+76OiogI5OTlwXRfFxcW47rrrwIBY6XOGr6GwYMEC/b1z5856u7nP7j6Lur9oNIoXX3wR//rXv2DbNhzHwfPPP48TTjgBrusiGo1CSgnLsvRxAHRb/Nx7yWLPwnxHvu/r9+T7PizLQiQSdI+1a9di/PjxGDt2LD755BO4rpt2nkgkgh49emDgwIE488wz0bx5cwCA53n6Oupc6v/VycTelhPzPsy/apu6J8uyIISA53kgCdu20bVrV3Tt2hW+72PhwoWYP38+5s2bh3HjxmHp0qUoLy9Hfn4+8vPzUVhYiMLCQuTk5MBxHJSVlaG0tBTxeBzl5eUoKChA27Zt0alTJ9x7771o3749jjzySH2fUkq4rgvbtmHbdlo77es23F9Q3fuvbh81vpr9yHEc/Xv9+vVwXr/zAbhAYhPGvz4Zh7Y/EUuXLEXHdofi6Weew++uuQz5eTYK69QFhQC8CjSo2wCR/Ho4ss1ByC1uhGOPPgLfzvwUvU7rjTNPPx2Ai7p1C5GbWwiSKCywUFz3YBQX18WhLVtg4wYLhx3WMuh/FBAWIZBZVg4khPuL+S4bNGiAY445BpMnT0ZZWRlmz56NPn367FAW9hX2OGlRA5xJNEjC8zzk5OTg7rvvRr9+/eD7viYzpuB7ngcpJc477zx07NgRrutCCKHJj5QyY6eZOXOmvodu3brp7+FOtaP7rg5SSkSjUXz77be44447EIlE4Hkerr32Wlx99dX6ns17C1+/Jr302opMg2p1E251yPQ+SGrSaU6K7733Ht58802MGjUKmzdvrnKutm3b4qyzzsLAgQNxwgkn6N9d14VlWbAsC1LKNMJi3oO6dnXb9obM7Kj9MpEX27YBBH3CJDDt27dH+/btcdFFF+njN23ahGXLlmHbtm2oqKjA1q1b4bouYrEYiouLUVxcjLp16+Kwww5DUVFRleeVUsL3fU36VDtW13YK2T63ewjLQab2rY7cqt/UmG7bNqTvI+F5iEQsrPl6Nr5ZuAjHtWqHJ54YCrgSG9esx9dLFyE/Jwrhe3CkjzzLhkuCgoiXbYNDIp6UgHThQaTGWA+SLnzpBEQ2SkAKSBLJ5P9n78zjpCjO//+u7pnZ2fviEBYkHCIil1xyK3gjeF8JqDEeIYaYRBO/iZpv1BgTjZrEJJjjZ4w3Gg8UQRCDgFzKqfAFATnlPvZgr5np6a7fH7PVW9Pbs7ucEZ3P67U7PT3d1dXV1VWf+jxPPVWDZcXr84gkkc3U71lzyuOrgFSkNB6PEwwG6dOnD++++y6O47Bw4ULOP/98t+/ze9b/LRx10uKt8GrbMAzi8TjnnXcew4YNY+7cuW5hOI6TlIZpmvzgBz9w96tOxK+BNU2TqqoqVq5cCUBmZiadO3cGaKB4NDfv3k5FCEEkEuHGG29k//79AAwZMoQnnnjCJSymaSY9yFTbaRw+mhpZe18s77l6vdRJphCCcDgMwLZt23j99dd56aWXWLZsWYN08vPzGT58ODfccANnnXUWrVq1ctNTnbgiK6ZpYhhGUh6999LYfR4PeMs01bX1clPvnf6O2LaNbdtAQnlSo7fi4uJm5cO2bfd918tKkT/VsDa3wUy/c4eHpuqB3zFeEqnIpRAGAUMQMoP881+vMGTESP426VE3nb27rmTys88x5upLiR3cTVYwAPEg23fuxAyCMAKYhsAUBgHTRBhm3fsaIhqtQRgOoVCIzzZupbqymhCAcFBZl1IiDIHEAZLfvaYGOV+Gzvloo7FnK6Wke/fu7n2vWrXKPdY7kPlvl80xMQ8pGIbhSu1KWg4Gg/z85z9n7ty5biPnPf7KK6+kb9++7uhXfyl0IqK+b9iwgfLycgC6d+9Oy5Yt3QK1bbvBSNcPqUbtaqR89913s2TJEgKBAPn5+fzzn/8kJyeHeDzerPTTOHL4NTReqdO7rZ8L9WQlGAy6hMKyLN566y3eeust3n77bcrKyhpcu0+fPlx55ZVceeWVSWaLSCTi1lGdoOid+lcJipApgqHuWQiRpLAqoqF+A9z3ya/x1E1Q3rTVO/hVLM+vEvSBgWEYxO04piHYv28nUxas5pFf/Yq4ZVEds8gMZfCj6y/lW/f8kism/JienVvx/YkTaZFZgxWPERJx4kYm0WgVSJuYZWNFaxACpHT4zk038ejvnmL7jvVsWraEjGAhUgjitk0sXlWv8NvxRD0S/mYRPe86vgyd8/GA/t4NGDCAgoICysrK+OyzzygtLaW4uNhVzvRz/ptlIuRRbgn8Rr16Q6V+Hz16NDNmzHAbQX1k9d577zFy5MikwvJjxer3Z599lptuugmAG2+8kX/9618uWUq62UYqoVcZUtuBQIDZs2dzwQUXuCPKp59+2jUL6Q+zqWukcWRoSlHRn53qQJUyIKUkFAq5x5aXl/Ppp58ydepU3nnnHdatW9egfpWUlDB8+HBuuukmBg0aRF5eHoBrslByuN5Q64qgN48net1oqvxTjVy9I3L9u0rT75hUatmJWn5fJzhSgnQwhElNbRV79+yhw8mdEoKHYSGdIIYdYe2mjZR07k5GJMKSTz+huDBIUav2EMqiZdjk810H+Ea7dkSqDlJZWU3bNm2BGMII8fnGjezetY3TT+1ChR2mTesCqg7sp7bWoKA4j5ysTDc/UsokJVTvd7z1ylu/vsr1zauS9ezZkzVr1hAKhVi4cCF9+/Z1Bx+NWROOJ46ZeUhvhHR1RCkfP/3pT5k9ezbxeNytOI7jMHLkSM4++2x3tOqXpkpXjcB0f5bTTjvN/U0xSP2cxuRvIUSS+mMYBvv372fixInug7vuuuv4zne+04BQNecaaRwZvC+Mt1PzqikAwWDQ/b2yspLFixfz7rvvMnv2bD755BPfawwdOpRrr72WMWPG8I1vfMNNOxaLuS+uevZ6p+vtgPXfvdsnGvxGnn7vZGMDAj9i0hih8UvrRC2/rzL8iKZAIAwTRzpkZeXwjY45OLaDcMAxHAwJ0ghw2qk9cKTEyMli2JDBbpoJg46k68ntiUvIy8snLy8fx5YIEcCxbbp07kyXOleAAiBmxSgsLKS4RZhHf/cECxfMY/To0Zx//vmcfPLJSW1BLBZzlX0gqa9QfcfXAap/Vv1y//79WbNmDbFYjLVr19K3b98G5eIVGo43jokjrrdDUTerzyQaNWoUo0ePZsqUKQSDQZe8/OQnP3EL0U/O0+Vj5RC7efNm93u3bt2Ahg2k2tdUY6gqqyIl99xzD2vXrgWgQ4cOPProo25e9XtuzjXSODJ4O0wFRTaV8qU3TqWlpSxdupQZM2YwZcoUtm3b1sAsCdClSxfOO+88xo0bx5lnnuma/NTsNiFEUrq+DXUKpeGroLT4+QEcidKiq2Kp9qWVlhMDvsqEI5GAkALpSGIijilNDMCWAiNxILYTR2DiyBgSAxJHgBAIaWITwxABHEcgsTGECdJACBvbqUVKA0EIpCRoGFh2lAwzzI5du3nrrbeYOnUqWVlZ9OjRg7FjxzJ48GD69+9Pbm6um1/lT6Wb+r8u9Ux/Z6WUDBkyhOeeew6AOXPmMH78eFdA0N/R/2bZHBOlRf9U0AmHuvG77rqLd999l1gshpSSoUOHcvbZZ/uyOL1gVTqGYbBnzx4+++wzIOEk2a9fP6DePOBHLlJ1LOpY27YJhUK8/fbb/OMf/yAYDGJZFk8++STt27entraWjIyMBvec6nsa9fAjtYdyrvr0dm6mabrPpLy8nEWLFvH666/z0UcfsXr1at/0WrRowciRI7n88ssZNWoUrVu3BhLPX43EdPOfPgJLJZM29exP5Lrh924fSt1vqpyaUzYncvl9HeASVCEQAuqoC8KQgIOQJoYAKRKKiQEgHaQIYCAQkgR5kSS2zQCibp6GY5gYUiIckIaFgcQhhBRgxA2EE2P1/63k7bfe54PZHyTOcRyqqqpYvHgxixcvRghBr1696NOnjxuC46STTnLfc92E5LUSeO/zcD0rjnYdPpI2VUHlqW/fvq7AsGTJkqQ2L1V/eiTXO6xzj7ZPSyp4SQskiMV1113Hq6++ihCCV199lauuuopYLJY0qlXnq3OVrGyaJsuWLWPgwIE4jkPv3r1ZsWIFUB8jQ8l+Xgk/1QNQ1zh48CADBw5k06ZNSCmZMGECTz31FJZlIaVMyl+6IT18NGZiSOUDoZQS/RlUVFTw/vvvM2fOHN5++222bdvme70OHTowatQoRo4cyejRo5Nmt0Sj0QYmSVV/vCrB10U+TiONw4IDGHVEH4OYEcdwICAENnaCpDiK4DgIDIQU4Dg4hgAkhg2xoEEwbiMFxA2DoJQJ9UbUYBiCuMxC4hCwDKRRQ8yuJRIJsPWLHcyfO4eFCxcwd+5cduzY4ZvNwsJChg8fzllnncXQoUMZMGBA0rut/Nf8fCub2+7/N5SJVHn0DvZUW6rMQ3v27GHEiBFs2rSJ4uJili1bRocOHZLCD6jy0X1c/MzGTe07XBwX0uI1Fal9hmGwYsUK+vfvT8+ePVm6dGkDe5k+bVSHOuaZZ57h5ptvBuqdcFNByYC63KXnUZkZgsEgP/nJT3j88ccRQnDqqaeyePFisrOzgfqZEgpp0tJ8eE18ftDLU71Uyn9JL/ddu3axYsUKXnrpJRYvXszGjRt90+vYsSMjRozgqquuol+/frRp06ZB+uqZpvK/0PP235ZH00jjS4+EwJJ4VxA4QoKUCAFIiZPQVRBIpEioKpD4dEQdaXHANsGom7EshUDIuoSxAIEUZiJdaYCwE1OeSR7wfvHFF6xdu5Z33nmHDz74gC1btlBVVdUgy7m5uXTq1Mkd0PTo0SOprdA7eRUzTPUluiKhBxj1ay+OldLiFydM/a5bOPSZk364/PLLmTJlCqZpMnnyZK666qqUfj56AE1dINDbUb9zv/RKi16YXjNMMBjk0ksvZeTIkdxxxx3U1ta65EChrKyMZcuWsX79erZu3cru3bvZu3cvjuOwYcMG16elQ4cOdOvWjUAgQHFxMSUlJXTu3Jnu3bvTo0ePJDsmJEbW+nRlxTaXL1/O4MGDEUK402EvueQS12fiWFfCrzJ0RUs3N6jv3k/vdPINGzYwe/ZsVq5cybvvvsvWrVt9r9OpUyfGjBnDOeecw9lnn+3O/IF68hoIBFKqb42NVNLPO400DhOKc6hPJMi690l4D/Lf1k9NPg9kXSA5pQyoYJEKtm2zdOlSFixYwPz585k1a5YvgYHE7MERI0YwZMgQRo8eTadOnbTrSDfwqW4y1i0Bqr/TzSvHQqFVpCAejzcwZymyos+cBKitrWXJkiV89NFHHDhwgJqaGiorK4lGoyxYsIBt27YhhKBTp06ccsopCCFo0aIFbdu2pWPHjnTt2pVevXo1iMMUjUYB3LZV5c0beuRLT1qgod1NN/Xs3LmTYDDISSedBMCmTZuYP38+CxYsYNWqVdTW1pKXl0dRURHt2rWjR48etGvXjnA47AawchyH/fv3U1paSk1NDZs2bWLt2rXs2rWLgwcPUl5eTmFhIf369WPo0KEMGzbMDQymAmMp9WXkyJHMmzcPgPHjx/P8888TjUbJyMhwK0aatBwe/JQWfQTjfbn27t3LmjVrmDNnDjNmzGDt2rU+YEilAAAgAElEQVQcPHjQN+0zzjiDQYMGcfXVV3PGGWdQUFDQIH0g5TT15iCttKSRRjPgUVpkwlkl4efiEhdFVurePVmnvNSxmsQh6gTck92jRN1RUmdCWha0QbLjOMRiMUKhkNt52rbNrl27mD9/Pu+88w7Lly93J1140aJFC7p06cJll13G0KFD6d69O0VFRUnXUZGw1cD2cAJLHg68fp4q4KmuTO/atYvVq1ezZMkSFi1axN69e8nOzqZ9+/a0aNGC7OxsWrZsSX5+Pp07d3YVpoqKCsrLy6mpqWHz5s2sXbuWL774grKyMiorK8nKyuKMM85g2LBhjBgxgpKSEgC3vAOBQNJMXj+fwEPFMY/T4ve7+lRKizLLTJkyhX//+9+sXr2aVq1aMWLECHr37s2pp55K165dDzuIWyQS4bPPPmPdunUsW7aMWbNmAQmno/HjxzNy5Ej32N///vfceeedLrNcvnw5JSUl7uhcrS/kp7h8FXG0Oa16wXVnWt03xbIstm/fzpw5c5g1axYrVqxwHa29CIfDdOzYkSuvvJKRI0cyYMAAV01TjQjoETrTDtNppPFVhtdnAxrOTFOdeigUShrAlJWVsXTpUhYtWsSMGTNYtWpVShWmd+/eDBw4kBEjRnDuuefSsmVLNy3l++F1QzhSZ9mmoAfOVHjjjTeYNGkSe/fuxTRNBgwYwJAhQ+jVqxe9e/duMIBrLmKxmNunrl27llmzZnHw4EF69erFuHHjOP/8811Xj0gk0qCsFQ5nEHhMlBav3K5fQnX+akRdXV3N008/zbPPPktBQQHDhw/nxhtvpGPHjklpqimtusrhrYz6VGm9wnqdegGWLl3K5MmTWbhwIVlZWUyYMIExY8Zw5pln8umnnwLw97//nVtvvdVdqE1XY9Ij7gSaUwaKoEopXdlQx8aNG1m6dCmrV69mxowZrF69mkgk4ptWXl4eAwYMYODAgYwZM4aBAwcmTVOMRCLuNVJJsX6zYNJII40TH35KrnfdOrVPteGqz1ADaPX7xo0bmTlzpqv6b9++3feahYWFDBo0iPPOO48hQ4bQr1+/pAG2rnyovuNQ7qU5xym/lUAggGVZvPzyy/zxj39k9+7dXHDBBdx2220MHDjQ18lY9+fUfUn9fGPUp15WCmvXruXll19m3rx5xGIxbr75ZsaNG0c4HE4KUAcN4zEdSl96zJUW5QeiCkXdcE1NDX/605949dVXKS4u5kc/+hEXXHBBgwXZdOcexdzUTXvthnqhQv20Z/2hquA4qoBqamp4/fXXeeqpp7Btm+HDh7N69Wpyc3N57rnnXMKjz0DSIymq376q8JapQqqKpjtaq+O804Z3797NmjVreO+99/jwww/Ztm0bO3fu9L1+MBikpKSEIUOGcMkll9C7d29OOeWUBnZq3RFMXV+XZ5vKdxpppHHiI1U75d32nqMvT+FtsyDhzLt69WreffddZs2axfbt231VmJycHLp168aQIUO47LLL6NGjBy1btnR/V+qvapu8zv9+bZPed3knKah+VYkAkydP5tFHH6WqqorbbruN6667jnbt2iWdo/eD3uvqS2j49a2pXDz0vFmWxfTp03nyySeprKzkhhtuYMKECW5cNcAVAdTyHF8KpUXdlG5nU3E0pkyZwr333kv79u256667OO+884B6Rup1wPSyMv06jd1sqgqg8qbnCeDll1/mr3/9K6Zpcv/99zNixAg3CirUB5xTsp83f19FeOVWLwHQp7D7Oc4C7Ny5kyVLlrBy5UpXfj1w4EDKa2ZlZTF06FCGDx/OoEGDGDJkSJJztt+Lp66v8ultrPR7SBOXNNL4esDrXJ/qnfdzwldkwUtibNtmyZIlzJ07l3nz5jF37lyqq6t9023Xrh3nnnsugwcP5uyzz6Zr165Jv+vOvH7EQG0rUqX6HpU3ZbXYtGkTd999Nzt37mTChAl885vfdAfcylLgHWT7WUT8yqqpbT+XD4UZM2bwyCOPUFNTw0MPPcR5553ntt+HuyzAMVFaFFQhx+NxwuEwZWVl3HHHHSxatIgHHniAcePGAQ3Zp77dGFNuykbY1O+qQqp1ikzTpLa2lt/97ne88MILjB07lkceeYRAIEAkEsEwDNen5eumtOgKis6+vSSlsrKSLVu2sHHjRubOncv8+fPZsWMHe/bsSTnNuaioiM6dO9OnTx8uvPBC+vbtS/v27ZMaChWF2NuIpDJDqt/0e/Aen0YaaXy14DdgaUppaeo3la7q/L2mn507d7Jw4ULefvttli9fzoYNG3zbuhYtWtC5c2cuvvhizj33XLp27Zo0+0bNePK6QOhkRR1nWRbhcBgpJY899hiTJk3iqquu4uGHH3aDoap2OpXfih9haarc/La9xEUI4QoQGRkZSCmZNGkSf/jDHzjnnHN45JFHyM/PbxCP7biQlqZOjcViCCEIhUIsWrSIG2+8kcGDB/PYY4/RsmVL93d9TrsfETjaHYzX5KEXtGEYBAIB1q5dy8SJE4lEIrz00kt06NAhSXVpztS15pKmVCz7eKAxyVR9KlbvndkDCZKybt06Fi5cyJIlS1i/fj2ffPKJO/XND+FwmFNOOYVhw4a5TmE9e/ZsoIjojrSKxes+RSr/aaSRRhrHAt5BuO7z4hc7qqysjMWLF7Ns2TKmTZvGihUrUraFvXr1om/fvlxwwQWcc845SWakeDzeYJqwslhImZjCvHTpUiZOnEgsFmPSpEkMGjSIeDxOPB53V54/3hYBb3lZlkUoFMIwDLZv386PfvQj1q1bxzPPPEP//v19A8k2NbA8ZkqLUlhCoRBPPPEEjz/+OA8++CA333xzkryv36C+CN2xDN7m7ZC9bFHvoO+77z6ef/55/vSnP3HJJZe4ct6RrO6s2w0PNd+HWxZ+phK1X5ESVclT5Wvfvn1s3LiRzZs388knn7BixQo+/fRTysvLUzrOQmJ5hW7dutG1a1eGDx/OiBEj6NChA+Fw2D1GXztIwe9ev06muTTSSOO/j8ZM5LryHI1GCYfDbvsZi8XYsmUL06ZNY+7cuaxYsSJlpO7CwkKGDh3KxRdfTN++fTnjjDMarHVmWZZLkiZNmsQvf/lLJkyYwIMPPogQwl165HgN/v2gykYP2gkkzWqaNGkSDz30EA8++CC33HJLg/6wKRP+UVValFKhT2W+6aabWLp0Ka+88grdu3dvEF7fzYiPE5B+00cTflKYd70jlRfTNJk2bRoTJkzg+9//Pj/72c+SFKJUc/G996Sup9v8pk2bRjgcZtSoUY2uLKq/GI3dk56PVApKc3xQ4vE4VVVV7Ny5k5UrV/Lxxx/zf//3f+zcuZNNmzY1SlBCoRD5+fmceuqpDB8+nIEDB9K5c2e6dOlCZmZm0rFe22ZTeVd5Tpt30kgjjeOBxnw4/NwV9BXmvW3r1q1bWblyJbNnz2bGjBls376dmpqaBtfMzc3ltNNOY9CgQVxyySWcccYZbkwYgLvuuovXX3+dyZMnM2jQoKQ4Y9419453e6mXkZ8wAbjL71xzzTVccskl/P73v/eNTH5MlBZdpfCG55dScuWVV1JeXs60adPIzs4mGo26IYS9mWqO48/RRHOuodSiYDDIhg0bGDNmDGPGjOHxxx8nGo0SCoVcXwtv0By9XHQv62AwyPbt23nggQd48803mTNnDj169HA9wf3KJNUj8jJ+qJ/2rfbZtk1GRkZKwhONRtm8eTObNm1i/fr1bNiwgQ0bNrBmzZqU63V40b17d3r27Mnpp5/OoEGD6NmzpxsoUIcKvuQdCTRWF/zu2dtwpJFGGmkcKzTmK9dYHwbJg0SvL8zy5cuZOXMmH330EXPmzEnpzFtSUsJZZ53FpZdeyrRp01i2bBnTp0/n5JNPdtdLU22qV2FpSrU4FvArF/WpzFsZGRns27ePsWPH0rlzZ55//nmAJBcA/T50HDWlRTkRKf+DsWPHEgwGefPNNwHcZb9TsqdGnH2ONppizF7EYjEyMjI4cOAA5513HgMHDuSvf/0r0WjU9er22jYVebMsy3VIsiyLf/7znzz88MNs27aNb33rW7z44osuAfLCqwDpUV11BQdo4Ouhw7ZtysvLKS8vp7S0lFWrVrF69WpWrVrFtm3bOHjwIPv27UtK3w85OTmcdNJJtGnThgEDBtCvXz9OP/102rZtm2SPVfnzsudUKorfiCWttKSRRhpfRjSmtPi1W7ryoNoub3iGjRs38tFHH/HOO++wdOlStmzZ4loldFx44YW88cYbZGZmuiKAV1nxu/Z/Q2nx7oN6EheLxQiHw0SjUa6++mpCoRCvvvqqm+fGIuceEmnxy5BXZYHEgkuZmZm88sor7tRi1amqTv5EWCVXn10kZSK+TEVFBRdddBH9+/fnySefTMl0lQql/C8WLFjAAw884EbjNQyD2bNnu9OqU61qrbaBBsTIDwcOHGDjxo1s3LiRLVu2sG3bNrZv387mzZvZtm0blZWVzbp3IQTt2rVzIyeecsopdO3alZ49ezZYwwlwvdX1CtfYtOQ00kgjja86dB8PffaPTmS8foQVFRVuQLv333+fDRs2UF5ezujRo3n99dcJhUJYluXOZNUHzt6ZrV8G6EqLnr9oNEpmZiZSSq644gpM0+S1115r4NvoRbNJi5/MpJ+qvITHjRtHRUUF77zzTlLcFXXu0Vo06XhAX+xJFXgoFKKqqophw4Zx6aWX8sADDzRwztVnBe3Zs4dHH32UP//5z65iE41GGTBgAP/5z3/IzMxMOrcxWJZFRUUFpaWllJaWUl5ezpYtW1i3bh0bNmzg888/58CBA0QiEWpqahpdSVkhEAjQpk0b2rZtS0lJCaeffjq9evWiR48etGrViry8vKRnpkxOXvbst/igXg4KX/ZnnkYaaaRxtKCbiby+mnoMM73d1FV3KSW33XYb8+bNY/78+RQXF7tTr3UBQPd5bMr/8XhDJ1Yqb+qeoX5xxQsuuIBOnTrx17/+1XU69usvmr2Yj94hKdlfFZaKyDdx4kQ2b97MvHnzXF8PJV/5pfVlh5ekKR+WnJwcZs6cybBhwygpKeG2227DsqykJQqklDz33HM89NBDbNiwAcANsSyE4I477khSLOLxOLFYjEgkwr59+9i6dSs7duxg+/btfPHFF+zbt89dELK0tNRd5bq5yMjIIBQK0aZNG3r16sVpp53GqaeeSocOHSgpKWmwbIIOVcGUauI19ehh9HV/JWUq1MsyjTTSSOPrBH3g5iUW3vYT6vuCrKwsfv/73/PRRx+xYMECiouLXVVe9UnedL+Mg0I/E5VunVDuEa+88gojRozg4Ycf5p577iEajbp9iD6obzZp0SUePRNKYXn66aeZOXMmH3/8MaZpJkk8qRxMv+zwsxOqe2vdujVvvPEGY8aMoXv37gwbNswti6VLl/KLX/yCGTNmALgsU9koc3Jy2LJlC4899hhffPEFu3fvZseOHezatYs9e/YQi8WSfEIOBQUFBZx88sm0adOGkpISOnTo4C4l3rFjR/Lz85OiACso8qnuV39mqSIXpvINOp4O1WmkkUYaX1aksk6k8kFRCnVWVhZTp07lscce44MPPqC4uNgNIaJPgDkR+lZv3+FV6dV08cLCQqZNm8awYcPo0qUL11xzjUtcktI7VPOQLvEou9rKlSu56KKLmDx5MmeffXaDhQ39buLLWLheNDZ7R80qevbZZ/n1r3/N8uXLCQQC/Pa3v+Wxxx6juro6Kdzy0UBmZiZZWVnk5ORQWFhIu3bt6NixIx07dqR9+/aUlJRQVFREUVERLVq08C1f3SHMbw2KQ0EqkpLKofpEeOZfO0hAgJQgkEghEjslCARSSIQksV/KxD4S5ySOAYkEIRBSIgWJ43E36s5JHJO4kEqLhseT2KnSFSKRxcQ+6V5byETe6vOQOD+R17qk1PUQbn5JV780jiNSzXZM1e2qwf7u3bsZNmwYkyZN4sILL0zynfSGytfxZWxnG+sXdOuNslJ8+OGHjBs3jv/85z906dIlKT6N4ziH7oirPnXlYOjQoYwbN44777yTWCzmOq36jc5PdOiOVWp5gttvv51Vq1YBMH/+fPfeY7HYIaVtmibFxcW0aNGCFi1a0Lp1a9fXpG3btq560rZtW19nWB0qMqJi4nosFEi2qTY1Lz6NrygkICQuFZF1z1/xFiHryAF1nT/o3EIRAIlwCUGCR9TVJZWGe0z9/mSilCA21HMWRY2QdWQl8bN7wTqCItAunajbQrh5SORRuHnXOUwi+yLNY9I47misy1Vq/ejRo+nWrRtPPPGEu3K97o5xOOHvv0zQy0CJHFImAuhlZmby4IMPMnv2bGbNmuWa0Fx16lCUFgV9Ns3dd9/NZ599xttvv+2yQb/VlE/EgvWDdyqXbdtEo1FOP/109uzZg2mabsCgVEqLYRhceeWVDBw4kFatWtGqVSvatGlDdnY2WVlZZGZmkpmZmRQx1psHrzOsN319VVB92nQqmdK7ncbXBBpx0bp/oF7NcFWLuuN1pSWxWa+eKAIiNWKhFBPQHLVVQjrJUGRC1hMU4eYNhEackEp3qVdghMoDWl1Wyk7yZhppfOmgwoI8+eST/Otf/2LZsmVJA08vYTmR+1ZdYfG6m6hB9llnncVFF13Evffe66otcASkxTAMPv30U0aPHs2HH35Ip06dkhJWzjNftRG8N26KUlumTp3K//7v//LQQw8xY8YMXnjhBcrLywHch6CkP9u2ueaaa3jllVcavZZinrojkm7K8ZPcdFtnY2YahS+jnJjGcYIk0ckbAmlLDCmxTAOLOKG4wEBAwEZgYgPSsTEdAYZBRDiEMTEkxHFAGAgpMUQNOEGkGcLBQUqbICHi0kYCAWEQkZCBhcCpU3lMpAhgi1osTIIyRCDuIE0HIaI4MoSQAQQSywSkSDjjGXEcR2I6AWKGgSBOECdhynIEQtTP5jNMZXISdcSq3qyUrvlpHE/oFgt9dpFpmuzdu5eBAwfy73//mzPPPNPtM5RLhnc27onabqfykdWJ2dKlS7n88suZP38+J598cv1ikodKWlRBm6bJmDFjGDZsGD/72c9clpjKx+FELVwv9OJSFUg5SF122WX06dOH+++/n507dzJ58mRee+01Fi1a5J6jZlPF43GeffZZrr/+empra90VO73suTFH1sYcXZvrEPtVfEZpNBMOICSOABFPfLdMgW06hCQYcbBELYYIE5c2BhBEYEkbOxAkwzEAGwyB7ZgYOJiiHGQ20XgGTjBOBjbSgogA0wwQxCCKIMOqBsPGDGYDJpG4g2MeJO4IssgjgMAxIgjHRgSysaIOpoDqgCCEJOjEsYyEshK0bGKBAIYQBJB1VMgEaYCsa+TNxA1LaSKNhDpkYOAgE+QsjTSOE7xuFqpPDYVC3HTTTQSDQf7+97/7+oZ+lftWPcRIPB4nIyODiRMnUl5ezgsvvFBfHofqiKvIyfTp03nwwQeZM2eO68PhLbyvWqFCQ4aor/a5bds2zj33XKZMmcLpp58OJGyUc+fO5dlnn2X69OmUlpYCCdNR586dWbRoEfn5+Y2Wn3e7Ob+nlZY0moTu+yEBy8EJmJRV7MYMZJKXnUs8Xo1NBiHTQCKR0sY0IFYjcCRk5ABYiHgGUhhEnUoCIgNDhnHMGKYUSGmDMEEYxG1wDAjjIGSEssoITiiPgmwT26nAdEIERC5VkVrskEHYhs3rP6PDqd3INENEiWFKBwwT2wwRkAJBNTIaRQazsUQAE4lpGhhS4Ng2wjAwTYl0JAgDKURaaUnjvwZdXdFFgKVLl3L99dezYMECCgsL3eP9Yq6c6O12qkkuqk9VBKW2tpYhQ4bwl7/8heHDhyeUp/vvv//+5iaqF/bEiRMZN26cuxy2d+XdE9ne1hiUTOf1CXEch6KiIr744gs+/PBDxowZQ21tLcFgkM6dO3PFFVdw7bXX0r59e8rLy9m+fTsHDhwgHo9z4YUXNvA7aWy7Ob83Nx39Hr5MaK5/uFdabOq4xrYPF00RyiNJz2/7aOQZqJt5U+fo4Tg42JhBk1uuuZr1O3dyzllnEwgIzEAI0zAwDZNa2yYcDHPXbRPp1K0Xbdq0JGaVEwrlYZgGZiBMJCbJDAgCAZBmiIAZhLhNIGgRDCQIUKVhkhmQ/PDWCawvy2Rk/24EzRimWYAwBT+f8G1Cpw+mY0GYt974N6f0PINQQJCREcAMZGCaAWocm3DcwghmYgSDmGaIoGEQkwKkwJEOgYCJdBwMI7EPA80px3XLafJZHEqZe/3GDhVHu+74jc4PJw8nekd5NNFUWTZWVropX19g+M4772TMmDGcd955rq+Hl7B82dvt5iJVX6Sg+li1yO7/+3//j+uvvz5RZs1NFOrlm0WLFnHw4EFuvPFGIpFIs6K5fpWgKpx3bR3Hcbj99tuZP38+69evJyMjA9u2iUQi2LbNN77xDe666y5mz57N9OnTufLKK3nhhRf48MMPXQfmNBLwErSmiFuqc/yO82vUD+XPey2/NA4nXb9z/babutemyizpWnUOspiJDl1KyLbABixp88X6Naz7Ygczpk1j9aeryAllsHzZIuZ8OIsP539IdXUN4VABy5cv4t0Zs9iyYze5mSFqIzVsX7+Oj5et4J05czFDIQ5s3cHMd99g+nuzqa6uBSkwJERqYwjD4PMtu1i6aAnrFi1g7scLmT/nP0QiFpdd9y2MrEyCGRns+OJTZr37DouXryLPDCCRbP2/rezYt5kZH7zJ4kXLAIEtQBoCy7YxDOUYnHDbFcKp+xMI0UT5eGT45pSr17fsUJ9NY2kfaj331vnm1ku/4/S0v+5oqowaI3d6+6NcC9asWcOqVau44YYbkiZZ6CH/v+pl7yeQxONxrrnmGnbv3s38+fMTs6hSnZzqTwjB008/zbe+9S3C4XDSdNmvQ8HqFdT1Zhb1pKVjx44MHjyY559/3rVHhkIh93fLssjOzuaiiy7itdde47333nMXVVRlmIZ/HdQ7hMP9S9UhHWoayh6tPze1z++YxtLT4+bonYvftn6s/udNR8U9ANxtfb9t2zjSwXEkjpNY2j7u2IDEjFiYoSA10uHK0Zfyk5//iiXLl3Pt1d9k5n/ms2f3AcprKli36TOsuMNjv36Iu+65n8WL5nPNFVew9JNPiVRVc/GoC/jlQ79j3cplzH/vXW698fus+ORzZr79PD+Y+FOkMMGpprhlEZvW/h9DR1zK+x8tY+eezVhVFnu27WHrpo8YMfxsymtizJ/9DuPH/ZzFS1fwi//5Eb995HcYGWHu/fH3uPDqW1m+dA0/u+MmfvPwnwgJiMcdwMGRcaQjcRyJbSfMRNJJlINspBz1MlfPQR2Xqo56CbH3OetpN7fu6ddq7jmNEahDqeN++fi6w68dUJ/q98bacm8fKYTg8ccfZ8yYMbRu3Tpp5qe3f/0qQ6+jhmG4aym1aNGCsWPH8re//S1xoEwB27bdT9u2ZSwWk47jyM2bN8vevXvLLVu2SNu2ZTQadY+RUkrHcVIl+ZWF4zjScRy3jObOnSv79evnfrdt2z1GykSZWpYl4/G4m4Ze3mnUl6mqW96/eDyeVOe8x3u/SymTfvM7Rv9Nv0Y8HpeWZSX9qX2xWMz9U7/FYjEZjUZ9P/VzLMty09f/vPXleGPi2efIe3/7a1nhROXZp50iX5w5T0op5c/u+rn8zq0/kVJKOWpgP7lm6za5e+s62aP9yXLz/koppZTPPPOEHHruWLln6w45vMspcvZnn0sppXz5qb/J156dLB27Rr7y4t/kSd2HyrWfLZe/vPVyOX7iQ/KswSPkP155O5GB+D556/B+cu6G/bJ830J5eu/eclNZhfz26GHy8f83RUop5Y71i2TPjh3k2o175A+uvUxO+OVvpZRSzpv+vOw78BJpSSnr3yS/d+rQ3zO93uh1xFs39Drg/YtEIkn1QP9U9Uql7f3urbfe+qK/D9465Ffnvfv83h9vffw6tu9+0MvDWweaKiv1mzp23759csCAAfKTTz5Jeo5fR+hlptfPTZs2yZ49e8rt27dL3zD+0sPsdNnrhRdecNesicVi7owh3c/jaKA+YFRiQ2jxIerjOggt6JVIROREIJLCYro8Tkv1CPLVCOsNBALYts2ZZ55JTk4OM2bMYMyYMUkrcKo0lEnNu47TV12pOhR4y9mv7HUTnX6c7iMkPaMgva7qdVzfJ0R9QL7jufiY9Ixs1SjOu6SDPuL3KjTKHq5Mk2pdLPUZj8dddc+2bWzHQUqojUTodfppmMEgYGAQp6ggn5bt2mNZFhlCICMxbDtObS0cqKhi++aPcIAH7/01trUb4lW0OakVB8trKczPpbhFDhHLou+ZQ3jyr3/ij5N+xYBhIyksLCJaHaEgK4dX//FHcrKzOP3UU4jaFoGDEWrsOPv27iKaESNohti7Yxc1FQfp0LsTZdEobb/RnpNLiti8uwzLlvTuVZKI8WDkY0cc9u+rZN/+XZhGLTlZWRhGmIARJhgMYgQS5WYaDRdk00ML6O2ed70t3RxwrKBfTz0rvY1Qz1yvn96lOPTj9O/qT2931DujL8Dn9d87mm38iQq9vPR3VZl7GosG700H4IMPPiAzM5NevXr5Ku5NWzHqYx5JWR9pGhXQUX2Xib6xLreoaEhS7Zd4olfjdsJCxaiu60ZVmvX9snCPk3X9roq3VN8fN69cvfVNSknHjh0pKSnh/fffT732kFc+h0TjqDycG+u8Dx91Da8boZN6YqLuua6kRH1Yy7obThxbF8qK+lDfddxFuE+AJkuvEfjZdvXycRyHjIwMhgwZwptvvsnYsWPdY3TpS8GP7DW3TI9FI9KcNI/Wdb2ExO9Tdcz6cgPNbRSOBizLora2FsuyiMViWJZFPB4nGo26n2qf+t2yLPf3SCTiRieORqNEo1Fqa2uJRqPEYjFisc+1VOQAACAASURBVBjRaJSamhr3u04ylCd9LBZz01Fmxlgs5pIQ206YeGpra92OS29Qvdvez2AwTCxWy28f/hVFrVtTFY0TRBKQEIlaBIIBDCeOVRvDME2C0qGosJjayEmUtCrigfvvJCc7yMZ1q9myu4ac3DAxTKKWQThQyn13/4g2vUYzb9HfQH7GB2f9DJHRgj3VUR7+4yTahEr5zo03s2blAqQpiWHSotVJBII1hM0ALfPzkKZB5d69FGb0JF5psa+ikqKcLCRBopYkEAxgW1XkZeczfeoMJnxvPOGwSdxycBwBBBDCACwMQ7jm7UAgQDAYxDRNMjIy3H3qz7vPNE2CwSChUMgNAhkMBsnMzCQUCrkBIkOhEBkZGQSDQcLhMKFQiGAwSEZGhptuKBRyt9Vv6jiVbigUwjTN4+I7qHfGuokxlV+L3/aRvJt+bcuRtDd+/djRgDLhRCIR1/xfW1ubtEIz+LflqozVoOjll1/m2muvdctcdzvQz0kFqQiBRqZsq26QIxKDacU2pIp67fa11BEWUcdT6gJCSlnfXaJmGSoiU09wbCdxHdM0E2GfkC5Zkep/MrsB/AlYqvqlAuwpH9CUpEU1cuphB4NBtmzZwq5duxg1alSDixwdtUW4/xMMTecaInndEZcNqjwAHqVFhRCv/3fkSosf1L3ro5QrrriC7373u5SVlVFQUNBgVONl0uozFaNOtf9QG4im0vcbyenHqM/mPOdUefM6rh0qVIeuAu+pbdVxR6NRHMchEolQXV1NTU0NVVVV7nZtbS21tbUcPHjQ/R6JRKipqXH3KVKgEwaVvle18O47EUej0WgiinNtzOJAZRnURglKyYF9e3EcgUBQfbCSsv3lgCAnYPHvV17jzgnjOaldAU/+8Qmuu+oqfn7fHxg+6lzO69OHPbt3EycGIpOWJ5WwfvMmPl6yhOlv/YkV8z8mHrMo3VdOfG85d91zK39+8h/88M7f8ORjP0EaFlPenkbri7qwb+tWCloUMuzic3n60d9yakEmL01+ljadenPGaW359c5dtLViCCmIRqIc2LsP7BhWLIbVyEoaKnL18YZS8XRCYhgGpmkSCoWSSIr3OEWwsrKyyMrKSiJJeXl55OfnEw6H3d9zc3PJy8tztw3DIBgMuiRNXVOlrUjZ0UCqdqI5gyJ92zvyPpR2w69d8/7W2HZjeZdSUlFRwV/+8heuueYaevTo4Q5c9cWCU+VJCEFFRQXr16/ngQceOKw2Uar1uWQ9GTIMAyOUrA675VC/GAaqL0ykoSktaokM18xRf7XEh6jjL/UWAwcwhDdlUZcvr9JyaPeo+tZRo0bx1FNPNa20KGnSMAzmz59Pu3btKCwsxLKspPVsjg6TrVda3A4SgZQiEQZKKpIikchEQdUxQkcKDJmQrxTbE0ikiCOkQV10KY4FcfGTjHv16kUkEuHzzz9nwIAB7jpNjTNm/2nmukzs3Z8qDe8+/dq6OUGHbkIB3Mb0aIygvIhEIlRVVSX9KVJRWVnpu6+mpobq6uqk/YpsKPUiEolQW1v7tZiJpTo/XRXQOx5dFdC/q2OUepX4CxCPW3Tu3JlBPXsRz8lDEuKWn/6EU1rnYWNz/mVj6FseAxzu+e1veXvOYkorDvLMq2/wuyf+wr///W9u+vY4vnXd5VTs288P772Hdnk5ODLEE089xRN/+Ttvvvkaw4aOZtJzYxEyyrdu/T5WQQlSSp7+59947c33kAh++Mv7efuDz4hbvfjlww/iRKPccfejtO3wKm9PnUrnbr34/R9uJ2DA+Am30aZ3T2xhc0rv/vz4pyFOalNEt27dyM4KEYlaRKNxHIc6VSxh4tKVLEU+1Xt6LCGldK9ZW1t7zK+nwzAMl9BkZGS4hEftU0uI6PuVapSdne0uNeI9Nzs721Wd1PdwOHxU2gzdUdpLaLwDZr+O36ss6uf7mb4a68u8SlTr1q3ZsWMHgwcP5je/+Q3f/e53CQaDrpnID7ppbu7cubRu3ZquXbu6feqhQCCQ0kmoHnEbM2CydeOnTPrHiwgjh/yMAHf+5PtkZOcSjcUwhSAuEyQjZFAXXjGAI61Eek4A0zSIknhfEBA0BKZjgAExJwqOgbAdgpkms6dPJ5JVxMhhQyAeJSOYiWM6CBwMR4AI1MWwlG6OUyktqaAmsXTq1ImCggL/4HLezlEV8Pjx4+nRowc/+9nPsG3bJS1HD3U2ehKRNg1HEDcE0iHBrurInyETUTzjhiDg2HWBL01MKRPTNgUIRyTSM2IIJwCGSSJIg1P3efSgl5duF77uuusYPHgwd9xxh2/EYO/5XlKhV3r9hdQlW923wZuu1xx1uM/KsiwikUiSOaO2ttb9HovFqK6upqyszFUqKisrKS0tpbKyksrKSg4ePOiSkerq6iRziuoslKnF679xvOElAvrIVDcn+JkM1MhVmQMyMzPJyMggIyODzMzMJDNCRkYG4XDY/U2ZBpTZQpkO9Dyoa+jPVo3SvfsUqfHuh/rRi97wSwlSOmRlZQFg2w6mmThe4iBQ242HZFODHIXmjI6ldOpMN6hhY5PpJpRV7b2RDkZdGpFohJrqWtzRIcn+QWow5v1Uv6njVH13HCdJcVP1Xql06h1Qn+r9UJ9qnzI3KmXOq9R5VT3lf6QTqy8LVF3XVSK1rZvbioqKKCwsJD8/n4KCAgoLCykuLiY3N5fCwkIKCwvJyMggJyeHcDjsEif9nTlUeNtI734Fvf7rSnmq9Ly/CyFYvXo1ffv2xbZthg0bxsMPP8zw4cMBklZn1gmWZVkEg0Huvfdedu3axTPPPEM0Gk1aaLg57bVEIp3EFsC2tUv46Q/uYMzNd3By+47MeOt1PvjPB7wzczatWhc0OD8ejxIIZCTti8YcMjSlxgJMy8YwHDC1ZyEj/M8N11HVoT9/eeg+d3etXYOJJEgIRxpIw8AQTl2LYQLau94E1DsfjUYJhUJ873vf81daUkly27dv5/rrr08uNM8DPFT5znPluv/KvCMwZL1c5SiLUN2nIUXi5uuksToLUSLapRCJZlaa9X4vxyj+paqIirAoR8ihQ4cyc+ZMfvjDH6YkKpC8npG+rWx5Ory27eY6iarRnXLOrKioYP/+/ZSXl3Pw4EFKS0vd7xUVFVRVVSWZUpSioZSOmpoaV9k41tA7WL2DDgQC7qhPkQQ10lMNXjgcJhwOuyM/RRLU76pRVIRBEQq1T/9UMn0gECAcDieRiePprHssoNe7SG0tRl09U6M/FQRLSuk6nCsHcyBJSQzUrZWiD2xU/ZMSTLPe0VPWSdCmabikIRgMuumr+EWmaSIMI5GG44BhEKhLW70nRt3vtm0TCoYIF/kvOPplgq64KNOmIu/KH0qR+1gslrRP7VdmUPWn3lO/bfU+K5VSETRdVW+uYq58qI4WgsEg2dnZ5OTkkJubS1ZWlrutf8/Pz3cJUEFBAfn5+eTk5FBUVERxcTGZmZlJSqLeXjalZCiyqN4HVa/09llBtfU9evRgxIgRzJs3j/nz5zNixAhuv/127rnnHkpKSpLqsiJRKu21a9dy8cUXJ7kYHApUX2jbiXdx/n9mU1tuceO4cQCMHDGEF55/mYAwmT1zJu8vX4kTiXNgx2Zu/e5tDBwwkAXzpjNn1gq27t7P4LPPYNy4b/LDH/yAaCRGKCuf//nl/1JSlEt16T5+/cijVFRGOe30fkz8/ncoaVXInK1buf3eXxDfu5Nbvn07/YecQcyuQQpB3LYRwkgMd9x7a/49qrZDPbeLLrrIn7R4lRbDMNi/fz+BQIAePXo0Ono/cuVFIqThrvpqOBIpJLYBRiLsQt3aIWBi45AoECkcbDUWFGrUJYEAknidx7PQbICHbyf1IlUaXbt25bnnnnN9L/TC9zrj+m2nQiQScRUMpVxUVVW5JpQDBw5QVlaW9FdeXu5+1tTUJMnix3oEZxgGmZmZZGdnJ5EJfTVrJTWrRio/P5/c3FxycnLIyckhLy+PvLw8cnNzKSgoIDMz0x3R6f5E+t+R+M00B3pjrxomL4nXBwBe9UxHKj8i3UzrTU+/N799fmk35iOgGuRgKOQe4y6AisQ0DNfBzjQMDMOEulWgg8FAwgSuFiRUdb3uXRNAIBCss2+7Vl4MkRicSCSGEIhAEOrKyTBN0NIRUiYIUSCASkSqfXX3qs94UURKES7vCFYvB+9z8iqbXuXI+76rDt87Wtc7KP1cvUNVJPhYQe+I1ad673VSowYjXsKj2halFikTrCJB6hilKilCdKiwLIvy8nJ3odnmQJWh+gsEAoRCIfLy8mjVqhUFBQW0aNEiaVu1LYr4KH+f3Nxct105FBiGwbe//W0++OADQqEQtm0zadIkpk2bxq9+9SvGjRtHMBh0lRQpEz6iZWVlbN26lTPPPNNNy6++NQYhBDgOhmng2JLzxl7CY4/9kQEDh3L7927hpLYnM/76bwKS5XPe5g9/fZ9p014kVrqN799+FzNmTmXr54u47/G/M+P9D+jeJsStY8/htHMv49bxN/LgPQ/wi7se4alnHuTmG75Dpx6D+fGd3+Sb468io0Uxhdn5rPzoP7z64FSWz3iXO398DzMXTiU7kANAhgmWrCNXR+CZocqje/fujTviqpFLMBhk3bp1WJZF27Ztj7iTTwmpHHAlwpGJxkwkZkvEjRBBkXAYQhhIRyJkDFuE6hQWiYVBSIg6W1pi2bTENK+ER2+9N3PDhvyIsq0pLVDfCHbo0AHDMIjFYmRnZ7vHK5Kgz0SJRCIcPHiQAwcOuIrH/v37KSsro6KigtLSUioqKqipqXEbE/WpVJCjhWAw6Jo8vKYSZa8uKCggLy+P7OxstwFQIx7lEKirIOpTl37VvqOtUvh1Pvr0RL8OChpKxY0RAP17Y+Y3vw7Sm0/vcX750etpKjOgfm9+o2X9fH3bz5av31OCdAjNJ6/hduLYpIs18LtrcG6q/boeqifqc3y9jNpwJpoiD0rx0csgWelp6DvmPU6Vh7e90I/zmsv1QYq+z3uM93l5CY+6jveZ+tUV7zP2mguPJqSUrqlYtUPKRBaJRNzvBw8edBXcioqKpMGTIimVlZWugqQ7uDc1oFLmccuykvbv27ePjRs3Npp/0zTJz893/XSUypOVleWatFq2bEnLli0bbKuZXWqW19ixY+natSvr169328qtW7dyww038OKLL/LrX/+afv36uWTRNE32799PNBqlbdu2CCHc1ZwPZSAtpHTX0pI2tO54Ou9//AHvz13Irx56jN1f7OTsy67nn0//gfwsweXf/BYjh/QH+vD7P/+Zf0+fT+f8Qs45/2wuGNIdJ17NTbf8gMJTTuWB397Ppq2bCRtZ7Nq7hlV79/HEj39I29Z5vDL5TSIxyaxFb3LVddfQv+M3yB85kj888S92791LtLKSaE0UjABdu3cjXLd2magbrByKb6leHkVFRanNQ5Dc+G/cuNH1PveuNXS0oOzTUjoJkiEdhLQxzSBxBDJuY+Bgm2bC0ceUhDBx4jHMQAgbEE4cKROaSiK+p8Csm2FU93o3kOiOltLi/d62bVuys7P54x//SDQa5cCBA66vh1JA1Aut1I9jgZycHNemrEYXeXl5FBQUuLKrmmWglA1FRnS1Iysr67Dsy41BjVB1lSKVetfYs/L7zdsJN9bh+OXLO9urMRUlVf1JRQ68+7zpprpOqnx7O199v64Y+O333jPgdvTNNRV8GZCqrL1kwm/A4kfo9P3e4/2em9/3VGqOXz69z85LhhtLy/u7N89ewu4930uA1D6v86s6V5EgZXLVF/g7HEgpqa6udv3fDh486Co8lZWVVFRUuPu8zvupnPljsUamjpGo46Wlpe4its2FYRhum9qiRQvy8vJo3769ez1lRlVlNHPmTObNm8ePf/xj7rrrLoqKinAch927d7vmLT/1rrnlhhB162tZTJ/yHl17nMF1197Mddd+m7K9yzmt73imzFhGOBAiJ6/O5BuooGXbXA5UxekYMMkyglQ5DvGaGC+98jq1pqDfmQM48/QRzH7rLfZ+vgE7UEggI4NYNEqnb3QEYEosDsKsI7AR4pZFVXU1U6e8yYHd+2jRqg1tv9GRzLysxMDCrXKHTliklBQUFKQ2D+mjUyEEe/bsoVWrVg1GJEcTCcUkseU4DggTEa3mu7d+j/NuuoMrRw3BjkapjUM4IPhk0Rwe+tOrTH5uEn/8ze/YZxTz6N3fxbZrcRwD20gYkEIkBmymCY5tg0jtcHVE+dcaPtu2ycvLo7i4mCeffJI9e/YcUbpqmqNy4FSKRXZ2Nq1ataK4uJji4mJat27tOroVFRW5phTl86G8/I+EpPl1lo1tp+oE9PLSfR+8966n2Zgq43e+frz3nhsjHH5Eye98vw7QC7/OIFWe/M71Ixd++fHLl18n2JxjlVnoRIG302+qXFOVX2NtQqp67IfGnluq76mIz+F+19+XVO+d9zj13S897+9q+1DaAL/no8pJDY7atGnje91UUDGP1Kdydo7FYlRWVrJ37172799PaWkp+/btY9++fezZs4eysjKqqqqSTFrNUa0dx3GJ1datW5N+U4q7rrwHAgFqa2t5+OGHmTp1Kg888ACXX345u3btSigHWuBRb3k1hUS9B1vaGIEQK1cu475fPsKCRbPIzMqisFVHOnXrQkHYotowWbp4bcJEZdss/Wg1427pTPyLDVTHo2QJwcrPPuXdN19la20MgwB3TfwRu/aV0b3ncOJVj7Bh/VqGDuzDHyb9mR2lByjJzKe8zgxrShvsOAW5edz3P/e4ebQAHBvD0KfBNE9p0bmI8qFr1KdF7wSqqqpo1apVUkU/UoWiwXUBIdTaIA6OEBgmrF7xCd0vPgDCQCDJDScC+NiRalYsX4PlRCnd/QUbamykENh2DaFwC5Qm4MQldf66GHWjR/WiuvZDva1SEtYh3JoqWEWG1F9hYWGjo/Ds7GxatGjhOpW1aNGCoqIiTjrpJFc2VOYW5c9RUFDgOpwdDpRkblmWO2pS+fH79G5776GpY5qCX8fvNxpsDlH2MnO/dPyu2xRSne/3rqQ6zo+8NPd+mpMfdfyhDCiaOtZPAfgyorHnfCjwu9/DSTsVAT/U+nwkaG76fvmC5r0X+vHe7eYilWKo7/PuV+2WYRiuqTk3N/ewrq1MV8rvTzdjKdN8aWmp6yuovpeXlyeFiQgGg26bqhxvlepimibhcJhVq1ZxxRVXcMstt9CqVSvatGnjKlpK2fRThVMjYSYNmAHsuOCe//1fqmt3cfnlF3Na9zPYtbeS80dfwaXnDOFfH7/Khs/Xc/vd97Nj5VyuvuI7XDikJ8899TxGMERcQJfO3bj86jFcftW1dOnSlU0b11IlLOLBAv5w33e473/uoE+f/qxYtY3H/vQr5v79cYLU+XLhgOOAowJjSjBA1Pmy1YlCdZ/N72BVWSj1N6V5SFVk1aFVVVWRk5OTlMixgIqeJ4y6fEQj5GYFEcGEg56DZPr7H2AdLCM3so3i4jZII44gTiCYD9ImFDbZsHYDH69YQV6rPEafdSGGSHTUSrJrIJeCVoaJPBwSa6GeuOgjLMuyGDx4MP379ycrK4s2bdpQVFREy5YtKS4udqNjGoZBdna2a36xLIsZM2ZgWRZXXHGFTznVOxrq1/Q+F/VSqVkY+jGhUOiokI6jhcZGg37HNJVOc+/tSO77SK5xKKOpI8nXkR77364XzUFzFZZDSetI027OMz/WZXskdey/8dybq+7o2962vCmyqJu9TNN0p103BTW7SwWztCyLvXv3Ul5ezmeffcZPf/pTYrFYEulTYS5s26a6upq8vDyGDh3KqFGjWLlypat6q/wlDaSbAccNFidwDImBw68f+Rvr16+j9mAN5BbQ89ROSGlRWhvl3AvP4gc3XYeMXUb33n04GItxxbg7GHNFGCMuyCxuxaPPvMznazYgpE3nB37JnrJqgoZgzDW30G/oOezdV8XPO51Kbl4mp/zPPcRChUSkReeuXflw4WzyWuRCQBAigARsxSWE4Qa5P9S+VSerTc4eUg+gvLyctm3buvuOFXFJECVRL3yYAmyJJGE+mHDbzbw19xOGD+jBrkX/oaxgEIYTJWBIbCcTIUxmTHuNm29+kJ5n9GPt9k84u8+5PP303zCDZsI8pDnVuVOVDSPBAAEVgbe55dqYJBqPxxk2bBh33nlns9Jas2YN//znP5k6dSrr169nyZIlrvOWPktGV0iUf5F3RKgTFJ3UnAidUBpppJGGDr1t0wfU+j7VLvqZuHSFXXdM1h191THegaCapaRiGCkoU9asWbOorKx0TT2mabpLbgB06dKFG2+8kTFjxtCnTx8Ali1bljRrzKvaNm+AJkEm4o+ZIk4sbiMcQdeu3dxjqmuiZGUGMMMFFGcLTjst8ZsVt8gOGJi57SDLwpFxnLiJKbLp0TORx6gj6XBSGOxq4tWSNiUdaVNiErMhatvkn9SeWoLgRAgETVq3a0XciIGwETIAOInQJFK6M4IPN76rKo9G47TohVZZWUlxcXHScUeduGgkwrGNBLmIR5GGQ1ZeAasWzWLa9DnMX72eU08q4OmHf8x9/1iGCBUQj0sCgUqceBm3f+8X/OK+R5gw8UYsJCN69+blV19n3PiriSHIEIJE0Bf3hhOzkajzxJaHVrJ6GXhfpJycHHbv3u3OEsrIyHBfCKWqVFZWMn36dF588UXee+89otEoAL/5zW/o378/lmURqpuG6n0hvaMKv2eivnv9O46lNJ1GGmmkcSzgN/BKta+xY/QBnV+76afO6FDmioULF/LII4+4kXDVsVlZWZx//vl885vf5OKLL3ZnkEajUQKBAGVlZXTq1CkprUOGu5aQACncdYbilo0w4hhOgMxwCEfafO+Oe7BCGUTjDiAxTAczLrANiRRRhHQwZS6WYxMjhoGBIYJEHYegNDBMm7hl4ThxAmYQWxg4cQfDcBCGiXRsZNyBgA1mEFnnnyqT40FSL0kcmhrs+gilOkBB93fwhnk/2pB1Bi/FbB1hQADiUhAXJquXzGfgsItofVIBtrWLcy4dw59n7CJSaxI0w+RnVvPF5sVURwpYt2ELv3r4t4Rz8iFezhvT3uGacVcRcyQhA6QjMeqCXIm6KViJcMgG0hAIFcmuGfAjbqrc3LUgtLghalGt9evX89JLLzF58mTWrVsH4Dqk9urVi+9973tJ4aD9nEp1kxQ07dyXRhpppHGioTET3eGYtvwIjT4YVHF99HZVV190n5Vf/OIXScs/dOvWjfHjx3PppZfSo0cP93xFaFRfoAcPTaUONQlRN8CW4IgghrAwpIM0A2AEkTjEnRhIm2A4E8MMIOISEbCwRRwnkIWQYBoCRADpCMyAiSH+P3vnHS9Vcf7/95yz5Ra4dFSKICCCiKCCBUWxKxaMIJaALSbmq7HrNzFKNLZobImJSsw3UWMUidhBRRAloKCiIEqzIh3kUm/Zcs48vz925zB77u7lXkBFf/vhddndU+bMzJnyzOd55nkclE6jieApF88tJeamwPdwRPB9Ie3GiGhN1HXxxUXcEpQC14mixc2qroSMPyUHB5V1St9wLYYNM//Vu3vI1g+WlZWxcePGoFLDFuc7AiortGR/4CKIp/HRxJUQLS1n06b1lANutDk67eH5CZA0pH28mEss1gxXV5PUtSSq06RSCU496wI69tyPFBA1goqCwJY5GzVacLJMCw0WWCC/EGeOJZNJmjRpgon5kU6nee6553j++ed54YUXAo+StorHcRzuvvtumjVrluNiPOwHxrwnu2PlozfDVKp9PEdFVhRwiiiiiJ0QO8rQuqHPCs9t9nNtz9APPPAAb731Fk2aNOGUU05h2LBhnHTSScTjGdf4NTU1wUI1HKuvTZs2wU6lbS2XEslsWFEaR0DEIeumDKUdfEkj4hOPloH20ToTn8jJWsWmUcTwEA1CHKUEV1LZPbcuSgnRwG4mEw5HOTVEo1FSysHxI4CHKxEccfBdjeO7uIDnakQ0Ea3Qyg2cThpFRmOmG3t+2qobf/PZtGlTNm/eXOeaHa0eMlKsJxDRaVSslJS46JrNHHLMCfzsmrt49tUZHH9gFx568FFWLP+SshIHcVyqqjx23X1/enRtR8s2Lbntd//LhnWr+Z8Lf0HHngfQRClqfY0ojeMoHOWSIcpURgpUYOIbbW+xTL2kUikikQhLlixh7NixPProoyxYsCC4xhhqGQvzdDrNMcccw7777su6desCb7ENr8LM+7It141vHfsa2yamIQya/b7zqafyfc83yISvs/OTb2dFY55R6Jhdtnzn8uWhofnM94z6jjW0jov48aG+ibexbagx/SVfe2rItfX1ifBz8x3bWv8uVLZ86eRT5WytH+bLR77n2HNdvu+whQkxDIvruixZsoTJkyfzpz/9ibPOOotddtmlTj3bY7fIFl80vu8HDvXC47Fdlq0hs8jOTFhKFMpJodMpPF0GEYgQIRJN8vqkl+mx9wB2a1uOLz4eguMJrqMRN40jMXxfoSWF42i0eKhIhIikcPxa0pTiIUSUi6MUC+d/As070Kl1CyKAE1X4jo8jtfgSxxcHxxcibgTPUTh4WWLARalsJMaGlM9ipkyIjwYzLeXl5QHT8q1Ju1YjcxCUo/DTipKKJkTStbTfY18eHv0QV13yCzq3UjSNKDp3aIWXThKJlVCedFCqhL8/+hDDL7iE5198mpq1qzi4/yCOPnwgKa2JupJhcESjRSFZxzjiWFSWolGbhwo1MCOITJgwgXvvvZe1a9cCmQ4QiUSC4IDhjjp37lwGDhxISUlJ4G3WeJ81PljMZ/PmzWnZsmWwbdrExDECkUFDWDERqeN9sj7qNd+AYH+vTzgIn69vwCz0vPoGx3zPqC/PW3tWoXza14bzX1/Z86HQ84v44SNf2wyfh7rtJd+xxvaXQkJScu8zvAAAIABJREFUQwSLrbXJQuVpiEBUqGz5ylSovuzf4WNhZ4phbKunYBMwU0R47LHHiMViLF26lEWLFrFmzRo2b94cbI2uqqoKtlBXVVUFDvISiQTLly/nl7/8ZSCwbFP/Fwk8wiM+KU8TjzbDWMckfB/H19RWb0b7mmg0FC5CQCSGL0Ik6gC5wRO1LzjRcuJZ7ypJwCHOTddcTp+hl/Hbn5+ZuQ4fxEH8KJFILBAsfPEywXXERZSQMcPIsAMNKV5YcBWRwm78g0xnX3xpaSmrV6/OaUg7PEiceQGA4zo42odYGc+/9DLReAu0TnLOOWdy0skns3HzWnbftSkbkjFiEYdrf/c7vEgJvha67t2Ld9+dxtIVa2kSjdKmTRsESGsh4ijQGSZFFJkomUrQ4gQvWjVSJqtvpbFq1SrOOusskskkd955J998803AghgL80gkksOErFmzhjVr1mz1uUqpnIiqrutSXl4eCDUmgJgRcFq1ahXE7zGfxtOt+b6jnIrZbvPtASW8mtiWlePWzjeGaQkP9oWuM2lsbbUZFmDqW0kahDul/cwifhyojyEw54G8fSV8LLyoLNSPGsO02McKXdNQpiVfmexy2M8Ix+sKCx/2Stv+K/SsxiKZTOZ40d20aVPgZbe6ujoIp2J8uBhv5nZYAhOZ2yz6GuPZvLKyMqgTw+I0BkoEnExYG0cniEebMG78y6z9ehl799yHw48aiOdpdu/QifKWFSyY8y4bpISPP5lDNF3N0KEjadq0Ka4rfDxvDm//dyZ7dumIH2/OPvv0oF3rVsx9/y2mzfwQHSll8LCz6dqmKW1aVLDwsy/4+z//RYlK8tORP8VxSiBSwvsffcSsGf+lebNWnHX2OSh8UlrhKgcXjcbJGuM23GbU2IYqVWDLc/gGEaFDhw5MnTo1aBz1dYhthmnkJoMoREVpVtEUxMFXPn7ao1lFOc0qykGqaF4WR+MSbVYGAp6A76eIuLBHdou29n1EOUQdUFrQjsJRWV2QBuWobCVmaCtpZCzocOc2gkhtbS3JZJKDDjqIfv36MXjwYG6++WaeeeYZtNaBntP2oOg4Dq1atUIpRW1tbRCaPl/8DREJtkMbbNy4kRUrVmw1zyaiqglUaCKomvgbxqFdixYtAgHHeNg1341fGTs2kfnbFoHW7vDhdpVvlZav/eUTUsIDelhQMQNn2EuyfT7fvSb9QhOA/Rn+bt9rn7fzURRcfjwIT9wG4XZlXx82BgVyAj+G26MdsNG+126/W+tHdv8LLzjC99n32OkW6m82wm4bGgMzTpjI1yZGkRFANmzYQHV1deAgbtOmTWzevDmIcWR+2zHcamtrA0FlR0autmGiwpto9J7nsXTp0sCEwPYdU0gQrIOgjjVEovzh9ht5deosfj7yp9xyy+8Ysep/OP/s4xk+/CwefPYtpv3faP4+6QPu/8PvGf/UWF565b88N+5p3nxzPJdfewfXXXkJE8b9g/v/7w0+mP8J896dxh9v+R3/85tbWTT/I35+0RVMfOYRom6EF/79Hwb+8UZmvPoaM2fO4sG//Y0Jzz3FDfc9zDUXX8zE58fz7jsfce+f78TXGle5QZykBtEsIZg5skF+WpRS7LHHHtTW1ta7U2V7IWR28qjMDzKuciJo8YhoB8nSedoXtKNxJQKi0U4E0T5Ka3AiKCeCaA8fD0+5xJxM9GfJCncmGGNGWMmyRtkcgJOpz0aqh8ITmVKKr7/+mkQiwe67747nefTo0YOnn36a8847j1GjRvHBBx8ABHYtsViMVCrF/fffzwknnMCSJUuorq7OiVVk4hcZN9LGk6M5tnHjxgZ1um2JqBqG4zg0bdqUFi1aBDGMjOde24uvcc9txzCy4xuZmEdlZWU7NKaVPViHV3SwpZ3bOlNz3HZCaAvqBvlo8vDx+lbU+X7nE3SK+PGgMUxaeIzN1wbNb3uHoq1utj/zqUrCgpS9S9FmN7Y2zm9LnxWRgNEw7EYikQgEByNU2L/teERhtYuJOm0v4L5txGIxmjdvTpMmTYKYbmbBZ8a6Zs2aBWx3s2bNaNmyJRUVFey2224sXbqUkSNHUlVVRcuWLYOdoo3t/1oEx3FZuegdHnz477w8fS77dd6Fdi2E8679E8NPPord2zUnHhVKS8o5+bRTOHvoT9i/S3tGXHgViiR33vUgZ559LueOHMngo3rx5MTlxFI1pLXm+tvvpWO7XVg4fy4L5n/K8hVLSdZWc8GVl/HzEcPg9L7sf+jZvPPRZzw1+q8MPesXjBw5gnOGHkLvfQYw/owzGXL4/pl3E4mAliAAa0Ng2qfruqxbt65+j7i2a+Hu3bvjui4rVqygQ4cOdYQXc9/2CDJ2QURlPOhldDUaE5qeQFJzEDIRnpUoRAmuk7FJUcoBoriSCWkfOLXRWfYG0xkzz8kISSorqGTz3wihxdRBWE2wYsUKfN+nTZs2gR7UcRxOPPFEDjvsMP7yl79wzz33sH79+kDCBnjhhRcYMWIErVu33upzk8lkECU6kUgEUVfNKqOyspI1a9YEbqi/+eYbKisrcyJEm/tNvI6GQmsdDByNgVltGPfb5ruJmGoCO9phC4ztjmF/ysvLA/sdE47esD4mLbOy2dYVnY3witFegYbbe3i1GkaYTbLTMRNPQ/Lb0H7W2P6YT7Vljm/LsfpUZYWYqoaOJQ1VueyoY/n6eb48FTpmnwt7qDbPCJfZbg/5mD6bmdvRMaNMJHrDaNjshjlnWI6amppgMWVUKEbQsCM9b9q0KUgzkUgEcYPMGGn8VH3bMOOOictmR6M3rHKrVq1o06ZNMAYZT+ZNmjQJgkXaf2bXUGOwfv36gF3flvlTiaAch42bK9FJ4c6b7iCaXIMbE44+8hAc7ZP2NTVKoZI17Na5K57nUbUpSWrjJqqql5LwSujedW8SiWpKm7ehefPWaD9Jm7Ztuf2uv7Bx1Zf8/JzT6LhrG6rSDmXNW9Nu91Ykk0liXpRO7Tvy8Sfzqaqt5r1pb3Pm22/RPFLDfvsfQllpDB2UK7N7qKFFtJlnEWHjxo2F1UN25/B9n/bt25NMJpkzZw7t27cPgheFB/LtYV4CPZci6+jNQZSD0j4KcJRkpbTMeV85uKJwxMdz0qSIENOG0ozgaIWrNJ6jcSSSNbR1soa2TkZ4cTRKHBQandn0vE0O+4yQB5mO7rou8+fPp1OnTsFA5LoujuOQSCRo2rQpv/3tbxkyZAi33XYbTz/9NKlUKjDcnTdvHj179gxo3nwrJdd1g4m/oqKi0fWdTCZZv359QKVWVlZSVVUVMDf2YGNWO2ZlYz7NaikfjVwIxgV2dXV1o/MchhlsTDDJkpKSOgOKCSxZWloa1Jcdht4EnzQMUFlZWc5xwyIZobKQXt1gewWkbyOCOhReYdvHthWFhBc77e9b3bUjGSy7P3/fMOOu6VMm+F8qlQr6p1mYGBWKWbDU1tZSW1sbnLOvM+dMQMFUKhUcM0EJjVv77xPGU61Z7Jg+XFFREbAeYUbXMCPl5eW0bNkyYEW2ZRy1YUesN2N3uD+bvtKsWTM6derEtGnT6Nq16za7nZCstqCiWSlt2+zCrX+8k+67lPL159P4z+uLiZeUIY6LioCLQ4qMDWQ04qGVpiS2C03KNAu/nM/wkiPYsPJT1nxTiaMTjPr1/3Lo8MsYdcnZbPr6HW7920TKm7WmevNm1q7akBHSqj2+XLaEPXt2YpeyMvb/6Rn88tTjILWGvz/0T9ru3gEPiConQypkuIUGz7F2v503b97WbVrsG9u1a8fHH3/MSSedlLPyDPsE2dbByQgLIuCoDO0FZK2PnYz1cYZmybIjQma/t+AIeFmBRHBBGWtlcCRrqaIcBJ3xeKsUGRfIRkDKPjtgchonutj6X7O6nzVrFgMHDqwzScRisUAv26tXL8aMGcPw4cMZNWoU8+bNw/d9nnnmGW6++eaA7bLVFSYto+MrtLILC5PhVWM8HmfXXXdtVBk9zwtWWWallUwmA52xrT82v83qauPGjXkHS/uzsfrkVCpFKpVi06ZNjbovHyKRSCYgV/bTDDjG0NkwOkY4Cq/USktLA7bIMEjh7/nuNemaZ8Tj8cBteDgvpi2Y8+bTPl7fMfj+hYcfE6qrqwO2wfQHu2/Yv8OshREGjLBgftfU1JBOpwPBw9hchIUHc96cM2OK1hrf94M/20treLfi9wET5NBEnw//mQWDETSMqtkIFWEVdHl5eY49nd1fG9vWbX9YkN9w33y3Yavv7PAq+Rb0dsTivffem3feeYcLLrggYBQa5TcruN6jXbf9OGvE2Zw38iIuGXkCz/9nNL0PHYnvxqmsXEsslWRdIkXNpo0oIOElWbl+Jemk4tfXXsol146iQ4s4s6ZPoCzuUNGyDYcMPJJXXnqeTk3SfPLG83z22ULWrlwG0VLuveuP9GoT440xoxl45NEM2r8vcuEFXHvXPZRtXM38t19hxZr1DLn4KnxfE3OdjMM51XCb0bB93+uvv46SPC3YNgw1E1UsFuPxxx/n5ZdfZty4cXieV8dZTvgFbivE/G/2HgtZtY4RYlTWQY1hZiS4MbguI4EEAklGuMnmleBAJo3AiCUoAY3RD9mChDHC1VrTv39//vKXv3DooYfmWD/bMNK44zhs3LiRv/71r9x55520aNGCOXPm0KJFi6Cuoa5haaH8NIT9Cq+08626w5b7OwpGnVVdXU0ymaSqqioYnI0xnDGqM0KPEXw2btzI5s2bg1WkWUnaA7MZGMzvHxJsocMILaavmd+20GIMn+2B2r7G3gIfFnjC94bfvVE32O3AtMXwMbud2H+2rYRJL2yjUV/bMu09bF+U75h9zn7/maizOhAk7HZijoWp6Pry5Ps+a9euDYQWIzzbRqG2kGKe/0OA3T7Mn2lDjuMEzKVhJI39hhFCjMDRtGnTQAhp0qRJIKg0bdqUeDyew2bafzsS9mIyLIwUaoPftlBv8uI4Ds8++yyPPPIIr776atD+GpWPbH/VgCMaHJfnn3+JVauX022vHhx75JGk0ymmTHmDgw48hCWLF5OOxOnTuyfr1q7m/femcfSggaTSmhUrV7Jgwdd4EufeB/6PcU+NpkO7tjw9Zizr11fSb7/9SGthl7ZtSSYSfL1sBcuWfk1506acc/ZZpH1N1HWY/eH7zJwxk+YVFZw98jwgE6coojIbYCRbtobUsumHZl494YQT8gst9iFDc0WjURYtWsSZZ57J1KlTqaioyJE6t5dlyT6NwgKDfczkT9U9ZX7kfmTLkpVTsvuDxHpczlMbaYhrym0GwUgkwvz587ngggt47bXXaNmyZZ0I0+FB1wgmjuMwb948rr76an72s59xxhln5Ey6RiCqz2CrkI6/0HX1MTJbK/fWjoV33uRbhTQWpk2aQcjsJDDUtxFojHGevYXRsDnGyM9Q3GH7HnsFbNPnZuVcRBE7C4ya2AgNRiAw7F9paWkO62eOGYGirKwsMIq3z9mCR0lJSaBizSesbi/MuGGrV7YmTOR77g+NRaysrOSYY45h3LhxdOvWLWeeaCgkG0dP+xrt+0TjseDcppoaSuJxYq5rLdChVmviTtapKpo/3ft7Jk+axtkjfsaEif9l7959+O21/4OfTuekVwi1qTQl0QheOkU0tsWuJ5VK4rhRfBGirpPZEENGo9EQxao9R65YsYIhQ4YUVg/Zk5fxI9KlSxfatGnDq6++yplnnhlIPyZx87ntDSc7eRq+pIFMi1LZM41iWgzBsoVpUXY+tkE9FNytFM899xzdu3cvaBUeridjgOn7Pr169WL8+PEsX748YG+MyskWLLa2Om0I8jFk23JvPtgrV/t6MzDZK2JzHHJtQmzVY3gVYm+tNoNsQ4yX64O9ajZGh0Z4MaoxIySZFbtZWRsByFD9xjjRTsPQ+ea7fZ1ZnRva32aMwitFm0myz9sMg3kH9nVGuA6rCb5vlcF3hXA7MqxCuI1tjTUybFNYXWeOGTWf+TSqwGg0iuM4gQBhVIfGkNwIDLYhuX3Mdd3gXvPbpGEM3KPRaHDefO4o2xu7L9ttzBY67EWQzSqE30P4uxkvbC/h+Xbx/dBhyub7Pq1bt6ZTp068/vrrdO3aNacuDeotv0jONKUcNxjDcBxKS+JozyflebiRKOJ7pFAo10H7Pp6XwFHClVf9lh57T2b9hs1ccME5HHPUEfi+RjkOyUTGMNp1HMtkI/O/Fp0RQLIbdlzXJZ1MYFb9biSK1j6OkxGaxIzfBeol36LZ930ikQiTJk2ioqKifqbFTiSVSlFSUsKvf/1rFi1axAsvvEA6nc6hfu1K/v8JYRVLOp3m2GOP5Ve/+hXDhw8PHMmZ+rQboenQRsK2DW+j0WjOb3vQhJ2/nsM2T/ZAFG52dt3k21ZfHytkp22nZ3/mG2TDFLERhHY2GGHJqB5smyLbfiF8zPZlEVaHpNPpQCC2bS9gi6BjTzr2pGRT7uFr7N/2feZ4oS2pYaHBFiTMd9u3Rz5hwvQN+7et/nIcJ5jozTVG9Waft6+zt//ax4yazhYUzN/OBluIDQu04Xqzj4cXG/n6XqHFWL7+mm/iDY8PBuFx7scktJjymkX/k08+yT//+U+mTJmSM/YVGusKpSda0KLrzBc5C2oUKfFwXAfl68zOIwAcXKvtViWSlEQym1d8rXEdN+Oh3vODNiOi8XVGsMFR4Gfdxmkf5bpoz8eNRtEIPuBC1j9aw+cue8447bTTOP744/MLLeZiu8LM5Pr5558zbNgwJkyYEOwiMpWTT6L+/wGmjtLpNJFIhFmzZjFy5Ehmz55NSUmu2+T6Jt98qxXT6PJ5S9zZO3E+wSFf2e1OFq6LfOxS+Jj9vHzPMOkU+m1WCPakmy9tAzuPhd5BvvzmO5+vzsL3hCeVInZeGFVuvvYWblvhfmAjX3vLl459rM4EFTqf755C7dPOh5238O9CfSFfnsNlC6drjhWqux9L+zflMiYBK1as4Pjjjw/Y+fBW+K2VP7w4DJsP2BO/UgotRr3tgM7YmWgtiBbEIaNocJw6blZNGmAx4GRUPVoEVym0r7O7exU42bahBF8L0UgkYFsy1+QvR3gBqpRi5cqVDBo0qLAhbqFOZDI9dOhQDj/8cK644opgm+4PiQHY0bAl52g0yvnnn0+zZs3485//HAgyNhraCX9MHbU+bG0AL3T9ttbP1gbNxuR5a4N6vkmkIWUoNIk09Jqt3d+Q9BtzXUNRSBg1xxqL+uq+sfc35lxj79/aBFyoTTZEwKkvjfruaUw/KtTOt5Z2fdc2RFj7McJenPq+TywWCwIu/vnPfyaRSARMXj4BJictspYQ9dRt5hpzpc78ZaxhQdzsjtqMs4/MPUJg+Zn9LVnziuyXTP4Bh8wu32BzS7Cz13pE9gxIxhA3m0b47dpaB1MG4zn+N7/5DQsWLOD555/fOtNiw6g5Xn/9da699lree+89HMchFosFFfr/y0Rrw1SuUoovv/yS4447jvHjx9OzZ8867FOhAWVbJoedvZ4bWrb6VmX1XV+IcdkW7Ig0GpP21p73bebHpA/bJpQ0tDz1TVSNqY+G1sW3Xc/bc21j+0Gh4zuinnbUffXd29g+3ZD7d/bxrqGw68LYa3z00UecccYZvP3227Rq1SpQreZb8OZLT6msLadVzcZkM/ixZQsKWwSMbHqiwNGIOCitEUejVIaJIeu0NRdGSCGwIc0IPllRxgrgl/HLkj2elZ3y7R0K71o2ZV23bh2HHXYYo0ePZtCgQYUNeI10Z0t5JsFBgwYRi8V48sknicfjgRfVMB31Y0S4jLbU7DgODzzwAAMGDGDvvfcODHDD99tp2BJ0Y/++oxJv+RQJPjNFyHyaLmBL1JLdUh4YRdt8oNpiyGWkcmU6UHB5lkLMNnClcqnjfJ/b87cj0mhM2lt73reZH7vtfJvlsd+P/bzG1kdD8/lt1/P2XNuQewtdYx/fEfW0o+7bEXluSLr52tGPASIZtXQqlaJPnz706NGDhx56KFDtRCKRrfrVEciOsyCiMMoZRCGisrtkVdZrfPZPFEoyjt7MmK2Vzg7vWfWNuJn0stcH9wZ/mQ0uWgFKUKKz3uVVRq0kKmMvI1l2RyTrK01lN9nUnUeVUjnHjc3smDFj2G233Rg0aFBmnm1MJZuGE4/Hue6663jggQdIJpM59gB2Q7Mz8GNBvk5otjkvX76c1157jWuvvTav4Gbf88NZOdiSRqYzoBQq69ZQKcnGi5JsI81cq7I7t1T4n8o262waolSuULNFUrGeRx5Jv4giiijihw3D0mutueaaa3jyySeprKxssI1ooB4is6YUo8ExpIuyrhTDxihEm5s0ovzsLiCNQiPZkDYZYSX7aS4P/jKsjeT801uOWc/PfOpg929GbVR48QlbfDpVVVUxevRorr/++kCQKageygfb0Md1XY488kgGDRrETTfdlONUzRZcfmywJUKbZYlEIlxwwQXE43FGjx4d2LLY0qONH47gYnWL4GtWQ6qy29LB6hxYm9PtNHKTUyaN8M3hZxqBpZFb0IsooogidkaE1UPGjiMajTJixAhatGjBX/7yF5LJZLAbrRDjJKEfZpRUkjOKZtZ/ZFkUnVlcapUJjZMJYEPWZ4sCcVCSMcoN1El15ik73I0RZRzr7JZFq6CzKiknyJGxkTFzYDheWzqdJh6Pc+ONNzJv3jzGjRsX1F2DhRb7snQ6TTQaZcaMGZx22mnMnDmTTp06kU6nicViwbU/xj32tq8L8xmLxZgyZQoXXXQRM2fOpFWrVjlOgvKxT6ZedvbdVpkGpxAjmiuVafA4gdASkCFGzZOlGkU5KHy2NGoFWsBRKO0GT1D5hBZxQPnZ3uaA0qB27roqoogiimgIwobKhlVZunQpAwcO5JlnnuHAAw8klUrlhCNo6Dwa2MvaNi22FIOxRTHUDEHgYcOW59yz1Qfmph2gQBr5/HSZudCozRYsWMAJJ5zA5MmT2XPPPQOb2m2aBVzXJZ1OM2DAAEaMGMHll18e+D4IS0w/NhgBJBzm4Oqrr+aGG26gbdu21NTU5LyM8P0/pC2syliYKIXCyRhbZSNjK/FReDhaoUiTCUEJQYgo2fI7I72rjOAhjtWYnWzvslRCyjArzpbjRZaliCKK+BEgn+2nWQDvvvvuXHnllVx++eV4nrfVeTRHZSNb/owskjVvMdqhzHXGDkVl7U6UsgQWlVXZS466Kb96yPqnzCeBvYuJ/Zf53GLxaD5tVZDruoEPJ+NL6oorrmDEiBHsueeeJJPJLXGItoVpsT1vep5H//79+cUvfsEVV1xBMpkMPBoWilb7Q2Ff8u10sOksz/OIx+NceumlLFiwgEmTJtUps3H2ZerEDoC4NdjPDufDrsNCuxR2RD1nOsAWHaXKCiYiDqhERhCRGOLUoiSeYWAcMjpTx5Liyd6fPa5EW51LBZ/20iCIBuqwZX9dEUUUUcQPGPXteDRzqzG9uPXWW3Niz9mod3wPMx8FmJYgHzlMi6p7zw5AvnLbDiiNUXI8Hueuu+7iiSeeYObMmZSVlQXlBRontJjJ2ky85gEzZ85k8ODBTJw4kX79+uX4JglHabTT+iGgUN6Niuy5555j+PDhdOnShX333ZfevXvTvXt39txzTzp37lzQrbzxYhoONFfo2fnyYZBP9bRjkFEOOaIRHDQ+DhokmmnwTgrERYmDdmpwpAzBCQyyVKYnbKEbAYUGTEeRwKA3Y9blYMcsN8IM6ofVZooooogi6kOh8TydTuO6Lp999hlHHHEETz75JMccc0xOgOJCaeysyDeP5bPrMV73p06dytChQ3njjTfo06cPyWQycKsCjRRa8n03EaAfeugh7rnnHubMmUPTpk2D/ef1sQM7e4UXkoiN0Pb5559z4oknstdee/Haa6/lBDZs3rw5bdq0oV27dvTu3ZsDDjiA3r17065dO1q2bEk8Hq/zLNvVdjjOTj5Gxb7XPrbjmBZjMCVorcDRoH1EYjiOBtKIRDLb55wakJLAjkWMQVfWIkxEZYgXZexVJMvgCKAtpkVhKBWVpTOVJcgUUUQRRfyQUWheMSoiw+A/++yzXHbZZcyYMYNOnTrVYVx+KPOoQXgTizGxAAJD5DVr1nDggQdy8803c/7555NIJHKi3MM2CC1hwcNMtpFIhF/+8pfMnTuXt956K9hjbiZfs9/cjs2xs1e2vTvIlNcY3prKvf7661myZAl33HFHg9Js27YtPXv2ZK+99qJHjx7stdde7LvvvnTo0CHv9SZGTDiuiq1qMnkt5Mhuu9RDWoPKKIU8L4WjQGsTDyadYUOIIqoapARQKEejxMXoiQLGxNCPWSYmk3+ztQ+0eBm2JROlImvKkmFgjAV8EUUUUcQPGWH1SD7hw5AB1157LdOmTWPChAm0atUq8F0SXtTuzMhXXnPclh+SySTHHnss++yzD6NHjw6MkCG3jI3a8mwelM/Owzz49NNPR2vNc889l+Pe3ky2P7TKNuU1weZM5R500EGceOKJ3HXXXaxevZqvvvqKOXPmMHfuXD755BNWrVrFihUrqK6urvcZ0WiUli1b0qZNG3r27En//v3p3bs3nTt3pm3btrRs2TLn+kKh28OxJoCcII3bWAPGJAXPTyFaEY3FgDRIFM+vybpwLsVx04iOZO1qJcuyqC36U2PNrjTgof2MYJLJp8LXHq5rypAVvAwjgyoKLUUUUcSPAuHFsDETsE0vYEsk8cGDB7Nu3TomT55MeXl54F7EYGefR233/PlID7PQPvHEE2nevDljx46lpqaGWCyWP5TBtjIt5nuYhdBaM2TIEFq0aMGYMWOC+Aomc2GVkZ3md1X5YcGrITudTFyhqqoqjjnmGPbff38eeughEolEnaCIAGvXruXTTz9l8eLFfPrpp8ydO5cPPviAVatWBexJfaioqKBbt27svvvu9OzZk4MeHZz/AAAgAElEQVQPPpj+/fvTunXrOpFkU6lUzq4mg3B9NqbMmfNZt85KgDRKxVi9Yg2eXk+Tst1o1rICLWl8ndnlo0VwnYxVixgHcyqz20h8nVEH6RTKVYiO42tBOQrP81FKUEoTiUSDnUpGUAkMxIo6oiKKKGInQGPmkEKqILOZw6hJbLuNZcuWMWHCBCZOnMjcuXP54osvOOOMM3j88ccpLS0NtBhbe973oUIqpP6yCQDXdQMTEoDTTjsNrTUvvfRS4J/G9mFjXKlkdzw1jmkJZ8LAGJZGo1Gqq6sZPnw48Xic//znP8RisRy2xSCfcc53LbiEv9vnDZLJJCUlJaxbt45jjz2Wgw46iIceeoja2lqUUoEQYQtwYcFCa01NTQ0rVqxg7ty5fPzxx8ybN4+lS5fyxRdfUFlZWW9+HcehSZMmdOvWjQEDBnDggQfStWtX9tprL1q1alXneiNA2uzW1spct34yDIkWwVHCnbfcxKxZn9BytzYsW/YZpw+5iJ9fPIKFX3zAn+55lQcfvhElaZSK5AgYmXwowCOzDSjO3Xfdwx5dejHsjBPxfeGhhx+kRYtm/PScEaS9FJFILDBcd5Qy7l2KKKKIIr5XhMdRg0LjaT6jW7O9154nli1bxrRp0xg3bhxvvPEGGzdurJPWaaedxuOPP05FRUWOcW6hsf27nlu3JsyZOcnMqTU1NQwdOpRYLMaLL75YxxzC/h6YSGyv0GLTPCZTxo/Leeedx5o1axg/fjylpaWkUqk6k7ldsJ2FaTEVZRiiSCTC4sWLOfnkkznppJO46667At2iXanhZ9g+a5RSebet1dTUsGTJElasWMH8+fOZPXs2H3zwAcuXL2fz5s0kk8mC5YjH43Tr1o099tiDPn36cNRRR9GzZ8+8hr6GmjOC1da2XJs6Me/zxf/8iwce/CtvTH0PgDkfTeHC825j8qRxvPDa3/jzve/w1DMP0mvP9qTSCebN+xwHodtePSkvjbK5ai1+wmXZiq9wnDSX/M+NDBx0Mtf9+hdUlMe47JpRXPw/P2efPbuQ9j0iTsRiWsymoqLUUkQRRXz/2NpC14YZd221vUFlZSXTp0/nmWee4e2332bx4sV17q+oqKBPnz5ceeWVvPnmm7z33nu8+OKL7Lrrrnk9r+8sTIv5bh+HLfY6a9eu5Sc/+QmdO3fm8ccfD3ZO2XaadlpBTKbtyZxdIXbChs4ZM2YMl156KQcccADPPPMMvXr1ysQOUFu8wX5fW7hsQStMtfm+HzizicfjTJgwgYsuuohrr72Wa665htraWuLxeI5NST6JO8wqmWfazy4rK6NHjx706NGDo446Krh+1apVzJ8/n3nz5jF//nwWLlzIrFmzqKqqCq5JJpPMmzePefPmMX78eG6//XbKy8vp27cv/fr1Y5999qFPnz7ss88+lJaW1slTKpUKhDI7f8YWZos9itAk4rNsyUrGjH+Fs08eTN8+R/HhnKOo3vQNH8+YzzcbFjB9+jvs1vQwrrjy5zRr05USJ8KXayL845/X8+or/+aGX/2bE04/kt3aeKxaVclbMz7inFVrqNGLSTkxuu7ZFV9SaEdldwzJlq3QdVwtFlFEEUV89wgzB/lC19iLeM/zgvEXoLa2lokTJ/Lmm2/y3HPPsWzZsjrPUEpx7LHHcswxxzB48GB69eoFwOmnn87NN9/MYYcdxhNPPMEhhxyC53nBfGrbjoTz/F0xLeYz37wqIsRiMd59911GjBjBKaecwn333ReoycIyhe0yJSiDbAe01jnf7T/P8ySdTouIyG233SYdO3aURx99NLg2mUxKOp0W3/dz7vsuYJ7l+76kUinxfV88z5NUKiXJZFISiURw7ahRo6R9+/Yybtw4ERFJJBKSTCbrlDdf+uHf+Y6ZZ5v68DxPfN+vk+fa2lr5/PPP5Y033pDf//73ctRRR0m3bt2krKysrrNC66958+ay5557yimnnCJ/+MMfZOLEifLVV19JMpnMSd/zvKAO7Hdi8idetfz66kulz377yz577yWHHHmizP7iSxHRMmfSs3LQSReIiMjzYx6Xu2+5UURE3n/vHemwxyHy+rvjZdz4J2XvPU7KPs2Xs866UEY/PU1ERJ77511yz0OPS1prSXqeJLQv2k+J9rV4okV8Ld9NyyiiiCKKqB/hec7MdalUKufT87zgnvXr18u0adPk0ksvlT333DPvWF1aWip9+/aV3/3udzJr1qyc+83cZObUf/3rX7LLLrvITTfdFIzlyWQyGL/NuP19zK0iEjzfnt9MeUaPHi277rqrPPzwwyKSmdtMvZm8h/Nt53+7mRYjVYUpKSPxpdNpbrjhBg4//HAuvvhipk+fzv3330/Tpk1JJpPBjpx8dFK+50keRsN+bjgvWzueT5KLxWIsXLiQ6667jtWrVzNlyhS6d+8eePvNR7nly3e+POTLq8mHLbEbqdTQiiUlJXTt2pWuXbsGjExVVRWzZ89m7ty5zJs3j1mzZjF37twcldKGDRvYsGEDn332GS+//DIALVu2pG/fvvTq1YvevXvTr18/evfuTSQSCQykgrKpjFJG+1HuvPev3InHv/79GG//dzoH73cMs999lWS6Fr8myfpkmsOPOoIFiz5j8LHHUN6yJU1LIF1bSzLt06t7D3zfQ+uVJFNJqjesQ0T4+LPVHH7KMThK4aFwUSiVynjXFTe74wiKzlqKKKKIbwP1zRvh7/Z5+35zzBiXigjTp0/npZde4s0332TWrFl5n73PPvtw+umnM2jQIAYNGhSkaxh/ozKRLHuRSqUYOXIkPXr04JJLLuGVV15h9OjR7L///oGfF1vFYua4rZWtIRtSwteHy25+m2OGQTFuQq666ipmz57NSy+9RP/+/UkkEkSj0cDWxcgD5nc437K96iG7EHZhzEPMdqVEIsHAgQOZOXMm11xzDQMGDOD666/nnHPOAcjZXRQufPh3IUHBrvBwhYaP27+NYOC6LrFYjFQqxcMPP8xjjz3GsGHDuO6664I8Gt8ztlv+fEERw/krpFcM58WU3zboNUKSMWQ20FpTVlbGwIEDGThwIJCxj/nmm2+YM2cO77zzDh9++CFfffUVixcvznF8t27dOqZMmcKUKVMAaNKkCbvssgsDBgzgzDPPZPDgwZn8ssXpz/WX/4pWu+7CtTfexLkjLuLcERexYNHpvD7lfY7YtwklkXJaxKP85rbfs3DRSv72j8fouHsHDjvmNJxoU0qUj3YSOI6bbYw+bZuX46VXs6YG+vbaMyOgqYzvaGOEq7MhBHa4T+kiiiji/1vkm6TDE3ahidl8N4vyWCwW2GqKCLNmzeKtt97iiSeeYNGiRXntEnv37s3AgQMZMWIEvXv3pkmTJgCBqseM/WFDW7OrJpFI0L9/f2bMmMEf/vAHTjnlFC6++GJGjRoVCDipVCrXKVtIOKnPmLiQEGdfby+6w+kYocPs+vnHP/7Bvffey9FHH837779PeXl5ILDYeTEL9nye9M35HSK0hGEmYFsYqa2tpWnTpvz9739n8uTJjBo1iscee4ybb76ZAQMGAATOZEzhbQtik+F8lWiuKST5hvNm/owgYiTjZ555htGjRzNlyhROPfVUOnTowMsvv0zXrl1p164dJSUlebc3A8HWbluAaehOnXDejMQZFmJMeey0Pc8L9u2XlZXRqVMnOnXqxJAhQwBYsWIFn3/+OQsWLOC9997jnXfeYenSpUFQR8gwNtXV1XzxxRcsXryYk046KUjTzTaekSPPYMhZI9mtVz/67LUHiz97G4nUMOy046lZs5BPP/+UpcuW4VCKJzGciOLpx+7h7TdeRN9wOalan5UblgMKpZoQicf55KP3aN96LdGKVjSvaEoymULFYzhasg7rstumIQgMUEQRRRSxvbDH0/oQnnsM820LFVprvvzyS8aOHcvrr7/OzJkzSSQSddLq2LEjp512GoMHD2bAgAFUVFQE54ywYjM1sMVo1/aWrpQiHo+TSqWIxWKMGjWKIUOGcNlllzFhwgSuuOKKYPcubAkNYLMXYabFLqtd3q3NqbYAY/Lnum4gxL3yyivcfffdpNNp/vnPf3LwwQejtSaZTBKPx+vY39jboAthu3YPFUI+IcNUQE1NDeXl5SSTSe6++27GjBnDHnvswa9+9StOOOGEnMwbdsHQR2ayttMPG0GZPeB2Psx320Wyucb3fcaMGcODDz6I7/tcd911lJSUcOqppwb3RiIRKioq6NKlC926daNr16507NiRdu3a0aFDB9q3b0/btm1z6sAwG3beCnWQQo2oUF3Wd639Z/JuI51Os3TpUt577z3effddFi5cyMKFCwOr9UGDBvHmm29mdnrFYiCCiMZxXD6Z+x5/e/hBtNOESFkFV13xKzp3aE9N9XJuuvVemlR05De/vpg//v73LF+1mU69+hKv8eg7sD0lFU344I0vueyqCxHtM3XabJ584h/07bsHPQYO5vAee2ecyMUUEXyQWOA9FzJRobO1mLcOiyiiiCIaCnvMrW9RbKs5zFxksGjRIiZPnswLL7zAtGnT8jIqu+++O0ceeSSnnnoqxx13XMCoADnebc3zwnmzUUiNY0/0DzzwAI8++ijpdJoLL7yQESNGBHOTmf+AvCYZ+RyUGuYjzPgYIcrUjeM4OXUzfvx4/vznP7N27VpGjhzJ1VdfHZQ5vNspXNeFNBPBtTtaaMn3MLugprCmEtasWcPYsWN59NFHadu2LccffzxDhgyhS5cuOWkY1gZymYegIJYkbJgKQ5OFoyqLCB999BFjxoxh5syZKKW46KKLGDp0aGDlfcIJJzBx4kTi8Xi9246bNWsWeK7dbbfdaNWqFWeccQZHHHFE3ZgJeV5CY+m6fN/D9WCnberEnMu3Y2vx4sWsXr2aiRMn4nket9xySw7ToxSk0kli0Ti20ODjg7cJlxKIZOot7XlE60jKQsY/i4ukN6KdGK67xZq+CojVeMRiLjrioSSFL2W4aJSj0TqKoySz97kY6rmIIorYTtiTsz3W2XOVOReLxYIxc9myZUyePJmxY8fy4YcfsmbNmjpp77bbbhx00EGcc845DBgwgPbt2wfnPM8LxuNYLFbn2VB40s43V9hl0FoHftJeeuklHnzwQTZu3MjAgQO57LLL6Ny5c84uJrOwNvkx86ZtqmDXT5g0CC+IFy5cyDPPPMNbb71FdXU1F1xwAWeffXbgUwZyt3sX0pQUKmdw37fFtOSTpOwKERHS6XRAYRlveBMmTGDmzJl07dqVfv36ccABB3DYYYfRtGnT7crTmjVrmD59OrNmzWLmzJlUVVVxyCGH8JOf/IRBgwYF11VXV1NWVsb06dM5/vjjSafTOWouU4mu6+Y0QIMLL7yQq666ip49ewa2L6b8Da2v+qTsQt/z3ROGLeyZMoVXD7nXZW1IFIhXg1YRqlIRYloTcTzcmI9HFKWieOlqIpQQcR2S6RRuxEHrJL4qJSaCj0dKhKaRKFopJK3Qfpp0VEi5MZqLC75AzEckhafKiOCRyUaEwJ2/5NZHQ9RuRRRRxHcLY30mIlvM0bIwYTnIhFXNfMuON2qLp4XsdZn7TaR4+7dYUeTFPESRcepUj4uEfIyB+W7UFfaY+M033zB+/Hhef/11Jk6cyPr16+ukWV5ezkknncSxxx7L8ccfT8eOHYNzqVQKIMfA1DxzW1BorDcOXm0fXdOmTePJJ5/k5ZdfplWrVvTr148+ffpwxBFH0Ldv3216vsH69euZMWMGH3zwATNmzGDlypUcfPDBnHzyyQwePDgon/HYXp/a53tlWvIhrKYxn/Ye90gkErzMNWvWMHXqVN577z0+//xzqqqqaNOmDRUVFey66650796dNm3aEIlEKCkpIRrNuH5PpVLU1NSQSqVYvXo1ixYtYt26daxfv56NGzdSVlZG3759OfTQQ+nfvz/NmjUDCKRAA/PizznnHMaMGUM0Gg2usSs2EokEfmdOPfVUbrrpJvbbbz+AnM5g8H1NsHYHNdJ00HlE0Nl3Ya6x3UlvSQMk7aMjCk/5lKQ9fCdCDTGiShNzkyhx8LXgEEHhkKYG8SPE3CgpP4UbK8X1fMQRHA/EEapdH0WcUp0Jk4hKIsoh4cSIiZcJCaCiKDH1mbsiKqKIIn4E2A4beyEr1Kjwj+z50Mo9n9kAUEdQmTlzJmPGjGHatGl5fam0aNGCvn37MmzYMI477ji6desWnDML2rCpQj5Pr7B9c4M9rtvlsR21LV++nJkzZzJp0qRgh+nmzZuJxWJ06NCBdu3a0bFjRzp37kzr1q1p1aoVkUiEVCpFIpEglUqxdu3aYGNHbW0tmzZtChycHnPMMfTr1y/wzq61DlRBdvlNfranvN+J0AL5BRfbO6tZ+YtInUnzq6++4rPPPuPrr7/m66+/ZsGCBQEtZws+Rj/oOA5t27Zln332oXPnzuy+++707t27jrv7dDoNEDAo4W1X8+fP58ADD6SmpqZOGQxVdvjhh3P99ddz3HHHAeS12Lbv+T5gMyz2ZK+1BuVk1j3iZyM5+ziOIuJGEZVx4S9ak1KKuLi46VrSsQ246ZakI1EcIOY7pGKCSw0iMRwvCmwmEUtTostRfowUGnEUMZ0GV6N0ZidWKhZDaYh5Cifig0ojEiXhuMTRuAiZTW6ZsAKQ3wK+iCKK2HmQjT6WGdMDpiQjTKggzvsWTiWXjckuDEVlSBPs04ZpUQG7kiFXMrHSMoRNrjPKfAKLrU4x2Lx5M2+//TYvvPACU6dOZeHChXXK5bouhx56KMOGDePwww+nT58+wTnP8wL7EjM/hDdRmGfbto72uW2BKVs+o1aDMJu+YsUK3n//fb7++msqKytZt24dlZWVVFZWsnnz5mAHj+M4VFRUBARBz5496dq1Kx06dKBXr17suuuuOenaju5MuWwtxY4Ys78zpiWf3UY+HZbJTjKZJBaLMXv2bB555BEeeeSRnDTNCzJbkEUkZydQPtgvMVyJYaHKuBq+5ppruO+++wL7GJsZSqfTjBw5kr/+9a9UVFSQSCSCoJA2Cm3f+q4QrmshE89HRPBRKDxcSeBph0gkDriIr/F8hY4p4kAKkJRHzAdVmtWF+hFU2gUt+DEh6aSIESPieahIFWlVguhSXMfHVdk60YI41fiSRvtluCqGRw2xdClpV6MitUR1lJQqwfXSOI6glZvzjhpi3FxEEUV8f8iaz+NpIe1ALA2O8tGuwvVdEi5ESBERDRLDdxy08oh6Lmnlo5Um5scQV1COoLQCFFp5gIfSUTQO4gguQsp3cJ0kguBJCTEyyiRUXZtKe1FcW1vLO++8w6RJk3j66adZtmxZzjwBmfH74IMP5uijj+bMM8+ke/fugRBgjGnDY1J9KvvGqEIagkJzqZ2+PbdCrm1JPqRSKWpra7njjjsoLy/n8MMPzzGjMDBzr132fLYqO7K83ynTsjW7DBtmO9fTTz/NOeecww033MCtt96as7c7bGBrwzb6NRVZaLtXPhbIOOhZsWIFBx10EKtXr86xy7HRsWNH7r//foYOHQoQOASyAz3tDKzAlrIDWUeM2lc4rofWSZQqYcqrz/Li9LncfcftlPhpVi1fwMiLf8PF14/i5IEHE/d9Hr7nJmJd9+XCoWegEz5u1EVrj1pXE3HjRP1a0LUopwUpDfGYx6133UHPg45j2BGHkEpuRpUAXhxHR/HdNBGJgpPOMC1+DLSD42jEEXw/s9nZtXzjGHzfdVpEEUXUhUZwUGjRpJVP1ItkBAgluL4i4ULUqcaRCCJxFIJW4EjWNxMOER+0m3E3mYEPREDVovwMD6tdH0d8PB3LjDmuj6aEiI6glMbXGQHEZvATiQTz5s3jySef5M0332Tu3Ll1bBOj0Sg9e/Zk2LBhHHvssfTr1y9YjBrbF6hrjBoWWPKNT4UW79uL+siBOgtXyzwjPE8ZBmrJkiV06dIF3/dp1aoVn3/+OU2aNAnSCm/qyIf6yIptxXe2FWNrTEsYRhKcNm0aSinuvvvuIPCiuddEhLT3zps/pTIBCo2tjC2cmPOFDF6NLjKdTtOxY0euvPLKOo36xBNPDLavLV26lGHDhnHuuefy1Vdf5eyPt8sXzmP4WKG62F7UkXKDZygcBaLTaFE4ToSKcsXYF6ewYpMgbpqZr/ybd9+ayKuvTkUc2JTczFNPTKBZxa44rkOkPEKVq3FLYjSJRnEkhRuN40ajoKEk7qBULe9Ofp6Fy9eiHEW8tAJHlWfYsbhDPBIH7eC6cVJE8KIOkXgEx43huvHMYJO1WQq/h0J1Waiew3VSxPahsXXfkHrfWn8pYueHGWOU+MQkiXIE38ka0IoiotIggqdcPKVQWuOIgFI4CC5+NkhqRo1k26woiSGOoJTG1QolLhGVMdpXOkoEheelEIRoNEo0GiUWi/H+++9z++23c+SRR3LggQdy//33M2fOnJwxpVevXlx55ZW89tprfPjhh4waNYqDDz4YpRS1tbWBUa3jOHnZivAcs7U+0ZANFFtDeFwLay3y9UOjLYhGo0FZ7HoQEV5++eVATXTCCSdQUVERaBKMCURYAAn/zkcSbC++FedyhdAQOw8j+TmOQyqV4s0330Qk493v0ksvpWfPnnTp0iXYG25LinZ6Ycpqa3ky6RjjISNtep7Hz372M/71r38xf/78QC30xz/+kWQyyc9+9jM++ugjHMfhiSeeYNKkSdx5552cd955wbW2NB4W3rb20ncEwvWd1eoCCu1lOrvrZHTC+/TrT9dd9+TjuYvoMrCED6d+zLWXXcQrn8ynViuWL/2S6tIOnHDYQSxevIRLrr6OpqUucaW49/6/0KZNM+bNfZ9Rd9xPk2ickuad+fOdF7JLkyjNYk1JJZOcdsa5dO/bhz/d8ltmvfUq//vHe9mtog0dd+vJTXffwLLV8/jtVaOISmvSkmLUqP+ld+/eASVrVjmGdbH9C+Srw3zUZJGh2X4UGpDqW5wUWqiEj+d7nzsDW1lEwxC8JuWAMpN7xpYFP4XjCr5bQlpcIsGOoYwlDAJKabRyQWsyskwEBxeUIBJBOykUoPwMg4PanAlB4rlI0iNeGkdrzYIFC3j99dd56qmnWLhwIZs2baqT127dunH00UczfPhw9ttvP1q0aAHkBs6FzBbl+ljzhh7blmsacv+22MiYstjBDU2ffvHFF4PrTj755GB+DAssDZnDdmi/lZ0IdhAqEZH33ntPXNcVpZS4riuAHHHEEUHwJXNdOLBSviBLDX12Op0OAjl6nhcET/z73/8ugDiOIxUVFbJw4UIREamurpYbbrhBIpFIRt+S/Rs6dKh8+umnIiJ18mo/L9/fdwHtaxHti++L6FRa/EStJGs3iIjIyPP/V269/TZJJ+fLqYcdL8u+nC2Hn3iOzF60XB77v7vltHOvFUlvkAGHHCJ/fHyCiIjc9/tfyLBzr5ZUolYG7b+P3DfmZREROf30oTLugVFy3flD5OFHX5Kf/fQCOfn8S+Wb6pQs/XyBHNCtg7w1f56IiFww/FK58bb7pLLqY1HEZO6CxXLplVdKkyZN5Mwzz5R7771X5s2bV6cs4SCPheqz0Pcith3hOi3UD7fWJ+tr+9vap4v4/qB1Nsipr7NjjSdaJ0RkSzDYhNZSq0XSWov4vogv4osvvvZFeyIp7eWk6esaET8bcFe0pHxfJK1Fe1q89CbxvISkaqpFROTNN6fJ4MGDpaysNGdcNn+77rqr/PKXv5Rx48bJhg0bcp4TDl6rrcCxJghhocB+PzSY4LymbGaemj9/vrRu3VoA6dChgyxbtiyYm7/v8u6UnrqMumfixImBwa1R2UydOpUbb7wx8JNiDHFhi+UybBuNbCgzI0ma2Am+7zNy5Ej69++P1poOHTrQsmVLfN8nFotx2223MXXqVA455BAgo9p69tlnOfTQQ3nkkUeCrWepVCrIozHolXoYgm8LIoDKEK9aCbgRHDeCE3EQgVP7d2HzF3N5ecrH+O32p/0efenVshkfTBjDjM/msN8xh1K5aDYrP52D41Xy5L/H4NKWOZ/M5v1pk3AjJZxw8lGkRPj30/9g8Pnn4vpRrv2f83lt+ts8+NCfaF0WYeqMqVRXO6z4aB5PPvFv4k19Xp8+gdW6nL7dj6J3j04gSaqqqhg7dmwQt6pfv37cfvvt/Pe//w1snMwqwXh9NHVsjtkG20XsGNh9zVbRhmnmcJ80x+w/W11rb900aRXf3Q8M2fAbgiC+wtNptL+Wym/m88qrE1i5djMRDY728bSH5/to3wddSzqZJO35IJqPF3zEo/98jLlz5+J5PrWJJL7nkUp7pDydeYLn4esIogTxPSa++iqjRt3IK6+8Qk1NbZCljh07Mnz4cMaNG8cnn3zCww8/zNChQ2nWrFnOXBKLxYIx27b3CP/+MWwGCDP/ZuycNm0aa9euBeDggw+mffv2OWzM94nvPwchiEggNHzwwQcAOYOZ67rcd999jBs3jng8nqMmMvfbnw1FmIK2G6Lx23LLLbcA0K5dO5o1axZck0gkGDBgAJMnT+aWW24JdJ2VlZVcfPHFnHLKKcyZM4dYLBaojMxgbXv6/c4GZQWGinUBXwme4+JQglIJjhjUi+VLVzJ67FR6H7oviHDCoQcw+79v8vXXGzj84H1ZX11JrGkbSp0INZs20qxtK0bd/Gs26TS12iFGlIhoSl3AibCsWvPTKy7lyH1356ZrRwEKSfs0a9WZ2toaqqoqOXDAAfzuqqvw1wvKiVKdTNO5S0cqKpoFqqGNGzfywQcfcOONNwZRUa+77jpmzpxJbW1toKdVSgUDkRF8wxNqETsOYQHcGPmZicD+NO/B/LYFyrAQbws1RfxwoJRsCXuqhZRWuBGHfz90NycNPpl7H3gK11XoVDWOGyUSjWZGJN8jXlJKLO4SdeDnv7yKdZs30aRpU2LRJpSWxYlEo1pyQ7IAACAASURBVDSJRimPRdDaw4lEiMVKiTglvPv2dB6852/ssltrAJo3b85pp53Gv/71L6ZNm8bYsWMZOnQorVq1CgIemjnHVjUX2oFjC9fh7z9kmPyb7dovvfRScG7YsGE7Vxl3PHnTOIQpZENPLV26VDp06CBAoCICJBKJiFJKWrduHahojLrIUHg2pbet+TD32yojEZGDDjpIhgwZEjw3nU5n6MrsdxGRGTNmyIABA3LoyJKSErnuuutk+fLlIiKSTqcllUqJ53lSW1sbpFOfimNHUnJZNlbEF0n6GZpW0r74/gbxa76UC04dLDTvKW9/ukTSIrL+0w+le4sK2f+4MyUlnmyunC9HHnaQPP/yNBERee6pR+T0i66QdTUb5aD+feTpZ18REZHrLr9M7rz6fPnpmWfKwxNnSPXq+bJr647y1uy58vXni+TAvfvL/KVLRUTkxt/cIjfddZesrJwv3bsPkq+XrxGttaxatUqeeuop+cUvfiH77bdfXrrXdV3p3bu3/Pa3v5U33nhDqqurc8rreV6g9stXp/XVdyFVx48FDSlvvrqx+4mhlhOJhCSTSUmlUo3KQzqdDu4zfdimrs33huTHLksR3z7yvgMtorWI9nzRCZGUn5Cq9XPljKP3k+tu+qMMOOJsqfxmrXg6IQu+XiLPvfCaeL4WSS6Xl54fKzPnfyqj//R76dCpq4z+579l7ty58vLzL8vdd98rkya9IJPefFtmffKZaD8lSxbMkjEvTpYvF38lJx91uBx31Ely0SVXyc233CYrV67MyWsqlZJUKlVH/VNfe9qaSt+ugx8awn1YRGTJkiXSpEkTAaRVq1ayZMkSEZE6c9T3hZ1OaDEV89prr9URWJRS4jhOYD9y6KGHSlVVVSBU5Jv4tzdvRpBKJBKitZZXX31VRo0aJSIZexbzwo0QUlVVJSIiNTU1cvfddwd6QcdxBJBu3brJQw89FAzqtbW1UltbW0dX2JAOtD3wdTYNrSWtfUnplGhfS9qrEZEqeeCO2+TAI06XjWlPEn5aJL1ELjjzdLnkpkck7XuSlk3y2Zx35OSjB8tZ55wjI8/6qcyev0B8EZk96z0565RT5dxzz5WRv7hMKteslGsv/5X8dcxEERH54203yalDzxAtvkyZ9JIMHHSsnH3WWXL55aNkVeV6Wbx6phw75CxZtXK9SKiYGzZskOnTp8utt94qBx54YNC57L9oNCp9+vSRq6++Wt566y3ZuHFjzjs176vQgBWuc/vYjqj7nQ35ymi+11cHth48X51UVVXJkiVL5Msvv5RFixbJxx9/LHPmzJG5c+fKggUL5Msvv5QVK1ZIbW1t3jwZQdPuG4X6R33lKOLbR52xyteiJfOZqkmK1rUy/plH5IgDDhcRkSMHHC2P/meMaC3yyqsvyp49j5PqpIhOLJT++/aWO/5vnLzxwoPSuce+8vQrk+RP990nzctay1//+jf56KNZcvTRw+W2e58QEZHnH7lFdt/rRFm5ZrVc9vMz5NCBx8mHsz8O8pbKCsTJ/8fedcdXUaXt58zMvTcJIaFIAlJDR6pgqAoiKKLSRBRdFUGW3QULLsJnWVFsK7riig10FcUFBEU2FEVYUJCOCgRYIDSRTiCUkNw2c97vj7nn5NzJJGCDJNyH3yVz50495T3PedsJBiUZdk5uL/ZAfLGgvrfw35wwYYKUpffcc4+Ul2798GLgguVpcQMpajg1B4qu6xgzZgxeeeWVqBT6ws8EsP1GgsEgHnzwQUycOBGhUAiGI4+Huv1LwJXU9qrPRHZ2NlJSUqLUhmpWXXXVy7179+K5557DlClToq7dtWtXPPXUU+jatSuAgpUynd7p9Duo5RQlPjg0aLDAKAQOLyymw7DywXQvAANhi8PgfkDLBdNTEIIGyyKAn0K8pwLAGU6FA6jgiQM0IEQWvEwHTD/OmgRPXAI8ADQTsAzAb4aRaOggCsLkDB49Dpw4gmf9iC9fDiY4wIPQtHgQB8AJYFy2DWe25HXr1mHRokVYsmQJVq5cKcPMVTRr1gw9evRAt27dcN1110WtzSHy8QDFJz5yttWyAipCFV5UBBZQsESFGvIZCASwYcMG/PDDD9i7dy8OHDiAffv2ReVVEueqfTIcDiMuLg5169ZF9erV0ahRIzRv3hwtWrSIWtxNzTStmm+d9VLW6qc0wK3siezoRAJghfzweE/j7rsfRbUanfHcM4Pw+rgn8PHmrdiy4Cus+Go2xvz9Kyz5ejLi8neg5y1/xi0j/4YR11yGFj2fwvdr52HWRx9i5tSFmLfkEwDAbbfej6tvvBkP/7Efvp7+Gka+sxmZK6ZgysSxWL4ZmPLes8jz++GLmIrVsUDIabHt9vdSgeiPqhm9X79+WLBgATRNw5QpU3DvvffK8fWXRCj91rigIc9OOIWN+HDOsXDhQgCQzj9cSRYniIHH48Gbb76Jdu3a4Q9/+AOCwaAsWEE4fu3zCaIknlHXdVSrVi2qg6r30jQNPp9Prr2QlpaGDz74AHfeeSeeeuoprF27FgDw9ddfY9WqVRg8eDDGjBmDtLQ0AIjy0VE7mzqo/CbCOeKMa6fX1kDMC0aanStBiwNZBA4OQ2MA8wHMA4tb0AjQNQ2anmw7zmk6kn1x4BYBFodH12wiwAyUi/PA5JF6ZQDjQJxmwLLC0HUP9Ehn0TQN8eXL2e8MQGNxdmdiDNBhJ5pSSKE6gLZt2xZt27bFmDFjsHv3bmRkZGD+/PnYsmULTp8+DQDYsmULtmzZgtdffx1paWno1asX+vfvjzZt2kgCozp9OjNcqsRUfC8rws05aQAgfa3UMhD9TzgpAsCOHTvw+eefY/HixThz5gwSEhJQsWJFNGjQANdffz1atGiBatWqReXK8Hg8CIfD8hMMBnHw4EFkZmZi06ZN+M9//oOPPvoIfr8fycnJ6NWrF26++WY0aNBAPrMgQuL51QGIR5bgKEt1VBqgklKgIOSZWxwerxeHdm3FdyvXo0nbKnh4+J9w6kwOdm3Ows7De+DzxSHIc2FaFsgTB2gGrHAAp3IDCFvxOBP0wzLDiCtXJdIuz8LgQWihfNtxVDNghgmcLJwOEs7m5cOyOHxeLzTGwJgGxqLJlXNNIKdP1qUGIjunza5du7BmzRoAwGWXXYbu3bsDKFgg2LkcwMXARSMtagNRtw3DwNatW7F3717ZsJwLQHXr1g1r165FTk4OAGDQoEFo1qwZWrZsGZVW+dfCbQYnSJVKJJzaHLFfCGgAuP7669GlSxdMmjQJL774Io4ePYpgMIhJkyZhzpw5GDNmDIYPH464uDiEQiF5PyGA1TL6taRF4cqRbQYiHYwBOhHANJCOyLo/DIwZAAG6BggrDJEGpmt2EimyUzGQzTDsZ47cx8MAaJr8bgAg8oII0BjsFJjK+2iRd9JtKWMTK6VcnWWtevw3adIETZo0wWOPPYYffvgBy5cvx9y5c6WTrmma2LlzJyZMmIAJEyagY8eO6NatG+666y40aNAgKjW3GPxE/boRyLIAdbBRBbeu67LfCW0IAOTn52PmzJnIyMhAVlYWrrzySgwaNAhNmjRB8+bNo7QjRUHVdAF2VEf79u3l97y8PGRmZmLLli1YvHgx3nnnHbRo0QK33norBgwYIJ9FZJ5W6yWW0+XCwzng2/JKRJWFASMOUz5ciKvatse/Z/1T1k3nG7tgzqzP0b1jd4Tzj6G8YQA8DgeOZSPe6wF0H5imQ49k1gUTslZHKHAWCXG2NvtozllYZj406PB54+ExQtB0Bm4RGNMAioQdOOS4eHbxzJdie3HW3TfffIMTJ04AADp27Ihq1arJiXRxS+RcUPwio9JvBOFcJ+yMwm/kzTfflD4gAGjQoEHUtm1bAkA+n482btxIJ06coNmzZ9MDDzxAbdq0oZYtW0bFkhP9eru2m838fHxOVDup8IcJBALyuQ4ePEiDBw8mn88X5YvRtm1bWrBggby/OEfYE50Oib/4veSHy79EkWcX1+bcdqSTjnXi3SIOdqTuU44lt+Odx7o4s4nrul3zHGWt+j+oTtNEdtvatm0bvfTSS9S9e3eKjy+ctyExMZE6d+5M7777Lm3bti2qrCzLks6hznovC3C2WeHrI95blOXJkydp/Pjx1LhxY+ratStNnDiRDh06FHUt1bdLrYuiclyo/gVqH3E60O/bt4/Gjx9PXbp0ocaNG9Mbb7whHa3FueJaql9bDBcGqhwX5S/qMRTyU/axfdS0xVX08UczyDLDlHPGT5bF6ZMZb1HNunVoy+7D1LVLd3r2xefp7ZeeoIoVKtKk2fPo8I+bqHratZQTCtDbb75B1199W+SOIZr8xjvUodO19Pbbb9GArh3p8gadyCSLXnz2Kerdd6jtqxcOEydOllW8P1RZ9VU7H6jyk4johhtukHJx2rRpxDmX43IhmX2RcNFIixBeRFTIoW/o0KEEgMqVK0dvvPEGERENGzZMFubbb78dda28vDz65ptvaPfu3XKAudgFK+6tRkIIz3WBb775hq6++upCg2j//v1p06ZN8jhxntPbXdynqAZ1KXRCdcBVCYaIRlEHQMuy6Pvvv6fx48dTq1atKCEhwTXp1C233ELTp0+PGpTF4FhUxEFR9aHuE9sXE8W1G9FvRNmJ49566y1q1aoVXX/99bRkyZKo6wWDQRn95ky4pRJ3J+kTzyFIi3qOSmJUAkpENHfuXOrSpQu1adOGpkyZIvcLgiTuU1SUWAxF4+e04aK+i7oW7YKIKOjPpkXLllOeP0g8GKKzFqd8yyQz/xBlzJ1FJwImHf7pIP373/+mb77KoA2bttC2g4colH+Clq38nk6H82nf/h9pw7pMCpshCobOEBHRwi+/oKkffkA7Nm6gVT9k0plQLu3alUU/fP8/m6zE6j4KbvWl9r+srCyqUKECAaDU1FTas2dPlFwoKcn0LqqmRS0AMZjn5ORQxYoVqUmTJrRq1Sp53GuvvSYHlsGDBxPnnPLz86XAFBADy8UuWDFYipmnOqsUnuzi93feeYfq168fNXiWK1eOHnzwQRnWLY493xn/pSKs3QZdlSiK9hAIBAqF4a5YsYIeffRRatGihWsYdUpKCg0bNow+//xzOnnyZNQ9xYzS+Sxuz1fc7xcSzjbhHJwE4RPltHLlSurWrRvddNNNtHjxYnkdZ9ioOrtW60Cth6IyiDpJDlFBeLqqPQsGg1HlN3/+fPlsGzZsIKKi+/6l0hd+DYoro+LasFqP4XBYRqAI7Ni+jdauWkFERH5/kML5YQpxTvlmkCwzn4iIQi73DBGRxW25nm8VZMYNhgMUDIYpFM4vdI7fCspt0wwR5xbZl47Vu4Cz/kS9ERGNHz9eyr6BAwcSEUVFXKlpCC5J0uJke0Lwff3113TzzTfT8ePHicgOCeac06JFi6Q55dprr5UqKyEYxUxPvf7FhJtQdgprdeA7duwYPf3005SSkhI1cFapUoX++te/ylh5zgtywjhDd90GhotdDr83zjX7cx6jDrICp06dosWLF9Of//xnqlu3biHyomkaNWjQgEaNGkXfffedJI5E0flF1PboljeoJNSHuL9KNMRz5ecXDARPPPEENWrUKEqr6Rb6KPY7BzY34uDMtVLUtlM2qNdQtTaWZdFrr71G9evXp7///e/yOKGhcZqlLnbZl2Q4y/xcf0XZqpMygYMHD9Jnn31Gt912G1WpUoWGDr0/6l6mZZFlmWRafjLDfuImJytsUjAUpHAoTKGwSQHLItOyyAyaFOAWBcNhMoNhMrlJYZMTJz+Fg2cp7A9TOGRSOHyGQjxAASkTA8TJjJCW88/XVZah9jO1L4dCIcrLy6P09HQp8zIyMqImZyWJ+F+0kGf1tmqkwsGDB5Gamgqv1wvTNMGYvVrzkSNH0KpVKxw9ehTVqlXDypUrkZaW5rrQk7pdEp2ryOEwaFmWdHLatWsX3n77bUyaNAl+f0EK6pSUFAwZMgQPPvggLr/8cgCQi1cB0aGk5HBYLYll8FuiuHqmYhzvhKOp6mB26tQpfPXVV/jvf/+LjIwMZGdnF7pmz549cdNNN2HAgAFITU0FULB8gAjLFfdVHUQvdptU+5xwEBeZQIPBIOLi4nDgwAHcf//98Pl8eOONN1C7dm2EQqGoKDq3hUrV66vv51buPzek3NlfgIL2zhjD1q1bMXLkSCQkJGDKlCmoVKmSDJHmkSzal2pI68+B2j64Ekmn7iMlwtPr9cryPHPmDBYtWoQFCxZgyZIl2L9/vzyvRo3quOmmXkhKSsJ113dF187XwRfnBVEIjHTbqV/j9uKKxABwENNAxKGRBgs8EiTAwTUNnDRoLACNM3DuBdcBneXB4l5w5oUBggYTHDo0VvQCh5cauOJsL8pEjD3Lli2T6Tfq16+PzZs3Iy4uznU8devnFxS/Py9yh1OtrzpQOp32xMzqqquukkxwyZIlhZhgSWKExc0e3faLGYvA1q1b6Z577inkrHvZZZfR888/TwcOHJDHqgsGCuZcEtR4FwLFlfO5PmrGY1VbInDw4EF6//336YYbbnB14E1JSaEhQ4bQl19+GaWlCIVCUVmanRqwiwXnuztNlQsWLKBGjRrRk08+Kc8Rmk5Vc1FUeTrv4aZ9Odd2Udco6nri2S3LotGjR1OjRo1o/fr1RERR/k3imBjc4ZyFi++qJlvN+k1kO2d/9dVXNGzYMKpVq5ZMAqp+ypVLpE4drqEnnniS1q5bS0eOHCF/yE9hcQ+Lk8UtIm5KZ32KfLhF9oKL3LQXUeRhMjmnAOdk8RBxM0iWxSnMiTgPEOdBCnJOIYsTN0PErYh5yCrbMvB8odatGCuEOW/w4MGyzsaOHUtEVEhLLK5xsVFiSIvqwOUchAUx+etf/yoLdvz48VKYEpVegeS04zvJy+rVq+nWW2+Vq1yLT1paGr388svSjGZZliw7YYc8n4GbqGQ0xIsBZwcW5Z+fnx9lAiIiWrt2LT333HPUuHHjQit6A6D09HR6/vnnaefOnfIczrn0uSpusD/XIP1L6q6466sRPqKtffTRR1SjRg2aM2cOEZH0T1AJV0khw07ZoS4b8OGHH1KNGjVo9uzZRETFLpFxsd/jQuDnEniVZKtLjQjk5eXRsmXL6MEHH6TmzZu7+oLFxcVReno6vfrqq7R+/XeFnsnkQTLJIpMTcW4Rp1BBnXDLjmC0LOKWSRbnxHmYLMski+znC5AtL8kMkcktMjmPrCQdohCZFOREFA4TF74wZbyOzxeifolITm4557R//36qXr269KVcs2YNEVGU60FJQokhLc4IGyFc1cLNyMiQHeP6668nosL29NIGp4akKPKyYMECuvbaawsJiDp16tA//vEPOnHihDxWDVUtblBz+3spwU1wq34QzgGRyB4E586dS/fee28h/yPR6W+//XaaPn065eTkyPPUtY9+7jM6n/e3eF9BbomIJk6cSNWrV6fVq1cTEcn1g5zh9s7onIsF53uodUVEtGTJEkpLS6N3332XiKiQXT6GwlA1K6IcBSzLomXLltG4ceOoadOmrhoVANShQwcaO3YsbdiwIap9BIMhCgf9FAr5KWiFyeI2+Q1yTmHLIrIssjjZBMWyyBIkygraDrlWmEwrTCFuk5kAt8gME1GYU5gihMaiyPEhClicKKyEzpfSCe1vDaecE87t7777rqzDbt26FfKVLGn9psStPSQGcKKCAV0MwFlZWVSpUiUCQNWrV6cTJ05EzRJKI8RzFxXKrA504XCYPv/8c+rUqVMhgdGgQQMaP358VJiuc/E5N0c69RkuRbi1P+d3dXBUy2rPnj00efJk6tKlC5UvX961Th555BHKzMyU5zhV7Wp9FHd/lYSej0BRBZTTKVVVCz/zzDN0xRVX0O7du4mI5ARBJdPOZ1TL7WJBfXe1XQuCuWXLFqpfvz698sorRFR0X7jY7/F7oyhtiqhbMVlyTpJCoRBt3ryZxo0bR+3ataO4uLhC7dvj8VCTJk1ozJgx9O2330aZSOX1BWEUmhMS25wsIrIs2wzEidsKEc5lrihumbYWhdsmJCuSA8qM5F4hiyJmo0i75CaZZJLJiUgdE8p4HZ8v1HFEVRZ07dpV1unkyZOJiKSWtST2kYuuaRHbbr8LiMLz+/0yr4nX66X58+dLIV7SCvbXwO1dVFsy55xmz55NN954YyFBUq1aNRo1ahRt2bJFHq9qcdTBSwxQJbFhXggU1f6K+q4SCGf+kLVr19Lo0aMLha4L4d63b1+aNm2aXFCTqCDKxS0HjxpeKH776aefpAbkXBoPtV6FuVAMTmJwefXVV6lRo0bSP6q09COn9sn5V9TNnj17qF69evTOO+8QUcFq8EIgE5Ves/LPgfquav93W417y5YtNH78eOrWrZurGVSQ8VGjRtGiRYuiiAoRFWmaJooEHqvNiysbLqHJnArvi/615LfVkgRVtgiZs3HjRlnPVapUoYMHD0YRmpI4NpRITYvbPtG5HnjgAdl5nnnmGSIqmB2WRhT1/kV91BmRaZq0cOFC6tGjR1QGYQBUsWJFuueee2jFihVRQkvM8p2hoKW1/H4tzlfT4tynmkvU3BTHjx+nGTNmFJl9t2HDhjRu3DjavLlgFVpxLb/fXygsWB2E3333XRo/fjwRRWtEinovVROhJmwjIvr444+pTp06tG/fPiIqWOH1fHyh1HK7WCiqXoRAFuRwx44dVKdOHZo2bRoRkSzjSyUM2ilDRd9XkZWVRe+99x517txZJhdzfurXr0/33HMPLVmyJMrsKWSKIODnlGGkbkfaUYSzODUtUVoXdVtqZUi5njhX2Y5pWqLgRuwfeughWcdDhgyJmtyUlL7uxEUnLeeCU6U1ffp0aVPt06dPlMq3JAnV3xqqUHZLtrVo0SLq1atXIYddwzCoR48eNH/+/ChbtRBe50uWLgUBXxScBMCpDRFaK+esdeXKlTRq1CiqUaNGoUEgMTGR7rjjDsrIyIgiPW5aF1HXs2bNIp/PJ5d6OJ9BQiVXYlb85ZdfUkpKitTGOdN0l0aoBE44DIv2vnr1aqpWrRqtXbuWiEiWZ0klZE783D7qJHFqwkCBI0eO0OTJk6lPnz5UsWJFV6JSuXJlGjx4MH322WeUnZ0ddX4wGJQaK9XsWKgdRciGIBFiO5qoqIoWLjUsbiQnmtRQwXIi8jeVtIgC/K1rpHRCbROcc8rOzqbGjRtLbbCQK/n5+SXahFriSYta0EREP/30E5UrV44AO+X6kSNHiKjsq3mdMyYxs1EzvXLOadmyZXTbbbeRx+OJEkCMMUpPT6dJkyZFCSBh6jjfhlnSGvCFgNrRVZ8IlbSoA4RT7X78+HGaPHkyde3atZBGjDFGzZo1o5deeom2bt0adV8x+IqZ8RdffCHD3sUaSc5Zs/rMKnERs6e9e/fS5ZdfThkZGURkC6iS4mD7a+CsHyK7bYs1it5//32qV68e5eTkRM0ky2J7FjNpZ10eOHCAZs6cSQMGDKDk5GRXopKamkq33347TZ06VUYmCqimTJUMu/kJlcVyLe1Qxw/OOc2ZM0fW+xVXXCHJvNC2xEjLL4TbzFHN3Ld8+XI5Gy1p2Ud/S6izQKdDnWiIqpBat24d/eEPf5AET/00atSInn76aWkaICogL05BFDMh2VDL3zk4us3UxcDhXLxx5cqVNGLECEpNTXWd2Q4cOJAWL14cpX0R6emXLl0q10tq37495eTkSAHjbA/ifkTR+UratWtH48aNk/vV89T3LG1wlr2QFaJvEBGNGDGCevToQUQF4Zwq4SypZeCmOXFq0tSlFdTnz8nJoYyMDLr77rspLS3NlahUrFiRevToQR9++GFUyD4RRQ1gbs/i3FdSyzCGAmIv+sOtt94q28Czzz5LRIUnSiVxElPiSYvqjyGE7NixY2VhjxkzhoiihZB6XlnCuQSBGCjV2XdmZib93//9H9WpU6eQsEpOTqb77ruPFixYEHWO0BRcitEWbijunZ2/uX0XgkIlMPv376eJEydShw4dXAeS9u3b0zvvvEPHjh2T56xbt47KlSsnTYD33nsvERUksyvKH0UQoHHjxlF6ejoRketMvLRDLXt18FRTlTdv3lwuwioiuJzEpaS1cTfSIvqk23o/+fn5lJGRQSNGjKCaNWsWmUvllltuoddee41+/PHHqPPViYtbmTqf7Xz2xXDxoRL5//3vf5SUlCTHgc2bNxPnPCqZZEmdrJZ40uImfL/66ivp8Zyenh6lqizJwufXwG0m6fZRw8RVH5YjR47Q+++/T+3atSOv1xslwHRdp1atWtGECRNo165d8hzVf6YslunPQVHl79zndoxT86KajvLy8ujLL7+kfv36UeXKlQsNLnXr1qW//vWvtGfPHtqxYwclJycTY0zWodCaqCtaO7UNlmXRjh07qGrVqrRmzRpX/4PSPkN2lr26bVmWlB1Lly6l6tWr04EDB6ISV6okrqSROWd9qqRC4MyZM7R8+XIaNWoUNWnSpJAZUvhRdezYkV5++WX63//+F3UPt8Se52rr59oXQ8mCqmUZM2aMbBd33XUXcV7gO1fSLRYXbe2h8wU51sMgIuTl5aF9+/bYvn07EhMTsXTpUlx11VWwLAtEFLWWzKW25oQoL4qsDyK+ezweecyXX36J2bNnY/bs2Th16lTU+ZUqVULv3r1xxx13oHv37rIsTdMEALnW0S/FpVofAORaR4BdDpzzqHrJzMzEjBkzMGPGDOzbty/qOhUqVMANN9yABQsWIC8vD4wxeDwehMNhTJs2DXfeeSdCoRC8Xq9cYwSw683j8aBv376oVasWJk6cKI+jS2BNFh5Zo0i0X8MwMGTIEJimialTpyIUCsHj8RQqi6LWRxK/FSc2izv350C9DxHJtdhEm+GcY82aNViwYAH++9//Yt26da7XSE9PR9++fdG1a1e0b99eyLYuAwAAIABJREFU/mZF1ssS76+uKXWx18mK4deBHOsEqfuOHz+OVq1a4dChQwCAb775Bp07d5br+PHIel1q/ZeodnAhGdIvgVOL4Pf7iYho0KBBkilOmDCBiOxwxkvdB0O8szMng+qMKbBjxw565plnqGnTpq65RVq0aEGvv/46bd++Peoe6gw1huJR3CxZaLKc2pfjx4/Tm2++SW3btnVV7TPGyDAM8ng8xBijihUr0rp164goOqJImPzmzJlD9evXp9OnT0etH1PSNAq/NVS5IbQtpmnSkSNHqEGDBrRs2TIiIld/uHNd90I8u2gfzvv98MMP9Morr1DLli1dkxpqmkbp6ek0evRo2rRpU1QuFbW9qbIy5r9W9iH6/VtvvSXbSpcuXaIcq0UfiOVp+RVwqteFX8tnn30mC/6GG26QhVySbXEXAqp6VrVJq34pTgfRkydP0rRp0+iaa65xTShVpUoVGjhwIM2ePZtOnjwZdT9xLac60c1Z+FKsD6LiTRdiWwwaar0EAgGaO3cu3XLLLVSxYkXSdT0qhbqmadIM0KBBA+n/IoiJZVl05swZat26Nc2aNUte81KpDzfTqZrzpl27dlFLhZxLSKu/ORM1nu+54jnEPmfGYZXIqti9e7dM+iacsZ2TjHr16tFjjz1GS5cuLRTi7JywOJ/VKS8uhfZRlqG2U9X8efbsWbryyitlu/nwww+JqLBTfkk285UK0kJU2PP5wIEDMmwvOTlZZvWMzRYKw1kOqpBUZ3KWZdHy5ctp6NChrrlFAFCtWrVo5MiRNH/+fBlOKq6p2sSduRucTn2XCtw6v9u2c2ANhUJyhhwOh2nAgAGSqAhNizpgAaCbb75ZLhAohNCUKVOodevW8jpOf5ayDtVPRdVw5efnU6tWreTCivn5+edsp2odqaG/Tq1FceeqfU88j5rCQMWuXbvo3Xffpd69e7sSFQDUpEkT+stf/kKLFy8ulJ3WbcE7N7LiJh9iKN0Q7V74KonJyrx586Qjf8OGDen48eOFFnQVKKnEpcSTFlXoqKp10zSjQrb+9a9/SVJzKZMW5yDo9t05Y1RX/RXYt28fzZw5k2655RZXB1EA1KxZM3r44Ydp1apVlJubK891rmdyKdcH0flpWpyDmiDn2dnZsp37fD5pHhKCRxAY4Zj7yCOPEFFBhturr76aJk+eLGdblxppcSMLomzHjRtHvXr1knJDXQuquGupUYqqav18SYvoH8FgUEZrCBw4cICmTZtGvXr1omrVqrn2u9q1a9PQoUNp0aJFUTmXRB0XF0nmfB635xPfYyi9UNuauuxHv379ZDt68cUXiYjk5NOtrZTEdlDiSYuzs4sZPRHRP//5T1kBd9xxBxFRbJA8T6hlpOZnEbM+FTt37qQJEyZQ586dXYUoAGrbti0999xzcqVgAcuyisyhU9zH+YylpUP9UrgRlqysLOnXEhcXR16vl7xeL3k8HjIMg3Rdd40S+cc//kFEdoh006ZNZZIwMfMuqbbq3xpqO3Ezyfz0009Uv3592rZtmyQuROdeykAMAMeOHXM1DxX3cfovEdm5VGbMmEH33Xefa/4eYaIdPHgwffLJJ3T69Omo88Wq3KKvXSr1G0PRUNu+aKOZmZlyslOxYkX66aefZJssqZFzbiiV0UNEBF3XsXXrVnTu3BmnTp1CnTp1sGLFClSvXl16QQMlzOu5BMFZrtwRNWBZliw7Ea0QDAaxfft2TJ06FYsXL8bmzZsLXTcxMRHNmzfHH/7wB1xzzTVo2LAh4uLiiryXWj+keKvTJRa5IOpDlM3nn3+OIUOG4MyZM8WeZxgGdF2H1+uF1+tFuXLlYBgGVqxYgWeffRa6ruPNN9+E3++HYRhgjEVFgJXlMiZH5ARQ8L48EiFxzz33oGbNmnjxxRcRDodltFxREUCWZcEwDLz33ns4efIkxowZg1AoBF3XXWWO2pfUcj9x4gTWr1+P2bNnY/HixYWixQCgevXqSE9Px8CBA9GlSxdUrVpV/hYOh+W2rusyGo0xJp9RoCzXcQzuUOWJZVnwer0YMmQIpkyZAgAYNmwYJk2aJCMaS5NMKBWkxS10Swid9u3by1C/BQsWoGfPnpK0OAfFGArgLFex7fyukhg1PDcQCGDp0qWYN28eMjIycPjw4UL3iIuLQ4cOHdC+fXvceOONSE9PR3x8vPzdNE1JQAFA0zT5DCL0zvksTpSl+rUsC7quY8+ePXjxxRdBREhNTYXH40F8fDySkpLg8/kQHx8Pn88nCUp8fDzi4uIQHx8Pj8eDxMREBAIB9O3bF1OnTkWLFi3kgCzK+FIJaS1Kfog29u233+Lhhx/GunXrogZ69VjAbmfhcBherxcZGRm444478N577+Huu++WJEGQBtFuhYwSZMbv92P9+vX49NNPsWzZMlfSn5SUhK5du6JPnz7o2rUr6tSpI38ThF+QFHVy5sSlUr8xuEO0W9Hv9+zZg3bt2iEnJwderxdff/01OnTogGAwCI/HA13X5YSpxOP3U+L8dnCqOVUV71NPPSVVqA899BAR0SVls/81cNq0z+d41XwhcPz4cZo6dSr16dOnyAycHo+H0tLSaPjw4TR79mzas2dPoesLhzHVDquq3tWwzPN95tIC1Twkwvp/DaZNm0bdunWLurbYVv+WZbi9q9PHJRQKUZcuXWjWrFlRqnKnOUj4e82bN08ujbF+/XoiKogkCgQCUSt1E9kmuW+++YbGjh1LTZo0KbQmGABKSkqiG264gV5//XXat29f1POeT3Zat7q8lOo5hsIQbVfIanU15+7duxMRFfJ3KQ2mIaJSYh5yS+YkZqVr1qzB1VdfDc456tWrh8zMzKjZfGym4Q5nuZ4rYZbzGCJCOByGruty5gcA+/btw8aNGzF37lx8/fXXOHjwIEKhUKFr1alTB02bNkX37t1x8803o3r16khISJC/Cy2M0JaJ+zpV8GWlfsW7inZNSnJAMYOniIZAlInz3VVtwMCBA5Geno5HH30UpmnKOnJq0MAYGAAiAIzAiIFAYEzsszcY7P1gACOAxAGR7wADMQAg+3f7qpH/I9dRfmOgyPHi+pFyiFyQEQMx5VqRh2TMvp79DADIvlbhc8UpVKjdinITZTV8+HBomoY333wToVBImtEERAK2L774AgMGDEAgEIDH48HOnTtRvXp1mKYJTdOkpiYYDCIrKwszZszAkiVLsHnzZvj9/qi6SkpKQvPmzTFgwAB069YNzZo1k89HkURy4ppu/fJcfTemabm0IWQHYwwHDhxA69atkZOTAwBYtGgRunfvjnA47GqRKOltpsSTlqIgBHkgEED37t2xatUqaJqGTz/9FLfeemuUfRoo3Mlj+OVQm4wQsACiBDdgC++lS5diyZIlWL16NVatWuV6PV3X0bp1a3Tp0gUtW7ZEp06dkJaWFnWMk8SoZo6fi/MhaOpxF6K9iPsI0wJQYF5QjxHP5Xw+rmR+1XUd6enpGDduHG666SZJhIp8jwj5gCAs9tUFn4jwjcgGRUgD7O82sQEYUWR/hLyIcov8LoubRc4FK7i18lgU+Y8x8S1Ce0h5HkS+imvLq0XOLzgLbm/s9P2YNm0aPvnkE2RkZESVL1BAWL766isMHDgQZ86cARHh8ssvx6ZNm1C5cmV5bGZmJhYtWoT58+dj9erVrmS9S5cuuO6669CnTx+0bNlS7rcsC5xzaWZyquljMiuGolDcxN4wDDz11FN4/vnnAQBdu3bFwoULpQwV52ua9qtk6oVEYSNuKYA6K42Pj0evXr2wevVqcM7xn//8B/369ZMVoHb+kl4ZpQWiXJ1OXGKmLzqPYRjo2bMnevbsibNnz2Lv3r2YN28eFi5ciO3btyM7OxuA3bnWr1+P9evXAwCqVq2KmjVrokePHujevTvq1auHGjVqRD2DqoX4uf5L59sxL3QHVoWPKGPxnsWRF7EtSM6PP/4ITdPQtGnTYgkeKefavEDoQCK/EgNjFCEWgqDYxwi2YOe6Q4SMROiIZBYRbQqJZ7WvJfUvzDGZgH0NMAKR/GZrZiLPIUkKFRAcoIBsMclxWBQ5cpYxUOAj0qlTJ7z00ks4fvw4UlJSokiNx+PBl19+idtuuw35+flISEhAfn4+rrjiClSsWBF79uzBkiVLMGvWLHz//fc4efJk1P3i4uLQuHFj9OvXD7169UKTJk2kY7plWdJJV9M06Louv5eGwSOGkgG39iJkwdGjR/Hxxx/L/SNHjoTX60UgEJBaPCEfSgtKraZFVZXv3r0brVu3Rm5uLipWrIhNmzahZs2aUgC4qdFj+OVQm4wQ8KLjiIFWlLFYD0p14gWAbdu2YcWKFVi9ejWWLl3qGj0hUK1aNXTs2BGtWrVCly5d0Lp1a5QrVy7qGOElD6DQ2ilu9e/W7J0z3As9eDi1LUW126LMAmJmNWPGDPzrX//CkiVLio2k4xG1CQNgEsAZ4LU4CASNhWFqBvzkQTkQmAmQEQJjFrilAboPnDg0WGCkgZEOk3FoLAgNXlhkgGkmNDMMU/fBBIMXHDoLgVtx0DQOzhhMMGggGOQHkQ+c6SBGMIiBaxyMcxAMWIxBB0FDGATDJkQaANKhURCAAQs6wAiasA2xwpoWt7ZrWRbatWuHt956C+3bt5daD6/Xi6VLl6J///44depUlKN4y5Yt0ahRIyxcuNA1wqt58+bo3bs3unfvjmuvvTbqt3A4DBFNpD5Pce0sJrNiKAqq3BAywTRNeL1e/OMf/8Do0aMBANdccw2WLVt2TplW0ttaqSQtTvMEYwx9+vTBvHnzAABvvvkmhg8fjkAgAJ/PJ2dM6gAbw+8DtUM4Z7ViHxAdYnfq1Cls374d33zzDVavXo0dO3Zgx44drtePi4tD9erV0aZNG3Tq1AlNmzZFzZo1kZaWVogYAbZ6X5hMVI2QSnqduBgkV9WyFHW/osybYr9pmjAMA08++SRycnLwzjvvSNOQ23nCEKURIQQgRARPMAivDkAzka95ELA88IZMJPoMgIKAQTDDDJx7oPl0cJgwOINuGbBYGNDDIMuDMAeYlyEuzGHqHgShQdcseOEHC3sBzQAZDGHOwDQODz8DRgkIMy84I3iJASwMxjks5gFnDAYncMZB0AFmQSMTjHvBdROMDNvPhnEwrkHThPalcFkKcirIicfjwdChQ1G/fn089thjyMvLQ7ly5bB06VIMGDAAOTk55+X/1bRpU1x33XUYOHAgWrZsKYm16l9wLvlTVP+JIYai4PR5E9/PnDmD9PR07NmzB7quY+rUqbjzzjvlRKZURAq5oFSbh4ACZ7oBAwZI0jJz5kwMHz48avXSmAD47VCUDRUo2kHQWQfCR0XTNFSoUAHt27eXK9AePnwY//vf/7B27Vp89dVX2LZtG06ePAnTNBEIBLB7927s3r0bs2bNAmBrYtLS0lC3bl20bt0abdu2RaNGjVChQgUYhhHlZxMKhaI0Dyp5Ec8oCNaF7NSFHGSLOAZw17Sog+KPP/6ITp06yWPUWVjU9aSDCoNumSinG2Dx8aDQWRDT4IWOch4d8OgwLT+YHgdOFjxemxxS2MJZQwPXGXxhP3RNRxgJ8HgYDAAB4gjrHniIwDSOINPAyQeDmeDMACMGjzAFsXgQDOgM0JjtH6ORBtIYNDBoZGtdgoYBTgxxjMB4CIwzWJrP1hKRBQ0miHkiJq2izUOi7Yl22KhRI6xfvx6cc5QrVw7ffvutJCxq+L2ACEMvX748evfujd69e6Ndu3aoWLGiPEb19VK1KsXNE4vqPzHZFUNRcCO5wldr7969YIyhRYsW6Nu3byHNuPM6pWGcLJWkRV1CXQiDHj16oHbt2ti3bx9++OEHrF+/Hm3btpWCo9TEoJcCqI6gxf3utq1qWlQNgfiraRqqVauGatWqoVu3bnjiiSdw7NgxfPvtt1ixYgU2btyI77//Hrm5ufK6hw8fxuHDh7Fq1Sr8+9//hq7rSEpKQtOmTXHllVeiVatWqFevHho3bozU1NRCzyvUqcK85JwN/5bKyHM5ARdHWJy/OU0LItfCiRMnUL16dUlWhLms0DUBEAicA5rGcehAFhZ9tQEDBvSCL9GAzixkrlmJVZn7ceud/ZGUqMHDOFZ+uwDZuUno0y0dZAIh3UCcZiJIcWCc4+DeHfhh40Z07HM7yhsMFAxDIwsa88GEAd0gaBzgZEFDGJx5YMIHphF0sqARgYOBoIFHyAfjBGIGvCD4GUBkgTGA6154YCLMdHDYBMd2i1Gdis9d1hUrVkReXh40TcPKlStxxx13ICcnR/qZOOvCsixcfvnlWLp0KapVqyZ/CwaDUi45/ZDOdzAoqv/EEENRUGWWpmnIzs7Ga6+9JmXAqFGjkJCQIKPjgALfROd1SjpKJWlxqtJN00RKSgq6du2KDz/8EHl5ecjIyEB6enqhBE8xlByIDiU6jwg1DYfDUZEzKSkp6N+/P/r3749QKIRdu3Zhy5YtWLduHdavX499+/bhxIkTOHv2LADbt+PkyZNYsWIFVqxYAQCIj49H9erVkZqaimbNmuHaa6/FFVdcgSpVqiAxMRHly5d3fUZ1hu0WvfNzO/kvncm4OtI6zG+apiEYDOLUqVOSnBXX7m0lCwMnQGMWzOApjBg6Ale0bI0WVzWABycx8dnReP/L71CzTQd0blMPcSBMeOppnK3XDX16XgOv/xQ8ehJIS4DfNFHB8GLrmpV4+umXMOfmW5GoabBMDsMbgpcx+E0PgroBj0VgzAI8HIybCAHQwKATB+cWSNPAmA6T2797IGaHHB7GABiwiEMDB2M6dCuiImd6xInX3TTkhKjD8uXLg3OO7du3o3///jh69Cji4uJkWKgob9X5e/v27Rg0aBA++eQTJCUlyUgjUR9CexdDDL8n1MAUIoLX68V7772HvXv3QtM0tGjRAv369St2AlOaUCpJi6rW13UdoVAIRIT77rsPH374IQBg1qxZ+Nvf/ob4+PhCqt0YLi6cZiOnucYp6EVnFP4HV1xxBa644grcfvvtAIAzZ85g69at2LRpE7Zv344dO3Zgw4YNOHr0qLyG3+/Hrl27sGvXLqxcuRKTJ08GYBOiOnXqyE+tWrVQt25d1K1bF7Vq1YrK+eME51ymU1c98J0+JG4mqKJQnJ+Nmy+XanIgIgSDQeTn56NChQpR5xZlHiICNKaBE0fttAboc00rfLNmLdLb1MeB3TsROEPofV13fDTnM9zQ+v8QPLYPeacDuOm2XmAMiEsoD4QBeAwkGXaZ+AwD1apUAWkGAA1GuTiAbFpSztARgAXdqwPQQZYfTPciHjr8RAARNMMAYMDiBJ+uAfAC4ABZ8DAdYbJNR7qeACAICz67zIXviAYwLqOkiyxfta1VrlwZe/fuxcCBA2W7CQQCrnUkJkGGYWDx4sXo168f5syZg0qVKsmU/mqbiBGXGH5POIMOjhw5grffflv2+5EjR0oti3CZKM2+naWStDgjALxeLwCgTZs2aNGiBTIzM7Fr1y4sXrwYvXr1KpTvIoaLh+LspkXtd6rZVXU9YwxJSUno0KEDOnToAMD2czp58iT279+PDRs2YOXKlcjKysKBAwdw8ODBqPOPHTuGY8eOyaUgANtfoXz58khKSkJqairq16+P5s2bo0GDBqhRowYqV66MypUro0KFCrLtuUEQCdVPRpjCRDkIM1lRdma38hHHqOs4iTaen58PAFHRVUWWdyQoWCNCmHvhNRJwVctq+O83yzFmxB/ww6Zt8CVejr53Xo3HZ34HMIadO3fhaG4ebrm6Lfz+PDzywANY8d0GGNyPoQ/9Hx744xBojCEvHIJJBPhz8dhTL+DLJV/AR2Fc12cg/jbubzhy4BBGPfJX7PhpByg/F/c+8DiG/+V+rPt2GcY/9wKSmrbEtvXfIzkpAQ8++ABmTJ2GzMxN6HJjb7z08gvQNY43X/07Jr8/FZr3MlzXuw9eHvcYDHAQabD1Nu4+V25/k5KSEB8fjylTpiA/Px87duzAnj17ZLvJyclBTk4OTpw4IUOVBZYvX46ePXtiwYIFuOyyy6LCSWN+KTFcKIix8I033sDBgwcBAK1atcLAgQPLlG9nqSQtAuoAGA6HkZiYiL59+yIzMxOArW3p3bt3jLSUIJzL2fR8/EecM1dBZIQ2wePxICUlBSkpKWjTpg2GDh0KwM7Wu2vXLmRlZWHz5s347rvvsGPHDvj9fumQCdikRwxSP/74I9auXRt1v9TUVFx++eWoVasWUlNTUbVqVaSmpuKyyy5DrVq1cPnllyM5OVmuBSR8HIorEzEQqkLFjciojrXqmjfCzHb27FlomiazCxelvQKEAUXkUrEFWoPWTTH1jR/AGMO6H1aiUsP26NajC/iERfjp2Elk7dsNT9U6qFvei4eH/hkrN+3CB1Om4OzR7Rj6pyeQ1qg9KsZ5EABHgs+DD597HJ8tXoUpkyfDGziMe4Y9jBZXt8WCSVORfeY0Jr33AY7u3YGhfxyOlLT6aFHJh8VLl+Gudt0x+b338MTDwzDo3vsxZdpMDDM47ritH/445Hbs3LkXY196C9M/mYHUSpUweMgf8UK5ODzz+ChYpglNL8jzosKpZRFlW7lyZcTFxaFWrVqoVKkSOnbsGHXe6dOncfjwYRw6dAjHjx/HwYMHsXfvXhw6dAhHjx7Fpk2b0LdvX8yYMQM1atSI8o9y03LFEMNvBdGGDcPA/v37MWnSJNnvhbUhGAxGEenSjFJLWlSho85Y+/Xrh1dffRV5eXlYuHAhsrKyUL9+/ShHXOcgUBYqsrTgXE68PxeqSUYM6CqBUQf92rVro3bt2ujWrRsAO5Lo9OnT+Omnn7Bnzx5s374du3fvxqFDh5CdnY1Dhw7h2LFjhe559OhRHD16FBs2bIjar+u6jFby+XyoXLmydCquWrWq/FuxYkX5qVChAipVqhS1hMH5QNd11xDvUCgkiZtAUW2cRZa/YWAwdAJYEB0794D39R+wc/cPWLdlI+645y5UrHoVkrUwMpfPx5rMLbimZ3+wwGHM/WIJHnhqPBqkpYHSquOma9rgn29OwbN/vBpxho6z+QF8Pu+/eGbcs7imo60Fy9p1I7ZlrsLfth7Ev/8zE1ddUQ1odSUeWLsC//7gIzz30O1oUq8WRjz0AFpUrYBuHdshOaUO+vS8DgDQJK0Ozu5Zj08/WYyOve9Fh44dwP0BjLz/djzz9hT8ceRDuDzOkIntnLTFGZkjvguflsOHDyM5OblQkrfk5GQkJyejcePGrmVumiYOHDgAn88nzYCxFAsx/NZwm/QJYqzrOiZOnCjT9Xft2hW9e/cuNldTaUSpJC1qxanblmWhVatWuO666zBv3jycOHECH3/8MZ577jmYpukqvGOEpXTDqZkACvxknM6QwsFXDCQejwdVqlRBlSpV0KZNm6jr5uTk4Pjx4zh27BiOHj2K7du3S3PB3r174ff7kZ+fH+X3ILQlwWAQeXl5yMnJwc6dO12f2+v1Ijk5GYmJiZK8xMXFydWbExISUL58eSQkJMiVndV9YqXnxMRExMfHIz4+XuaqEZoXUT7OhH8CkVKTDrkUtnBZvVaoelkQCz+ZhmA4GWltGoNIR79ODZG5dAHW7D6JR8b+GWbeMXAPw7//9R7mTp8ETfdDt3TUuqoN8vMsOw8L59D8fsQnlceZcBiesAXGzuDUkb2IT6yAhMopyA/lw8O8qFOtHJZsPgZNJ1hkIDcQhGVxGDwEixhOWRYSwiF4mIZTp/MQCgaxY9tq3HxLL/iCJnTdRO169ZGXnwfEJ9shzy6OuE4/ILXuGGPwer1Rvigiz42agVlte4Koer1eNGzYEJZlySi4GGL4reE26RN9e/fu3fjggw+kfHvyySfh8XgQCATg9Xp/0yjIi4lSSVrUGbQaPSH2jRgxAvPnzwcRYcqUKXj44YdRuXJlyThVAR7TtJRuuLUFAXXgIKKofC1inzoQie+GYaBSpUqoVKkSGjZsWOie4XAY+/fvx65du7Bv3z7s3bsXJ06cwIkTJ5CdnY0zZ84gOzsbR48elT4sToRCIWRnZyM7Oxt79+791WXg8/mwf/9+xMXFgYikg7B4r6J8WsQWh4Ywj4ePGHpcXRvvT52H2h16oUXtqmAMuLFnB/zloSdBNdLRtEEa9EoM5ct78eehA/Dnv/wZADBj5ixUrHAZjMApcDBUjvchtWolLFu9Fv27dwU8HvTr2R+Nr0pHvJWDTUvmo9VdfQAAMxdsRMOmbaHDgsU06IxB0xg4heHVAK+mwTC8sAhIqFoHdevWRnxiJcyYbqcoX7N2Pb7bug1Vk5JlmRRXXs5j3MxqYvaqmtgEgRHHiIFANQcJxEzSMfzWcDrei5B8j8eDF198UWpZbrnlFnTr1g3hcBg+n6+Q8+25/OdKMkotaXFWgrpOy7XXXov27dtj9erVOHjwIGbOnIkRI0YgFArB5/MBKAgRLa0VF4ON8yWdRUXkAO4+MqItqeYEVUMjIoyc8Pv9UguTn5+P3NxcaWoSZqUDBw7gyJEjOHv2LEKhEEKhEMLhsNwOhUIIBAJFEh4nxPN6vV659pMgLcU5+Io9GoAgASEwxDGg8zUt8eC4N9BlSGtcpgEU5qjXogU2/3gE7VtVRVpKEkDAS8+OxchHHsP3361FiDzImJOBqVOnwrA4jhw+jEQiDH/mKfT+4yM4snMH+OE92HP4DCbOHo/GKW9h3F//hJXL5uPIvl34fj/Dax88iCObF+Hw8RxoEc1Hnj+IkyeOwwdAYwxHT55B9pkAhg8fjltuuhm9B96KWpWrY/qnszF42HDEM4BbHIxprmn8RXk5zUP5+fkgIiQmJka1C2f9O9tLbLITw4WEqjkFILO+r1ixAtOnT5cTmLFjx0ZpBd3MlKW17ZZK0lKUM6fwZ/D5fBg8eDBWr14NAHj//fcxaNAgJCQkIBzFk/sRAAAgAElEQVQOy8RPYjYVU+WWXpzLsfeXojhfBGdUkDAtGIYhTTWVKlU6r/uEQiHk5eUhPz8feXl5OHv2rPyu7hPbubm5OHv2LPx+P06dOoXc3FycPn0amqbB6/VKohMMBs/9jiBJXIzIfxQOonbzqzDxrXdwzS03IhQOwsM1VKpaGx9M/RiJNeoDRAiFA+h1612ompKKRV+vhsk8+Oq/S9CuTTPs3boZzz//AkzLRNvreuLLjDTM/8/nSGjZEG/cdR+qJfgw6MGHkdasJZYvX4XG9Rri5XvvQ72qVeDLb4WX/jEeKZXKIcQ5eva7C62vywcxBk4cz7zwApo2a4b6DZthwZdfYnrGf6D5OaZ8+CH63HQDTLP4EGOVqKjbubm50DQNiYmJsj5FOxDH/lqU1kEihpIDdZKmmjDHjh0rTdUDBw7EVVddhXA47BrF5rxeaUOpXHvIDaoAAuyZU/PmzfHjjz8CAObMmYO+fftK3xbVWS5GWmL4uRCCwDmbcZqb1P1iW/wm1Lu/xowQDofl8gbJyckwTROdO3fGq6++ik6dOsn1iNy0URywV2QGELYsEDR4eRhM9wN6BeQD8JhBGNABfhbMa+d+ybc4PFYI3MyDL6Fy9POYBI9BADRYxHGWgkjWCnLdWCBYpwMIxzGU88XJ/QEAzOKRvCxAPgCDCN7IM/stC15O0D32PCsUyofXG+28nB8Mw6cb0A1EEua5C2R17SFhDpw5cyYmT56MpUuXSmEPuPtMxRDDhUBxZENdiPajjz7CfffdB03T4PP5sHHjRtSvX1/6Y5W19lumRmvVvyUxMRH333+//O3111+Pym/hdOKNIYafC2cosWhPIuskY0ySEjW1u9gWGYCFA68gIGJbmIyCwSCCwaCMUhHOnsKW7fP5UKFCBWkiqlmzJrZv3y6fqaj2rYowQ9OhcQ7SDXDLi0AwCC1sQWcGLMDOeJvvhz9kQqfIejqGD+FALgKBfPhDYeT6g+BkwgwFEA6eBecWNO5DOBREMBjA2VAY3OLwxOvQdQ+CZhjBs34E/EFQyA+dADNgIZAfhBYOgIdDMEMW/PlBGESwyCZpYdOEbnhhmkHkB3IR8OchFArDZ+jQGCJOuHDJ0lI4m7Yon/379yMlJaUQGS1rAj+G0gOnG4TzOxHh+PHjeOmll2Sbffjhh9GwYcOoyXlZQ5kiLUD0bPfee+9FSkoKAGDVqlVYvny563ogMdISwy+Fm1ABChbJcxv01ONVcmMYhjxHhDSLj9frhcfjkb+LCCkR3g0UzL5SU1Oxa9euQgLOCaZsMAboOgNnABnxMAwGn24vOKjpGjgz4PV64DMYPDoDmA7dEwfD8MHr9UXCvD0A06AZXhg+LzTGEM8YdIPg8WhIMOwFEeGx4NMYvMyAt5wXHp8XXs2ArjFoXh0enwdezQOv4YVmaIiL98HQdOiGDs0w7Hdn9vvH++Lgi4uDx9DAKGLuijCW81l3SDjlZ2dny/WanA6L6vExxHCh4CTWahi+ZVkykdz27dtBRKhbty5GjhwJzrmcEJXFdlvmSAtQ4NtSq1Yt3HrrrQBs34F//etfUiCpjrhlkY3G8PvCjXioZMJ5jNhf1DkqwRDHqpobcT0AUdcSZEf9vUaNGti2bZts50VHD9mLEQIMxAiaHknpzxg0TQdjBE1nduiwpoEZGrTIYoS6pgGkAboBxjToGqAzBsPQAKYDsImFzhg0xsA0+6/GtAItCAPACIwBGvPYXzULmsagQYfGGEgjEHEwYtDsfHHQmGafr2lg0O0oKPsR7RT+ZJOwc4lroV7nnCMrKwvNmjWTA4QoX6fDfwwxXCiovnOCsHDOpcl39+7deOutt2TbfOKJJ5CamhqVrbksjnFlkrSoAmfYsGEy0dann36Kbdu2ybDF2JpEMfxSuDl0qp+i9hf1cTveGeHi3Of8CC1MkyZNcOTIEQQCAbnWiBsYACIGRmSviiy2IyYWAmBFfgNF9pG9po99AQ3ENIAxmyjAPt/+roHAYWn2is2MM3BG4EQg0mzHWkZgxMHIKrg4LIBM20WYCBqZYIyDIuskiWck0sC5DuKR5yDAfmJ70SFixa/wrBLA3NxcbN26FVdeeaX8LWY+juFiQ3W2dbZJxhiefvppnDhxAkSEa665BnfeeadcQkKgLLbhMklaVCHfqlUr9Olj54IIBoN4/fXXo/wO1HPU82KIoTg4TQi/x8ft2sXtA+y227VrVwSDQWzdujVKYBUiSACI2WSFM4ATiyT2twAwcDJgQgg+K6Id0cAYBwdgMQKHEKQAY1aE4NgEw14agAFcA4iBRzQiLLJkAIHZxzAGaPaz2FoS215FsMkPiEWuTwCLnGezJDAwcKIIgdJB0EDMZlbn04uJCHv27EFiYiLq169fbNnGEMOFBmNMRgQKjathGPjiiy8wY8YMaYZ+/vnnkZCQIE3G4tyyiDJJWgA7sZOo7KFDh0ob3/Tp05GZmSmT8gg4HZ1ixCWG0gYh4JKSkpCcnIwtW7ZI/y7xu7ONs4jzB4FsfxYiMApHtBkMlq2OgQYTxGytCSKEh1PkeCizQETMTbDNSBoAxmxiopG9DzBsUxEBRBoYabA0AjECccPWomgU0a5oEWJDsO/OI8+GiDaGgQM2SYkQI4pofc7Vg0X//+KLL9CsWTMkJiaed26cGGL4vaFqVcSK8owxnDhxAqNHj5bWgiFDhqBz585yFWdN06LWUitrY1mZIS3qrEjY8YQZqEePHujevTuICLm5uXj55ZcLaVrUxerKmg0whksDqqno+uuvx+LFi6P6gxByUcQFwrRT4AuiIaJl0Ag6CaJj+6JAmH9YhASBKWv82ORE/sZg+8Aw29nEJjD2f1pEe0LCTGOrfRChOZH7kLw+YBMeBkgNi+2OEzFfMZswMRZ5r3OYh4ACM/LKlSuj/FlifT+GkgA3nypd1/HKK69IN4fU1FQ8+eSThZKlCvIirlOWUGZIi5NwCLWZqESxDgNjDLNmzcL69euh67rMIAoUhEKL68UQQ2kEYww33XQT1qxZg9zcXElYCrVtIkkCNDDoEbMMY16A2d+9AKAxMGZAh2Y71Ub+GbCdb+1rMDAWcTSOPANp9jYxm0yQICkRrQqLIjiaJEos4mzLmAZo6u86GHSb9DCyn1djMOQ1WIRw2S9VnKgWKfqzsrKwZ88eDBw4EEAs9X4MJQdqfxXpDNatW4d//vOf0gz06KOPonbt2tI591zm5rKAMkNanGpvNQrAsix06tQJ/fr1A5Gd4vzvf/+7jGUHCkIfY4ihtEJEE5mmiRYtWqBevXr45JNPil3wL0pzEdGCsIh2pcC/hKRWhTGxLjRFtDMkNTAs4kxL4tqRbSZ8bCmSzI4iPivC6VfRkoAJzU3kehFfFiKSx8nnEX4tERcX+7zi87So7w4AixYtQu3atVGrVq2YliWGEgUxlgktSl5eHkaNGoVgMAjOOZo3b44RI0ZEJZAUKMrZvyygzJAWINpE5MYwH3/8cbmK69y5c/Htt9/C4/FE+bbEEENpgzPKQGgRunbtirlz5xbSQgoBZpuHYEcGQTjPRnxLKKIZiZAM23GWIoTAdoaVjrz2xWwtiqJpEduQfRERhgFJiOxoIJsCUSRKSX63GY19DCs4zt4HebzkQSTCuCOExeGArApuIRs++eQT3HPPPSCimD9LDBcNbhGEQEE7NQwDkyZNwooVK6Tp55VXXkF8fHzUOcUFB5QVlCnS4gZV29KqVSvcfffdcr2Y559/Xtr5hf0vZh6KobTBqWE0DAOWZeH+++9HVlYWNm7cWHSiu8h/UZqWiE9LAfko8F9RTS/qB8rf84LwU2Hi/gXb8rt4NuUG6j55rrpfubzTJ0DVquq6jq+//hp5eXno3bu3zIMRc8KP4WKgqLYq9u3atQsvvPACGGMIh8MYNmwYevToERXifKm03TJPWlRBRUQYM2YMkpOTwRjD0qVL8cUXX8Dr9Uap4dTzYoihtECdaZmmiSpVqqB///549dVXL8n1tVQypy7dIb6/9tpruPPOO5GUlATTNC/JMoqhZMA58VDNuYwxjBkzBidPngQANGrUCE8//bRcW+hSwyXTS4XTbaNGjTBo0CDJSF988UWEw+GoFMkxxFCaIJ1QI5lyNU2DYRjgnOP+++/HmjVrkJWVFeXbcqmQctXJXix5oOs6NmzYgJ07d2Lo0KFyX1nMHhpD6QERyShW0V4Nw8Bnn32GOXPmwOfzAQAmTJiAqlWrgohkcInQpJY1U5AbLhnSIirWsiyMHDkSlSpVAmMMq1evxuzZs+Hz+WI27RhKJdyc7sQK5vXq1cONN96IJ554opDWsazDLWRUfH/iiSdw++23o1KlSlEO+ZdCucRQcqGGLeu6jmPHjmH06NHQNA3BYBB/+ctfcNNNN8E0TRkdW5adbt1wSZEWwBbYaWlp+NOf/iSF+wsvvIDTp08X8sAGYplyYyj5KMrpThCXxx9/HBs3bsSCBQvkWjuqKhoo/b5cbo6MgqAIkhYMBuHxeDBjxgzs27cPjz76qBT+bo7KMcTwe8HZXlWIfqtpGh555BH89NNPAIB69erhb3/7m7QKCJRlp1s3XDKkRUQIiSiBBx98EDVr1gRjDFu3bsWECROi8rqIY1XnvLLeGGIoW2DMXji0Ro0aGD16NJ588knk5+cDQFSWXGfUQWlEUY6M4jfOOeLj45Gbm4vHH38cL7zwAsqXL+96nRhi+L3hjPIREOOT1+vFBx98gOnTp8Pn84FzjvHjx6Pa/7N35nE21f0Df59z7jKLIY09KkQJKUqaSZQlUkkUilKhEsmj7elpe9rXX1r04AlpsaQSIhQVIkTSIlIUiuyDmXvP9v39ce/3zLl37ogeywzf9+t15965Z7nb53y/n+9nrVrVc2ceq8q1Jo7yT568gtQ0DdM0CYfD/Pe//6Vv377ouk5mZiYLFiygQYMGnoLjFwyluChKE/7L2rZtgsEgLVu2pGnTpjzzzDNYluVZFv2xHKVVxpOtJPJerlodxyEYDHLdddexd+9e3nvvPS/4Ntl1BEp5URw6Ui2M5WMpp99//z0tW7Zk+/btuK7LDTfcwKhRozyZPZbjr456pSUV/sjs9u3bM3v2bAAuueQSPvjgA28ffyqZGswUpQn/ZS0VlF9//ZULLriA4cOHc8kll2Capqe4+C2KpTGLZl91LmzbJhwOM27cOO655x6WLl1Kdna2t11d04rDjXT/yHgqaQ2E2PXarl075s6di6ZpVK9encWLF1OxYsWU1sRjTX5L3+h0gKQKUpI/smEYPP3006SlpaFpmtc5MxgMJgzex5pQKI4eZN0W27apWbMmQ4cOpW/fvvzxxx+enJdmC0syyZlUlmURDodZtWoVd9xxB2+88QYVK1ZMiAtIVnSOwXWc4jDiv+ZkuxnAyxZ64oknmDt3LmlpaQgheO6556hSpUqCzB4N1+rf5Zi0tMiPLM3md911F8899xyaplGzZk0WLFjgrcSABBOyn6NpsFccXaQyQUt5HzRoEPPnz2fRokVeimUwGEx5npIq48UFzfprW8hJIT8/n2bNmnHddddx9913exYmNQEojgT+5oZSfqVbaM6cOXTo0MELHO/VqxcjR470AsahqHXwWJPfY1ppsSwLwzDYuXMnubm5rFq1CoD+/fvz8ssvY1mWt2KDogN4SRzMFQpIVFr8/YZkkF+nTp0wDMOL7ZDWiWT3UEmU8VTWoWQlTbqAg8EgHTp0ICsri/Hjx2NZFkCR61qhOFz4FRVZhkPTNLZv387555/P6tWrAWjQoAHz588nKysrwY0kraeSY01+j3r30L6QBeeys7N5/PHHvef+85//sGDBAi89NNm1lPxYoSjJSEuhHOyEEEycOJFNmzZx1113ec8ly3dJlfHk9OTkeBbbtj2FpW/fvkSjUd5++21M0/SUs2NtoFeUPGR2H8TmnXvuuYfVq1cTCAS8RJFy5cp5biO537FYBdfPMa20aJrmNUzs3LkzHTt2xHEcr+W3TA/1D+KyquaxUMRHUXpJTqmUvnOZTaNpGu+99x6zZs3ioYce8hQXKd/SbVQSZdyvpLiui2VZXg8x+dmkG2zp0qVMmjTJ+/yBQMD7HuDYW6UqSg7yWgwEAowZM4bRo0cTDAaxbZshQ4bQrFkzr7eQpmkqMSTOMe0ekgOcbO29evVqzj//fLZv3+4FQA0ePJiCggLC4bAX4e04DqFQKKFXkUJRkviry1qu3n799Vc6depE8+bNefHFF3Fd1yvC5l/RlaTBMTkzCGITgGmaXhf3Pn36sGzZMubNm0dGRoZ3raeiJH02xdGPtBJGo1HC4TArV66kRYsW7NixA9u2ufrqq5kwYQKmaSYE6hbHsSa/x6TSIpUNqYBIv2IwGOSZZ57hnnvuwTAM0tLS+Pzzz2nSpElCif9jPeVMUTpJ5UYJh8Ns27aNzp07U61aNcaOHQvE4r00TSuiuBQ3XBysgN3keJV9DU/+dgSu63oLia5du7Jz507ef/99ypQp4wUgq0WG4kiQSpbl4z179tCuXTsWLlyIpmnUqVOHefPmcdxxx3my6ndnqrlGuYe8QVmu1G699VaaN2+O4zjk5+dz6623snfv3oT8eIWiNCMH0GAwSH5+PtnZ2cyaNYuCggIuuOACfvvtt4R4Lv8xyW4nf3DgoVBYkhcHyVkT0p0VCoX44YcfOPfcc0lLS2PGjBmewnIsVw9VHFmKk2UZy9K/f38WLlxIIBAgPT2dUaNGUalSpSKl+hWFHJNKS3LlTL9AZWVl8eqrr1KuXDkMw2DJkiU8+OCDXuyLQnE0IFdx4XDYy5KbNGkSF154Ia1ateLDDz/0XC1SMfAPvsUFqP8vpFJYUgUIS6R1NBQKMX78eNq3b0/37t158803EzKI1CpVcaRIJctSbl944QXefPNNL47liSeeIDc316vYLi0sSm4TOSbdQ1A0ldNfyyIQCDB8+HBuueUWQqEQQggmT55M+/btiUajnp9RDYaK0kayUiBdJjLwNhAIMGPGDAYOHMill17KY489Rnp6OtFoNKW7yH+f/PjvvDf/4+TBXqZkS2UkFAqxfft27r33XubPn89//vMfWrRo4a1SS3rqtuLoJ7n0gOu6BINBZs2axeWXX+4Fknfp0oWJEyd6spt8bSn5LeSYtLSkSu30m8Gj0Sg333wz3bp1wzRNbNvmlltuYf369QSDQaX9Kkolxblf/LEe0sc+d+5cNm3axLnnnsuECRMIh8OEQiEsy/Liu6Sic6iUd3+hOMdxvMBEaV0ZM2YMF1xwAa7rsnDhQlq0aOHF4pSG1G3FsYMQAsuyCAaDrFq1ih49emBZFpZlUadOHV5++eWU15OS36Ic85aWVB9fBudu3ryZ3Nxc1q5dixCCzp078+6773pF6ZIH6YPl21coDhXFyb0sQCfN1+FwGICPPvqIhx56iCpVqjBw4EBatWrl7e93l/qLXSWT6vX2NQj7B2r5Gv6KvVOnTuWVV15h9+7dPPnkk7Ro0QIA0zS9Ohb+bCF1XSoOF8VdX1IBz8/Pp3Xr1ixZsgTDMAiHw8yYMYPmzZureWU/OWaVlmT8MS5S4w2FQnz88ce0a9fOa2714osvcvvttxcpqyyPVQKmKE345R4KywBIU7aMeRk1ahRjx44lPT2dXr16eVVmJTLuJZXb1G/FTH5d//P+hnGypopk69atTJ8+nZEjR2IYBj169ODGG28E8Cww0r0lz68yhRRHGinnlmURCoW48cYbGT16NOFwGNM0GTt2LN26dSMajRYpHKfmkNQopSWOP6YF8Pz8wWCQu+++m2effRZd1wmFQixYsICzzjorQXEBpRErSh/JPvdk95G8BjRNwzRNxo0bx4gRI7Asi4YNG3LTTTfRuHFj0tLSipw3OXDWvy05DiaVyzUvL48vv/ySMWPGsGrVKtLT0xk4cCCdO3f2FCsZg+Y/V6rHCsWhZF+We5ly//TTT3PvvfcSDAaxLIsnn3ySe++9l0gkQigUAgqvBTWPFI9SWnyk8vULISgoKODCCy/kq6++AuCss85izpw5lClTxhMy6VJSwbmK0kRxg22y9TBZOZgzZw7Tpk1j3rx5mKZJ06ZNady4Meeccw4NGjTw3EsHwp49e1i5ciWLFy/mm2++YdGiRZQtW5bzzjuPLl260LRpU29f27a9/kH+mBw12CuOFH6Lopw7ZC2k999/n6uuuopAIIBpmvTs2ZM33njDk2O/0q5keN8opSWJ5EFcmrxXrFhBy5Yt2b17N7Ztc8011/Dmm2966aLJvkgldIrSQqpBMrk+i3zOcZyEKp179uxhxYoVfPnllyxfvpxdu3Z5TQmzsrIoW7YsWVlZZGVlUb16ddLS0ti1axdbt25lx44dFBQUsG3bNq8WUjgcJjs7m8aNG5OTk8MZZ5zhxbNIl1WqCqGpAowVisOFf6Er72Xl9AULFnDppZd6c0fTpk2ZPXs2GRkZgLKuHChKaYmTasXpX2UGg0Fee+01+vTpQ3p6OgUFBTz++OPcd999RCKRIj54iRJGRUlmX5aW4hQXeW+aJunp6UXOuXHjRtatW8eaNWvYsGEDBQUF5OXl8fLLLwOxoN2bb76ZKlWqYBgGNWrUoGbNmtSqVYuqVasWOZ9pmgBexdtUg3xxmVEKxaFgX+4gmcaclpbG6tWradOmDb/99hu6rlOzZk0+++wzqlev7i0AklHyu2+U0rIP/NYWaeYbMGAAr7zyCqFQCNu2eeutt+jevTsFBQVF/PpqEFUcLaSKfZHPywBaOQCnsoQ4jsNJJ53EH3/8Qf369Vm8eHGR6wXwOjEnWy2FEF5lW7UyVZQU9hXDsmnTJtq2bcu3335bpC1Mfn5+gsKv5Hj/UeH1+8C/0pRxK88++yyXXHKJl7HQp08fFi1aRHp6ekLpZaWwKI42pAj7ffCapnmdk+X/tm179VwikQiWZbFlyxavG7NpmuzYsQPLsigoKMA0TSzL8oJ+/Z2Y/ff+10y2iCoUh4vk+j/JcZDBYJC9e/fStWtXvv32W0KhEI7j8J///IcmTZp4nZsVfw+ltOyDVKu9cDjM8OHDOe2007Btm71799KjRw9+//13AoGAl/ppWVZC9oQaWBWlGf/ArGkCkI9j2/2KTCAQ8G7BYNArBudHulNl0bpAIOBZauR1l9woTl1LipKAXyalFV4IQTQaBSA/P59rr72WuXPnkpaWhmma3H///fTs2ZNoNOrJu1rQ/j2U0rKfaFqsLHg0GqV69eqMGTOGcuXKoes6a9asoVevXuzduxdIDMpSA6ziaMBvNRRCS1Jiij72r0ST05+TLSbFrVqTz+E/zu9CUoO+4nDiV55lPSC/i3TQoEFMnjyZjIwMIpEIAwYM4JFHHiliYfGXGFDsP0pp2Qf+AVMWr5JFgZo2bcro0aO9FePHH3/M4MGDMQwjoVKof0BNHryVsCpKAsmDsP9x4nNSljXvsRB+CwgJyoU8T7Jysa/6LcnXRqqA2+L2VSgONqmuh+TtcnEaDod5+OGHGTFiBGlpaeTn53PTTTfx0ksv4TgOgUAgYX9lafl7KKVlH/iFSsaryPuCggI6derEI488gm3bpKWlMXz4cJ5//nnC4bBXO6K4VaISVkVJIJUlwz8wJ1o05P8Qcw8RdxVJhUR494Xuo0TLif+8Rc+f+FwqS8q+jlMoDjbJ10YqXNclFAoxfPhwHnnkEcLhMJFIhK5du/Lf//4X0zQTrDKpFBfF/qOUlv3An7kAeL56y7K48847ue666zzT37333suECRO85nKpTORKWBUlheLcMcnum1SunJjFxX8Oud0Fisp6cfEpyfsoC4qipJDq2oDEZoahUIjx48czYMAAQqEQ0WiUVq1aMXLkSGzb9kILpKVF/q+U7b+HUlr+Ar+AyUwG+TzEAgqHDh1KTk4Otm3jui433XQTM2bM8Pq2yOeFKOxrpAZkRUnAryDIIHK5EpSyKoMN5X5CgOsKbDvmx5fu0Ni5YhaYQldSYU8hmRnkr16b6rX870uhONJIWZTXh7zJrs3jx4+nZ8+eaFqs1UVOTg4TJkwgMzMTSAwol8pLcpC5Yv9RSss+KC7YEPBKiMsCW+PHj6dBgwZeSme3bt2YP38+oVAoYWJQGraiJBKTbR1N0xNkPuYOTXJzAq6IKSeO4/rPEldYYlYX13USzr9p0yZs22bbtm0JtV4g0d2jLJGKkoTfOuJXWMLhMGPHjuW6667zFJaGDRsyduxYsrOzMU2zSF+sfVkWFfuHKi63D5KFyv/YP+jKIKtVq1bRoUMHfvnlFzRNo0qVKkyZMoWzzz7bE+BUJnKJinVRHF6kLIOuJ5bJ968o/bFZoCFcDV3XMAwdNHwyK60kbrzhqIZlmaSlpbFz506ef/55IpEIFStWpE+fPmRlZcUVo5g7ye+W0nWd2KvFbvEr0HskKfKMFn/O/2RMk4ptEyDiDzShITRBTA1TlGSkLCRPVlqqbfHf2r+zhoaI/fKIwj+FspFwvvjeSeeQVsBoNEpGRgZjx47lhhtu8CzpJ598Mh9++CH169cnGo167ScgtTVFjfd/D6W0HCB+q4kc0GWvlXA4zPLly7nkkkvYvHkzruty4oknMm3aNBo0aOB180wVWCjPqQRYcVgRLi46Oi6O68RXkw6gYRixQdeMFsQUGeESDMaq2FqmixHQcF0bTdMxDB3hCtCkqwiEiBlyZTXpZGSTUe+txF1Uhc/FFYqEzKHC2jCJnwNvohLyWLmj3KY4evFrLlrScxBXWFLJQ6JwxNVy7zl/AK10DwWDQcaNG8f1118PgGVZVK5cmY8++oizzjoLy7IS5NpvQUxVtl9xYCil5QCRioq/+q20usgGWYsWLeLyyy9n27ZtOI5DrVq1mDVrFrVr1y5icfGjNG/F4SUWnyKHaMcxMXSdqAXhkMGUSRP4ccBAY1AAACAASURBVM0G7rn7LvIjEdJCIaZMnkRevk3Pa67GtR1sx0E3dEBDMzQM3UW4AtfVYnEvjkV6WgbvT5qEbQkuu6w9rhCkhdLQDdi9exfPPfsS+ZF8Bg++gwrZFUAIjEAwpnzEg3oBDCOApgkcl9jrahqacNE0Az1g4DournDQiFtsvPgzeQq5spYF8kDZWUoH+2Npie0n4tY0uVHa6DRPmZUyENs7rqRoWmwTSHtMoTEmfpxtxyo2T5gwgRtvvBHbtjFNk+PKH8e0D6eRk5PjWVhEXN40TSvS5FON7/8bSu07QPx1W+RNBujKjKJzzz2X8ePHk5GRga7r/PLLL3Ts2JE//vjDK+ksLTXypoJzFUeEuJsEzUXXAcdFGEE0bQ9ff/4O995zN+NmLSYjLQ1d381n099j7PR5ABiOTjgtHK96G8DWDRw7iq4ZBAKxKrgZ6ZlomsvkqTNYsHAlGRkZlMnMJICBrhvMXzCVmbOXcWv/flSuWolQKEQoHMYQOgFDj1fWDRIIBAENx8rH0HXCwSDBQIBAMIQRMLBtF8PQCQYK2wDYrsAUAsebfUw0NxYs7OIi3MKJS1G6EMn/iLh+ImLKidDAdgWuiOKKSEyJtgSasLGFiyMA1yWqaSBsLMfFdAXCdhB2TPGJCoHlApZACBNN13nxlWF069aN/Px8TNOkYoXjmTp1Kjk5OZimSTAQRNc0dCMxgUOiFJb/HdUA4QBJduf4kcqMaZpceOGFvPnmm1xzzTVEIhG+//57LrnkEj766COqVKni9S6SxwWDQc+Ko1AcFkTcex9fmuroOIaGJgRCOJTJKMOp5zbj+Qf/zTlnvkmtCmGy08KUyaiJpmls2fg9jz71NLttHVNk8PD/PUft4zPZvWsrd9x5N66tUbtOLe6/75+cUK0yS5f8woB/3MGOzZv5x4AHqVTV5fknh7BzZwbzv/iSOR9v5vsV37E3XzD4zgcJiXwee/JxtIBGduVq/PORxzg+ZLD4i/k898qr1DzheGwzxMk559Ov65WsXb2SJ55+AsvWqHd6U+65pz8Fto2ta+iaji5cXE0g0NHj1hZXgK7mkRKPdO8I7z8gwSLiBSwR02Bi0VBRWyOEiy4KcF0dYQRwtFgslqEJQsLCtS3coA6ui2sLMHQEGrr0TGp4Aeo1TjyJiRMnENYFUVfj9Hqncnr9RuTtzSc9nnThCjz7nVJSDj5qhjxAUlXs9G+Tlpf8/Hw6duzIiBEjvLouy5cvp2PHjvz222+EQqGUlRGTKy8q64vikBFPTRaaQHPBdXVsLQBazPW5M0/QvP3lXNr2DAb/4xF0PRPH1XAtA2FHuaH/rTTOOZdXXh1OVjjAP+97lsiu7XTt2pnsWqfx1FNP8tnMyYz7YCihUAY//7yKwXcOpv2F59L71sFUPaEul17ellpnnEfHDu149+0JrFr3J48+8TgZAYebet5Mv1v68OLLQ1m0bDmvvvk+f/72I9f2uplefW7llt7X8vboV5j3/VqI7qTHlVdwYbvODBs+gnnzZvLif/5L2DDAcQEHQTAe2CsQWjxyQdOUpaVU4IsDjP+KGqAJLXaTFkMBoKMJCGCTEUpDC2TiaoJAuonQdHQ0HMBEYDg2mhZEuBECmouRHsII6bi4hIRA1zREIPZ6hh7gysvb06XL1Vx2ZVe6dLma0+s3AiA9PQ0jYCBcXzadQI3lhwCltBwgqSpy+rfJWJe0tDSi0SjXXnstr7zyCpZlEQqFWLx4MZdccgk//fSTlw5dXI8ilRKnOKT4Bnshs3aEwBECsAhYBvnbBf984EE2fvclX8x6j4xK1Yma+WiBALfe9TAn1jmD+3pfwx8b15CX5/L7bz+wcf2v9Bt0D5UrV2b8hDc4/5xL2LYzjyu6dOLkajU4u8npREyXvII9ZJfPIpweovxxx3Fc+RO5rFM3qlauTIXjA/zzkfvZvnM7t/Xqgr1nJ3vydvLFhzOpfnojWl/UnJqnnUeXK1uSlpbBsi8/YW9U4/hqNVixYgVnNarDf0eMxNE0dE3EpikRjPsQnHgdGelTUJR0NJ9tJRZ14re5xPpheY4+4QIubnQ3K1f9wIYdO3H0ELZjoWkmhuWguwJbaLi2hm3pBIWLKMhj0fxFfPntD7HjbQfHsTGFi+XqOEJg5u9h75488vfm49j5/Pzrr8z+/HO2btuG44h4fBfx8tGJlXSV1eXgoJSWQ4BUMgzDwDRN+vTpw9ChQ7EsC13X+f7772nbti1Lly4lFAp5hbtSlTFXgbmKQ4Ynb3hKiyHAJQDCJqgL8vODhIPpvPjk7Tz3r/tZt3E3GeUyiO7OY/TQ4bw9aiy5F7Wh781dEWkGu/J2I6wgQd3BsqJUqHIaNU44BU3spUDEypk7e7bh6hYFAoyoBe5ehBBERFkcMxbvtWXLeoY98wJTZ83nxlv70e3SC8jfEyHf0SmTmQ7CxXGjpIUDBIXFnoiDFjaY98nHfPDeu4QzK3Hv4EEIR2DrIEQIzXVxNQtXczG8BYEKxC0NJCotLno8TczVYu4hgUDTXAQ2jmOCprNq6RJOP60+vW65m10EMF0DIXZhhAzSDQ0dgZ6WRigjQCBQlpHDXuaBp55hw5o1GHoQIxgiHAiQphuEDANHCIKGS2aZsmRkZmBG9tDrhj58PnceO7Zt9/yMXisLoSTrUKCUloOAv+CcYRgJtSaCwSCRSIR+/foxatQoQqEQuq6zbt062rdvz5w5c8jIyMCyLBzH8dLqZLAuKLOi4hAhRHzNKgdYgas5CE0DLYAlHLSgjhAOue3bcF6rHP7z3yFUOz7A5nWr+XTBcp5+eRhX33QrH7wznsiu36ld+yT0cAZzl60iGAwz9Il7efCxO8nIqEzYtGKF6bQwriUIBELYGDi2Raz+i47txjLrvvz4A9ZujfLKi8/RslVHxo7/gEzdoMEZp/PZosVssDQM3ebb+d9STgtwRoP6hIMufe6+iyeefoaTqmexau06grpGSLhoWhRX19HR0QU4snSL9CgoSjTCs7FATIXR4nV3tJijSMTGTU044JhoGrw7fhK33dCJPzau4+tf/iQtkAX2Lr5ZsoBN23YSEIJfV69i2Q8/s/q7hYx5cwKnn3kOOeedzc8//sScT+fy4dQp/PLjapas/jlWzMjOZ/HCT/l1/UaGD3mezZu30uriDpxapw4uSQqL0lkOCUppOQgkx6XIplgyqDYQCGBZFr169WL8+PEcd9xxAGzdupUrrriC999/3yv5r2katm0rRUVxyPFqcIl4DKMQWFoBISEQIhOjbDYZ6SYaBpbpcsdDj9OwfiP27NxFlToN6dO9Ddd168ht/fpiu8chdm0jWOZEXnj5RZ66905uvfVWFixZxfU9biagWwTCBkLTMLQQ4eNDmJaFbpQjFIylMmcaETJDsffRqlMvzjr9BLpf25O7BvSkSo1T+fHn9TRqcSkvPNCXnh06cN/AQeRpZcjOrkp29Qb0v70/PS9tR58+vXn3vY+4+sqOmLaNLTQEATTceIp3LK7BSztRlE7i3j1XxB1DcS00EAqQt2Mz46d+xoDBA2nT7FQm/vdNdE3HLMjnpn7/YMGKjQSNEG//dwgD7vgne/IcbNNhzfp1/LJuHZ0v7cRjT/8fmzdvZtr4N7j7/icIagJh59PtqquZ+81K7Gg+puWy7JtvyC/IBwS2axcWslNKy6FBKA4Krut6967rCsdxhOu6wrZt4bqusCxLRCIRIYQQ8+fPF1WqVBGACIVCIhgMijfeeEMIIUQ0GhWWZQnTNIUQQjiOc2Q+kOLoxxXCdVzhCle4tisc2xamKBCubQkRKRB5u3aIzQUFwnZsYUdNIUSBiBTsEX/uKRCmEEI4G8Wvv34rfvh5nXCFELu25YloQUxut+3YLFb//KPIz88XQjhi9548sW13gXDsAuHkbxN/7Nkr9kQLxN49u8Wm3fnCsfPFnq3bxN69UbHXtmLvL7Jb/Pzz9+K339YIyxVi48488fOqb8Un00aL7Vt/Fet/Wycubd9ejJyyIH79OWLLptXip9UrRcSMXTf5ti0irhCO6wrXsYTjmsKOX6PCdYXjHv6vXfF3cH2PHCGEK1xXCEe4wnRcYbu2cN2IsAp2CCGEGDnsRdHmsh5CCCE+mTJGNDjtLPHnth2iYNdqcUG7LmLiF78I13XFkIduFS3bdxVCCNG9Q2vxxoJlQgghTq99ppg5Z4kQQoj3Rzwv2vYYKKKuEM7278UZp54oZn69Wvz69WxxfpsuQgghHNcRe21HWLYVlys34T0rDh4q5fkgkSrYKrkSoqZpWJZFbm4uM2bM4Oqrr2b16tWEw2H69OlDXl4et912G6ZpFtubQsW5KA4WQhMIBLrQcXU7VtTNCaG5Nm7AICt8HGWAfMclTQSxI1HCaToVRBqmHcWx06hxYgNMAMulbFYAgUskP0K54ypx/HGViETziURt0tKzCAsH296NFipHZUNDuC6WkUY5DbDzySxfBtsJxdaptoUZTKNWrTpAkKgtqFY2k407dZ5+ahQn11vE3j07aXHe+VzV9mwKbJugcKlQuTYVKuvgCvKtWH+CACJmZdFddDeIQMPRXQxXR9MTaqUqShOeiy/m43NdF83Qca1dTJ08ic1bC7ipTx9CeZvYunEV0+YuodcV5+HszUc4BbiuS0C4aHoA13HYY2ns3LIVx9lJVoVKaASwLRMzuh1XT8N1HTTXxLFtTNskb/c2CiyHLZZNtgGaZiS2FRAoa8shQCkthwHHcTylRZb9b9SoEdOmTaNz586sWLGCtLQ0+vfvz44dO7j//vsTjoNEBUgpLoqDgYj7h4QrELqLcB0MJxjrIKQJTNsC3UCYAsdw0A0Dx9UQIkIAB13PImq62EENQxNomoUhdAwtgLBtItgYgXRc4aIJQcAwwIi5Rm1nD64IENAMhCMw9RC6YxPCxLUCOMEAplNA1NEJCZ2g5uLY+Zxw0inM+nwum7bvIhDSqZCVhUME0w6gE8J1XDRMbDdIUAdbONiOQcjQ0ISNwEBoOkahT0zNLKUCX2l9WbNWVnOO12cRaASCZfhu6VzWrv2FD+YtIiOQSZmgoOoDdzBh4jR6dWgBBTupUi6EYRjsMcF2YtWTtVAa6Voauu5gaRrhQAgjEMAVFobrkmYYkJGBZZq4xIoehoNBwkEDYZlowQCaK9UWHeV6PDSomJZDjAzG9SsfgUCAaDTKKaecwieffEKzZs2IRCKkpaXxwAMP0KtXL3bv3h2r6hnPLJKVc0EF5ioODpoma1yALgx0PQQBAYEAum4QNAIYmkZGmk4gqKPrIXQ9iKEF0I0wWsAgGNBIAzRdQzcyKDAFgVC8Ki0Grm0TCujk5e2i+QUX0KBhAy67rCO78yIE9FBs9aoL0gIBgsEwEdtGD2noOmQG0kk3YpOCbujogXRcF1zHoUp2ObKzsnAdE801SAsYaEZcudcDBAIaAQPChk5QlxXCQiBTUOOdq9GUlaV04K/TEm8bocUzgGKNG+K9rnSGDB3FGU1yqFmhCtlZmWRmluWq6/oya+II1v60inPObcSwpx9izuxZjB43FbugAE3T+GPbTsS2WEzKri2/gxNB0zTObtmRdcs+YdLUDxk65HVWr99KSNgUWC7btmwmTWggTGxHIOJtJwp7GCkONsbDDz/88JF+E0cjyd2cU/1v2zZZWVl07tyZ5cuXs2rVKsLhMEuXLmXOnDk0a9aMqlWrEolEvLboyedWKP4uskdPbCLX4zdZ/TM2FeiaFn8utg9Cj61KtXgXZg20WHdENC3Anr35/PvRR0lPT+fkk08mEDBwbIf8/L3861//YsP6DUSjEXr1upEyZTIJBGItMGbOnMmwYcO4oEULjEAg3ldIYOhGLFdE19Ew0HQj3lMonk+iB2LPE1OcChUREf888Vo0mgbE/xfyOiwsLqeupJJO0eJyXkVnIeJNa2P75O3ey7U9enL88cehOSaucCmfXYn6p9ambPny9Ox5Lb+tW8ufm/+kZ6/e5OTkUqt2VSpWqkDTsxpRPjtIpYpVOfOM0ymTFaZClZM4s14dlixdRt069ejctTsNG9bj+OOyqFarDvVOOQnDAKEFCcjaLLIAnhqjDzqqYeIhIlU8il95sW3bs6TItOg77riDESNGYBgGjuNw8skn89prr9GqVSuvxos/O0ldEIr/Ba8YemHGM17LOK2YumuputYRc2VCLFPun//8J88//zzdu3enf//+nHPOOeTn53PKKaewefNm6taty5dffkm5cuVYsGABQ4YMYeLEifzf//0fgwYNwjTNWMVo4RZOUMW0ykt626m2FG70Ag7kHhoqoqW0kNo9JJHyBzEZBHAdK94I1I5lFQXTAJdopIBwWmbC2aN2hHAgLX6uKIYRBhdsuwA0i0CwbML+LoVuCse2cIWIWfiSekKoMfrgo5SWw4j8qkW8Cq6s5yJdQ7qu89xzz3HXXXd5lpWMjAyefvpp+vfv71XbPdALQV04ikOB7JUlhEiQzT179tCgQQPWr19POByme/fu9O7dm65du7Jx40YaNmzICy+8wOjRo3nnnXewLIv69euzcOFCMjMzE7riKtlVFId/6pJKi4wZ1HUdQ48H52o6jhur45KWllH0PAiEq2FaUTRNENDD2M5eAoE0XAd0w8Z19FjtLD2AobkEDI182yAsoujhMLYtCOLi6gEMvbBur+prdfBRSsthRA7y/rL9fouM67qEQiGmTp1K37592bRpk2d16devH88//zxpaWnYtu2tJvznSEZZYxSHEql4+2VZCEEgEOD555/nzjvv9OQ9MzOTaDSKbdtkZGRg27aXJQcwbNgw+vbtSyQSIRQKKReo4i9JtmJL97mu615xzoBhYDsOwWAATdN5/7332PznZqSTac/ePVx1dSeqV6uN40Qwgja6yMKhACF0DD1m8UMIdE3g6kEcyySoO+wVaWRqEWwCoBsEsRFa0FcGT7mHDgVKaTmMpPqqZTq0DLR1HIdwOMyqVau48cYbWbBgAaFQCNM0ufzyyxk+fDhVqlTxCtFJl5E/TkZW5ZWoC0dxKEh2gfp7b/3++++cf/75rF+/nmAwSDQaTYjLArz+XKeeeirLli0jLS3Ny5iT+6qu54rikPLnV54TykPoOpZpEw4HiUSj3H33Pbz80osJ5xgwoD8PPvgAx5evAFhouolwy6DrLi4uAiMe+OugCXA1PVZ1VzjYepiAMHGFAbpGIN6UM9ZHHFxNU5kuhwD1nR5G/D2FkgNzoTDTKBKJcOqppzJlyhSuvvpqTNMkGAwyZcoULrroIhYtWkQwGATwyv8DnlndPzEoFIeK5F5ZfgW8evXqXH/99Z4yLi2Dcl9pQRRCMHjwYNLT03Ecx3MLKSuhYn/wKy5AgrvSsWMKy08//USb1m14+aUXSUuPuYfq1q3LrFmf8NJLL1OhQoV4ULoRv8UykTQtVt+HeFdw4kqIpunoeiAedGtgGLHnhaYBbiweTAaoKw46Smk5jCSb0f3IC08IQSgUIhqNUr58eSZMmMBjjz3mPb9y5Upat27Nq6++imEYXvl/eQ412CsOF8ny7O/BJYSgX79+VK1aFcuyisi7jD2oV68eV111lWehUfKrOBCS61e5rotpmgQCAYLBINOnT6dly5bMnz+PcDhMpCCfNm1aM23aNNq0aYVlmTiuEy/Vo8faPWjEMtBkM02hxRWQWJac0GJKjOarIqdpcYeTJmLZaar8zyFDKS2HkVRdnCVylSovvlAohBAC27b517/+xYQJE8jKygIgPz+f2267ja5du7JhwwbS09MxTTMhJdpvuvcrScobqDhYJMuz/3nHcahcuTK33norgOeylLIorYP9+/enXLlyRayDyZl3imObZAU5eTxzXRfbtnEcx4uZuueee7niiiv4/fffAYhGowwePJgPP5zGKaecQiQSAUDXjLiVBBDxVHicWF6ZMNBlGrOQyoqGEC6OFrsXgBAaCBchtPi5ZI6T4mCjYlqOMNJvL03lhmF4F6U/cDcYDPLll1/Sv39/li5d6sW51KhRgyFDhnDllVdi27bnIlKp0YojgX8S0TSNDRs2cN5557Fp0yZPnuWK+LTTTmPRokVkZGR4io7c7nc3KRSp8E9dtm3HMoYMg+XLl3P77bczb948QkED03KoWCGboa++ylVXXY3r2gjX9bLfdSOI64KmuSBcdBHE1UyQ8Sy6g3B1NASurqG5AnCw9SAB18LFiKVUCwtXDwI6Oi4uWrwxp+JgokaEI4x/cPab12V8i2EYGIaBZVk0a9aMOXPmMGDAAM8ltH79ejp37syAAQO8zAs5Ych4ArmyTV6lKBSHCqmIn3jiiV5si1SkAc99lJWV5VlZAoFAyrgvhSK5XIQc1+TYJmP8Xn75ZS666CLmzZtHRno6puWQk5PDnDmfctVVV2NbVkyV0APoegBdD4IgXkQxXkBRx4ttiRVP9Mmk99jAiMfB6FqsCCNaQNbmJV668Qh+Y0cvytJSAkmVlSEvVhmoOGXKFO644w7Wrl1LIBDAtm0aN27M0KFDadasGY7jJKxsAZWRoTjk+CcXmZr/+++/06RJE7Zs2eIVVDzllFP46quvKFOmTJH+WgpFMskZQjJTUghBOBzm559/5h//+AdTpkxJGDv79evH0089RZmsrL9Op99naeS/qJucsFnVWD6UqNnrCJPKV5tKYYGY0mHbNtFolMsvv5yFCxfSvXt3bNtG0zSWLVvGRRddxDPPPOO5lCzLSliZqFgBxeFCWluqV69O7969PfcnwO23314klkXFXymKI1nRiEQiBINBwuEw48aNo3nz5kyZMoVwOIwQgkqVKjF69GiGDh1KRmamF5ybHEcoRKzTuRDxruci3nxRymE8ADd2J/eVx/nOEW++KQrr9arOQ4cIZWkpJcifSbp5ZD0XTdMYPnw4999/P1u3biUcDhONRrn44ot59tlnadiwIaZpIoQgGAz+ZYaGyuBQQOo2FAd6vKw7JK0tZ555Jtu3b6dOnTosWrSIcuXKea/zd+VNyWvpZ39lTLq8bdsmFAqxbds27rvvPkaMGAHgWZwvu+wynn/+eerUqZPQ/iRZ1gplxksDkq9U5HHhHsXtV7hdS9iuONgoS0spQ8a/yAvUtm1uvvlmZs+eTYsWLbwiXjNnziQ3N5dHH32U/Px8wuEwUGhmLe7mnwCUPnts4ldYkgf54m7yOMdxvBRnabrXdZ0aNWowcOBAAAYPHkz58uU9y4sMwpXZH34r41/d5H6K0olfxv7qd5bBtqFQiM8++4yWLVsyYsQIL56lbNmyDB8+nEmTJlG7dm1M00xwhRevHGu++9SPvQaI3n/Jjwu3Jx6rONgoS0spIdXKVyogcjVbUFDAc889x6OPPuq5jIQQNGrUiKeeeop27doBYJomQELBL0mya0pxbJJctEvKQnIRL///qWKlIpGIl9W2evVqevfuzbvvvkvFihWBWFVcqVD7kTFZ+1JO/NlFSlZLL/4xLdV0JBXgQCDAli1beOSRR3j11VcTXOAXX3wxzz33HA0aNMC2bYCEQoVSXkFZ50o7SmkpRSQrE/70Uqm46LrOF198wX333cfcuXMTgm+vv/56Hn74YU488URvVZvs5/VPEOrCPjZJjrPyp85LRUW6G/2sWbOG7777jjVr1rBmzRpWrlzJunXr2Lt3r1cB1z95AJQpU4batWtTt25datWqRd26dalfvz61a9dOOLdcNfvfi8waUcHlpZfkRZiUOVn6wbZtT6l96623eOCBB1i3bp1naS5btiwPPvgggwYNQtd1otGoJ5fJY5d/3FTjWulFKS2lhOJiDGQUvdwmY11M02TUqFE8+uij/P77796kccIJJ/Dvf/+bXr16YRiGNxnI7f60VHl+xbGFX2mRioaMJZCVRgH+/PNPPvnkE8aOHcu6detwXZdIJMJxxx1H48aNqV+/Pg0aNCA9PZ1wOEw4HPbS9y3LwrZtdu7cyQ8//MDXX3/Nt99+y65du8jIyMAwDE455RR69OjBhRdeyPHHHw/gZYxIC4yytJRukq0sUkn2p8h///33PPjgg7z//vtAYexKbm4ur7zyCmeeeaY3jvkXW/70emVpOXpQSkspxl+PJfl5qYj88ssvPPjgg7z99ttA4QXbrl07Hn30Uc4+++yE9FS/uf9AUANA6SVZIU7+X8qZNLdPnTqVSZMmMXPmTDIyMmjTpg2nn34655xzDk2aNEnoQH6gFBQUsGjRIr7++mtWr17N9OnT0XWdtm3b0r17d1q2bOm9J38JgL9CTVSHlwOZVuQYJrPNpHUlEonwwgsv8NRTT5GXl+cV1AyFQjzwwAPcfffdXssTGecnxy/pTlK/+dGHUlpKMf4LXSKbzkkzfigUAuCDDz7goYceYsWKFd5KJTMzk8GDBzNgwAAqVKjgFazzd4lWF/zRTXLQrXwOCjPVgsEgpmkyceJEnnnmGXbv3k2TJk3o27cv5513HmXKlPHOJ12VQIJC7T+3lNnkwEhN04ooPLt27WL+/Pm89tprrFixgoyMDB555BE6derkvUdgv5UXxZEllYs7OSsIYPbs2dx777189dVXnrIC0KpVKx577DGaNWvmWd2SK3/74/wkahw7ihCKUovrut6967rCcZyE/13XFbZtC9u2hRBC7NixQ/zrX/8S4XBYAELXdQGI+vXri6FDh4poNCqEEMK2bWFZlrBtWziO4907jpPwWv7/FaUX+fv5f2vTNL3tU6ZMEY0bNxaVK1cWjzzyiFi/fn3C8aZpCtM0PVnzy0eyTPplRu7rl2P5HkzTFJZlJbzOzz//LO69915RoUIF0axZMzFr1ixvm2VZCef3n9t/Uxwekr/35LHCcRxhWZZwHEdEIhHvuN9++0307t3bG5tCoZAAxIknniiGDRvmyVM0GvUe++VW/u+XKcXRhVJajjJSXaRyvhYkwQAAIABJREFUgJDbFi1aJNq3bx9vW1p4a9y4sXjnnXe84+TEIQcFqciYppkwCKmBofTin1QsyxKmaXrK6+rVq0WXLl3EKaecIp544gmxd+9e7zi/DOzPaxzIPqmUGPmehBBi+/bt4p577hHVq1cX1157radEFRQUeIqTf1L0T2aKw0OywiJ/RzmOSGVFKse7d+8WL7zwgqhSpUrCgioQCIjbb7/d+42lclzc2FOcHCmOHpTSUopJtrSk+j/Z6iJXr5ZliZEjR4p69eoVUV4uuugi8fHHH3uvIwcX0zSLXcUqSif+la/fujF8+HBRrVo1cc0114gNGzYIIWIWuEgkUkRh/aubfJ393SfV/n6lSiof69atE506dRInnniiGDNmjPcepZz6lR4lp4efZNmSv0UkEkkYh9566y3RqFEjb/wxDEMAonXr1uKLL77wzheJRFIqLH8lR4qjC6W0HAPICzfZWiJEbIUzZMgQUaNGjQTFJRAIiKuuukp8+eWX3nlSuQEOZNJSHFn29RtJedi1a5e46qqrRO3atcXUqVO94/Lz84u4ew73e5aya1lWguXlnXfeEZUqVRI333yz93w0Gk2Q0VSu08P5OY42DkRp9Y87flfQrFmzROvWrb0xR7qCqlatKoYNG+a5teWiSbl9FEIIoQJxjwGELyvE9WUaua7r1Xb5/fffeeGFFxg9ejTbtm3zgjMzMzO5/vrrGThwIHXr1gXwKvH6i4LtK9BNpAj2VJQcZObY8uXL6dKlC7Vq1WLcuHFkZ2cTiUS8TuNw+Au6CV8GkwzehcI+XADhcJiNGzfSrVs38vLyePfddxNKuAtfz6Pk3jNKHg+c/fne/Ne8DJaWgbFff/01zzzzDO+++64XfGuaJuFwmN69e3PfffdRrVo1LzjXnxjglz9QAbbHJEdAUVIcZpLN7P57aXKXfPfdd6J3794iPT09wfJy/PHHizvuuEOsW7fO21daXfznTH49tTIqOaSKM5Ar35kzZ4qyZcuK+++/39s/Go16MpL8+x7u9y1EYbCt//27rpuweh84cKCoXLmyWLBggRAi0aXgl9Mj9VlKO/ty96UK2vf/NmvXrhX9+/f3xhbpBgJE27Ztxeeff+7tK+NelOVWkYxSWhRCiMJgXclXX30lrrzySqFpWoLyUr58eXH77beLpUuXevvK4E3/xCAnO/9EowaaI0vy5CInlLfffltkZmZ6QdjSDZhqYj/ck0aq1/M/51e+pTth+PDhIisrS0yePFkIUegqkm4Kv6tBBeceOKmU3+Rsw4KCAu93+vPPP8Wjjz4qKlas6Lme5Xhy9tlni4kTJ3oLJ3+24/68D8Wxh1JajgEO1P/st7zMnDlTXHzxxUWCdTMzM0XPnj3FokWLvH2j0ag3KcjVrd8SowaZI4t/opGxHyNGjBDlypUTM2fOFEIUTvDyNxRCFPn9jpSlJZW10J/i7E/VHjdunChbtqx46623hBCxzKJoNOp9Lr8yrdh/UllWZHC2ZVmioKDA23f79u1iyJAhKYP9Tz/9dPH66697inOqrKDibvJ9KI5NVEyLwsP1NWCUYiF7u0yaNIlXXnmFzz77DMArtW0YBldccQW9e/f2GjLKTr/Shy3La+8PKvbl4LCvy1oW3ho3bhw333wzM2bMICcnh4KCgoQqov4miCXp93DjRRVFvOw7JDZ0dByHUCjEjBkz6Ny5M+PGjePyyy8nGo16+/l7bpWkz3akECJ1m5B9kdziIS0tDYDff/+dt956i9dee42ffvop4ZhatWpxxx13cOONN5KZmYnjOF5BzOQy/ApFKpTSovCQg4Ubb1wGYFkWwWDQ6xkzc+ZMXnrpJT7//HNM00zoWXThhRcyaNAgLrroIjIyMoDEcutqIDqyiHggtmEYzJo1iyuuuIL333+fdu3aEY1GvYnD9bVyKIkTu3/ISlZapCIjA8Xfeustbr31VqZPn07z5s2JRCJe76SSqJAdScR+BMzL71t+x5qmed/n+vXrGT16NK+99hrr168HChchlStXZuDAgdxwww1UqVIFIYQXKC2DqpUiqdgflNKiKEKqVVdyWexPP/2UUaNGMWHCBK/8vyQ3N5eePXty1VVXFWl0J5UXuboqDjVo/W/4JxcobKwZDAZZvnw5zZs3Z/jw4VxzzTUJnXElxXXILSn4P1cqiwvgZaS88sor/Pvf/2bRokXUrFkT0zQJBAIYhqE6RMdJVlik1TWVUiiVWjke/PzzzwwbNozXX3+drVu3Jpy3XLly9O3blwEDBlCjRg2AhCat/tdNbmqoUKRCKS0KD/8KK9VjaTXxN8/79ttvGTJkCNOnT2fTpk0J56tevTpXX301PXr04KyzzvKelw3OpAvCP3D5BzLF30de1nKCkdYz0zRp3LgxPXr04MEHH8S2bVzXJRgMlhrTfHFymmo/qajddtttLFiwgMWLFwOUWNfXkaI465VUCKXLWCp7AN9//z0jRozg7bffZtu2bQnnq1q1Kt26daNPnz7Uq1cPiFltU1lc9+e3VCgkSmlReByIX9vfTA/gp59+4o033mDkyJH88ccfCfsGg0Hatm1L165d6dixI2XLlgVig5h8TamsqInk4JCsaEJsZdylSxd27drFxx9/nFDH5K/iCUra77G/w5a0DGiaxvnnn8/pp5/OyJEjE2KuStpnO1L4rXPJVlbZyNC2bRYtWsSoUaOYOHEiu3fvThgzqlWrxi233MI111xD7dq1vWPkgkRatqQb0m9d8aN+E0VxKKVFsd8kr8b88QMyCG/Lli2MGjWKd955h2XLlhU5R61atejZsyedOnWiUaNGQMwKIFvOA0XMxPsroqXFUnCwSaVsSoVF13Xvu3355Zd5+umn+e677yhbtmyCi052XD6avj/5fciA0bVr19KsWTOGDBnCtddeW2yn6dL6HSTLwYEG1kr8MW1SsduxYweTJ09m9OjRLFy4sIhL+Mwzz6RHjx7ccMMNnkvYNM0inbvluf2u4dL4XSuOHEppUew3/gBNOfjIiU+uZuUAtXv3bj777DPGjBnD7Nmz2blzZ8K5ypcvT4sWLejTpw+5ubmUK1cOwKueKScTNaD9faSVQQjBxo0bOfvss5kwYQIXXXSRF1cgkdauoynGwz+0yfiWd955h4EDB/Ltt99Svnx5z0V5NHIgypc/VkW6gSBmQR05ciSTJ0/mxx9/BPCC7wGaNm1Kv3796NSpk2dBle5fvzzJBU4q96+6xhUHglJaFPtNsqjIgSg5LkWW5pb89NNPjB07lnfeeYcffvihyHnPOOMMrr32Wtq1a8cZZ5zhPS/LtCenTP9VTMOxNggW59aTk5BhGHTu3JkyZcowZswYLxBVHufP2CitVoZUJH8flmURCoW49NJLOeGEExg+fHhCBkuyLJc2kj+vtLbJx8VZYqTCIl29ruvy0UcfMX78eN555x1M0yzyWm3atOGmm26iS5cuntVEypU//TxZvqTV62iTNcXhQyktiv+ZVIOPjKXwBzxu27aNefPmMXLkSObPn1/E+nLcccfRqFEjunfvzoUXXuj1OoLYhOO3vvgHXDnZlOYJ538hOdPDH88SCASYMWMGffr0YcmSJVSqVOmYiR1KdmdKeVyzZg3nn38+77//Pjk5OQmKS2m2NqVy38rHfqVMWt9kkLJUOjZs2MDkyZMZM2YMS5cu9dLjpVWlUqVKtGrViptvvpnc3FxP8ZWKyIF8Z8nZSgrF/qKUFsV+83fjTGQgnj+t9ptvvmHKlCm8/vrr/PLLL0WOy8zMpF27drRr144OHTpQtWpVb5s8nxwkk+vAHGuDYHJAo5wIZI2d5s2bc8UVV3DnnXdSUFDgxR8lc7RNIn5lzv/dBAIBHnjgARYvXszMmTMTLHqlWfH1K6t+BcW/Xd77rSpffPEF48aNY8qUKWzcuLHIeRs2bMh1111Hx44dqVOnjnecvO7+DkebrCkOH0ppURwyUmUjJAf45eXlMWPGDF5//XUWL15cJHUSIDs7m9atW9OtWzeaNm1KtWrVvG1+BSY5RiOVkvVXgYqptpf0gTWV207W1Zk+fTqDBg3i66+/Jj093SsIKCsdl0aLwv6SbHmAQhfRtm3baNKkCePGjSMnJyfBlVFSfvPiAqzltv05VlarNQwjISB22bJlfPLJJ4wbN44ffvihiAuoTJkytGnTht69e9OiRQsyMzOBWLyKtLDIhUJJ+b4UxwZKaVEcMuRE4F/5QaESY5om6enp3oD3ww8/8PnnnzNp0iQWLFjA3r17i5yzbt265Obm0rlzZ3Jycihfvry3rbgg3uJiYFINtn+1vSTid5H5V9a6rtOiRQsuueQS7rnnniITDhzdVqnist0cxyEcDnP33XezatUqJk+enOAigiP3vSQrKMky6FeoUyGvOelO9ceYbN68mQ8++IBJkybxxRdfsGfPniLH16xZk549e3LFFVd4tZWEEJ7s+K/h5EWCQnE4UEqL4pDhX+35Mwjk5CoHZZl66l8J/vjjj7z77rt89tlnfPrppwmTsaRq1aq0a9eOVq1akZuby8knn5ywPVXlTb+7IFX/mtJqaZHfswx2NAyDTz/9lAEDBjB//nzKli2bYM4vzW6Q/SVZafEHpuq6zsaNG8nNzWXq1Kk0bNjQi/EoKd+L39KSHDSdyromXTb+IPidO3fyySefMG3aND744IMicWQQs3q2adOGq6++miuvvDKhjpLMKvMjr+fScn0oji6U0qI4pKQKuCtu9ei3lMiBMhqN8v333zNt2jQmTpzITz/9RCQSKfI61apVo379+nTo0IH27dtz0kknEQ6Hve2O43iDulx9ykneHw/iH5AlJX1QTna9yc943XXXkZ2dzQsvvJBgSfArkUeze6g4/Epr7969yc7O5umnnyYajXoT/pG2tKQalpO3+a2YfivIrl27WLlyJa+//jqffvopq1evLnIuTdOoW7cunTp14oorruDcc8/1zp3ce6o4xUQF0yqOBEppURwyUvnki9tP13XP4gKFCoy0lEAsfmX+/PnMmjWLyZMnp0yfhliKb4sWLcjNzfVuZcqUSdhHWmH8iktxMQ0lfUD2T8Ky8dzOnTtp0aIFo0aNonHjxkV6PR0Lk01xcicnZtk4ctCgQaxYsaJENIgsTjHxW4kkfsvk7t27+fjjj/niiy/45JNPWLFiRcrzn3jiiVx55ZW0bt2aiy++2DuH7Lbsdyf9FceCDClKHkppURxx5KAMqc3e/n38Abw//vgjU6dO5bPPPmPlypUpg3hDoRBVqlShcePGdOjQgcaNG1OvXj3S09O9feSALd/DvtI3UwVGJitn+wqWTN52MAZ+/0QnXRwffPABjz32GEuXLk1wLyQH3x5rE47fqqfrOnl5ebRu3ZonnniCtm3benKQXHsIUv/2qQJ491dZTyb5GH+xN6l0+hWVNWvWsGzZMqZPn86nn37Khg0bitRlATjppJPIycmha9eu5OTkULFiRe878Ltp5ec4luVDUfJRSoviiJMcb5DsOvJPtNLNkdyV+JtvvmHx4sXMmDGDOXPmpPTdQ6wPUpMmTTjrrLNo1qwZubm51KhRIyEOQAiR0NzNv/pO5dpK5f5K/hz+/f3bDsZK1a+0SAvCNddcw2mnneY1RUwV1+P/bMcK/u/KsizC4TA9evTg+OOP56WXXirSkyiVW1Pe+61XqRSWA/1u/fFV0u3jl3Pbtvn111+ZPn06s2fPZtGiRUWalEoyMzNp06YNXbp0IScnh5o1a3rbZKaQXATIPmJ+i6PcrlCUNJTSojjipFqZplrd+icD/yo02TKyZcsWZs+ezcyZM1mxYkXKHkiS9PR06tatS4sWLTj33HNp0KABp512WoISA4XWGPla/oHdHyPiD3b9K0uLPxj4f50gklfMp59+Os8++ywdOnTwlJZUitKxNjH5v3fTNAkGg7z99tuMHj2aWbNmpayMm2xNATyL1h9//EEwGCQ7Oxsoannzf9fFpZj7CzEmB73m5eWxbNkyli1bxuTJk1m8eHHKmC6AGjVqkJubS5s2bWjbti3Vq1f3tkl3qPwcxVmCkuXhWJMPRclHKS2KUo9UFoQQCZMzFLqRli5dyvTp01m2bBl//vmnV1AsmfLly1OnTh3OOOMMWrRowXnnnUeFChW83kgSuTpNvnySU4lTTWCprBwHyz2k6zqrVq2ia9euTJkyhRo1aqQMLj5W8bsipaVk3bp1tGrVirlz51K9enVPOYXEVGmpyNi2TTgc5oMPPuDxxx9nxowZZGdnezIhv2t5nlQuTymzwWAwQZHZvXs369evZ+7cucyePZuVK1eyatWqlPIaDAapXr067dq1o3379px55pnUqFEj4XX+TrVahaIko5QWxRHn78YA7Ot8/knBz/bt21m4cCHz5s3jm2++YcmSJSljYSSGYVC3bl2aNm1KvXr1aNCgAU2aNKFKlSpF9nVd10sTTbWqTWVlkRwMpUUG4Q4bNoyJEycyZ84cz92xT2uOpoH87uOPNUDE/2gIBBpoAoRv//hTEHs68VgNTQiIH438X76Ut2/87Fr8XiSeq/CNxF5FS3gt7+zea/pfX+4f+4602GvHFTh/7SDbtjn33HN5/PHHadeuXRGLiFQYXNclHA7jOA5PPvkkDzzwAN26dWPcuHHYtp0QD+LPhEtus5Askz/88ANLlixhyZIlzJ8/nxUrVhR7Lei6Tm5uLs2bN6dVq1bk5OQkVDiWFpWDoaQqJVdREgn89S4KxaHlULgq5ATiDzaEWH+jDh060KFDB1zXZf369axdu5ZPP/2Uzz//nHXr1rF+/XrP/eQ4DitXrmTlypVATImpWrUq1apV45xzzuG8886jXr16VKlShYoVKyakWUPiSl3G46TK4pH7Jj+XSplLFfQLhYGba9asoWbNmjFFhaK1Z/wl2JNjNPxBqPFPAHLq97QDqUxIHUbDjU/SMnYmti2mkniahlZYl8f/2uD7jBo4dqF1IPa88JSUJJuF/915ipfw/vj3F/HTJLoYpWLbqFEjFi9eTPv27VP+frquEw6H2bJlC/369ePdd98F4LLLLksIgJbKiv84v5LiOA7r1q3jxx9/ZMaMGcyfP5+1a9eyfft2iuOEE07gtNNO49JLL6V169bUrl3bCySXFW/lbyvlqzgZUShKO0ppURzV+C0eUGgNgVjK6EknncRJJ51Ey5YtAfjjjz/4+uuvWbFiBcuXL2fx4sX89ttv3mTkOA4bNmxgw4YNLF68mKFDhwJQs2ZNateuTZ06dahXrx4NGzakfv36VKhQwVt9+5UV+T7kNv/K+K8yi1IF/frPsWnTJs4888zY9rgpRCov+GOAklxWRYNKpa4gLRbS+qEl6DKkOFaqCwItZo3RRPzQwgwwET/X/7d35vFV1Of+f39n5ixZgAAhkAWQJYEIYRGkiIBKXFoFL6AiSKoiLigqL0Rq9aqVtrjwu1hbFff22uuP4naF67X4Q0QKAsGCpAQwECAIBGIMgYQsZ5nl98fJTOYcDuC13pYk3/frlVdOJnPmzMyZnPnkeT7P84gYYeT+vXPsTaLHMEwURUTWts9B025EnSV7P2OwAEwLoUTeDzsy0bNnT0pKSuKm/BRFQdM01q9fz+23386ePXvQNI3k5GTy8vKihFhsFAXg4MGDbNy4kaKiIrZv387WrVuprKw8ZT2bhIQEhg8fzpgxYxg6dCg/+tGPotI+EImo2OcyNtXojhT9EH4pieRcQooWSavkdAZed+jcThG4c//p6emkp6dz9dVXAxGPweHDh9m8eTObNm1iz549lJaWnjJYrqysjLKyMlavXg1ESq2Tk5PJzMwkLy+PgQMHkpOTQ1ZWFllZWWRmZp5i9rWx9yfWMBvPRBmbdgiFQhw6dIipU6dGjtdSsAwLXQkjTANNeDnydRnbi/eQP/5qVNPEtEARIb7YuJ6Erv0Z0DsTzDCWohA2FbwWmEJgChMFsEyaUkMBMDUUofLF5nWI5DSGDeiPZRpYQkWxLIRlYSgWhqngFSY1Jw6yYXMpYy4ZS7LXgzAsTIWIqMFEJczaNevo2jOX/r2z0K0wStPHlGkYaGrkcRgLxQQFEywTIVSMphSUAExFQVgmwjIiER40TNNCEwamEOiWguLy+mRmZvL555+fInBVVUVRFJYsWcIDDzzgNKALhULk5eWRl5cH4MzmqaysZO/evezevZtNmzZRWFjIwYMHqampOe21mpycTG5uLoMHDyY/P5/Ro0eTlpYWdX24oylCCDwej7OfZ5q5JZG0NqRokbQ64nlIYo2IscvsSIGdMrCXtWvXjtzcXHJzc7n11lsBKC0tpaysjJ07d1JUVERxcTFlZWU0NDQ45aShUIjq6mqqq6spLi52Xsfj8dC9e3dHuNg+mezsbLKysvD5fCQkJET147Cxh0PGmnlt4aVpGnV1dVRVVTklrpYZiS4YSihy0/d42fjJcm64Yz6vvfVnbp/+E44HdDr6G3jk3tsZcP3j/PaR2wjVN6L7VHTFgxoQWKqC4TMx0BGGhoGFxwqhBy18yRqPzJuB7/zxfPjKc4SDQdC8aCZgQaNqYqKiKiYHSrdx7/0L+X+ffkSfjC4E6wMoXhVLU7AIo2h13HXzdCbMXsyihwoIheuBJHyaRqjxOO+++1+MuvInZGSkEzZ0sEJ4DRVDgOFRAAvV0gkELXyaijB1EEpEGCGwhIlugKUoqIoAM3KNZGRkUF9f75xLO91TV1fHnDlz+P3vf+9EUmwBMWLECI4dO0ZhYSEbNmygqKiIAwcOsGfPHicyF4+EhATS0tK4/PLLGTduHP379+f888+P8qbE+qPiXQ/2dewWJ+7rWkZZJK0RKVokrY4zlVDbnKnk053GcZt67RtCdnY22dnZXHnllUDkBvPNN99QXFxMUVERJSUlzn/bsWmAcDjM/v372b9/f9RyTdPo1KkTvXr1onfv3uTk5JCRkUFWVhbp6elkZmaSlpZ21mM/efIkQghnfgyahSVMvJYf3RRghVDb+0j2t+eZh+Yw8pILOC+9C5alktIllY6JkfPiTW6PFwgTRk2KpDws0wQljMdjN+bzonkBLDp2SiQhrXPE+5GQGFk/GET3+2juRawyeNi/sH/3RHTTwiSMv0Nzk7/Ix1EVaamd6JSRhqIoJPo6YKelqg59xUNPv8EnV12LR9iG1si+2fLTNAw0zUeyZt+sI9EKIxwCBPV4UISO3woihBc7udS1a1dM06Smpob27dujKAo7duxg5syZfPHFF07ExR2x++CDD3j99dfPGEWBSBSmf//+TjRl3LhxDBgw4JQxE4FAIKo3kFuonM6YG+86Plt6USJpyUjRIml1fFdj73f9MLf9Hu7/wt3zWWxzbnp6uiNkAoEAR48epaKigpKSEr766iu2b9/O/v37qa2tpbq62vHWQCSKUllZSWVlJZs3b47ax06dOtGhQwdSU1Pp3LkzOTk5ZGdn0717d3r06EGnTp1ITEykc+fOjqfC/m4RwhTg0RMRRhiESXWdwpDcUfTsXsvP5j3Gh2+/ClaIgN5AI40IIfj4z8t56rkn8Zt+wpVeZv/bIiZdeQHCMHn91cW8+dY7WEJj3I9vZ8EjM/AYKuXFX3DzrDvZW7SDUfk3svCX93Ng16c8+/xrCC2FQ7tLueXWe/jPj9fx/LO/okMHi3mP3sfmDbvo2Bjgp/c/xA3TxxNSAxSt/4Rpq97j4L4dXD2lgIfn3skLv32ByvIS7pv9IG//4VnqKg8w6+e/5mRlPV06p/B/XnyO3lkZvPLsArbvqwBfR3ZtXc955/XmV795gcyOyYRMC78iUPQQpvCgKJFrICkpKcrjsmzZMu6++25OnDjhGGxjTd2xwhNw3qecnBxGjRrFkCFDyM7Oplu3bqeUzbsjZ4CTDoonNM50rX7f30kkLREpWiSS/wGxpke7fBai+8X4/X569epFr169uOiii5z1dV3nwIEDlJaWsnfvXg4ePMiePXsoKSlh//79p/TjsCyLY8eOcezYMecmuXLlyqh1OnToQEZGBr169XLEivNfvPBE/CfCQAgT0DDNBDzJXXjqt79iyMCxvP3+jdx0XT6goKpeTlYe4bYZd3P7z+Zy/WWX8PZvX+a+2fP4cckq/vzWmzz8q5dYsvhREtr7uWvWUwzqk0RqpxRWrj3IT2+9neuvGMtPb5nNsEvzuLJ7I6++/B433v8Q8392HaKxnr9s3IDCcRY8sZgVHxfxu6d+SW3pl8ydM58+fTrQrWtHPl+/jpee+TWh43nc9sATjBw9mqlTJvD6R9uYeeedtLPqmDT1JrR+Y/jlkw/x0SuLuWHi9Xy6aQM1R0pZ8upynvzdEiZf8SPuu2sWz7y4jN89dgeaqYNlRgzCorlKyufzIYSgpqaGJUuWsHDhQqeE3E7T2FE4d/owKyuL3NxcBg0aRL9+/Rg8eDB5eXlx/UqhUMhJ49nXkLtTsbviSIoNiSQ+UrRIJGchXuTGXZUUb36LLV7cQ+7sm17fvn3p27evs9w0TWprazlx4gSHDx9m3759juH3yJEjVFdXc+zYMaqqqk4ZmgeRqb72ZF+AgQMHoqpNCRNTi/QyUWuxdA3wIoRJTW2I7ucN56l/vZ35985k0jVf4fWmoegW/nYpbC/ZTWrH9pysPsTwUf15p+goJ+vrWLr0Le6ct5Abpt0INFK048eohs7bf3iG/MnTuXXyJKCBye+9wdZtu7i8az965VzA7PsfZEyfjmz/4mMS2yVxvLKMjz9cw5MvfsDVY7Lhqiu4bMpdtEusofJIFdPmvcS/TLwKyGHZe39m8/YD3HfN+SS370T+pRex8cOXOFJxkrdWv8DgRI3RfX5B9+ET+KJ4D0mayQX51/Lw3TcDcMfMTby3oxTLsvAoKkKAMOzUnwkoJCcnEw6HmTp1alQHZcMwHCFo92JxV1otWrSIKVNt2/7SAAASt0lEQVSmRL0f7jJk93vvTvfY10Ks2dotimR6RyI5FSlaJJKz4Db0um8g9k3FNj7Gu7nEtmV3R2PcQyBTUlJISUnhvPPOY/To0VHPqaqq4ttvv+Xw4cNUVlZSXl5ORUUFR48e5euvv6a8vJyamhqCwaBjBG7uFWdhmRaWooNQgRCWaqAqXkzT4La5j/L6u2t5/LH5+PwKiqHgSUjkD0ueZs2nGzC/3U354SpC3UahmIKTtUE6d00nGAxhhOpJbJdKIhbCUkn0NEYMqGYlmuFBEekEzAT8/hBpXjCMGhrVMCFvFxpOCggZdOnQPlK+a4TolNYRxQhjhv1oTRVUhCoRwkvYUAiGwuhBi3DjCSqO1XKssYH7CqaSWFVHglJDh87tqPvmMI26iaapNBgGPurwe30Isx5FCNRIrTSWooBorryx34u5c+dy/PhxVq5cyYYNG6itrXXSeLbfxBasuq6zYMECxo4dS2pqKsFgEJ/PF+V7ib1eYq+FMxnEY03XEolEihaJ5KycztD7fTv52tGY2Fbx7u27IyqpqamkpqaSm5t7yrZ0XSccDjs+ma1bt/LUU09RV19PSkpKpHmJUBBWCkLRsax6LFXH5/EiDIHqT+OlV1/khgkTqGn0cdV1D7L+wz/x68ef4y/btjE4pyPr/vvfmfHwf2CpjaT3TWPbjh34CsaCrzMzb7mHnL7nkdClEzUiYlYVpo6fJMzGEJqSAgnJ1HoMFEXFZyhoIQ8pKckkJvn46qv9XDboIkDj4vyrmHPbRNLSu0HAQFUULK8XNBW/qaNhoat+fCmdyOnTh/REP79/7UV6dUjFaDjB68tXMGxQP/Z9qqIR2RcVE2GZ+Lw+TMvCY4YwFQVT+FGa++tSU1ODqqpMmjSJpKQk7rnnHioqKvjss8/47LPPKCwsZNeuXc55t5vS7dq1i1mzZvHuu+9GDVp0Xx/xrp3vskwKFonkVKRokUjOwg9l6P2ur2WnH+zHdvmsaZpR3WTtdIKmaSQkJNC1a1fS0tJYtGgRelN0QFigCBMhwDS9aEIQajjBsWP7EJrCiUaDYcPHcP/Mqcxd+ArHwwHadeyIpoX4v398g/9WG/n0v/6Tsn0nOVJZx7x77+Un18/mzuOl+D3H+WDlFr74fD5/mf0alndo5Fyo7ThcY9CjsQHDqObYt+VYaAjhxQqHOVReQXJaDvfMvoMH5kzj6LZpbC3ZwrETCj++5kYee2QeOYGaSOM5xUd17bfUVteRlNoTqvfzwNwnefZfZ3DJmEHMuH4SU2+8hb+sXk3hrhJumXIDFSfq+faEhUcIQFDf2MCxqhOYQqCZ9Vj4CGtJ+CzTEQjHjx93HttpoMzMTAoKCigoKKCqqoo9e/awYcMGVqxYQUlJiTP+YcWKFTz33HPMnz//lDEOf+81IgWLRBKN+sQTTzzxz94JiURyKrE3PbtSyd191jYC25GZYDDIG2+8waRJk+jSpQuYYQQmuqKhC4EmVDyWIDOzG0NHDkVDIKwwg4fmkuhPYsCIEYwdfTG5fXqwZ/duhGJx/7wFdB+cR78e3RkyZAT5PxrMzt27wefniWcWccHAbEINDQy+YAx52b1AKOgejSGD+nFer65YialcfOGFtNM8qKpCUqdOXDB0ACNHDeX8Pl3YuaeMbhlZ/NvvXqBrl2TgJBeNyqdPRjq6YRESiQzNyyM7J4fsrO4cOniIC0aOoGBGASeOVXDwwGHSe/bmuZdeJDMtlYZgiP4D8hg5eGCke7/qI6tnd4YOyAEjDIoHQ2ioLuPrjh07WLduHXfffXdU1MuuGEpOTqZHjx5cfPHF3HbbbUyZMoUBAwaQnp5OIBBg6dKlDBs2jP79+zvjEOK9hxKJ5O9DDkyUSM4B4qWa3OW1NvHa97u9NYFAgDFjxvDSSy8xfPhwDD2EIiCkejAx8ZmKU+ZbZzWSpPvBDCJ8CnZPk3C4Ho8nKe5+moEwij+6VX1I1/E2pUaMsIWihBGqFzDRm/rZhgFFN1C1iOAyCGPpdWhaCnYD/jCgGw0kqJE+LwR0gpqCT7OHEIZQVVeXWMNEU5s9IUFANwySmkRdKNSIR/MiFLVpfQMFCxNA1RCmiaHreL1eli9fzuLFi1m3bp3TBj/2o9FtkHV7lU6cOEFxcTGHDx9m8uTJUa38pWiRSH5YZHpIIjkHiNfFN7bJ3ek6/LoFj9frpUOHDpSXlzN8+HAsoSAUFY8Fgoj51DRMDNMg0eMDDQQR82g4HIqkmzyJGLqOYZoIQNU0DDPiSVF8WlP0QQdLoGgaHlUlrOsgBJqmIvCg63aaBMK6gappKKqCZVrohh5ZT0tBN3RMM9J6X1U9aEoCejiEUFRUn4oXXBOUPRi6jmlZqKqGqgjCegjLtBBCQVNVvIqCbhhgWXi8fgSRYY5mU6mxZVmokZMGQhBuMkVXVlaSnJwc9X7ECkT7/XCn7YQQpKSkMGbMmLjvq/SkSCQ/LFK0SCTnAN+li+/ZDMF26/k+ffqwadMmrr322kh6RAiEaSLsKicVFNUTNfRQWKK5t4gVESoqzcMIPSLSIp+mKIPSVDps3/w9mtq0vch4RU3z2D+ieJSm/YhUM3maesdYFmiKBxTXrghQNS/2fV5goalqU18VUDQVleZhjh7V2/wp1rQRTVGcQY0WVkQAYTWXVMU5h3v37iU7OzuqX8qZ3iuIHv3gLnc/3fpSvEgkfz/K2VeRSCT/27g9EN/ny8ayLHJycti5c2fz8qY7vIXVdENuqlhq+jnye8u5WVvCap4AbVlNgsPCEsI1GdpeVzRvUwgsKzK00CLyXEvYv7O3JZqWNW2j6SvymKht49quvUxYdkSKU/bVcpYJZ9ui6bEQoml5c0TL3YOlqKgoqtT8f3Luba+Ru3fPmd4jiUTy/ZGiRSJp4bg9LUIIBg8ezPHjx2lsbHQamAEITnMzbaqycZZFWug6vxOi6bmRF2u6Advrum7w2JtybYPm5zc9cPbD3mrTM51t2dvGtd3mZTECj+j1ota3w0jOkmbs86WqKrW1tRw4cIDc3FyZzpFIznGkaJFIWjixfpdBgwZRX19PaWnpKemOeD1h2hKxDdssy+LgwYMkJSWRlZUloyISyTmOFC0SSQsndnxAWlpkQvLevXsdkSJvxNHY5wpg48aN9OjRg5SUlLgVWxKJ5NxBihaJpIUT69OwLItLL72UdevWOWLGbQaN10OkreE+H2vXriUvL885fxKJ5NxFihaJpIUTWy4thGDixIl88sknBIPBqO66bS09FC8tZv+sqipHjx5l586dTJ8+3VnWFs6LRNJSkaJFImnhuG+yqqpiGAYjRoyga9eurFixImo4Y1vDLejcUSf7nH300Ud07tw5yoTbFs+TRNJSkKJFImnhuG/GdorD5/MxatQo3n//faC5l0hbiyK4Dbduf49dabVs2TKmTZsWNeNJIpGcu0jRIpG0cGLTHna33JtvvpkdO3ZQXl7uRGDc4qW1C5jY1JDt97HFyb59+ygvL2f8+PHOc2Ib/EkkknMLKVokklaCLVgURSEUCpGTk8PIkSN57bXX4k4dbktpEDu6YgsYRVF4/vnnGT9+PBkZGQQCAafNf1s6LxJJS0OKFomkheNODYXD4ShBMm/ePN5//30OHToUZdSNlzaB1mXOdR+nPQnbappBVFpaypo1a5g7d67TGbc1HbtE0lqRokUiaeG4owP2zVfTNAKBAOeffz6jR4/m6aefjoo0xD7PpjVFGdyCxY60QOQYH3vsMa655hoyMjIcoSeRSM59hCX/vZBIWjSxnhb7ZzuCUFZWxiWXXMInn3xCv379ME3TETCx06Kh9QiX2I82e6Dk5s2bmTZtGoWFhaSmpqLrujP80C1sJBLJuYeMtEgkLZzYYYv28D6v14uu6/Tu3ZubbrqJefPmRaWETNN0zLl2NKK1/g8TCoWc45s/fz4zZswgLS0N0zTxeDzOHCIpViSScxspWiSSFk68eTr2clVVCYfDPP744xw9epSXX34ZTdNoaGg4JcrSWk2odsWQpmksWrSIUCjEww8/jGEYUZOZW/M5kEhaCzI9JJG0AmIFi+3lUBSFQCCA3++nsLCQyZMns2bNGvr160c4HHaiC6e7Ucd22z1XiT1+N6ZpoqoqX375JePHj+fTTz8lNzfXES1uWsrxSiRtFRlpkUhaAbEpInejOTuyMnLkSGbPnk1BQUGUULFTRO5ttbQZRfE630KzmGlsbGTKlCn8/Oc/Jzc3F13Xo/wrLe14JZK2ioy0SCStEPefta7rUZ1gx48fT1ZWFq+99hrBYBBN087at+Vcv5HHi7TY6R5VVZk2bRqGYfDOO+84xxzPjCyRSM5t5F+rRNIKcUcNNE3D6/U6jeeWLVvGli1b+MUvfoHP53MiLW5Trt3TpCWZc22Rouu6cwyqqjJ37ly+/vpr3nzzTWeZjKpIJC0T7Z+9AxKJ5IcnnjlXURRM06RDhw4sX76csWPHkpaWxuzZswkGgwBO1EXX9RbZIdad8vJ6vSxcuJAVK1bw5Zdf4vf7CYVCeDyef/JeSiSS74sULRJJKyReNRFE+pCEw2F69uzJihUruOyyy1BVlVmzZtHQ0ICmaRiGcUr5r3sb/2izajyT8emiQPbPXq+XRYsW8Zvf/IbCwkJSUlIIhUKOKLO9Pm11+rVE0lKRokUiaaXEpkDsG7qmaYTDYYYMGcI777zD9ddfT3V1NY888gjhcNipOnI3oXMbfN3b/N8mNmIUb5m9T3ZKy+Px8Nhjj/HKK6+watUq+vbtS319PX6/3zEcq6ra4qJIEolEGnElkjZD7J96KBTC5/OxdetWrrjiCm699VaeffZZTNMkHA47TdfiiYR/5M3+bJEWdzoLYNasWaxYsYK1a9fSr18/gsGg0zzO3p7bfCuFi0TScpCiRSJpI8RLqdit7UtKSpgwYQKDBg3ij3/8I0lJSTQ2NuLxeBzzqh15+UdGKdz76i7Lds9Rsv0r33zzDTNmzODAgQOsXr2ajIwMQqEQXq83arpz7LmQokUiaTnI6iGJpI0Qr5eJpmnouk7//v3ZsmULhmFw4YUXsmXLFhISEqIqiWyfyz/y/5zYEmb79e1okGmaeL1e1q5dy4gRI0hJSWHr1q2kpaU5pc2xERopWCSSlosULRJJG8F9s3YPVlRVFV3XnaqiG2+8kfz8fBYvXozX63W8ILZ4cW/P/h67zdjlp1svdlnsV+wAQ7d/xefzIYRgwYIFTJgwgTlz5rB06VK8Xq9jJjYM4xQTcey5kEgkLQeZHpJI2jDuP/9QKISqqmiaxurVq5kzZw7JycksXryY0aNHA5F0kh2lcftdTrfNWGFwuoqk063rFimGYSCEcEqWV61axYMPPoiiKLzxxhsMGzbMGYzofh33vspGchJJy0b+BUskkqj0j67rXH755RQXF3PllVcyceJECgoKKC4uRtO0qPXs57q/3OmneD/HWy9eZZK7WZyqqni9XjweD4WFhVx33XUUFBRQUFDAtm3bGDZsmFPG7BYtspGcRNK6kJEWiaQNc7rKHHevlrKyMhYuXMj69esZMmQIs2fPZsyYMXFnF9lRjdOlXtzCxW2mdUdsDMMAwOPxOMsCgQCbNm1i0aJF7N+/n3HjxvHoo4+SmZnpeFxiXze2VFuKFomk5SNFi0TSxontgWJj+1jsdMzu3btZsmQJf/rTn8jOzmbs2LHMnDmTvn37Rm1P13UnlRObQrInK9t+E/t1AKfE2s3OnTt55ZVXWL9+PV9//TV33HEHd911F71793Zeyx5PEHsssccnhYtE0vKRokUiacOcyZBqRzDsx7Z4qaioYOnSpaxcuZKdO3eSmZlJfn4+I0eOZNiwYXTv3v1778/evXspKirir3/9K6tWraKyspLc3FyuvfZapk+fTufOnQFoaGjA5/OdInLiHYsULBJJ60GKFolEEoX7I8FOE9kpI7tM2mbHjh1s2LCBNWvWUFxcTLt27fD7/fj9frp160bPnj3p2rUraWlppKen0759e2pqaigvL6eqqopvvvmGffv2ceTIESzLorGxkWAwyIABA8jPz2fUqFHk5uY6rxcMBp1qJ03TnFb80mArkbQNpGiRSCRRxCtbju1x4m4056asrIy//e1vlJSUcPDgQSoqKqirq0PXdQKBgNPMzu/34/F4SEpKIj09nd69e9OvXz8GDhxIz549o7bZ2NiIoiiOyTbWPyOrgiSStoMULRKJJIp4bfvdxlk3sSXQp0vBWJZFOBx2Ijduk228dd1pqVhhdLqW/hKJpPUjRYtEIjmFeObVWHEQTyzYDejcgwlPFwWxxZCddor9Otu+SSSStocULRKJJIp4kRY4c/O32GVnMvfGExxnep0zISMtEknbQooWiUQikUgkLYL/D0BxatUXt7jVAAAAAElFTkSuQmCC;" vertex="1" parent="Gkqs3kCMFWAFSAifoGdw-26">
          <mxGeometry y="20" width="382.25" height="350" as="geometry" />
        </mxCell>
        <mxCell id="Gkqs3kCMFWAFSAifoGdw-25" value="States" style="swimlane;whiteSpace=wrap;html=1;fillColor=#fad7ac;strokeColor=#b46504;" vertex="1" parent="Gkqs3kCMFWAFSAifoGdw-26">
          <mxGeometry width="381.13" height="370" as="geometry" />
        </mxCell>
        <mxCell id="Gkqs3kCMFWAFSAifoGdw-31" style="edgeStyle=orthogonalEdgeStyle;rounded=0;orthogonalLoop=1;jettySize=auto;html=1;exitX=0.5;exitY=0;exitDx=0;exitDy=0;entryX=0.5;entryY=1;entryDx=0;entryDy=0;" edge="1" parent="Gkqs3kCMFWAFSAifoGdw-7" source="Gkqs3kCMFWAFSAifoGdw-27" target="Gkqs3kCMFWAFSAifoGdw-12">
          <mxGeometry relative="1" as="geometry" />
        </mxCell>
        <mxCell id="Gkqs3kCMFWAFSAifoGdw-27" value="&lt;font style=&quot;font-size: 24px;&quot;&gt;APIs&lt;/font&gt;" style="rounded=1;whiteSpace=wrap;html=1;fillColor=#fad7ac;strokeColor=#b46504;" vertex="1" parent="Gkqs3kCMFWAFSAifoGdw-7">
          <mxGeometry x="139.43" y="660" width="220" height="110" as="geometry" />
        </mxCell>
        <mxCell id="Gkqs3kCMFWAFSAifoGdw-30" style="edgeStyle=orthogonalEdgeStyle;rounded=0;orthogonalLoop=1;jettySize=auto;html=1;exitX=0.5;exitY=1;exitDx=0;exitDy=0;entryX=0.5;entryY=0;entryDx=0;entryDy=0;" edge="1" parent="Gkqs3kCMFWAFSAifoGdw-7" source="Gkqs3kCMFWAFSAifoGdw-25" target="Gkqs3kCMFWAFSAifoGdw-27">
          <mxGeometry relative="1" as="geometry" />
        </mxCell>
        <mxCell id="Gkqs3kCMFWAFSAifoGdw-33" value="g" style="edgeStyle=orthogonalEdgeStyle;rounded=0;orthogonalLoop=1;jettySize=auto;html=1;exitX=0.5;exitY=0;exitDx=0;exitDy=0;entryX=0.5;entryY=1;entryDx=0;entryDy=0;" edge="1" parent="Gkqs3kCMFWAFSAifoGdw-7" source="Gkqs3kCMFWAFSAifoGdw-25" target="Gkqs3kCMFWAFSAifoGdw-24">
          <mxGeometry relative="1" as="geometry" />
        </mxCell>
        <mxCell id="Gkqs3kCMFWAFSAifoGdw-18" style="edgeStyle=orthogonalEdgeStyle;rounded=0;orthogonalLoop=1;jettySize=auto;html=1;exitX=0;exitY=0.5;exitDx=0;exitDy=0;entryX=1;entryY=0.5;entryDx=0;entryDy=0;" edge="1" parent="1" source="Gkqs3kCMFWAFSAifoGdw-17" target="Gkqs3kCMFWAFSAifoGdw-15">
          <mxGeometry relative="1" as="geometry" />
        </mxCell>
        <mxCell id="Gkqs3kCMFWAFSAifoGdw-23" style="edgeStyle=orthogonalEdgeStyle;rounded=0;orthogonalLoop=1;jettySize=auto;html=1;exitX=1;exitY=0.5;exitDx=0;exitDy=0;entryX=0;entryY=0.5;entryDx=0;entryDy=0;" edge="1" parent="1" source="Gkqs3kCMFWAFSAifoGdw-14" target="Gkqs3kCMFWAFSAifoGdw-16">
          <mxGeometry relative="1" as="geometry" />
        </mxCell>
        <mxCell id="Gkqs3kCMFWAFSAifoGdw-28" value="g" style="edgeStyle=orthogonalEdgeStyle;rounded=0;orthogonalLoop=1;jettySize=auto;html=1;exitX=1;exitY=0.5;exitDx=0;exitDy=0;entryX=0;entryY=0.5;entryDx=0;entryDy=0;" edge="1" parent="1" source="Gkqs3kCMFWAFSAifoGdw-16" target="Gkqs3kCMFWAFSAifoGdw-24">
          <mxGeometry relative="1" as="geometry">
            <Array as="points">
              <mxPoint x="1040" y="490" />
              <mxPoint x="1040" y="200" />
              <mxPoint x="1210" y="200" />
            </Array>
          </mxGeometry>
        </mxCell>
        <mxCell id="Gkqs3kCMFWAFSAifoGdw-29" style="edgeStyle=orthogonalEdgeStyle;rounded=0;orthogonalLoop=1;jettySize=auto;html=1;exitX=0;exitY=0.5;exitDx=0;exitDy=0;entryX=1;entryY=0.5;entryDx=0;entryDy=0;" edge="1" parent="1" source="Gkqs3kCMFWAFSAifoGdw-24" target="Gkqs3kCMFWAFSAifoGdw-16">
          <mxGeometry relative="1" as="geometry">
            <Array as="points">
              <mxPoint x="1210" y="200" />
              <mxPoint x="1040" y="200" />
              <mxPoint x="1040" y="490" />
            </Array>
          </mxGeometry>
        </mxCell>
        <mxCell id="Gkqs3kCMFWAFSAifoGdw-34" style="edgeStyle=orthogonalEdgeStyle;rounded=0;orthogonalLoop=1;jettySize=auto;html=1;exitX=1;exitY=0.5;exitDx=0;exitDy=0;entryX=0;entryY=0.5;entryDx=0;entryDy=0;" edge="1" parent="1" source="Gkqs3kCMFWAFSAifoGdw-17" target="Gkqs3kCMFWAFSAifoGdw-24">
          <mxGeometry relative="1" as="geometry">
            <Array as="points">
              <mxPoint x="1010" y="220" />
              <mxPoint x="1010" y="165" />
            </Array>
          </mxGeometry>
        </mxCell>
        <mxCell id="Gkqs3kCMFWAFSAifoGdw-35" value="g" style="edgeStyle=orthogonalEdgeStyle;rounded=0;orthogonalLoop=1;jettySize=auto;html=1;exitX=0;exitY=0.5;exitDx=0;exitDy=0;entryX=1;entryY=0.5;entryDx=0;entryDy=0;" edge="1" parent="1" source="Gkqs3kCMFWAFSAifoGdw-24" target="Gkqs3kCMFWAFSAifoGdw-17">
          <mxGeometry relative="1" as="geometry">
            <Array as="points">
              <mxPoint x="1010" y="165" />
              <mxPoint x="1010" y="220" />
            </Array>
          </mxGeometry>
        </mxCell>
      </root>
    </mxGraphModel>
  </diagram>
</mxfile>
